  0
SECTION
  2
HEADER
  9
$MEASUREMENT
  70
  1
  9
$INSUNITS
  70
  4
  0
ENDSEC
  0
SECTION
  2
TABLES
  0
TABLE
  2
LTYPE
 70
     1
  0
LTYPE
  2
CONTINUOUS
 70
    64
  3
Ausgezogene Linie
 72
    65
 73
     0
 40
0.0
  0
ENDTAB
  0
TABLE
  2
LAYER
 70
     3
  0
LAYER
  2
Contour
 70
    64
 62
     7
  6
CONTINUOUS
  0
LAYER
  2
Engraving
 70
    64
 62
     7
  6
CONTINUOUS
  0
LAYER
  2
Reference_points
 70
    64
 62
     1
  6
CONTINUOUS
  0
ENDTAB
  0
TABLE
  2
STYLE
 70
     1
  0
STYLE
  2
TXT
 70
    64
 40
0.0
 41
1.0
 50
0.0
 71
     0
 42
3.500000
  3
TXT
  0
ENDTAB
  0
ENDSEC
  0
SECTION
  2
BLOCKS
  0
ENDSEC
  0
SECTION
  2
ENTITIES
  0
LINE
  8
Contour
 62
   7
 39
0.100
  6
CONTINUOUS
 10
30.14000
 20
128.40000
 30
 0
 11
0.00000
 21
128.40000
  0
LINE
  8
Contour
 62
   7
 39
0.100
  6
CONTINUOUS
 10
0.00000
 20
128.40000
 30
 0
 11
0.00000
 21
128.40000
  0
LINE
  8
Contour
 62
   7
 39
0.100
  6
CONTINUOUS
 10
0.00000
 20
128.40000
 30
 0
 11
0.00000
 21
0.00000
  0
LINE
  8
Contour
 62
   7
 39
0.100
  6
CONTINUOUS
 10
0.00000
 20
0.00000
 30
 0
 11
0.00000
 21
0.00000
  0
LINE
  8
Contour
 62
   7
 39
0.100
  6
CONTINUOUS
 10
0.00000
 20
0.00000
 30
 0
 11
30.14000
 21
0.00000
  0
LINE
  8
Contour
 62
   7
 39
0.100
  6
CONTINUOUS
 10
30.14000
 20
0.00000
 30
 0
 11
30.14000
 21
0.00000
  0
LINE
  8
Contour
 62
   7
 39
0.100
  6
CONTINUOUS
 10
30.14000
 20
0.00000
 30
 0
 11
30.14000
 21
128.40000
  0
LINE
  8
Contour
 62
   7
 39
0.100
  6
CONTINUOUS
 10
30.14000
 20
128.40000
 30
 0
 11
30.14000
 21
128.40000
  0
LINE
  8
Engraving
 62
   7
 39
0.400
  6
CONTINUOUS
 10
1.71600
 20
89.56200
 30
 0
 11
2.28500
 21
90.13200
  0
LINE
  8
Engraving
 62
   7
 39
0.400
  6
CONTINUOUS
 10
2.28500
 20
90.13200
 30
 0
 11
2.28500
 21
87.56900
  0
LINE
  8
Engraving
 62
   7
 39
0.400
  6
CONTINUOUS
 10
1.31600
 20
75.90600
 30
 0
 11
1.48700
 21
76.04800
  0
ARC
  8
Engraving
 62
   7
 39
0.400
  6
CONTINUOUS
 10
1.94800
 20
75.51200
 30
 0
 40
0.70700
 50
319.30201
 51
130.69799
  0
LINE
  8
Engraving
 62
   7
 39
0.400
  6
CONTINUOUS
 10
2.48400
 20
75.05100
 30
 0
 11
1.28800
 21
73.59900
  0
LINE
  8
Engraving
 62
   7
 39
0.400
  6
CONTINUOUS
 10
1.28800
 20
73.59900
 30
 0
 11
2.71200
 21
73.59900
  0
ARC
  8
Engraving
 62
   7
 39
0.400
  6
CONTINUOUS
 10
2.01300
 20
61.52100
 30
 0
 40
0.74800
 50
450.45958
 51
157.03264
  0
ARC
  8
Engraving
 62
   7
 39
0.400
  6
CONTINUOUS
 10
2.00700
 20
61.60000
 30
 0
 40
0.66900
 50
270.00000
 51
90.00000
  0
ARC
  8
Engraving
 62
   7
 39
0.400
  6
CONTINUOUS
 10
2.00700
 20
60.26200
 30
 0
 40
0.66900
 50
270.00000
 51
90.00000
  0
ARC
  8
Engraving
 62
   7
 39
0.400
  6
CONTINUOUS
 10
2.01200
 20
60.38400
 30
 0
 40
0.79200
 50
209.73591
 51
-90.36171
  0
LINE
  8
Engraving
 62
   7
 39
0.400
  6
CONTINUOUS
 10
2.14200
 20
48.24200
 30
 0
 11
1.28800
 21
46.10600
  0
LINE
  8
Engraving
 62
   7
 39
0.400
  6
CONTINUOUS
 10
1.28800
 20
46.10600
 30
 0
 11
2.71200
 21
46.10600
  0
LINE
  8
Engraving
 62
   7
 39
0.400
  6
CONTINUOUS
 10
2.71200
 20
46.10600
 30
 0
 11
2.42700
 21
46.10600
  0
LINE
  8
Engraving
 62
   7
 39
0.400
  6
CONTINUOUS
 10
2.42700
 20
46.10600
 30
 0
 11
2.42700
 21
46.53300
  0
LINE
  8
Engraving
 62
   7
 39
0.400
  6
CONTINUOUS
 10
2.42700
 20
46.53300
 30
 0
 11
2.42700
 21
45.67900
  0
LINE
  8
Engraving
 62
   7
 39
0.600
  6
CONTINUOUS
 10
3.58900
 20
114.07000
 30
 0
 11
4.81900
 21
109.73100
  0
LINE
  8
Engraving
 62
   7
 39
0.600
  6
CONTINUOUS
 10
4.81900
 20
109.73100
 30
 0
 11
6.04900
 21
114.07000
  0
LINE
  8
Engraving
 62
   7
 39
0.600
  6
CONTINUOUS
 10
8.71400
 20
110.75600
 30
 0
 11
8.71400
 21
110.48300
  0
LINE
  8
Engraving
 62
   7
 39
0.600
  6
CONTINUOUS
 10
8.71400
 20
110.48300
 30
 0
 11
8.68000
 21
110.20900
  0
LINE
  8
Engraving
 62
   7
 39
0.600
  6
CONTINUOUS
 10
8.68000
 20
110.20900
 30
 0
 11
8.50900
 21
109.93600
  0
LINE
  8
Engraving
 62
   7
 39
0.600
  6
CONTINUOUS
 10
8.50900
 20
109.93600
 30
 0
 11
8.33800
 21
109.79900
  0
LINE
  8
Engraving
 62
   7
 39
0.600
  6
CONTINUOUS
 10
8.33800
 20
109.79900
 30
 0
 11
7.99600
 21
109.69700
  0
LINE
  8
Engraving
 62
   7
 39
0.600
  6
CONTINUOUS
 10
7.99600
 20
109.69700
 30
 0
 11
7.68900
 21
109.69700
  0
LINE
  8
Engraving
 62
   7
 39
0.600
  6
CONTINUOUS
 10
7.68900
 20
109.69700
 30
 0
 11
7.38200
 21
109.76500
  0
LINE
  8
Engraving
 62
   7
 39
0.600
  6
CONTINUOUS
 10
7.38200
 20
109.76500
 30
 0
 11
7.17700
 21
109.90200
  0
LINE
  8
Engraving
 62
   7
 39
0.600
  6
CONTINUOUS
 10
7.17700
 20
109.90200
 30
 0
 11
6.97200
 21
110.14100
  0
LINE
  8
Engraving
 62
   7
 39
0.600
  6
CONTINUOUS
 10
6.97200
 20
110.14100
 30
 0
 11
6.90300
 21
110.48300
  0
LINE
  8
Engraving
 62
   7
 39
0.600
  6
CONTINUOUS
 10
6.90300
 20
110.48300
 30
 0
 11
6.90300
 21
112.02000
  0
LINE
  8
Engraving
 62
   7
 39
0.600
  6
CONTINUOUS
 10
6.90300
 20
112.02000
 30
 0
 11
6.97200
 21
112.36200
  0
LINE
  8
Engraving
 62
   7
 39
0.600
  6
CONTINUOUS
 10
6.97200
 20
112.36200
 30
 0
 11
7.14200
 21
112.60100
  0
LINE
  8
Engraving
 62
   7
 39
0.600
  6
CONTINUOUS
 10
7.14200
 20
112.60100
 30
 0
 11
7.31300
 21
112.73800
  0
LINE
  8
Engraving
 62
   7
 39
0.600
  6
CONTINUOUS
 10
7.31300
 20
112.73800
 30
 0
 11
7.68900
 21
112.80600
  0
LINE
  8
Engraving
 62
   7
 39
0.600
  6
CONTINUOUS
 10
7.68900
 20
112.80600
 30
 0
 11
7.89400
 21
112.80600
  0
LINE
  8
Engraving
 62
   7
 39
0.600
  6
CONTINUOUS
 10
7.89400
 20
112.80600
 30
 0
 11
8.16700
 21
112.77200
  0
LINE
  8
Engraving
 62
   7
 39
0.600
  6
CONTINUOUS
 10
8.16700
 20
112.77200
 30
 0
 11
8.40600
 21
112.63500
  0
LINE
  8
Engraving
 62
   7
 39
0.600
  6
CONTINUOUS
 10
8.40600
 20
112.63500
 30
 0
 11
8.61100
 21
112.36200
  0
LINE
  8
Engraving
 62
   7
 39
0.600
  6
CONTINUOUS
 10
8.61100
 20
112.36200
 30
 0
 11
8.68000
 21
111.98600
  0
LINE
  8
Engraving
 62
   7
 39
0.600
  6
CONTINUOUS
 10
8.68000
 20
111.98600
 30
 0
 11
8.68000
 21
111.13200
  0
LINE
  8
Engraving
 62
   7
 39
0.600
  6
CONTINUOUS
 10
8.68000
 20
111.13200
 30
 0
 11
6.90300
 21
111.13200
  0
LINE
  8
Engraving
 62
   7
 39
0.600
  6
CONTINUOUS
 10
11.37900
 20
110.75600
 30
 0
 11
11.37900
 21
110.48300
  0
LINE
  8
Engraving
 62
   7
 39
0.600
  6
CONTINUOUS
 10
11.37900
 20
110.48300
 30
 0
 11
11.34500
 21
110.20900
  0
LINE
  8
Engraving
 62
   7
 39
0.600
  6
CONTINUOUS
 10
11.34500
 20
110.20900
 30
 0
 11
11.17400
 21
109.93600
  0
LINE
  8
Engraving
 62
   7
 39
0.600
  6
CONTINUOUS
 10
11.17400
 20
109.93600
 30
 0
 11
11.00300
 21
109.79900
  0
LINE
  8
Engraving
 62
   7
 39
0.600
  6
CONTINUOUS
 10
11.00300
 20
109.79900
 30
 0
 11
10.66100
 21
109.69700
  0
LINE
  8
Engraving
 62
   7
 39
0.600
  6
CONTINUOUS
 10
10.66100
 20
109.69700
 30
 0
 11
10.35400
 21
109.69700
  0
LINE
  8
Engraving
 62
   7
 39
0.600
  6
CONTINUOUS
 10
10.35400
 20
109.69700
 30
 0
 11
10.04600
 21
109.76500
  0
LINE
  8
Engraving
 62
   7
 39
0.600
  6
CONTINUOUS
 10
10.04600
 20
109.76500
 30
 0
 11
9.84100
 21
109.90200
  0
LINE
  8
Engraving
 62
   7
 39
0.600
  6
CONTINUOUS
 10
9.84100
 20
109.90200
 30
 0
 11
9.63600
 21
110.14100
  0
LINE
  8
Engraving
 62
   7
 39
0.600
  6
CONTINUOUS
 10
9.63600
 20
110.14100
 30
 0
 11
9.56800
 21
110.48300
  0
LINE
  8
Engraving
 62
   7
 39
0.600
  6
CONTINUOUS
 10
9.56800
 20
110.48300
 30
 0
 11
9.56800
 21
112.02000
  0
LINE
  8
Engraving
 62
   7
 39
0.600
  6
CONTINUOUS
 10
9.56800
 20
112.02000
 30
 0
 11
9.63600
 21
112.36200
  0
LINE
  8
Engraving
 62
   7
 39
0.600
  6
CONTINUOUS
 10
9.63600
 20
112.36200
 30
 0
 11
9.80700
 21
112.60100
  0
LINE
  8
Engraving
 62
   7
 39
0.600
  6
CONTINUOUS
 10
9.80700
 20
112.60100
 30
 0
 11
9.97800
 21
112.73800
  0
LINE
  8
Engraving
 62
   7
 39
0.600
  6
CONTINUOUS
 10
9.97800
 20
112.73800
 30
 0
 11
10.35400
 21
112.80600
  0
LINE
  8
Engraving
 62
   7
 39
0.600
  6
CONTINUOUS
 10
10.35400
 20
112.80600
 30
 0
 11
10.55900
 21
112.80600
  0
LINE
  8
Engraving
 62
   7
 39
0.600
  6
CONTINUOUS
 10
10.55900
 20
112.80600
 30
 0
 11
10.83200
 21
112.77200
  0
LINE
  8
Engraving
 62
   7
 39
0.600
  6
CONTINUOUS
 10
10.83200
 20
112.77200
 30
 0
 11
11.07100
 21
112.63500
  0
LINE
  8
Engraving
 62
   7
 39
0.600
  6
CONTINUOUS
 10
11.07100
 20
112.63500
 30
 0
 11
11.27600
 21
112.36200
  0
LINE
  8
Engraving
 62
   7
 39
0.600
  6
CONTINUOUS
 10
11.27600
 20
112.36200
 30
 0
 11
11.34500
 21
111.98600
  0
LINE
  8
Engraving
 62
   7
 39
0.600
  6
CONTINUOUS
 10
11.34500
 20
111.98600
 30
 0
 11
11.34500
 21
111.13200
  0
LINE
  8
Engraving
 62
   7
 39
0.600
  6
CONTINUOUS
 10
11.34500
 20
111.13200
 30
 0
 11
9.56800
 21
111.13200
  0
LINE
  8
Engraving
 62
   7
 39
0.600
  6
CONTINUOUS
 10
12.26700
 20
111.09800
 30
 0
 11
12.26700
 21
110.51700
  0
LINE
  8
Engraving
 62
   7
 39
0.600
  6
CONTINUOUS
 10
12.26700
 20
110.51700
 30
 0
 11
12.33500
 21
110.20900
  0
LINE
  8
Engraving
 62
   7
 39
0.600
  6
CONTINUOUS
 10
12.33500
 20
110.20900
 30
 0
 11
12.50600
 21
109.93600
  0
LINE
  8
Engraving
 62
   7
 39
0.600
  6
CONTINUOUS
 10
12.50600
 20
109.93600
 30
 0
 11
12.74500
 21
109.76500
  0
LINE
  8
Engraving
 62
   7
 39
0.600
  6
CONTINUOUS
 10
12.74500
 20
109.76500
 30
 0
 11
13.08700
 21
109.69700
  0
LINE
  8
Engraving
 62
   7
 39
0.600
  6
CONTINUOUS
 10
13.08700
 20
109.69700
 30
 0
 11
13.49700
 21
109.69700
  0
LINE
  8
Engraving
 62
   7
 39
0.600
  6
CONTINUOUS
 10
13.49700
 20
109.69700
 30
 0
 11
13.73600
 21
109.73100
  0
LINE
  8
Engraving
 62
   7
 39
0.600
  6
CONTINUOUS
 10
13.73600
 20
109.73100
 30
 0
 11
14.04400
 21
109.90200
  0
LINE
  8
Engraving
 62
   7
 39
0.600
  6
CONTINUOUS
 10
14.04400
 20
109.90200
 30
 0
 11
14.24900
 21
110.17500
  0
LINE
  8
Engraving
 62
   7
 39
0.600
  6
CONTINUOUS
 10
14.24900
 20
110.17500
 30
 0
 11
14.31700
 21
110.51700
  0
LINE
  8
Engraving
 62
   7
 39
0.600
  6
CONTINUOUS
 10
14.31700
 20
110.51700
 30
 0
 11
14.31700
 21
110.75600
  0
LINE
  8
Engraving
 62
   7
 39
0.600
  6
CONTINUOUS
 10
14.31700
 20
110.75600
 30
 0
 11
14.24900
 21
110.99500
  0
LINE
  8
Engraving
 62
   7
 39
0.600
  6
CONTINUOUS
 10
14.24900
 20
110.99500
 30
 0
 11
14.11200
 21
111.26800
  0
LINE
  8
Engraving
 62
   7
 39
0.600
  6
CONTINUOUS
 10
14.11200
 20
111.26800
 30
 0
 11
13.97500
 21
111.40500
  0
LINE
  8
Engraving
 62
   7
 39
0.600
  6
CONTINUOUS
 10
13.97500
 20
111.40500
 30
 0
 11
13.77000
 21
111.57600
  0
LINE
  8
Engraving
 62
   7
 39
0.600
  6
CONTINUOUS
 10
13.77000
 20
111.57600
 30
 0
 11
12.78000
 21
112.46400
  0
LINE
  8
Engraving
 62
   7
 39
0.600
  6
CONTINUOUS
 10
12.78000
 20
112.46400
 30
 0
 11
12.60900
 21
112.60100
  0
LINE
  8
Engraving
 62
   7
 39
0.600
  6
CONTINUOUS
 10
12.60900
 20
112.60100
 30
 0
 11
12.43800
 21
112.80600
  0
LINE
  8
Engraving
 62
   7
 39
0.600
  6
CONTINUOUS
 10
12.43800
 20
112.80600
 30
 0
 11
12.37000
 21
112.90800
  0
LINE
  8
Engraving
 62
   7
 39
0.600
  6
CONTINUOUS
 10
12.37000
 20
112.90800
 30
 0
 11
12.33500
 21
113.07900
  0
LINE
  8
Engraving
 62
   7
 39
0.600
  6
CONTINUOUS
 10
12.33500
 20
113.07900
 30
 0
 11
12.33500
 21
113.38700
  0
LINE
  8
Engraving
 62
   7
 39
0.600
  6
CONTINUOUS
 10
12.33500
 20
113.38700
 30
 0
 11
12.43800
 21
113.69400
  0
LINE
  8
Engraving
 62
   7
 39
0.600
  6
CONTINUOUS
 10
12.43800
 20
113.69400
 30
 0
 11
12.57500
 21
113.89900
  0
LINE
  8
Engraving
 62
   7
 39
0.600
  6
CONTINUOUS
 10
12.57500
 20
113.89900
 30
 0
 11
12.78000
 21
114.03600
  0
LINE
  8
Engraving
 62
   7
 39
0.600
  6
CONTINUOUS
 10
12.78000
 20
114.03600
 30
 0
 11
13.12100
 21
114.10400
  0
LINE
  8
Engraving
 62
   7
 39
0.600
  6
CONTINUOUS
 10
13.12100
 20
114.10400
 30
 0
 11
13.46300
 21
114.10400
  0
LINE
  8
Engraving
 62
   7
 39
0.600
  6
CONTINUOUS
 10
13.46300
 20
114.10400
 30
 0
 11
13.66800
 21
114.07000
  0
LINE
  8
Engraving
 62
   7
 39
0.600
  6
CONTINUOUS
 10
13.66800
 20
114.07000
 30
 0
 11
13.90700
 21
113.96800
  0
LINE
  8
Engraving
 62
   7
 39
0.600
  6
CONTINUOUS
 10
13.90700
 20
113.96800
 30
 0
 11
14.07800
 21
113.79700
  0
LINE
  8
Engraving
 62
   7
 39
0.600
  6
CONTINUOUS
 10
14.07800
 20
113.79700
 30
 0
 11
14.21500
 21
113.55800
  0
LINE
  8
Engraving
 62
   7
 39
0.600
  6
CONTINUOUS
 10
14.21500
 20
113.55800
 30
 0
 11
14.24900
 21
113.31800
  0
LINE
  8
Engraving
 62
   7
 39
0.600
  6
CONTINUOUS
 10
14.24900
 20
113.31800
 30
 0
 11
14.24900
 21
113.01100
  0
LINE
  8
Engraving
 62
   7
 39
0.600
  6
CONTINUOUS
 10
15.20500
 20
109.73100
 30
 0
 11
16.43500
 21
114.07000
  0
LINE
  8
Engraving
 62
   7
 39
0.600
  6
CONTINUOUS
 10
16.43500
 20
114.07000
 30
 0
 11
16.57200
 21
114.07000
  0
LINE
  8
Engraving
 62
   7
 39
0.600
  6
CONTINUOUS
 10
16.57200
 20
114.07000
 30
 0
 11
17.80200
 21
109.73100
  0
LINE
  8
Engraving
 62
   7
 39
0.600
  6
CONTINUOUS
 10
15.58100
 20
111.06300
 30
 0
 11
17.42600
 21
111.06300
  0
LINE
  8
Engraving
 62
   7
 39
0.600
  6
CONTINUOUS
 10
18.69000
 20
114.07000
 30
 0
 11
18.69000
 21
110.55100
  0
LINE
  8
Engraving
 62
   7
 39
0.600
  6
CONTINUOUS
 10
18.69000
 20
110.55100
 30
 0
 11
18.79300
 21
110.14100
  0
LINE
  8
Engraving
 62
   7
 39
0.600
  6
CONTINUOUS
 10
18.79300
 20
110.14100
 30
 0
 11
18.92900
 21
109.93600
  0
LINE
  8
Engraving
 62
   7
 39
0.600
  6
CONTINUOUS
 10
18.92900
 20
109.93600
 30
 0
 11
19.20300
 21
109.76500
  0
LINE
  8
Engraving
 62
   7
 39
0.600
  6
CONTINUOUS
 10
19.20300
 20
109.76500
 30
 0
 11
19.54400
 21
109.69700
  0
LINE
  8
Engraving
 62
   7
 39
0.600
  6
CONTINUOUS
 10
19.54400
 20
109.69700
 30
 0
 11
19.98900
 21
109.69700
  0
LINE
  8
Engraving
 62
   7
 39
0.600
  6
CONTINUOUS
 10
19.98900
 20
109.69700
 30
 0
 11
20.26200
 21
109.73100
  0
LINE
  8
Engraving
 62
   7
 39
0.600
  6
CONTINUOUS
 10
20.26200
 20
109.73100
 30
 0
 11
20.56900
 21
109.90200
  0
LINE
  8
Engraving
 62
   7
 39
0.600
  6
CONTINUOUS
 10
20.56900
 20
109.90200
 30
 0
 11
20.80800
 21
110.20900
  0
LINE
  8
Engraving
 62
   7
 39
0.600
  6
CONTINUOUS
 10
20.80800
 20
110.20900
 30
 0
 11
20.87700
 21
110.55100
  0
LINE
  8
Engraving
 62
   7
 39
0.600
  6
CONTINUOUS
 10
20.87700
 20
110.55100
 30
 0
 11
20.87700
 21
114.07000
  0
LINE
  8
Engraving
 62
   7
 39
0.600
  6
CONTINUOUS
 10
23.71300
 20
112.80600
 30
 0
 11
23.71300
 21
113.31800
  0
LINE
  8
Engraving
 62
   7
 39
0.600
  6
CONTINUOUS
 10
23.71300
 20
113.31800
 30
 0
 11
23.67800
 21
113.55800
  0
LINE
  8
Engraving
 62
   7
 39
0.600
  6
CONTINUOUS
 10
23.67800
 20
113.55800
 30
 0
 11
23.57600
 21
113.79700
  0
LINE
  8
Engraving
 62
   7
 39
0.600
  6
CONTINUOUS
 10
23.57600
 20
113.79700
 30
 0
 11
23.40500
 21
113.93300
  0
LINE
  8
Engraving
 62
   7
 39
0.600
  6
CONTINUOUS
 10
23.40500
 20
113.93300
 30
 0
 11
23.23400
 21
114.03600
  0
LINE
  8
Engraving
 62
   7
 39
0.600
  6
CONTINUOUS
 10
23.23400
 20
114.03600
 30
 0
 11
23.02900
 21
114.10400
  0
LINE
  8
Engraving
 62
   7
 39
0.600
  6
CONTINUOUS
 10
23.02900
 20
114.10400
 30
 0
 11
22.55100
 21
114.10400
  0
LINE
  8
Engraving
 62
   7
 39
0.600
  6
CONTINUOUS
 10
22.55100
 20
114.10400
 30
 0
 11
22.24300
 21
114.07000
  0
LINE
  8
Engraving
 62
   7
 39
0.600
  6
CONTINUOUS
 10
22.24300
 20
114.07000
 30
 0
 11
22.00400
 21
113.89900
  0
LINE
  8
Engraving
 62
   7
 39
0.600
  6
CONTINUOUS
 10
22.00400
 20
113.89900
 30
 0
 11
21.86800
 21
113.69400
  0
LINE
  8
Engraving
 62
   7
 39
0.600
  6
CONTINUOUS
 10
21.86800
 20
113.69400
 30
 0
 11
21.76500
 21
113.42100
  0
LINE
  8
Engraving
 62
   7
 39
0.600
  6
CONTINUOUS
 10
21.76500
 20
113.42100
 30
 0
 11
21.76500
 21
110.51700
  0
LINE
  8
Engraving
 62
   7
 39
0.600
  6
CONTINUOUS
 10
21.76500
 20
110.51700
 30
 0
 11
21.83300
 21
110.20900
  0
LINE
  8
Engraving
 62
   7
 39
0.600
  6
CONTINUOUS
 10
21.83300
 20
110.20900
 30
 0
 11
21.93600
 21
110.00400
  0
LINE
  8
Engraving
 62
   7
 39
0.600
  6
CONTINUOUS
 10
21.93600
 20
110.00400
 30
 0
 11
22.14100
 21
109.83300
  0
LINE
  8
Engraving
 62
   7
 39
0.600
  6
CONTINUOUS
 10
22.14100
 20
109.83300
 30
 0
 11
22.31200
 21
109.73100
  0
LINE
  8
Engraving
 62
   7
 39
0.600
  6
CONTINUOUS
 10
22.31200
 20
109.73100
 30
 0
 11
22.58500
 21
109.69700
  0
LINE
  8
Engraving
 62
   7
 39
0.600
  6
CONTINUOUS
 10
22.58500
 20
109.69700
 30
 0
 11
22.92700
 21
109.69700
  0
LINE
  8
Engraving
 62
   7
 39
0.600
  6
CONTINUOUS
 10
22.92700
 20
109.69700
 30
 0
 11
23.16600
 21
109.73100
  0
LINE
  8
Engraving
 62
   7
 39
0.600
  6
CONTINUOUS
 10
23.16600
 20
109.73100
 30
 0
 11
23.43900
 21
109.86800
  0
LINE
  8
Engraving
 62
   7
 39
0.600
  6
CONTINUOUS
 10
23.43900
 20
109.86800
 30
 0
 11
23.61000
 21
110.03800
  0
LINE
  8
Engraving
 62
   7
 39
0.600
  6
CONTINUOUS
 10
23.61000
 20
110.03800
 30
 0
 11
23.74700
 21
110.31200
  0
LINE
  8
Engraving
 62
   7
 39
0.600
  6
CONTINUOUS
 10
23.74700
 20
110.31200
 30
 0
 11
23.74700
 21
110.51700
  0
LINE
  8
Engraving
 62
   7
 39
0.600
  6
CONTINUOUS
 10
23.74700
 20
110.51700
 30
 0
 11
23.74700
 21
110.92700
  0
LINE
  8
Engraving
 62
   7
 39
0.600
  6
CONTINUOUS
 10
26.37700
 20
114.07000
 30
 0
 11
24.60100
 21
114.07000
  0
LINE
  8
Engraving
 62
   7
 39
0.600
  6
CONTINUOUS
 10
24.60100
 20
114.07000
 30
 0
 11
24.60100
 21
109.73100
  0
LINE
  8
Engraving
 62
   7
 39
0.600
  6
CONTINUOUS
 10
24.60100
 20
109.73100
 30
 0
 11
26.41200
 21
109.73100
  0
LINE
  8
Engraving
 62
   7
 39
0.600
  6
CONTINUOUS
 10
26.30900
 20
111.95200
 30
 0
 11
24.60100
 21
111.95200
  0
CIRCLE
  8
Contour
 62
   7
 39
0.100
  6
CONTINUOUS
 10
7.50000
 20
125.50000
 30
 0
 40
1.50000
  0
CIRCLE
  8
Contour
 62
   7
 39
0.100
  6
CONTINUOUS
 10
7.50000
 20
3.00000
 30
 0
 40
1.50000
  0
CIRCLE
  8
Contour
 62
   7
 39
0.100
  6
CONTINUOUS
 10
9.05500
 20
88.85000
 30
 0
 40
3.75000
  0
CIRCLE
  8
Contour
 62
   7
 39
0.100
  6
CONTINUOUS
 10
9.05500
 20
74.88000
 30
 0
 40
3.75000
  0
CIRCLE
  8
Contour
 62
   7
 39
0.100
  6
CONTINUOUS
 10
9.05500
 20
60.93000
 30
 0
 40
3.75000
  0
CIRCLE
  8
Contour
 62
   7
 39
0.100
  6
CONTINUOUS
 10
9.05500
 20
46.96000
 30
 0
 40
3.75000
  0
CIRCLE
  8
Contour
 62
   7
 39
0.100
  6
CONTINUOUS
 10
22.39500
 20
88.85000
 30
 0
 40
3.00000
  0
CIRCLE
  8
Contour
 62
   7
 39
0.100
  6
CONTINUOUS
 10
22.39500
 20
74.88000
 30
 0
 40
3.00000
  0
CIRCLE
  8
Contour
 62
   7
 39
0.100
  6
CONTINUOUS
 10
22.39500
 20
60.93000
 30
 0
 40
3.00000
  0
CIRCLE
  8
Contour
 62
   7
 39
0.100
  6
CONTINUOUS
 10
22.39500
 20
46.96000
 30
 0
 40
3.00000
  0
ENDSEC
  0
EOF
