  0
SECTION
  2
HEADER
  9
$MEASUREMENT
  70
  1
  9
$INSUNITS
  70
  4
  0
ENDSEC
  0
SECTION
  2
TABLES
  0
TABLE
  2
LTYPE
 70
     1
  0
LTYPE
  2
CONTINUOUS
 70
    64
  3
Ausgezogene Linie
 72
    65
 73
     0
 40
0.0
  0
ENDTAB
  0
TABLE
  2
LAYER
 70
     3
  0
LAYER
  2
Contour
 70
    64
 62
     7
  6
CONTINUOUS
  0
LAYER
  2
Engraving
 70
    64
 62
     7
  6
CONTINUOUS
  0
LAYER
  2
Reference_points
 70
    64
 62
     1
  6
CONTINUOUS
  0
ENDTAB
  0
TABLE
  2
STYLE
 70
     1
  0
STYLE
  2
TXT
 70
    64
 40
0.0
 41
1.0
 50
0.0
 71
     0
 42
3.500000
  3
TXT
  0
ENDTAB
  0
ENDSEC
  0
SECTION
  2
BLOCKS
  0
ENDSEC
  0
SECTION
  2
ENTITIES
  0
LINE
  8
Contour
 62
   7
 39
0.100
  6
CONTINUOUS
 10
19.98000
 20
128.40000
 30
 0
 11
0.00000
 21
128.40000
  0
LINE
  8
Contour
 62
   7
 39
0.100
  6
CONTINUOUS
 10
0.00000
 20
128.40000
 30
 0
 11
0.00000
 21
128.40000
  0
LINE
  8
Contour
 62
   7
 39
0.100
  6
CONTINUOUS
 10
0.00000
 20
128.40000
 30
 0
 11
0.00000
 21
0.00000
  0
LINE
  8
Contour
 62
   7
 39
0.100
  6
CONTINUOUS
 10
0.00000
 20
0.00000
 30
 0
 11
0.00000
 21
0.00000
  0
LINE
  8
Contour
 62
   7
 39
0.100
  6
CONTINUOUS
 10
0.00000
 20
0.00000
 30
 0
 11
19.98000
 21
0.00000
  0
LINE
  8
Contour
 62
   7
 39
0.100
  6
CONTINUOUS
 10
19.98000
 20
0.00000
 30
 0
 11
19.98000
 21
0.00000
  0
LINE
  8
Contour
 62
   7
 39
0.100
  6
CONTINUOUS
 10
19.98000
 20
0.00000
 30
 0
 11
19.98000
 21
128.40000
  0
LINE
  8
Contour
 62
   7
 39
0.100
  6
CONTINUOUS
 10
19.98000
 20
128.40000
 30
 0
 11
19.98000
 21
128.40000
  0
ARC
  8
Engraving
 62
   7
 39
0.600
  6
CONTINUOUS
 10
4.72700
 20
117.75200
 30
 0
 40
1.42100
 50
38.68500
 51
141.31500
  0
ARC
  8
Engraving
 62
   7
 39
0.600
  6
CONTINUOUS
 10
5.67100
 20
116.97700
 30
 0
 40
2.64200
 50
140.99135
 51
219.02550
  0
ARC
  8
Engraving
 62
   7
 39
0.600
  6
CONTINUOUS
 10
4.72700
 20
116.20100
 30
 0
 40
1.42100
 50
-141.31500
 51
-38.68500
  0
ARC
  8
Engraving
 62
   7
 39
0.600
  6
CONTINUOUS
 10
4.94300
 20
116.03600
 30
 0
 40
1.14900
 50
-38.99469
 51
38.99469
  0
ARC
  8
Engraving
 62
   7
 39
0.600
  6
CONTINUOUS
 10
4.65500
 20
115.81300
 30
 0
 40
1.51300
 50
38.69529
 51
141.30471
  0
ARC
  8
Engraving
 62
   7
 39
0.600
  6
CONTINUOUS
 10
4.55400
 20
115.88100
 30
 0
 40
1.39200
 50
140.89017
 51
169.56998
  0
ARC
  8
Engraving
 62
   7
 39
0.600
  6
CONTINUOUS
 10
8.99900
 20
118.07100
 30
 0
 40
1.39200
 50
320.89017
 51
-10.38953
  0
ARC
  8
Engraving
 62
   7
 39
0.600
  6
CONTINUOUS
 10
8.89800
 20
118.13800
 30
 0
 40
1.51300
 50
218.64207
 51
-38.66572
  0
ARC
  8
Engraving
 62
   7
 39
0.600
  6
CONTINUOUS
 10
8.60900
 20
117.91700
 30
 0
 40
1.15000
 50
141.00531
 51
-140.96658
  0
ARC
  8
Engraving
 62
   7
 39
0.600
  6
CONTINUOUS
 10
8.82500
 20
117.75200
 30
 0
 40
1.42100
 50
398.68500
 51
141.31500
  0
ARC
  8
Engraving
 62
   7
 39
0.600
  6
CONTINUOUS
 10
7.88100
 20
116.97700
 30
 0
 40
2.64200
 50
320.97450
 51
39.00865
  0
ARC
  8
Engraving
 62
   7
 39
0.600
  6
CONTINUOUS
 10
8.82500
 20
116.20100
 30
 0
 40
1.42100
 50
218.68500
 51
-38.68500
  0
LINE
  8
Engraving
 62
   7
 39
0.600
  6
CONTINUOUS
 10
11.95900
 20
116.47000
 30
 0
 11
14.27300
 21
116.47000
  0
ARC
  8
Engraving
 62
   7
 39
0.600
  6
CONTINUOUS
 10
12.84300
 20
116.52300
 30
 0
 40
1.43100
 50
-2.12258
 51
30.16708
  0
ARC
  8
Engraving
 62
   7
 39
0.600
  6
CONTINUOUS
 10
13.16300
 20
116.71300
 30
 0
 40
1.05900
 50
29.97984
 51
89.94590
  0
ARC
  8
Engraving
 62
   7
 39
0.600
  6
CONTINUOUS
 10
13.16700
 20
116.63700
 30
 0
 40
1.13500
 50
90.15144
 51
153.41237
  0
ARC
  8
Engraving
 62
   7
 39
0.600
  6
CONTINUOUS
 10
13.88600
 20
116.27800
 30
 0
 40
1.93900
 50
153.43495
 51
206.59148
  0
ARC
  8
Engraving
 62
   7
 39
0.600
  6
CONTINUOUS
 10
13.16700
 20
115.91800
 30
 0
 40
1.13500
 50
-153.41237
 51
-90.15144
  0
ARC
  8
Engraving
 62
   7
 39
0.600
  6
CONTINUOUS
 10
13.16000
 20
116.02300
 30
 0
 40
1.24000
 50
-89.81518
 51
-34.92012
  0
LINE
  8
Engraving
 62
   7
 39
0.600
  6
CONTINUOUS
 10
15.71900
 20
117.86800
 30
 0
 11
15.71900
 21
114.83100
  0
LINE
  8
Engraving
 62
   7
 39
0.600
  6
CONTINUOUS
 10
15.71900
 20
114.83100
 30
 0
 11
15.71900
 21
116.80800
  0
ARC
  8
Engraving
 62
   7
 39
0.600
  6
CONTINUOUS
 10
16.96400
 20
116.60700
 30
 0
 40
1.26100
 50
449.59108
 51
170.82897
  0
ARC
  8
Engraving
 62
   7
 39
0.400
  6
CONTINUOUS
 10
17.53000
 20
92.83700
 30
 0
 40
1.55800
 50
120.86282
 51
129.89506
  0
ARC
  8
Engraving
 62
   7
 39
0.400
  6
CONTINUOUS
 10
17.05500
 20
93.37700
 30
 0
 40
0.83900
 50
128.65981
 51
231.34019
  0
ARC
  8
Engraving
 62
   7
 39
0.400
  6
CONTINUOUS
 10
17.51300
 20
93.93400
 30
 0
 40
1.56000
 50
-129.01546
 51
-50.95601
  0
ARC
  8
Engraving
 62
   7
 39
0.400
  6
CONTINUOUS
 10
17.97200
 20
93.37700
 30
 0
 40
0.83900
 50
-51.34019
 51
51.34019
  0
ARC
  8
Engraving
 62
   7
 39
0.400
  6
CONTINUOUS
 10
17.58100
 20
92.83000
 30
 0
 40
1.51100
 50
52.72047
 51
65.35201
  0
LINE
  8
Engraving
 62
   7
 39
0.400
  6
CONTINUOUS
 10
16.21800
 20
95.05700
 30
 0
 11
17.92700
 21
95.05700
  0
ARC
  8
Engraving
 62
   7
 39
0.400
  6
CONTINUOUS
 10
17.92700
 20
95.91100
 30
 0
 40
0.85400
 50
-90.00000
 51
90.00000
  0
LINE
  8
Engraving
 62
   7
 39
0.400
  6
CONTINUOUS
 10
17.92700
 20
96.76600
 30
 0
 11
16.21800
 21
96.76600
  0
LINE
  8
Engraving
 62
   7
 39
0.400
  6
CONTINUOUS
 10
16.21800
 20
97.62000
 30
 0
 11
16.21800
 21
99.61400
  0
LINE
  8
Engraving
 62
   7
 39
0.400
  6
CONTINUOUS
 10
16.21800
 20
99.61400
 30
 0
 11
16.21800
 21
98.61700
  0
LINE
  8
Engraving
 62
   7
 39
0.400
  6
CONTINUOUS
 10
16.21800
 20
98.61700
 30
 0
 11
18.78100
 21
98.61700
  0
LINE
  8
Engraving
 62
   7
 39
0.400
  6
CONTINUOUS
 10
16.21800
 20
100.46800
 30
 0
 11
18.78100
 21
100.46800
  0
ARC
  8
Engraving
 62
   7
 39
0.400
  6
CONTINUOUS
 10
17.53000
 20
76.74200
 30
 0
 40
1.55800
 50
120.86282
 51
129.89506
  0
ARC
  8
Engraving
 62
   7
 39
0.400
  6
CONTINUOUS
 10
17.05500
 20
77.28200
 30
 0
 40
0.83900
 50
128.65981
 51
231.34019
  0
ARC
  8
Engraving
 62
   7
 39
0.400
  6
CONTINUOUS
 10
17.51300
 20
77.83900
 30
 0
 40
1.56000
 50
-129.01546
 51
-50.95601
  0
ARC
  8
Engraving
 62
   7
 39
0.400
  6
CONTINUOUS
 10
17.97200
 20
77.28200
 30
 0
 40
0.83900
 50
-51.34019
 51
51.34019
  0
ARC
  8
Engraving
 62
   7
 39
0.400
  6
CONTINUOUS
 10
17.58100
 20
76.73500
 30
 0
 40
1.51100
 50
52.72047
 51
65.35201
  0
LINE
  8
Engraving
 62
   7
 39
0.400
  6
CONTINUOUS
 10
16.21800
 20
78.96200
 30
 0
 11
17.92700
 21
78.96200
  0
ARC
  8
Engraving
 62
   7
 39
0.400
  6
CONTINUOUS
 10
17.92700
 20
79.81600
 30
 0
 40
0.85400
 50
-90.00000
 51
90.00000
  0
LINE
  8
Engraving
 62
   7
 39
0.400
  6
CONTINUOUS
 10
17.92700
 20
80.67100
 30
 0
 11
16.21800
 21
80.67100
  0
LINE
  8
Engraving
 62
   7
 39
0.400
  6
CONTINUOUS
 10
16.21800
 20
81.52500
 30
 0
 11
16.21800
 21
83.51900
  0
LINE
  8
Engraving
 62
   7
 39
0.400
  6
CONTINUOUS
 10
16.21800
 20
83.51900
 30
 0
 11
16.21800
 21
82.52200
  0
LINE
  8
Engraving
 62
   7
 39
0.400
  6
CONTINUOUS
 10
16.21800
 20
82.52200
 30
 0
 11
18.78100
 21
82.52200
  0
ARC
  8
Engraving
 62
   7
 39
0.400
  6
CONTINUOUS
 10
16.87000
 20
85.08700
 30
 0
 40
0.61000
 50
208.07801
 51
-100.48122
  0
ARC
  8
Engraving
 62
   7
 39
0.400
  6
CONTINUOUS
 10
17.23200
 20
85.28400
 30
 0
 40
1.02200
 50
151.72962
 51
-151.72962
  0
ARC
  8
Engraving
 62
   7
 39
0.400
  6
CONTINUOUS
 10
16.87300
 20
85.45300
 30
 0
 40
0.62600
 50
390.21032
 51
149.78968
  0
LINE
  8
Engraving
 62
   7
 39
0.400
  6
CONTINUOUS
 10
17.41400
 20
85.76800
 30
 0
 11
18.01200
 21
84.80000
  0
ARC
  8
Engraving
 62
   7
 39
0.400
  6
CONTINUOUS
 10
18.77900
 20
85.27600
 30
 0
 40
0.90300
 50
-148.17627
 51
-89.87310
  0
LINE
  8
Engraving
 62
   7
 39
0.400
  6
CONTINUOUS
 10
18.78100
 20
84.37300
 30
 0
 11
18.78100
 21
86.08200
  0
LINE
  8
Engraving
 62
   7
 39
0.400
  6
CONTINUOUS
 10
16.21800
 20
63.38900
 30
 0
 11
18.78100
 21
63.38900
  0
LINE
  8
Engraving
 62
   7
 39
0.400
  6
CONTINUOUS
 10
18.78100
 20
64.24400
 30
 0
 11
16.21800
 21
64.24400
  0
LINE
  8
Engraving
 62
   7
 39
0.400
  6
CONTINUOUS
 10
16.21800
 20
64.24400
 30
 0
 11
16.21800
 21
64.38600
  0
LINE
  8
Engraving
 62
   7
 39
0.400
  6
CONTINUOUS
 10
16.21800
 20
64.38600
 30
 0
 11
18.78100
 21
65.81000
  0
LINE
  8
Engraving
 62
   7
 39
0.400
  6
CONTINUOUS
 10
18.78100
 20
65.81000
 30
 0
 11
18.78100
 21
65.95200
  0
LINE
  8
Engraving
 62
   7
 39
0.400
  6
CONTINUOUS
 10
18.78100
 20
65.95200
 30
 0
 11
16.21800
 21
65.95200
  0
LINE
  8
Engraving
 62
   7
 39
0.400
  6
CONTINUOUS
 10
18.78100
 20
38.35100
 30
 0
 11
16.21800
 21
38.35100
  0
LINE
  8
Engraving
 62
   7
 39
0.400
  6
CONTINUOUS
 10
16.21800
 20
38.35100
 30
 0
 11
16.21800
 21
39.57600
  0
ARC
  8
Engraving
 62
   7
 39
0.400
  6
CONTINUOUS
 10
16.87300
 20
39.57600
 30
 0
 40
0.65500
 50
360.00000
 51
180.00000
  0
LINE
  8
Engraving
 62
   7
 39
0.400
  6
CONTINUOUS
 10
17.52800
 20
39.57600
 30
 0
 11
17.52800
 21
38.35100
  0
LINE
  8
Engraving
 62
   7
 39
0.400
  6
CONTINUOUS
 10
17.52800
 20
38.35100
 30
 0
 11
17.52800
 21
39.49000
  0
LINE
  8
Engraving
 62
   7
 39
0.400
  6
CONTINUOUS
 10
17.52800
 20
39.49000
 30
 0
 11
18.78100
 21
40.06000
  0
LINE
  8
Engraving
 62
   7
 39
0.400
  6
CONTINUOUS
 10
17.41400
 20
41.11400
 30
 0
 11
17.41400
 21
42.22400
  0
LINE
  8
Engraving
 62
   7
 39
0.400
  6
CONTINUOUS
 10
16.21800
 20
42.79400
 30
 0
 11
16.21800
 21
41.08500
  0
LINE
  8
Engraving
 62
   7
 39
0.400
  6
CONTINUOUS
 10
16.21800
 20
41.08500
 30
 0
 11
18.78100
 21
41.08500
  0
LINE
  8
Engraving
 62
   7
 39
0.400
  6
CONTINUOUS
 10
18.78100
 20
41.08500
 30
 0
 11
18.78100
 21
42.79400
  0
ARC
  8
Engraving
 62
   7
 39
0.400
  6
CONTINUOUS
 10
18.16000
 20
44.19500
 30
 0
 40
0.57600
 50
-64.14721
 51
-33.66246
  0
ARC
  8
Engraving
 62
   7
 39
0.400
  6
CONTINUOUS
 10
17.67700
 20
44.43100
 30
 0
 40
1.11100
 50
-29.98164
 51
29.98164
  0
ARC
  8
Engraving
 62
   7
 39
0.400
  6
CONTINUOUS
 10
18.15100
 20
44.70600
 30
 0
 40
0.56300
 50
29.84593
 51
162.75519
  0
LINE
  8
Engraving
 62
   7
 39
0.400
  6
CONTINUOUS
 10
17.61300
 20
44.87300
 30
 0
 11
17.32900
 21
44.01800
  0
ARC
  8
Engraving
 62
   7
 39
0.400
  6
CONTINUOUS
 10
16.82600
 20
44.16500
 30
 0
 40
0.52400
 50
213.47775
 51
-16.29082
  0
ARC
  8
Engraving
 62
   7
 39
0.400
  6
CONTINUOUS
 10
17.25900
 20
44.42900
 30
 0
 40
1.03100
 50
132.71882
 51
-147.55865
  0
ARC
  8
Engraving
 62
   7
 39
0.400
  6
CONTINUOUS
 10
17.51300
 20
24.42600
 30
 0
 40
1.56000
 50
-129.01546
 51
-50.95601
  0
ARC
  8
Engraving
 62
   7
 39
0.400
  6
CONTINUOUS
 10
17.97200
 20
23.86900
 30
 0
 40
0.83900
 50
-51.34019
 51
51.34019
  0
ARC
  8
Engraving
 62
   7
 39
0.400
  6
CONTINUOUS
 10
17.51300
 20
23.31200
 30
 0
 40
1.56100
 50
50.95601
 51
129.01546
  0
ARC
  8
Engraving
 62
   7
 39
0.400
  6
CONTINUOUS
 10
17.05500
 20
23.86900
 30
 0
 40
0.83900
 50
128.65981
 51
231.34019
  0
LINE
  8
Engraving
 62
   7
 39
0.400
  6
CONTINUOUS
 10
16.21800
 20
25.72000
 30
 0
 11
17.92700
 21
25.72000
  0
ARC
  8
Engraving
 62
   7
 39
0.400
  6
CONTINUOUS
 10
17.92700
 20
26.57400
 30
 0
 40
0.85400
 50
-90.00000
 51
90.00000
  0
LINE
  8
Engraving
 62
   7
 39
0.400
  6
CONTINUOUS
 10
17.92700
 20
27.42900
 30
 0
 11
16.21800
 21
27.42900
  0
LINE
  8
Engraving
 62
   7
 39
0.400
  6
CONTINUOUS
 10
16.21800
 20
28.28300
 30
 0
 11
16.21800
 21
30.27600
  0
LINE
  8
Engraving
 62
   7
 39
0.400
  6
CONTINUOUS
 10
16.21800
 20
30.27600
 30
 0
 11
16.21800
 21
29.28000
  0
LINE
  8
Engraving
 62
   7
 39
0.400
  6
CONTINUOUS
 10
16.21800
 20
29.28000
 30
 0
 11
18.78100
 21
29.28000
  0
ARC
  8
Engraving
 62
   7
 39
0.200
  6
CONTINUOUS
 10
2.44900
 20
111.65500
 30
 0
 40
1.07900
 50
30.89091
 51
39.88715
  0
ARC
  8
Engraving
 62
   7
 39
0.200
  6
CONTINUOUS
 10
2.82400
 20
111.98400
 30
 0
 40
0.58000
 50
38.70605
 51
141.35559
  0
ARC
  8
Engraving
 62
   7
 39
0.200
  6
CONTINUOUS
 10
3.21000
 20
111.66700
 30
 0
 40
1.08100
 50
141.00901
 51
219.03218
  0
ARC
  8
Engraving
 62
   7
 39
0.200
  6
CONTINUOUS
 10
2.82400
 20
111.34900
 30
 0
 40
0.58100
 50
-141.35559
 51
-38.70605
  0
ARC
  8
Engraving
 62
   7
 39
0.200
  6
CONTINUOUS
 10
2.44400
 20
111.61900
 30
 0
 40
1.04600
 50
-37.23135
 51
-24.62979
  0
LINE
  8
Engraving
 62
   7
 39
0.200
  6
CONTINUOUS
 10
3.98700
 20
110.78900
 30
 0
 11
3.98700
 21
112.56400
  0
LINE
  8
Engraving
 62
   7
 39
0.200
  6
CONTINUOUS
 10
3.98700
 20
112.56400
 30
 0
 11
4.08500
 21
112.56400
  0
LINE
  8
Engraving
 62
   7
 39
0.200
  6
CONTINUOUS
 10
4.08500
 20
112.56400
 30
 0
 11
4.77600
 21
110.78900
  0
LINE
  8
Engraving
 62
   7
 39
0.200
  6
CONTINUOUS
 10
4.77600
 20
110.78900
 30
 0
 11
5.46600
 21
112.56400
  0
LINE
  8
Engraving
 62
   7
 39
0.200
  6
CONTINUOUS
 10
5.46600
 20
112.56400
 30
 0
 11
5.56500
 21
112.56400
  0
LINE
  8
Engraving
 62
   7
 39
0.200
  6
CONTINUOUS
 10
5.56500
 20
112.56400
 30
 0
 11
5.56500
 21
110.78900
  0
ARC
  8
Engraving
 62
   7
 39
0.200
  6
CONTINUOUS
 10
7.23300
 20
111.66700
 30
 0
 40
1.08100
 50
141.00901
 51
219.03218
  0
ARC
  8
Engraving
 62
   7
 39
0.200
  6
CONTINUOUS
 10
6.84700
 20
111.34900
 30
 0
 40
0.58100
 50
-141.35559
 51
-38.70605
  0
ARC
  8
Engraving
 62
   7
 39
0.200
  6
CONTINUOUS
 10
6.46000
 20
111.66700
 30
 0
 40
1.08100
 50
-39.03218
 51
38.99099
  0
ARC
  8
Engraving
 62
   7
 39
0.200
  6
CONTINUOUS
 10
6.84700
 20
111.98400
 30
 0
 40
0.58000
 50
38.70605
 51
141.35559
  0
ARC
  8
Engraving
 62
   7
 39
0.200
  6
CONTINUOUS
 10
8.50600
 20
111.22100
 30
 0
 40
0.39900
 50
-153.82034
 51
-123.45117
  0
ARC
  8
Engraving
 62
   7
 39
0.200
  6
CONTINUOUS
 10
8.67100
 20
111.55500
 30
 0
 40
0.77000
 50
-119.99403
 51
-60.07044
  0
ARC
  8
Engraving
 62
   7
 39
0.200
  6
CONTINUOUS
 10
8.86000
 20
111.22600
 30
 0
 40
0.39000
 50
-60.01836
 51
72.68106
  0
LINE
  8
Engraving
 62
   7
 39
0.200
  6
CONTINUOUS
 10
8.97600
 20
111.59800
 30
 0
 11
8.38500
 21
111.79500
  0
ARC
  8
Engraving
 62
   7
 39
0.200
  6
CONTINUOUS
 10
8.48700
 20
112.14300
 30
 0
 40
0.36300
 50
123.55896
 51
-106.33604
  0
ARC
  8
Engraving
 62
   7
 39
0.200
  6
CONTINUOUS
 10
8.66800
 20
111.84300
 30
 0
 40
0.71400
 50
402.67311
 51
122.35422
  0
LINE
  8
Engraving
 62
   7
 39
0.200
  6
CONTINUOUS
 10
11.81600
 20
111.67700
 30
 0
 11
12.58600
 21
111.67700
  0
LINE
  8
Engraving
 62
   7
 39
0.200
  6
CONTINUOUS
 10
12.98000
 20
112.56400
 30
 0
 11
11.79700
 21
112.56400
  0
LINE
  8
Engraving
 62
   7
 39
0.200
  6
CONTINUOUS
 10
11.79700
 20
112.56400
 30
 0
 11
11.79700
 21
110.78900
  0
LINE
  8
Engraving
 62
   7
 39
0.200
  6
CONTINUOUS
 10
13.57200
 20
112.58400
 30
 0
 11
13.57200
 21
112.42600
  0
LINE
  8
Engraving
 62
   7
 39
0.200
  6
CONTINUOUS
 10
13.57200
 20
112.03200
 30
 0
 11
13.57200
 21
110.78900
  0
LINE
  8
Engraving
 62
   7
 39
0.200
  6
CONTINUOUS
 10
14.16300
 20
112.56400
 30
 0
 11
14.16300
 21
110.78900
  0
LINE
  8
Engraving
 62
   7
 39
0.200
  6
CONTINUOUS
 10
14.73500
 20
112.01200
 30
 0
 11
15.22800
 21
112.01200
  0
LINE
  8
Engraving
 62
   7
 39
0.200
  6
CONTINUOUS
 10
14.97200
 20
112.56400
 30
 0
 11
14.97200
 21
110.78900
  0
LINE
  8
Engraving
 62
   7
 39
0.200
  6
CONTINUOUS
 10
15.82000
 20
111.46000
 30
 0
 11
16.76700
 21
111.46000
  0
ARC
  8
Engraving
 62
   7
 39
0.200
  6
CONTINUOUS
 10
16.18200
 20
111.48100
 30
 0
 40
0.58500
 50
-2.05589
 51
30.15777
  0
ARC
  8
Engraving
 62
   7
 39
0.200
  6
CONTINUOUS
 10
16.31300
 20
111.55900
 30
 0
 40
0.43300
 50
29.94194
 51
90.00000
  0
ARC
  8
Engraving
 62
   7
 39
0.200
  6
CONTINUOUS
 10
16.31400
 20
111.52800
 30
 0
 40
0.46400
 50
90.12348
 51
153.37975
  0
ARC
  8
Engraving
 62
   7
 39
0.200
  6
CONTINUOUS
 10
16.60800
 20
111.38100
 30
 0
 40
0.79300
 50
153.40263
 51
206.59737
  0
ARC
  8
Engraving
 62
   7
 39
0.200
  6
CONTINUOUS
 10
16.31400
 20
111.23300
 30
 0
 40
0.46400
 50
-153.49020
 51
-90.12348
  0
ARC
  8
Engraving
 62
   7
 39
0.200
  6
CONTINUOUS
 10
16.31100
 20
111.27600
 30
 0
 40
0.50700
 50
-89.77398
 51
-34.88095
  0
LINE
  8
Engraving
 62
   7
 39
0.200
  6
CONTINUOUS
 10
17.35800
 20
112.03100
 30
 0
 11
17.35800
 21
110.78900
  0
LINE
  8
Engraving
 62
   7
 39
0.200
  6
CONTINUOUS
 10
17.35800
 20
110.78900
 30
 0
 11
17.35800
 21
111.59800
  0
ARC
  8
Engraving
 62
   7
 39
0.200
  6
CONTINUOUS
 10
17.86700
 20
111.51500
 30
 0
 40
0.51600
 50
449.55586
 51
170.73859
  0
CIRCLE
  8
Contour
 62
   7
 39
0.100
  6
CONTINUOUS
 10
7.50000
 20
125.50000
 30
 0
 40
1.50000
  0
CIRCLE
  8
Contour
 62
   7
 39
0.100
  6
CONTINUOUS
 10
7.50000
 20
3.00000
 30
 0
 40
1.50000
  0
CIRCLE
  8
Contour
 62
   7
 39
0.100
  6
CONTINUOUS
 10
9.99500
 20
96.42000
 30
 0
 40
3.75000
  0
CIRCLE
  8
Contour
 62
   7
 39
0.100
  6
CONTINUOUS
 10
9.99500
 20
81.18000
 30
 0
 40
3.75000
  0
CIRCLE
  8
Contour
 62
   7
 39
0.100
  6
CONTINUOUS
 10
9.99500
 20
41.81000
 30
 0
 40
3.75000
  0
CIRCLE
  8
Contour
 62
   7
 39
0.100
  6
CONTINUOUS
 10
9.99500
 20
64.67000
 30
 0
 40
3.00000
  0
CIRCLE
  8
Contour
 62
   7
 39
0.100
  6
CONTINUOUS
 10
9.99500
 20
26.57000
 30
 0
 40
3.00000
  0
ENDSEC
  0
EOF
