  0
SECTION
  2
HEADER
  9
$MEASUREMENT
  70
  1
  9
$INSUNITS
  70
  4
  0
ENDSEC
  0
SECTION
  2
TABLES
  0
TABLE
  2
LTYPE
 70
     1
  0
LTYPE
  2
CONTINUOUS
 70
    64
  3
Ausgezogene Linie
 72
    65
 73
     0
 40
0.0
  0
ENDTAB
  0
TABLE
  2
LAYER
 70
     3
  0
LAYER
  2
Contour
 70
    64
 62
     7
  6
CONTINUOUS
  0
LAYER
  2
Engraving
 70
    64
 62
     7
  6
CONTINUOUS
  0
LAYER
  2
Reference_points
 70
    64
 62
     1
  6
CONTINUOUS
  0
ENDTAB
  0
TABLE
  2
STYLE
 70
     1
  0
STYLE
  2
TXT
 70
    64
 40
0.0
 41
1.0
 50
0.0
 71
     0
 42
3.500000
  3
TXT
  0
ENDTAB
  0
ENDSEC
  0
SECTION
  2
BLOCKS
  0
ENDSEC
  0
SECTION
  2
ENTITIES
  0
LINE
  8
Contour
 62
   7
 39
0.100
  6
CONTINUOUS
 10
19.98000
 20
128.40000
 30
 0
 11
0.00000
 21
128.40000
  0
LINE
  8
Contour
 62
   7
 39
0.100
  6
CONTINUOUS
 10
0.00000
 20
128.40000
 30
 0
 11
0.00000
 21
128.40000
  0
LINE
  8
Contour
 62
   7
 39
0.100
  6
CONTINUOUS
 10
0.00000
 20
128.40000
 30
 0
 11
0.00000
 21
0.00000
  0
LINE
  8
Contour
 62
   7
 39
0.100
  6
CONTINUOUS
 10
0.00000
 20
0.00000
 30
 0
 11
0.00000
 21
0.00000
  0
LINE
  8
Contour
 62
   7
 39
0.100
  6
CONTINUOUS
 10
0.00000
 20
0.00000
 30
 0
 11
19.98000
 21
0.00000
  0
LINE
  8
Contour
 62
   7
 39
0.100
  6
CONTINUOUS
 10
19.98000
 20
0.00000
 30
 0
 11
19.98000
 21
0.00000
  0
LINE
  8
Contour
 62
   7
 39
0.100
  6
CONTINUOUS
 10
19.98000
 20
0.00000
 30
 0
 11
19.98000
 21
128.40000
  0
LINE
  8
Contour
 62
   7
 39
0.100
  6
CONTINUOUS
 10
19.98000
 20
128.40000
 30
 0
 11
19.98000
 21
128.40000
  0
LINE
  8
Engraving
 62
   7
 39
0.600
  6
CONTINUOUS
 10
4.68700
 20
109.97800
 30
 0
 11
4.68700
 21
113.82300
  0
LINE
  8
Engraving
 62
   7
 39
0.600
  6
CONTINUOUS
 10
4.68700
 20
113.82300
 30
 0
 11
4.96000
 21
113.82300
  0
LINE
  8
Engraving
 62
   7
 39
0.600
  6
CONTINUOUS
 10
4.96000
 20
113.82300
 30
 0
 11
6.08000
 21
109.97800
  0
LINE
  8
Engraving
 62
   7
 39
0.600
  6
CONTINUOUS
 10
6.08000
 20
109.97800
 30
 0
 11
7.17000
 21
113.82300
  0
LINE
  8
Engraving
 62
   7
 39
0.600
  6
CONTINUOUS
 10
7.17000
 20
113.82300
 30
 0
 11
7.44200
 21
113.82300
  0
LINE
  8
Engraving
 62
   7
 39
0.600
  6
CONTINUOUS
 10
7.44200
 20
113.82300
 30
 0
 11
7.44200
 21
109.97800
  0
LINE
  8
Engraving
 62
   7
 39
0.600
  6
CONTINUOUS
 10
8.23000
 20
113.82300
 30
 0
 11
8.23000
 21
110.70500
  0
LINE
  8
Engraving
 62
   7
 39
0.600
  6
CONTINUOUS
 10
8.23000
 20
110.70500
 30
 0
 11
8.32000
 21
110.34100
  0
LINE
  8
Engraving
 62
   7
 39
0.600
  6
CONTINUOUS
 10
8.32000
 20
110.34100
 30
 0
 11
8.44100
 21
110.16000
  0
LINE
  8
Engraving
 62
   7
 39
0.600
  6
CONTINUOUS
 10
8.44100
 20
110.16000
 30
 0
 11
8.68400
 21
110.00800
  0
LINE
  8
Engraving
 62
   7
 39
0.600
  6
CONTINUOUS
 10
8.68400
 20
110.00800
 30
 0
 11
8.98600
 21
109.94800
  0
LINE
  8
Engraving
 62
   7
 39
0.600
  6
CONTINUOUS
 10
8.98600
 20
109.94800
 30
 0
 11
9.38000
 21
109.94800
  0
LINE
  8
Engraving
 62
   7
 39
0.600
  6
CONTINUOUS
 10
9.38000
 20
109.94800
 30
 0
 11
9.62200
 21
109.97800
  0
LINE
  8
Engraving
 62
   7
 39
0.600
  6
CONTINUOUS
 10
9.62200
 20
109.97800
 30
 0
 11
9.89500
 21
110.12900
  0
LINE
  8
Engraving
 62
   7
 39
0.600
  6
CONTINUOUS
 10
9.89500
 20
110.12900
 30
 0
 11
10.10700
 21
110.40200
  0
LINE
  8
Engraving
 62
   7
 39
0.600
  6
CONTINUOUS
 10
10.10700
 20
110.40200
 30
 0
 11
10.16700
 21
110.70500
  0
LINE
  8
Engraving
 62
   7
 39
0.600
  6
CONTINUOUS
 10
10.16700
 20
110.70500
 30
 0
 11
10.16700
 21
113.82300
  0
LINE
  8
Engraving
 62
   7
 39
0.600
  6
CONTINUOUS
 10
10.95400
 20
113.82300
 30
 0
 11
10.95400
 21
109.97800
  0
LINE
  8
Engraving
 62
   7
 39
0.600
  6
CONTINUOUS
 10
10.95400
 20
109.97800
 30
 0
 11
12.46800
 21
109.97800
  0
LINE
  8
Engraving
 62
   7
 39
0.600
  6
CONTINUOUS
 10
14.25400
 20
109.97800
 30
 0
 11
14.25400
 21
113.82300
  0
LINE
  8
Engraving
 62
   7
 39
0.600
  6
CONTINUOUS
 10
13.22500
 20
113.82300
 30
 0
 11
15.31400
 21
113.82300
  0
LINE
  8
Engraving
 62
   7
 39
0.400
  6
CONTINUOUS
 10
16.21800
 20
87.33200
 30
 0
 11
18.78100
 21
87.33200
  0
LINE
  8
Engraving
 62
   7
 39
0.400
  6
CONTINUOUS
 10
18.78100
 20
87.83700
 30
 0
 11
16.21800
 21
87.83700
  0
LINE
  8
Engraving
 62
   7
 39
0.400
  6
CONTINUOUS
 10
16.21800
 20
87.83700
 30
 0
 11
16.21800
 21
88.01900
  0
LINE
  8
Engraving
 62
   7
 39
0.400
  6
CONTINUOUS
 10
16.21800
 20
88.01900
 30
 0
 11
18.78100
 21
89.22900
  0
LINE
  8
Engraving
 62
   7
 39
0.400
  6
CONTINUOUS
 10
18.78100
 20
89.22900
 30
 0
 11
16.21800
 21
89.22900
  0
LINE
  8
Engraving
 62
   7
 39
0.400
  6
CONTINUOUS
 10
17.48900
 20
73.69800
 30
 0
 11
18.31700
 21
73.69800
  0
LINE
  8
Engraving
 62
   7
 39
0.400
  6
CONTINUOUS
 10
18.31700
 20
73.69800
 30
 0
 11
18.51900
 21
73.73900
  0
LINE
  8
Engraving
 62
   7
 39
0.400
  6
CONTINUOUS
 10
18.51900
 20
73.73900
 30
 0
 11
18.64000
 21
73.81900
  0
LINE
  8
Engraving
 62
   7
 39
0.400
  6
CONTINUOUS
 10
18.64000
 20
73.81900
 30
 0
 11
18.72000
 21
73.92000
  0
LINE
  8
Engraving
 62
   7
 39
0.400
  6
CONTINUOUS
 10
18.72000
 20
73.92000
 30
 0
 11
18.80100
 21
74.06100
  0
LINE
  8
Engraving
 62
   7
 39
0.400
  6
CONTINUOUS
 10
18.80100
 20
74.06100
 30
 0
 11
18.80100
 21
74.18300
  0
LINE
  8
Engraving
 62
   7
 39
0.400
  6
CONTINUOUS
 10
18.80100
 20
74.18300
 30
 0
 11
18.80100
 21
74.50500
  0
LINE
  8
Engraving
 62
   7
 39
0.400
  6
CONTINUOUS
 10
18.80100
 20
74.50500
 30
 0
 11
18.78100
 21
74.68700
  0
LINE
  8
Engraving
 62
   7
 39
0.400
  6
CONTINUOUS
 10
18.78100
 20
74.68700
 30
 0
 11
18.70000
 21
74.82800
  0
LINE
  8
Engraving
 62
   7
 39
0.400
  6
CONTINUOUS
 10
18.70000
 20
74.82800
 30
 0
 11
18.53900
 21
74.94900
  0
LINE
  8
Engraving
 62
   7
 39
0.400
  6
CONTINUOUS
 10
18.53900
 20
74.94900
 30
 0
 11
18.31700
 21
75.01000
  0
LINE
  8
Engraving
 62
   7
 39
0.400
  6
CONTINUOUS
 10
18.31700
 20
75.01000
 30
 0
 11
16.68200
 21
75.01000
  0
LINE
  8
Engraving
 62
   7
 39
0.400
  6
CONTINUOUS
 10
16.68200
 20
75.01000
 30
 0
 11
16.52100
 21
74.97000
  0
LINE
  8
Engraving
 62
   7
 39
0.400
  6
CONTINUOUS
 10
16.52100
 20
74.97000
 30
 0
 11
16.35900
 21
74.88900
  0
LINE
  8
Engraving
 62
   7
 39
0.400
  6
CONTINUOUS
 10
16.35900
 20
74.88900
 30
 0
 11
16.27900
 21
74.78800
  0
LINE
  8
Engraving
 62
   7
 39
0.400
  6
CONTINUOUS
 10
16.27900
 20
74.78800
 30
 0
 11
16.21800
 21
74.68700
  0
LINE
  8
Engraving
 62
   7
 39
0.400
  6
CONTINUOUS
 10
16.21800
 20
74.68700
 30
 0
 11
16.19800
 21
74.50500
  0
LINE
  8
Engraving
 62
   7
 39
0.400
  6
CONTINUOUS
 10
16.19800
 20
74.50500
 30
 0
 11
16.19800
 21
74.18300
  0
LINE
  8
Engraving
 62
   7
 39
0.400
  6
CONTINUOUS
 10
16.19800
 20
74.18300
 30
 0
 11
16.21800
 21
74.02100
  0
LINE
  8
Engraving
 62
   7
 39
0.400
  6
CONTINUOUS
 10
16.21800
 20
74.02100
 30
 0
 11
16.29900
 21
73.88000
  0
LINE
  8
Engraving
 62
   7
 39
0.400
  6
CONTINUOUS
 10
16.29900
 20
73.88000
 30
 0
 11
16.40000
 21
73.77900
  0
LINE
  8
Engraving
 62
   7
 39
0.400
  6
CONTINUOUS
 10
16.40000
 20
73.77900
 30
 0
 11
16.52100
 21
73.71800
  0
LINE
  8
Engraving
 62
   7
 39
0.400
  6
CONTINUOUS
 10
16.52100
 20
73.71800
 30
 0
 11
16.68200
 21
73.69800
  0
LINE
  8
Engraving
 62
   7
 39
0.400
  6
CONTINUOUS
 10
16.68200
 20
73.69800
 30
 0
 11
17.48900
 21
73.69800
  0
LINE
  8
Engraving
 62
   7
 39
0.400
  6
CONTINUOUS
 10
16.21800
 20
75.53500
 30
 0
 11
18.29700
 21
75.53500
  0
LINE
  8
Engraving
 62
   7
 39
0.400
  6
CONTINUOUS
 10
18.29700
 20
75.53500
 30
 0
 11
18.53900
 21
75.59500
  0
LINE
  8
Engraving
 62
   7
 39
0.400
  6
CONTINUOUS
 10
18.53900
 20
75.59500
 30
 0
 11
18.66000
 21
75.67600
  0
LINE
  8
Engraving
 62
   7
 39
0.400
  6
CONTINUOUS
 10
18.66000
 20
75.67600
 30
 0
 11
18.76100
 21
75.83700
  0
LINE
  8
Engraving
 62
   7
 39
0.400
  6
CONTINUOUS
 10
18.76100
 20
75.83700
 30
 0
 11
18.80100
 21
76.03900
  0
LINE
  8
Engraving
 62
   7
 39
0.400
  6
CONTINUOUS
 10
18.80100
 20
76.03900
 30
 0
 11
18.80100
 21
76.30200
  0
LINE
  8
Engraving
 62
   7
 39
0.400
  6
CONTINUOUS
 10
18.80100
 20
76.30200
 30
 0
 11
18.78100
 21
76.46300
  0
LINE
  8
Engraving
 62
   7
 39
0.400
  6
CONTINUOUS
 10
18.78100
 20
76.46300
 30
 0
 11
18.68000
 21
76.64500
  0
LINE
  8
Engraving
 62
   7
 39
0.400
  6
CONTINUOUS
 10
18.68000
 20
76.64500
 30
 0
 11
18.49800
 21
76.78600
  0
LINE
  8
Engraving
 62
   7
 39
0.400
  6
CONTINUOUS
 10
18.49800
 20
76.78600
 30
 0
 11
18.29700
 21
76.82600
  0
LINE
  8
Engraving
 62
   7
 39
0.400
  6
CONTINUOUS
 10
18.29700
 20
76.82600
 30
 0
 11
16.21800
 21
76.82600
  0
LINE
  8
Engraving
 62
   7
 39
0.400
  6
CONTINUOUS
 10
18.78100
 20
78.01700
 30
 0
 11
16.21800
 21
78.01700
  0
LINE
  8
Engraving
 62
   7
 39
0.400
  6
CONTINUOUS
 10
16.21800
 20
77.33100
 30
 0
 11
16.21800
 21
78.72300
  0
LINE
  8
Engraving
 62
   7
 39
0.400
  6
CONTINUOUS
 10
17.48900
 20
61.62800
 30
 0
 11
18.31700
 21
61.62800
  0
LINE
  8
Engraving
 62
   7
 39
0.400
  6
CONTINUOUS
 10
18.31700
 20
61.62800
 30
 0
 11
18.51900
 21
61.66900
  0
LINE
  8
Engraving
 62
   7
 39
0.400
  6
CONTINUOUS
 10
18.51900
 20
61.66900
 30
 0
 11
18.64000
 21
61.74900
  0
LINE
  8
Engraving
 62
   7
 39
0.400
  6
CONTINUOUS
 10
18.64000
 20
61.74900
 30
 0
 11
18.72000
 21
61.85000
  0
LINE
  8
Engraving
 62
   7
 39
0.400
  6
CONTINUOUS
 10
18.72000
 20
61.85000
 30
 0
 11
18.80100
 21
61.99100
  0
LINE
  8
Engraving
 62
   7
 39
0.400
  6
CONTINUOUS
 10
18.80100
 20
61.99100
 30
 0
 11
18.80100
 21
62.11300
  0
LINE
  8
Engraving
 62
   7
 39
0.400
  6
CONTINUOUS
 10
18.80100
 20
62.11300
 30
 0
 11
18.80100
 21
62.43500
  0
LINE
  8
Engraving
 62
   7
 39
0.400
  6
CONTINUOUS
 10
18.80100
 20
62.43500
 30
 0
 11
18.78100
 21
62.61700
  0
LINE
  8
Engraving
 62
   7
 39
0.400
  6
CONTINUOUS
 10
18.78100
 20
62.61700
 30
 0
 11
18.70000
 21
62.75800
  0
LINE
  8
Engraving
 62
   7
 39
0.400
  6
CONTINUOUS
 10
18.70000
 20
62.75800
 30
 0
 11
18.53900
 21
62.87900
  0
LINE
  8
Engraving
 62
   7
 39
0.400
  6
CONTINUOUS
 10
18.53900
 20
62.87900
 30
 0
 11
18.31700
 21
62.94000
  0
LINE
  8
Engraving
 62
   7
 39
0.400
  6
CONTINUOUS
 10
18.31700
 20
62.94000
 30
 0
 11
16.68200
 21
62.94000
  0
LINE
  8
Engraving
 62
   7
 39
0.400
  6
CONTINUOUS
 10
16.68200
 20
62.94000
 30
 0
 11
16.52100
 21
62.90000
  0
LINE
  8
Engraving
 62
   7
 39
0.400
  6
CONTINUOUS
 10
16.52100
 20
62.90000
 30
 0
 11
16.35900
 21
62.81900
  0
LINE
  8
Engraving
 62
   7
 39
0.400
  6
CONTINUOUS
 10
16.35900
 20
62.81900
 30
 0
 11
16.27900
 21
62.71800
  0
LINE
  8
Engraving
 62
   7
 39
0.400
  6
CONTINUOUS
 10
16.27900
 20
62.71800
 30
 0
 11
16.21800
 21
62.61700
  0
LINE
  8
Engraving
 62
   7
 39
0.400
  6
CONTINUOUS
 10
16.21800
 20
62.61700
 30
 0
 11
16.19800
 21
62.43500
  0
LINE
  8
Engraving
 62
   7
 39
0.400
  6
CONTINUOUS
 10
16.19800
 20
62.43500
 30
 0
 11
16.19800
 21
62.11300
  0
LINE
  8
Engraving
 62
   7
 39
0.400
  6
CONTINUOUS
 10
16.19800
 20
62.11300
 30
 0
 11
16.21800
 21
61.95100
  0
LINE
  8
Engraving
 62
   7
 39
0.400
  6
CONTINUOUS
 10
16.21800
 20
61.95100
 30
 0
 11
16.29900
 21
61.81000
  0
LINE
  8
Engraving
 62
   7
 39
0.400
  6
CONTINUOUS
 10
16.29900
 20
61.81000
 30
 0
 11
16.40000
 21
61.70900
  0
LINE
  8
Engraving
 62
   7
 39
0.400
  6
CONTINUOUS
 10
16.40000
 20
61.70900
 30
 0
 11
16.52100
 21
61.64800
  0
LINE
  8
Engraving
 62
   7
 39
0.400
  6
CONTINUOUS
 10
16.52100
 20
61.64800
 30
 0
 11
16.68200
 21
61.62800
  0
LINE
  8
Engraving
 62
   7
 39
0.400
  6
CONTINUOUS
 10
16.68200
 20
61.62800
 30
 0
 11
17.48900
 21
61.62800
  0
LINE
  8
Engraving
 62
   7
 39
0.400
  6
CONTINUOUS
 10
16.21800
 20
63.46500
 30
 0
 11
18.29700
 21
63.46500
  0
LINE
  8
Engraving
 62
   7
 39
0.400
  6
CONTINUOUS
 10
18.29700
 20
63.46500
 30
 0
 11
18.53900
 21
63.52500
  0
LINE
  8
Engraving
 62
   7
 39
0.400
  6
CONTINUOUS
 10
18.53900
 20
63.52500
 30
 0
 11
18.66000
 21
63.60600
  0
LINE
  8
Engraving
 62
   7
 39
0.400
  6
CONTINUOUS
 10
18.66000
 20
63.60600
 30
 0
 11
18.76100
 21
63.76700
  0
LINE
  8
Engraving
 62
   7
 39
0.400
  6
CONTINUOUS
 10
18.76100
 20
63.76700
 30
 0
 11
18.80100
 21
63.96900
  0
LINE
  8
Engraving
 62
   7
 39
0.400
  6
CONTINUOUS
 10
18.80100
 20
63.96900
 30
 0
 11
18.80100
 21
64.23200
  0
LINE
  8
Engraving
 62
   7
 39
0.400
  6
CONTINUOUS
 10
18.80100
 20
64.23200
 30
 0
 11
18.78100
 21
64.39300
  0
LINE
  8
Engraving
 62
   7
 39
0.400
  6
CONTINUOUS
 10
18.78100
 20
64.39300
 30
 0
 11
18.68000
 21
64.57500
  0
LINE
  8
Engraving
 62
   7
 39
0.400
  6
CONTINUOUS
 10
18.68000
 20
64.57500
 30
 0
 11
18.49800
 21
64.71600
  0
LINE
  8
Engraving
 62
   7
 39
0.400
  6
CONTINUOUS
 10
18.49800
 20
64.71600
 30
 0
 11
18.29700
 21
64.75600
  0
LINE
  8
Engraving
 62
   7
 39
0.400
  6
CONTINUOUS
 10
18.29700
 20
64.75600
 30
 0
 11
16.21800
 21
64.75600
  0
LINE
  8
Engraving
 62
   7
 39
0.400
  6
CONTINUOUS
 10
18.78100
 20
65.94700
 30
 0
 11
16.21800
 21
65.94700
  0
LINE
  8
Engraving
 62
   7
 39
0.400
  6
CONTINUOUS
 10
16.21800
 20
65.26100
 30
 0
 11
16.21800
 21
66.65300
  0
LINE
  8
Engraving
 62
   7
 39
0.400
  6
CONTINUOUS
 10
17.48900
 20
49.55800
 30
 0
 11
18.31700
 21
49.55800
  0
LINE
  8
Engraving
 62
   7
 39
0.400
  6
CONTINUOUS
 10
18.31700
 20
49.55800
 30
 0
 11
18.51900
 21
49.59900
  0
LINE
  8
Engraving
 62
   7
 39
0.400
  6
CONTINUOUS
 10
18.51900
 20
49.59900
 30
 0
 11
18.64000
 21
49.67900
  0
LINE
  8
Engraving
 62
   7
 39
0.400
  6
CONTINUOUS
 10
18.64000
 20
49.67900
 30
 0
 11
18.72000
 21
49.78000
  0
LINE
  8
Engraving
 62
   7
 39
0.400
  6
CONTINUOUS
 10
18.72000
 20
49.78000
 30
 0
 11
18.80100
 21
49.92100
  0
LINE
  8
Engraving
 62
   7
 39
0.400
  6
CONTINUOUS
 10
18.80100
 20
49.92100
 30
 0
 11
18.80100
 21
50.04300
  0
LINE
  8
Engraving
 62
   7
 39
0.400
  6
CONTINUOUS
 10
18.80100
 20
50.04300
 30
 0
 11
18.80100
 21
50.36500
  0
LINE
  8
Engraving
 62
   7
 39
0.400
  6
CONTINUOUS
 10
18.80100
 20
50.36500
 30
 0
 11
18.78100
 21
50.54700
  0
LINE
  8
Engraving
 62
   7
 39
0.400
  6
CONTINUOUS
 10
18.78100
 20
50.54700
 30
 0
 11
18.70000
 21
50.68800
  0
LINE
  8
Engraving
 62
   7
 39
0.400
  6
CONTINUOUS
 10
18.70000
 20
50.68800
 30
 0
 11
18.53900
 21
50.80900
  0
LINE
  8
Engraving
 62
   7
 39
0.400
  6
CONTINUOUS
 10
18.53900
 20
50.80900
 30
 0
 11
18.31700
 21
50.87000
  0
LINE
  8
Engraving
 62
   7
 39
0.400
  6
CONTINUOUS
 10
18.31700
 20
50.87000
 30
 0
 11
16.68200
 21
50.87000
  0
LINE
  8
Engraving
 62
   7
 39
0.400
  6
CONTINUOUS
 10
16.68200
 20
50.87000
 30
 0
 11
16.52100
 21
50.83000
  0
LINE
  8
Engraving
 62
   7
 39
0.400
  6
CONTINUOUS
 10
16.52100
 20
50.83000
 30
 0
 11
16.35900
 21
50.74900
  0
LINE
  8
Engraving
 62
   7
 39
0.400
  6
CONTINUOUS
 10
16.35900
 20
50.74900
 30
 0
 11
16.27900
 21
50.64800
  0
LINE
  8
Engraving
 62
   7
 39
0.400
  6
CONTINUOUS
 10
16.27900
 20
50.64800
 30
 0
 11
16.21800
 21
50.54700
  0
LINE
  8
Engraving
 62
   7
 39
0.400
  6
CONTINUOUS
 10
16.21800
 20
50.54700
 30
 0
 11
16.19800
 21
50.36500
  0
LINE
  8
Engraving
 62
   7
 39
0.400
  6
CONTINUOUS
 10
16.19800
 20
50.36500
 30
 0
 11
16.19800
 21
50.04300
  0
LINE
  8
Engraving
 62
   7
 39
0.400
  6
CONTINUOUS
 10
16.19800
 20
50.04300
 30
 0
 11
16.21800
 21
49.88100
  0
LINE
  8
Engraving
 62
   7
 39
0.400
  6
CONTINUOUS
 10
16.21800
 20
49.88100
 30
 0
 11
16.29900
 21
49.74000
  0
LINE
  8
Engraving
 62
   7
 39
0.400
  6
CONTINUOUS
 10
16.29900
 20
49.74000
 30
 0
 11
16.40000
 21
49.63900
  0
LINE
  8
Engraving
 62
   7
 39
0.400
  6
CONTINUOUS
 10
16.40000
 20
49.63900
 30
 0
 11
16.52100
 21
49.57800
  0
LINE
  8
Engraving
 62
   7
 39
0.400
  6
CONTINUOUS
 10
16.52100
 20
49.57800
 30
 0
 11
16.68200
 21
49.55800
  0
LINE
  8
Engraving
 62
   7
 39
0.400
  6
CONTINUOUS
 10
16.68200
 20
49.55800
 30
 0
 11
17.48900
 21
49.55800
  0
LINE
  8
Engraving
 62
   7
 39
0.400
  6
CONTINUOUS
 10
16.21800
 20
51.39500
 30
 0
 11
18.29700
 21
51.39500
  0
LINE
  8
Engraving
 62
   7
 39
0.400
  6
CONTINUOUS
 10
18.29700
 20
51.39500
 30
 0
 11
18.53900
 21
51.45500
  0
LINE
  8
Engraving
 62
   7
 39
0.400
  6
CONTINUOUS
 10
18.53900
 20
51.45500
 30
 0
 11
18.66000
 21
51.53600
  0
LINE
  8
Engraving
 62
   7
 39
0.400
  6
CONTINUOUS
 10
18.66000
 20
51.53600
 30
 0
 11
18.76100
 21
51.69700
  0
LINE
  8
Engraving
 62
   7
 39
0.400
  6
CONTINUOUS
 10
18.76100
 20
51.69700
 30
 0
 11
18.80100
 21
51.89900
  0
LINE
  8
Engraving
 62
   7
 39
0.400
  6
CONTINUOUS
 10
18.80100
 20
51.89900
 30
 0
 11
18.80100
 21
52.16200
  0
LINE
  8
Engraving
 62
   7
 39
0.400
  6
CONTINUOUS
 10
18.80100
 20
52.16200
 30
 0
 11
18.78100
 21
52.32300
  0
LINE
  8
Engraving
 62
   7
 39
0.400
  6
CONTINUOUS
 10
18.78100
 20
52.32300
 30
 0
 11
18.68000
 21
52.50500
  0
LINE
  8
Engraving
 62
   7
 39
0.400
  6
CONTINUOUS
 10
18.68000
 20
52.50500
 30
 0
 11
18.49800
 21
52.64600
  0
LINE
  8
Engraving
 62
   7
 39
0.400
  6
CONTINUOUS
 10
18.49800
 20
52.64600
 30
 0
 11
18.29700
 21
52.68600
  0
LINE
  8
Engraving
 62
   7
 39
0.400
  6
CONTINUOUS
 10
18.29700
 20
52.68600
 30
 0
 11
16.21800
 21
52.68600
  0
LINE
  8
Engraving
 62
   7
 39
0.400
  6
CONTINUOUS
 10
18.78100
 20
53.87700
 30
 0
 11
16.21800
 21
53.87700
  0
LINE
  8
Engraving
 62
   7
 39
0.400
  6
CONTINUOUS
 10
16.21800
 20
53.19100
 30
 0
 11
16.21800
 21
54.58300
  0
LINE
  8
Engraving
 62
   7
 39
0.400
  6
CONTINUOUS
 10
17.48900
 20
37.48800
 30
 0
 11
18.31700
 21
37.48800
  0
LINE
  8
Engraving
 62
   7
 39
0.400
  6
CONTINUOUS
 10
18.31700
 20
37.48800
 30
 0
 11
18.51900
 21
37.52900
  0
LINE
  8
Engraving
 62
   7
 39
0.400
  6
CONTINUOUS
 10
18.51900
 20
37.52900
 30
 0
 11
18.64000
 21
37.60900
  0
LINE
  8
Engraving
 62
   7
 39
0.400
  6
CONTINUOUS
 10
18.64000
 20
37.60900
 30
 0
 11
18.72000
 21
37.71000
  0
LINE
  8
Engraving
 62
   7
 39
0.400
  6
CONTINUOUS
 10
18.72000
 20
37.71000
 30
 0
 11
18.80100
 21
37.85100
  0
LINE
  8
Engraving
 62
   7
 39
0.400
  6
CONTINUOUS
 10
18.80100
 20
37.85100
 30
 0
 11
18.80100
 21
37.97300
  0
LINE
  8
Engraving
 62
   7
 39
0.400
  6
CONTINUOUS
 10
18.80100
 20
37.97300
 30
 0
 11
18.80100
 21
38.29500
  0
LINE
  8
Engraving
 62
   7
 39
0.400
  6
CONTINUOUS
 10
18.80100
 20
38.29500
 30
 0
 11
18.78100
 21
38.47700
  0
LINE
  8
Engraving
 62
   7
 39
0.400
  6
CONTINUOUS
 10
18.78100
 20
38.47700
 30
 0
 11
18.70000
 21
38.61800
  0
LINE
  8
Engraving
 62
   7
 39
0.400
  6
CONTINUOUS
 10
18.70000
 20
38.61800
 30
 0
 11
18.53900
 21
38.73900
  0
LINE
  8
Engraving
 62
   7
 39
0.400
  6
CONTINUOUS
 10
18.53900
 20
38.73900
 30
 0
 11
18.31700
 21
38.80000
  0
LINE
  8
Engraving
 62
   7
 39
0.400
  6
CONTINUOUS
 10
18.31700
 20
38.80000
 30
 0
 11
16.68200
 21
38.80000
  0
LINE
  8
Engraving
 62
   7
 39
0.400
  6
CONTINUOUS
 10
16.68200
 20
38.80000
 30
 0
 11
16.52100
 21
38.76000
  0
LINE
  8
Engraving
 62
   7
 39
0.400
  6
CONTINUOUS
 10
16.52100
 20
38.76000
 30
 0
 11
16.35900
 21
38.67900
  0
LINE
  8
Engraving
 62
   7
 39
0.400
  6
CONTINUOUS
 10
16.35900
 20
38.67900
 30
 0
 11
16.27900
 21
38.57800
  0
LINE
  8
Engraving
 62
   7
 39
0.400
  6
CONTINUOUS
 10
16.27900
 20
38.57800
 30
 0
 11
16.21800
 21
38.47700
  0
LINE
  8
Engraving
 62
   7
 39
0.400
  6
CONTINUOUS
 10
16.21800
 20
38.47700
 30
 0
 11
16.19800
 21
38.29500
  0
LINE
  8
Engraving
 62
   7
 39
0.400
  6
CONTINUOUS
 10
16.19800
 20
38.29500
 30
 0
 11
16.19800
 21
37.97300
  0
LINE
  8
Engraving
 62
   7
 39
0.400
  6
CONTINUOUS
 10
16.19800
 20
37.97300
 30
 0
 11
16.21800
 21
37.81100
  0
LINE
  8
Engraving
 62
   7
 39
0.400
  6
CONTINUOUS
 10
16.21800
 20
37.81100
 30
 0
 11
16.29900
 21
37.67000
  0
LINE
  8
Engraving
 62
   7
 39
0.400
  6
CONTINUOUS
 10
16.29900
 20
37.67000
 30
 0
 11
16.40000
 21
37.56900
  0
LINE
  8
Engraving
 62
   7
 39
0.400
  6
CONTINUOUS
 10
16.40000
 20
37.56900
 30
 0
 11
16.52100
 21
37.50800
  0
LINE
  8
Engraving
 62
   7
 39
0.400
  6
CONTINUOUS
 10
16.52100
 20
37.50800
 30
 0
 11
16.68200
 21
37.48800
  0
LINE
  8
Engraving
 62
   7
 39
0.400
  6
CONTINUOUS
 10
16.68200
 20
37.48800
 30
 0
 11
17.48900
 21
37.48800
  0
LINE
  8
Engraving
 62
   7
 39
0.400
  6
CONTINUOUS
 10
16.21800
 20
39.32500
 30
 0
 11
18.29700
 21
39.32500
  0
LINE
  8
Engraving
 62
   7
 39
0.400
  6
CONTINUOUS
 10
18.29700
 20
39.32500
 30
 0
 11
18.53900
 21
39.38500
  0
LINE
  8
Engraving
 62
   7
 39
0.400
  6
CONTINUOUS
 10
18.53900
 20
39.38500
 30
 0
 11
18.66000
 21
39.46600
  0
LINE
  8
Engraving
 62
   7
 39
0.400
  6
CONTINUOUS
 10
18.66000
 20
39.46600
 30
 0
 11
18.76100
 21
39.62700
  0
LINE
  8
Engraving
 62
   7
 39
0.400
  6
CONTINUOUS
 10
18.76100
 20
39.62700
 30
 0
 11
18.80100
 21
39.82900
  0
LINE
  8
Engraving
 62
   7
 39
0.400
  6
CONTINUOUS
 10
18.80100
 20
39.82900
 30
 0
 11
18.80100
 21
40.09200
  0
LINE
  8
Engraving
 62
   7
 39
0.400
  6
CONTINUOUS
 10
18.80100
 20
40.09200
 30
 0
 11
18.78100
 21
40.25300
  0
LINE
  8
Engraving
 62
   7
 39
0.400
  6
CONTINUOUS
 10
18.78100
 20
40.25300
 30
 0
 11
18.68000
 21
40.43500
  0
LINE
  8
Engraving
 62
   7
 39
0.400
  6
CONTINUOUS
 10
18.68000
 20
40.43500
 30
 0
 11
18.49800
 21
40.57600
  0
LINE
  8
Engraving
 62
   7
 39
0.400
  6
CONTINUOUS
 10
18.49800
 20
40.57600
 30
 0
 11
18.29700
 21
40.61600
  0
LINE
  8
Engraving
 62
   7
 39
0.400
  6
CONTINUOUS
 10
18.29700
 20
40.61600
 30
 0
 11
16.21800
 21
40.61600
  0
LINE
  8
Engraving
 62
   7
 39
0.400
  6
CONTINUOUS
 10
18.78100
 20
41.80700
 30
 0
 11
16.21800
 21
41.80700
  0
LINE
  8
Engraving
 62
   7
 39
0.400
  6
CONTINUOUS
 10
16.21800
 20
41.12100
 30
 0
 11
16.21800
 21
42.51300
  0
CIRCLE
  8
Contour
 62
   7
 39
0.100
  6
CONTINUOUS
 10
7.50000
 20
125.50000
 30
 0
 40
1.50000
  0
CIRCLE
  8
Contour
 62
   7
 39
0.100
  6
CONTINUOUS
 10
7.50000
 20
3.00000
 30
 0
 40
1.50000
  0
CIRCLE
  8
Contour
 62
   7
 39
0.100
  6
CONTINUOUS
 10
10.00000
 20
88.28000
 30
 0
 40
3.00000
  0
CIRCLE
  8
Contour
 62
   7
 39
0.100
  6
CONTINUOUS
 10
10.00000
 20
76.21000
 30
 0
 40
3.00000
  0
CIRCLE
  8
Contour
 62
   7
 39
0.100
  6
CONTINUOUS
 10
10.00000
 20
64.14000
 30
 0
 40
3.00000
  0
CIRCLE
  8
Contour
 62
   7
 39
0.100
  6
CONTINUOUS
 10
10.00000
 20
52.07000
 30
 0
 40
3.00000
  0
CIRCLE
  8
Contour
 62
   7
 39
0.100
  6
CONTINUOUS
 10
10.00000
 20
40.00000
 30
 0
 40
3.00000
  0
ENDSEC
  0
EOF
