  0
SECTION
  2
HEADER
  9
$MEASUREMENT
  70
  1
  9
$INSUNITS
  70
  4
  0
ENDSEC
  0
SECTION
  2
TABLES
  0
TABLE
  2
LTYPE
 70
     1
  0
LTYPE
  2
CONTINUOUS
 70
    64
  3
Ausgezogene Linie
 72
    65
 73
     0
 40
0.0
  0
ENDTAB
  0
TABLE
  2
LAYER
 70
     3
  0
LAYER
  2
Contour
 70
    64
 62
     7
  6
CONTINUOUS
  0
LAYER
  2
Engraving
 70
    64
 62
     7
  6
CONTINUOUS
  0
LAYER
  2
Reference_points
 70
    64
 62
     1
  6
CONTINUOUS
  0
ENDTAB
  0
TABLE
  2
STYLE
 70
     1
  0
STYLE
  2
TXT
 70
    64
 40
0.0
 41
1.0
 50
0.0
 71
     0
 42
3.500000
  3
TXT
  0
ENDTAB
  0
ENDSEC
  0
SECTION
  2
BLOCKS
  0
ENDSEC
  0
SECTION
  2
ENTITIES
  0
LINE
  8
Contour
 62
   7
 39
0.100
  6
CONTINUOUS
 10
19.98000
 20
128.40000
 30
 0
 11
0.00000
 21
128.40000
  0
LINE
  8
Contour
 62
   7
 39
0.100
  6
CONTINUOUS
 10
0.00000
 20
128.40000
 30
 0
 11
0.00000
 21
128.40000
  0
LINE
  8
Contour
 62
   7
 39
0.100
  6
CONTINUOUS
 10
0.00000
 20
128.40000
 30
 0
 11
0.00000
 21
0.00000
  0
LINE
  8
Contour
 62
   7
 39
0.100
  6
CONTINUOUS
 10
0.00000
 20
0.00000
 30
 0
 11
0.00000
 21
0.00000
  0
LINE
  8
Contour
 62
   7
 39
0.100
  6
CONTINUOUS
 10
0.00000
 20
0.00000
 30
 0
 11
19.98000
 21
0.00000
  0
LINE
  8
Contour
 62
   7
 39
0.100
  6
CONTINUOUS
 10
19.98000
 20
0.00000
 30
 0
 11
19.98000
 21
0.00000
  0
LINE
  8
Contour
 62
   7
 39
0.100
  6
CONTINUOUS
 10
19.98000
 20
0.00000
 30
 0
 11
19.98000
 21
128.40000
  0
LINE
  8
Contour
 62
   7
 39
0.100
  6
CONTINUOUS
 10
19.98000
 20
128.40000
 30
 0
 11
19.98000
 21
128.40000
  0
LINE
  8
Engraving
 62
   7
 39
0.400
  6
CONTINUOUS
 10
3.15000
 20
113.67600
 30
 0
 11
1.69600
 21
113.67600
  0
LINE
  8
Engraving
 62
   7
 39
0.400
  6
CONTINUOUS
 10
1.69600
 20
113.67600
 30
 0
 11
1.69600
 21
110.12500
  0
LINE
  8
Engraving
 62
   7
 39
0.400
  6
CONTINUOUS
 10
3.09500
 20
111.94200
 30
 0
 11
1.69600
 21
111.94200
  0
LINE
  8
Engraving
 62
   7
 39
0.400
  6
CONTINUOUS
 10
4.91200
 20
111.94200
 30
 0
 11
5.16400
 21
111.94200
  0
LINE
  8
Engraving
 62
   7
 39
0.400
  6
CONTINUOUS
 10
5.16400
 20
111.94200
 30
 0
 11
5.38700
 21
111.80300
  0
LINE
  8
Engraving
 62
   7
 39
0.400
  6
CONTINUOUS
 10
5.38700
 20
111.80300
 30
 0
 11
5.52700
 21
111.60700
  0
LINE
  8
Engraving
 62
   7
 39
0.400
  6
CONTINUOUS
 10
5.52700
 20
111.60700
 30
 0
 11
5.55500
 21
111.41100
  0
LINE
  8
Engraving
 62
   7
 39
0.400
  6
CONTINUOUS
 10
5.55500
 20
111.41100
 30
 0
 11
5.55500
 21
110.54400
  0
LINE
  8
Engraving
 62
   7
 39
0.400
  6
CONTINUOUS
 10
5.55500
 20
110.54400
 30
 0
 11
5.58300
 21
110.34900
  0
LINE
  8
Engraving
 62
   7
 39
0.400
  6
CONTINUOUS
 10
5.58300
 20
110.34900
 30
 0
 11
5.61100
 21
110.12500
  0
LINE
  8
Engraving
 62
   7
 39
0.400
  6
CONTINUOUS
 10
3.87700
 20
110.12500
 30
 0
 11
3.87700
 21
113.67600
  0
LINE
  8
Engraving
 62
   7
 39
0.400
  6
CONTINUOUS
 10
3.87700
 20
113.67600
 30
 0
 11
4.88400
 21
113.67600
  0
LINE
  8
Engraving
 62
   7
 39
0.400
  6
CONTINUOUS
 10
4.88400
 20
113.67600
 30
 0
 11
5.19200
 21
113.59200
  0
LINE
  8
Engraving
 62
   7
 39
0.400
  6
CONTINUOUS
 10
5.19200
 20
113.59200
 30
 0
 11
5.38700
 21
113.45200
  0
LINE
  8
Engraving
 62
   7
 39
0.400
  6
CONTINUOUS
 10
5.38700
 20
113.45200
 30
 0
 11
5.52700
 21
113.25700
  0
LINE
  8
Engraving
 62
   7
 39
0.400
  6
CONTINUOUS
 10
5.52700
 20
113.25700
 30
 0
 11
5.55500
 21
113.00500
  0
LINE
  8
Engraving
 62
   7
 39
0.400
  6
CONTINUOUS
 10
5.55500
 20
113.00500
 30
 0
 11
5.55500
 21
112.61300
  0
LINE
  8
Engraving
 62
   7
 39
0.400
  6
CONTINUOUS
 10
5.55500
 20
112.61300
 30
 0
 11
5.52700
 21
112.39000
  0
LINE
  8
Engraving
 62
   7
 39
0.400
  6
CONTINUOUS
 10
5.52700
 20
112.39000
 30
 0
 11
5.38700
 21
112.16600
  0
LINE
  8
Engraving
 62
   7
 39
0.400
  6
CONTINUOUS
 10
5.38700
 20
112.16600
 30
 0
 11
5.22000
 21
112.02600
  0
LINE
  8
Engraving
 62
   7
 39
0.400
  6
CONTINUOUS
 10
5.22000
 20
112.02600
 30
 0
 11
4.91200
 21
111.94200
  0
LINE
  8
Engraving
 62
   7
 39
0.400
  6
CONTINUOUS
 10
4.91200
 20
111.94200
 30
 0
 11
3.87700
 21
111.94200
  0
LINE
  8
Engraving
 62
   7
 39
0.400
  6
CONTINUOUS
 10
7.76400
 20
113.67600
 30
 0
 11
6.31000
 21
113.67600
  0
LINE
  8
Engraving
 62
   7
 39
0.400
  6
CONTINUOUS
 10
6.31000
 20
113.67600
 30
 0
 11
6.31000
 21
110.12500
  0
LINE
  8
Engraving
 62
   7
 39
0.400
  6
CONTINUOUS
 10
6.31000
 20
110.12500
 30
 0
 11
7.79200
 21
110.12500
  0
LINE
  8
Engraving
 62
   7
 39
0.400
  6
CONTINUOUS
 10
7.70800
 20
111.94200
 30
 0
 11
6.31000
 21
111.94200
  0
LINE
  8
Engraving
 62
   7
 39
0.400
  6
CONTINUOUS
 10
8.51900
 20
110.12500
 30
 0
 11
9.52500
 21
113.67600
  0
LINE
  8
Engraving
 62
   7
 39
0.400
  6
CONTINUOUS
 10
9.52500
 20
113.67600
 30
 0
 11
9.63700
 21
113.67600
  0
LINE
  8
Engraving
 62
   7
 39
0.400
  6
CONTINUOUS
 10
9.63700
 20
113.67600
 30
 0
 11
10.64400
 21
110.12500
  0
LINE
  8
Engraving
 62
   7
 39
0.400
  6
CONTINUOUS
 10
8.82600
 20
111.21500
 30
 0
 11
10.33600
 21
111.21500
  0
LINE
  8
Engraving
 62
   7
 39
0.400
  6
CONTINUOUS
 10
11.34300
 20
111.83100
 30
 0
 11
11.34300
 21
110.76800
  0
LINE
  8
Engraving
 62
   7
 39
0.400
  6
CONTINUOUS
 10
11.34300
 20
110.76800
 30
 0
 11
11.42700
 21
110.46100
  0
LINE
  8
Engraving
 62
   7
 39
0.400
  6
CONTINUOUS
 10
11.42700
 20
110.46100
 30
 0
 11
11.53900
 21
110.29300
  0
LINE
  8
Engraving
 62
   7
 39
0.400
  6
CONTINUOUS
 10
11.53900
 20
110.29300
 30
 0
 11
11.73400
 21
110.15300
  0
LINE
  8
Engraving
 62
   7
 39
0.400
  6
CONTINUOUS
 10
11.73400
 20
110.15300
 30
 0
 11
12.01400
 21
110.09700
  0
LINE
  8
Engraving
 62
   7
 39
0.400
  6
CONTINUOUS
 10
12.01400
 20
110.09700
 30
 0
 11
12.48900
 21
110.09700
  0
LINE
  8
Engraving
 62
   7
 39
0.400
  6
CONTINUOUS
 10
12.48900
 20
110.09700
 30
 0
 11
12.74100
 21
110.12500
  0
LINE
  8
Engraving
 62
   7
 39
0.400
  6
CONTINUOUS
 10
12.74100
 20
110.12500
 30
 0
 11
13.44000
 21
110.12500
  0
LINE
  8
Engraving
 62
   7
 39
0.400
  6
CONTINUOUS
 10
13.44000
 20
110.12500
 30
 0
 11
12.74100
 21
110.12500
  0
LINE
  8
Engraving
 62
   7
 39
0.400
  6
CONTINUOUS
 10
12.74100
 20
110.12500
 30
 0
 11
12.93700
 21
110.26500
  0
LINE
  8
Engraving
 62
   7
 39
0.400
  6
CONTINUOUS
 10
12.93700
 20
110.26500
 30
 0
 11
13.10400
 21
110.51600
  0
LINE
  8
Engraving
 62
   7
 39
0.400
  6
CONTINUOUS
 10
13.10400
 20
110.51600
 30
 0
 11
13.16000
 21
110.76800
  0
LINE
  8
Engraving
 62
   7
 39
0.400
  6
CONTINUOUS
 10
13.16000
 20
110.76800
 30
 0
 11
13.16000
 21
113.03300
  0
LINE
  8
Engraving
 62
   7
 39
0.400
  6
CONTINUOUS
 10
13.16000
 20
113.03300
 30
 0
 11
13.10400
 21
113.31300
  0
LINE
  8
Engraving
 62
   7
 39
0.400
  6
CONTINUOUS
 10
13.10400
 20
113.31300
 30
 0
 11
12.99300
 21
113.48000
  0
LINE
  8
Engraving
 62
   7
 39
0.400
  6
CONTINUOUS
 10
12.99300
 20
113.48000
 30
 0
 11
12.76900
 21
113.64800
  0
LINE
  8
Engraving
 62
   7
 39
0.400
  6
CONTINUOUS
 10
12.76900
 20
113.64800
 30
 0
 11
12.48900
 21
113.70400
  0
LINE
  8
Engraving
 62
   7
 39
0.400
  6
CONTINUOUS
 10
12.48900
 20
113.70400
 30
 0
 11
12.01400
 21
113.70400
  0
LINE
  8
Engraving
 62
   7
 39
0.400
  6
CONTINUOUS
 10
12.01400
 20
113.70400
 30
 0
 11
11.76200
 21
113.64800
  0
LINE
  8
Engraving
 62
   7
 39
0.400
  6
CONTINUOUS
 10
11.76200
 20
113.64800
 30
 0
 11
11.56700
 21
113.53600
  0
LINE
  8
Engraving
 62
   7
 39
0.400
  6
CONTINUOUS
 10
11.56700
 20
113.53600
 30
 0
 11
11.42700
 21
113.36800
  0
LINE
  8
Engraving
 62
   7
 39
0.400
  6
CONTINUOUS
 10
11.42700
 20
113.36800
 30
 0
 11
11.34300
 21
113.03300
  0
LINE
  8
Engraving
 62
   7
 39
0.400
  6
CONTINUOUS
 10
11.34300
 20
113.03300
 30
 0
 11
11.34300
 21
111.83100
  0
LINE
  8
Engraving
 62
   7
 39
0.400
  6
CONTINUOUS
 10
14.13900
 20
111.63500
 30
 0
 11
16.01200
 21
111.63500
  0
LINE
  8
Engraving
 62
   7
 39
0.400
  6
CONTINUOUS
 10
16.71100
 20
111.16000
 30
 0
 11
16.71100
 21
110.82400
  0
LINE
  8
Engraving
 62
   7
 39
0.400
  6
CONTINUOUS
 10
16.71100
 20
110.82400
 30
 0
 11
16.76700
 21
110.54400
  0
LINE
  8
Engraving
 62
   7
 39
0.400
  6
CONTINUOUS
 10
16.76700
 20
110.54400
 30
 0
 11
16.90700
 21
110.34900
  0
LINE
  8
Engraving
 62
   7
 39
0.400
  6
CONTINUOUS
 10
16.90700
 20
110.34900
 30
 0
 11
17.07500
 21
110.20900
  0
LINE
  8
Engraving
 62
   7
 39
0.400
  6
CONTINUOUS
 10
17.07500
 20
110.20900
 30
 0
 11
17.35400
 21
110.12500
  0
LINE
  8
Engraving
 62
   7
 39
0.400
  6
CONTINUOUS
 10
17.35400
 20
110.12500
 30
 0
 11
17.49400
 21
110.09700
  0
LINE
  8
Engraving
 62
   7
 39
0.400
  6
CONTINUOUS
 10
17.49400
 20
110.09700
 30
 0
 11
17.74600
 21
110.12500
  0
LINE
  8
Engraving
 62
   7
 39
0.400
  6
CONTINUOUS
 10
17.74600
 20
110.12500
 30
 0
 11
17.94200
 21
110.20900
  0
LINE
  8
Engraving
 62
   7
 39
0.400
  6
CONTINUOUS
 10
17.94200
 20
110.20900
 30
 0
 11
18.10900
 21
110.34900
  0
LINE
  8
Engraving
 62
   7
 39
0.400
  6
CONTINUOUS
 10
18.10900
 20
110.34900
 30
 0
 11
18.24900
 21
110.54400
  0
LINE
  8
Engraving
 62
   7
 39
0.400
  6
CONTINUOUS
 10
18.24900
 20
110.54400
 30
 0
 11
18.30500
 21
110.82400
  0
LINE
  8
Engraving
 62
   7
 39
0.400
  6
CONTINUOUS
 10
18.30500
 20
110.82400
 30
 0
 11
18.30500
 21
111.46700
  0
LINE
  8
Engraving
 62
   7
 39
0.400
  6
CONTINUOUS
 10
18.30500
 20
111.46700
 30
 0
 11
18.24900
 21
111.71900
  0
LINE
  8
Engraving
 62
   7
 39
0.400
  6
CONTINUOUS
 10
18.24900
 20
111.71900
 30
 0
 11
18.10900
 21
111.91400
  0
LINE
  8
Engraving
 62
   7
 39
0.400
  6
CONTINUOUS
 10
18.10900
 20
111.91400
 30
 0
 11
17.85800
 21
112.02600
  0
LINE
  8
Engraving
 62
   7
 39
0.400
  6
CONTINUOUS
 10
17.85800
 20
112.02600
 30
 0
 11
17.18700
 21
112.02600
  0
LINE
  8
Engraving
 62
   7
 39
0.400
  6
CONTINUOUS
 10
17.18700
 20
112.02600
 30
 0
 11
17.85800
 21
112.02600
  0
LINE
  8
Engraving
 62
   7
 39
0.400
  6
CONTINUOUS
 10
17.85800
 20
112.02600
 30
 0
 11
18.08100
 21
112.19400
  0
LINE
  8
Engraving
 62
   7
 39
0.400
  6
CONTINUOUS
 10
18.08100
 20
112.19400
 30
 0
 11
18.22100
 21
112.33400
  0
LINE
  8
Engraving
 62
   7
 39
0.400
  6
CONTINUOUS
 10
18.22100
 20
112.33400
 30
 0
 11
18.24900
 21
112.53000
  0
LINE
  8
Engraving
 62
   7
 39
0.400
  6
CONTINUOUS
 10
18.24900
 20
112.53000
 30
 0
 11
18.24900
 21
113.06100
  0
LINE
  8
Engraving
 62
   7
 39
0.400
  6
CONTINUOUS
 10
18.24900
 20
113.06100
 30
 0
 11
18.22100
 21
113.28500
  0
LINE
  8
Engraving
 62
   7
 39
0.400
  6
CONTINUOUS
 10
18.22100
 20
113.28500
 30
 0
 11
18.10900
 21
113.48000
  0
LINE
  8
Engraving
 62
   7
 39
0.400
  6
CONTINUOUS
 10
18.10900
 20
113.48000
 30
 0
 11
17.94200
 21
113.64800
  0
LINE
  8
Engraving
 62
   7
 39
0.400
  6
CONTINUOUS
 10
17.94200
 20
113.64800
 30
 0
 11
17.74600
 21
113.70400
  0
LINE
  8
Engraving
 62
   7
 39
0.400
  6
CONTINUOUS
 10
17.74600
 20
113.70400
 30
 0
 11
17.57800
 21
113.73200
  0
LINE
  8
Engraving
 62
   7
 39
0.400
  6
CONTINUOUS
 10
17.57800
 20
113.73200
 30
 0
 11
17.43800
 21
113.73200
  0
LINE
  8
Engraving
 62
   7
 39
0.400
  6
CONTINUOUS
 10
17.43800
 20
113.73200
 30
 0
 11
17.21500
 21
113.70400
  0
LINE
  8
Engraving
 62
   7
 39
0.400
  6
CONTINUOUS
 10
17.21500
 20
113.70400
 30
 0
 11
17.01900
 21
113.59200
  0
LINE
  8
Engraving
 62
   7
 39
0.400
  6
CONTINUOUS
 10
17.01900
 20
113.59200
 30
 0
 11
16.87900
 21
113.45200
  0
LINE
  8
Engraving
 62
   7
 39
0.400
  6
CONTINUOUS
 10
16.87900
 20
113.45200
 30
 0
 11
16.79500
 21
113.25700
  0
LINE
  8
Engraving
 62
   7
 39
0.400
  6
CONTINUOUS
 10
16.79500
 20
113.25700
 30
 0
 11
16.73900
 21
113.06100
  0
LINE
  8
Engraving
 62
   7
 39
0.400
  6
CONTINUOUS
 10
16.73900
 20
113.06100
 30
 0
 11
16.73900
 21
112.72500
  0
LINE
  8
Engraving
 62
   7
 39
0.400
  6
CONTINUOUS
 10
16.96500
 20
93.77700
 30
 0
 11
16.66200
 21
93.77700
  0
LINE
  8
Engraving
 62
   7
 39
0.400
  6
CONTINUOUS
 10
16.66200
 20
93.77700
 30
 0
 11
16.52100
 21
93.75600
  0
LINE
  8
Engraving
 62
   7
 39
0.400
  6
CONTINUOUS
 10
16.52100
 20
93.75600
 30
 0
 11
16.37900
 21
93.69600
  0
LINE
  8
Engraving
 62
   7
 39
0.400
  6
CONTINUOUS
 10
16.37900
 20
93.69600
 30
 0
 11
16.29900
 21
93.59500
  0
LINE
  8
Engraving
 62
   7
 39
0.400
  6
CONTINUOUS
 10
16.29900
 20
93.59500
 30
 0
 11
16.23800
 21
93.49400
  0
LINE
  8
Engraving
 62
   7
 39
0.400
  6
CONTINUOUS
 10
16.23800
 20
93.49400
 30
 0
 11
16.19800
 21
93.37300
  0
LINE
  8
Engraving
 62
   7
 39
0.400
  6
CONTINUOUS
 10
16.19800
 20
93.37300
 30
 0
 11
16.19800
 21
93.09100
  0
LINE
  8
Engraving
 62
   7
 39
0.400
  6
CONTINUOUS
 10
16.19800
 20
93.09100
 30
 0
 11
16.21800
 21
92.90900
  0
LINE
  8
Engraving
 62
   7
 39
0.400
  6
CONTINUOUS
 10
16.21800
 20
92.90900
 30
 0
 11
16.31900
 21
92.76800
  0
LINE
  8
Engraving
 62
   7
 39
0.400
  6
CONTINUOUS
 10
16.31900
 20
92.76800
 30
 0
 11
16.44000
 21
92.68700
  0
LINE
  8
Engraving
 62
   7
 39
0.400
  6
CONTINUOUS
 10
16.44000
 20
92.68700
 30
 0
 11
16.60100
 21
92.62600
  0
LINE
  8
Engraving
 62
   7
 39
0.400
  6
CONTINUOUS
 10
16.60100
 20
92.62600
 30
 0
 11
18.31700
 21
92.62600
  0
LINE
  8
Engraving
 62
   7
 39
0.400
  6
CONTINUOUS
 10
18.31700
 20
92.62600
 30
 0
 11
18.49800
 21
92.66700
  0
LINE
  8
Engraving
 62
   7
 39
0.400
  6
CONTINUOUS
 10
18.49800
 20
92.66700
 30
 0
 11
18.62000
 21
92.72700
  0
LINE
  8
Engraving
 62
   7
 39
0.400
  6
CONTINUOUS
 10
18.62000
 20
92.72700
 30
 0
 11
18.72000
 21
92.84800
  0
LINE
  8
Engraving
 62
   7
 39
0.400
  6
CONTINUOUS
 10
18.72000
 20
92.84800
 30
 0
 11
18.78100
 21
92.94900
  0
LINE
  8
Engraving
 62
   7
 39
0.400
  6
CONTINUOUS
 10
18.78100
 20
92.94900
 30
 0
 11
18.80100
 21
93.11100
  0
LINE
  8
Engraving
 62
   7
 39
0.400
  6
CONTINUOUS
 10
18.80100
 20
93.11100
 30
 0
 11
18.80100
 21
93.31300
  0
LINE
  8
Engraving
 62
   7
 39
0.400
  6
CONTINUOUS
 10
18.80100
 20
93.31300
 30
 0
 11
18.78100
 21
93.45400
  0
LINE
  8
Engraving
 62
   7
 39
0.400
  6
CONTINUOUS
 10
18.78100
 20
93.45400
 30
 0
 11
18.70000
 21
93.61500
  0
LINE
  8
Engraving
 62
   7
 39
0.400
  6
CONTINUOUS
 10
18.70000
 20
93.61500
 30
 0
 11
18.59900
 21
93.71600
  0
LINE
  8
Engraving
 62
   7
 39
0.400
  6
CONTINUOUS
 10
18.59900
 20
93.71600
 30
 0
 11
18.43800
 21
93.79700
  0
LINE
  8
Engraving
 62
   7
 39
0.400
  6
CONTINUOUS
 10
18.43800
 20
93.79700
 30
 0
 11
18.31700
 21
93.79700
  0
LINE
  8
Engraving
 62
   7
 39
0.400
  6
CONTINUOUS
 10
18.31700
 20
93.79700
 30
 0
 11
18.07500
 21
93.79700
  0
LINE
  8
Engraving
 62
   7
 39
0.400
  6
CONTINUOUS
 10
16.21800
 20
94.32200
 30
 0
 11
18.78100
 21
95.04800
  0
LINE
  8
Engraving
 62
   7
 39
0.400
  6
CONTINUOUS
 10
18.78100
 20
95.04800
 30
 0
 11
16.21800
 21
95.77500
  0
LINE
  8
Engraving
 62
   7
 39
0.400
  6
CONTINUOUS
 10
16.96500
 20
77.54500
 30
 0
 11
16.66200
 21
77.54500
  0
LINE
  8
Engraving
 62
   7
 39
0.400
  6
CONTINUOUS
 10
16.66200
 20
77.54500
 30
 0
 11
16.52100
 21
77.52400
  0
LINE
  8
Engraving
 62
   7
 39
0.400
  6
CONTINUOUS
 10
16.52100
 20
77.52400
 30
 0
 11
16.37900
 21
77.46400
  0
LINE
  8
Engraving
 62
   7
 39
0.400
  6
CONTINUOUS
 10
16.37900
 20
77.46400
 30
 0
 11
16.29900
 21
77.36300
  0
LINE
  8
Engraving
 62
   7
 39
0.400
  6
CONTINUOUS
 10
16.29900
 20
77.36300
 30
 0
 11
16.23800
 21
77.26200
  0
LINE
  8
Engraving
 62
   7
 39
0.400
  6
CONTINUOUS
 10
16.23800
 20
77.26200
 30
 0
 11
16.19800
 21
77.14100
  0
LINE
  8
Engraving
 62
   7
 39
0.400
  6
CONTINUOUS
 10
16.19800
 20
77.14100
 30
 0
 11
16.19800
 21
76.85900
  0
LINE
  8
Engraving
 62
   7
 39
0.400
  6
CONTINUOUS
 10
16.19800
 20
76.85900
 30
 0
 11
16.21800
 21
76.67700
  0
LINE
  8
Engraving
 62
   7
 39
0.400
  6
CONTINUOUS
 10
16.21800
 20
76.67700
 30
 0
 11
16.31900
 21
76.53600
  0
LINE
  8
Engraving
 62
   7
 39
0.400
  6
CONTINUOUS
 10
16.31900
 20
76.53600
 30
 0
 11
16.44000
 21
76.45500
  0
LINE
  8
Engraving
 62
   7
 39
0.400
  6
CONTINUOUS
 10
16.44000
 20
76.45500
 30
 0
 11
16.60100
 21
76.39400
  0
LINE
  8
Engraving
 62
   7
 39
0.400
  6
CONTINUOUS
 10
16.60100
 20
76.39400
 30
 0
 11
18.31700
 21
76.39400
  0
LINE
  8
Engraving
 62
   7
 39
0.400
  6
CONTINUOUS
 10
18.31700
 20
76.39400
 30
 0
 11
18.49800
 21
76.43500
  0
LINE
  8
Engraving
 62
   7
 39
0.400
  6
CONTINUOUS
 10
18.49800
 20
76.43500
 30
 0
 11
18.62000
 21
76.49500
  0
LINE
  8
Engraving
 62
   7
 39
0.400
  6
CONTINUOUS
 10
18.62000
 20
76.49500
 30
 0
 11
18.72000
 21
76.61600
  0
LINE
  8
Engraving
 62
   7
 39
0.400
  6
CONTINUOUS
 10
18.72000
 20
76.61600
 30
 0
 11
18.78100
 21
76.71700
  0
LINE
  8
Engraving
 62
   7
 39
0.400
  6
CONTINUOUS
 10
18.78100
 20
76.71700
 30
 0
 11
18.80100
 21
76.87900
  0
LINE
  8
Engraving
 62
   7
 39
0.400
  6
CONTINUOUS
 10
18.80100
 20
76.87900
 30
 0
 11
18.80100
 21
77.08100
  0
LINE
  8
Engraving
 62
   7
 39
0.400
  6
CONTINUOUS
 10
18.80100
 20
77.08100
 30
 0
 11
18.78100
 21
77.22200
  0
LINE
  8
Engraving
 62
   7
 39
0.400
  6
CONTINUOUS
 10
18.78100
 20
77.22200
 30
 0
 11
18.70000
 21
77.38300
  0
LINE
  8
Engraving
 62
   7
 39
0.400
  6
CONTINUOUS
 10
18.70000
 20
77.38300
 30
 0
 11
18.59900
 21
77.48400
  0
LINE
  8
Engraving
 62
   7
 39
0.400
  6
CONTINUOUS
 10
18.59900
 20
77.48400
 30
 0
 11
18.43800
 21
77.56500
  0
LINE
  8
Engraving
 62
   7
 39
0.400
  6
CONTINUOUS
 10
18.43800
 20
77.56500
 30
 0
 11
18.31700
 21
77.56500
  0
LINE
  8
Engraving
 62
   7
 39
0.400
  6
CONTINUOUS
 10
18.31700
 20
77.56500
 30
 0
 11
18.07500
 21
77.56500
  0
LINE
  8
Engraving
 62
   7
 39
0.400
  6
CONTINUOUS
 10
16.21800
 20
78.09000
 30
 0
 11
18.78100
 21
78.81600
  0
LINE
  8
Engraving
 62
   7
 39
0.400
  6
CONTINUOUS
 10
18.78100
 20
78.81600
 30
 0
 11
16.21800
 21
79.54300
  0
LINE
  8
Engraving
 62
   7
 39
0.400
  6
CONTINUOUS
 10
16.21800
 20
82.08500
 30
 0
 11
18.78100
 21
82.08500
  0
LINE
  8
Engraving
 62
   7
 39
0.400
  6
CONTINUOUS
 10
18.78100
 20
82.08500
 30
 0
 11
18.78100
 21
83.09400
  0
LINE
  8
Engraving
 62
   7
 39
0.400
  6
CONTINUOUS
 10
16.21800
 20
83.61900
 30
 0
 11
18.78100
 21
84.34600
  0
LINE
  8
Engraving
 62
   7
 39
0.400
  6
CONTINUOUS
 10
18.78100
 20
84.34600
 30
 0
 11
16.21800
 21
85.07200
  0
LINE
  8
Engraving
 62
   7
 39
0.400
  6
CONTINUOUS
 10
16.21800
 20
85.59700
 30
 0
 11
18.78100
 21
85.59700
  0
LINE
  8
Engraving
 62
   7
 39
0.400
  6
CONTINUOUS
 10
18.78100
 20
85.59700
 30
 0
 11
18.78100
 21
86.60600
  0
LINE
  8
Engraving
 62
   7
 39
0.400
  6
CONTINUOUS
 10
16.96500
 20
65.06400
 30
 0
 11
16.66200
 21
65.06400
  0
LINE
  8
Engraving
 62
   7
 39
0.400
  6
CONTINUOUS
 10
16.66200
 20
65.06400
 30
 0
 11
16.52100
 21
65.04300
  0
LINE
  8
Engraving
 62
   7
 39
0.400
  6
CONTINUOUS
 10
16.52100
 20
65.04300
 30
 0
 11
16.37900
 21
64.98300
  0
LINE
  8
Engraving
 62
   7
 39
0.400
  6
CONTINUOUS
 10
16.37900
 20
64.98300
 30
 0
 11
16.29900
 21
64.88200
  0
LINE
  8
Engraving
 62
   7
 39
0.400
  6
CONTINUOUS
 10
16.29900
 20
64.88200
 30
 0
 11
16.23800
 21
64.78100
  0
LINE
  8
Engraving
 62
   7
 39
0.400
  6
CONTINUOUS
 10
16.23800
 20
64.78100
 30
 0
 11
16.19800
 21
64.66000
  0
LINE
  8
Engraving
 62
   7
 39
0.400
  6
CONTINUOUS
 10
16.19800
 20
64.66000
 30
 0
 11
16.19800
 21
64.37800
  0
LINE
  8
Engraving
 62
   7
 39
0.400
  6
CONTINUOUS
 10
16.19800
 20
64.37800
 30
 0
 11
16.21800
 21
64.19600
  0
LINE
  8
Engraving
 62
   7
 39
0.400
  6
CONTINUOUS
 10
16.21800
 20
64.19600
 30
 0
 11
16.31900
 21
64.05500
  0
LINE
  8
Engraving
 62
   7
 39
0.400
  6
CONTINUOUS
 10
16.31900
 20
64.05500
 30
 0
 11
16.44000
 21
63.97400
  0
LINE
  8
Engraving
 62
   7
 39
0.400
  6
CONTINUOUS
 10
16.44000
 20
63.97400
 30
 0
 11
16.60100
 21
63.91300
  0
LINE
  8
Engraving
 62
   7
 39
0.400
  6
CONTINUOUS
 10
16.60100
 20
63.91300
 30
 0
 11
18.31700
 21
63.91300
  0
LINE
  8
Engraving
 62
   7
 39
0.400
  6
CONTINUOUS
 10
18.31700
 20
63.91300
 30
 0
 11
18.49800
 21
63.95400
  0
LINE
  8
Engraving
 62
   7
 39
0.400
  6
CONTINUOUS
 10
18.49800
 20
63.95400
 30
 0
 11
18.62000
 21
64.01400
  0
LINE
  8
Engraving
 62
   7
 39
0.400
  6
CONTINUOUS
 10
18.62000
 20
64.01400
 30
 0
 11
18.72000
 21
64.13500
  0
LINE
  8
Engraving
 62
   7
 39
0.400
  6
CONTINUOUS
 10
18.72000
 20
64.13500
 30
 0
 11
18.78100
 21
64.23600
  0
LINE
  8
Engraving
 62
   7
 39
0.400
  6
CONTINUOUS
 10
18.78100
 20
64.23600
 30
 0
 11
18.80100
 21
64.39800
  0
LINE
  8
Engraving
 62
   7
 39
0.400
  6
CONTINUOUS
 10
18.80100
 20
64.39800
 30
 0
 11
18.80100
 21
64.60000
  0
LINE
  8
Engraving
 62
   7
 39
0.400
  6
CONTINUOUS
 10
18.80100
 20
64.60000
 30
 0
 11
18.78100
 21
64.74100
  0
LINE
  8
Engraving
 62
   7
 39
0.400
  6
CONTINUOUS
 10
18.78100
 20
64.74100
 30
 0
 11
18.70000
 21
64.90200
  0
LINE
  8
Engraving
 62
   7
 39
0.400
  6
CONTINUOUS
 10
18.70000
 20
64.90200
 30
 0
 11
18.59900
 21
65.00300
  0
LINE
  8
Engraving
 62
   7
 39
0.400
  6
CONTINUOUS
 10
18.59900
 20
65.00300
 30
 0
 11
18.43800
 21
65.08400
  0
LINE
  8
Engraving
 62
   7
 39
0.400
  6
CONTINUOUS
 10
18.43800
 20
65.08400
 30
 0
 11
18.31700
 21
65.08400
  0
LINE
  8
Engraving
 62
   7
 39
0.400
  6
CONTINUOUS
 10
18.31700
 20
65.08400
 30
 0
 11
18.07500
 21
65.08400
  0
LINE
  8
Engraving
 62
   7
 39
0.400
  6
CONTINUOUS
 10
16.21800
 20
65.60900
 30
 0
 11
18.29700
 21
65.60900
  0
LINE
  8
Engraving
 62
   7
 39
0.400
  6
CONTINUOUS
 10
18.29700
 20
65.60900
 30
 0
 11
18.53900
 21
65.66900
  0
LINE
  8
Engraving
 62
   7
 39
0.400
  6
CONTINUOUS
 10
18.53900
 20
65.66900
 30
 0
 11
18.66000
 21
65.75000
  0
LINE
  8
Engraving
 62
   7
 39
0.400
  6
CONTINUOUS
 10
18.66000
 20
65.75000
 30
 0
 11
18.76100
 21
65.91100
  0
LINE
  8
Engraving
 62
   7
 39
0.400
  6
CONTINUOUS
 10
18.76100
 20
65.91100
 30
 0
 11
18.80100
 21
66.11300
  0
LINE
  8
Engraving
 62
   7
 39
0.400
  6
CONTINUOUS
 10
18.80100
 20
66.11300
 30
 0
 11
18.80100
 21
66.37500
  0
LINE
  8
Engraving
 62
   7
 39
0.400
  6
CONTINUOUS
 10
18.80100
 20
66.37500
 30
 0
 11
18.78100
 21
66.53700
  0
LINE
  8
Engraving
 62
   7
 39
0.400
  6
CONTINUOUS
 10
18.78100
 20
66.53700
 30
 0
 11
18.68000
 21
66.71900
  0
LINE
  8
Engraving
 62
   7
 39
0.400
  6
CONTINUOUS
 10
18.68000
 20
66.71900
 30
 0
 11
18.49800
 21
66.86000
  0
LINE
  8
Engraving
 62
   7
 39
0.400
  6
CONTINUOUS
 10
18.49800
 20
66.86000
 30
 0
 11
18.29700
 21
66.90000
  0
LINE
  8
Engraving
 62
   7
 39
0.400
  6
CONTINUOUS
 10
18.29700
 20
66.90000
 30
 0
 11
16.21800
 21
66.90000
  0
LINE
  8
Engraving
 62
   7
 39
0.400
  6
CONTINUOUS
 10
18.78100
 20
68.09100
 30
 0
 11
16.21800
 21
68.09100
  0
LINE
  8
Engraving
 62
   7
 39
0.400
  6
CONTINUOUS
 10
16.21800
 20
67.40500
 30
 0
 11
16.21800
 21
68.79700
  0
LINE
  8
Engraving
 62
   7
 39
0.400
  6
CONTINUOUS
 10
16.72300
 20
69.32200
 30
 0
 11
16.54100
 21
69.58400
  0
LINE
  8
Engraving
 62
   7
 39
0.400
  6
CONTINUOUS
 10
16.54100
 20
69.58400
 30
 0
 11
16.21800
 21
69.84700
  0
LINE
  8
Engraving
 62
   7
 39
0.400
  6
CONTINUOUS
 10
16.21800
 20
69.84700
 30
 0
 11
18.78100
 21
69.84700
  0
LINE
  8
Engraving
 62
   7
 39
0.400
  6
CONTINUOUS
 10
16.96500
 20
48.86200
 30
 0
 11
16.66200
 21
48.86200
  0
LINE
  8
Engraving
 62
   7
 39
0.400
  6
CONTINUOUS
 10
16.66200
 20
48.86200
 30
 0
 11
16.52100
 21
48.84100
  0
LINE
  8
Engraving
 62
   7
 39
0.400
  6
CONTINUOUS
 10
16.52100
 20
48.84100
 30
 0
 11
16.37900
 21
48.78100
  0
LINE
  8
Engraving
 62
   7
 39
0.400
  6
CONTINUOUS
 10
16.37900
 20
48.78100
 30
 0
 11
16.29900
 21
48.68000
  0
LINE
  8
Engraving
 62
   7
 39
0.400
  6
CONTINUOUS
 10
16.29900
 20
48.68000
 30
 0
 11
16.23800
 21
48.57900
  0
LINE
  8
Engraving
 62
   7
 39
0.400
  6
CONTINUOUS
 10
16.23800
 20
48.57900
 30
 0
 11
16.19800
 21
48.45800
  0
LINE
  8
Engraving
 62
   7
 39
0.400
  6
CONTINUOUS
 10
16.19800
 20
48.45800
 30
 0
 11
16.19800
 21
48.17600
  0
LINE
  8
Engraving
 62
   7
 39
0.400
  6
CONTINUOUS
 10
16.19800
 20
48.17600
 30
 0
 11
16.21800
 21
47.99400
  0
LINE
  8
Engraving
 62
   7
 39
0.400
  6
CONTINUOUS
 10
16.21800
 20
47.99400
 30
 0
 11
16.31900
 21
47.85300
  0
LINE
  8
Engraving
 62
   7
 39
0.400
  6
CONTINUOUS
 10
16.31900
 20
47.85300
 30
 0
 11
16.44000
 21
47.77200
  0
LINE
  8
Engraving
 62
   7
 39
0.400
  6
CONTINUOUS
 10
16.44000
 20
47.77200
 30
 0
 11
16.60100
 21
47.71100
  0
LINE
  8
Engraving
 62
   7
 39
0.400
  6
CONTINUOUS
 10
16.60100
 20
47.71100
 30
 0
 11
18.31700
 21
47.71100
  0
LINE
  8
Engraving
 62
   7
 39
0.400
  6
CONTINUOUS
 10
18.31700
 20
47.71100
 30
 0
 11
18.49800
 21
47.75200
  0
LINE
  8
Engraving
 62
   7
 39
0.400
  6
CONTINUOUS
 10
18.49800
 20
47.75200
 30
 0
 11
18.62000
 21
47.81200
  0
LINE
  8
Engraving
 62
   7
 39
0.400
  6
CONTINUOUS
 10
18.62000
 20
47.81200
 30
 0
 11
18.72000
 21
47.93300
  0
LINE
  8
Engraving
 62
   7
 39
0.400
  6
CONTINUOUS
 10
18.72000
 20
47.93300
 30
 0
 11
18.78100
 21
48.03400
  0
LINE
  8
Engraving
 62
   7
 39
0.400
  6
CONTINUOUS
 10
18.78100
 20
48.03400
 30
 0
 11
18.80100
 21
48.19600
  0
LINE
  8
Engraving
 62
   7
 39
0.400
  6
CONTINUOUS
 10
18.80100
 20
48.19600
 30
 0
 11
18.80100
 21
48.39800
  0
LINE
  8
Engraving
 62
   7
 39
0.400
  6
CONTINUOUS
 10
18.80100
 20
48.39800
 30
 0
 11
18.78100
 21
48.53900
  0
LINE
  8
Engraving
 62
   7
 39
0.400
  6
CONTINUOUS
 10
18.78100
 20
48.53900
 30
 0
 11
18.70000
 21
48.70000
  0
LINE
  8
Engraving
 62
   7
 39
0.400
  6
CONTINUOUS
 10
18.70000
 20
48.70000
 30
 0
 11
18.59900
 21
48.80100
  0
LINE
  8
Engraving
 62
   7
 39
0.400
  6
CONTINUOUS
 10
18.59900
 20
48.80100
 30
 0
 11
18.43800
 21
48.88200
  0
LINE
  8
Engraving
 62
   7
 39
0.400
  6
CONTINUOUS
 10
18.43800
 20
48.88200
 30
 0
 11
18.31700
 21
48.88200
  0
LINE
  8
Engraving
 62
   7
 39
0.400
  6
CONTINUOUS
 10
18.31700
 20
48.88200
 30
 0
 11
18.07500
 21
48.88200
  0
LINE
  8
Engraving
 62
   7
 39
0.400
  6
CONTINUOUS
 10
16.21800
 20
49.40700
 30
 0
 11
18.29700
 21
49.40700
  0
LINE
  8
Engraving
 62
   7
 39
0.400
  6
CONTINUOUS
 10
18.29700
 20
49.40700
 30
 0
 11
18.53900
 21
49.46700
  0
LINE
  8
Engraving
 62
   7
 39
0.400
  6
CONTINUOUS
 10
18.53900
 20
49.46700
 30
 0
 11
18.66000
 21
49.54800
  0
LINE
  8
Engraving
 62
   7
 39
0.400
  6
CONTINUOUS
 10
18.66000
 20
49.54800
 30
 0
 11
18.76100
 21
49.70900
  0
LINE
  8
Engraving
 62
   7
 39
0.400
  6
CONTINUOUS
 10
18.76100
 20
49.70900
 30
 0
 11
18.80100
 21
49.91100
  0
LINE
  8
Engraving
 62
   7
 39
0.400
  6
CONTINUOUS
 10
18.80100
 20
49.91100
 30
 0
 11
18.80100
 21
50.17300
  0
LINE
  8
Engraving
 62
   7
 39
0.400
  6
CONTINUOUS
 10
18.80100
 20
50.17300
 30
 0
 11
18.78100
 21
50.33500
  0
LINE
  8
Engraving
 62
   7
 39
0.400
  6
CONTINUOUS
 10
18.78100
 20
50.33500
 30
 0
 11
18.68000
 21
50.51700
  0
LINE
  8
Engraving
 62
   7
 39
0.400
  6
CONTINUOUS
 10
18.68000
 20
50.51700
 30
 0
 11
18.49800
 21
50.65800
  0
LINE
  8
Engraving
 62
   7
 39
0.400
  6
CONTINUOUS
 10
18.49800
 20
50.65800
 30
 0
 11
18.29700
 21
50.69800
  0
LINE
  8
Engraving
 62
   7
 39
0.400
  6
CONTINUOUS
 10
18.29700
 20
50.69800
 30
 0
 11
16.21800
 21
50.69800
  0
LINE
  8
Engraving
 62
   7
 39
0.400
  6
CONTINUOUS
 10
18.78100
 20
51.88900
 30
 0
 11
16.21800
 21
51.88900
  0
LINE
  8
Engraving
 62
   7
 39
0.400
  6
CONTINUOUS
 10
16.21800
 20
51.20300
 30
 0
 11
16.21800
 21
52.59500
  0
ARC
  8
Engraving
 62
   7
 39
0.400
  6
CONTINUOUS
 10
16.77000
 20
53.70300
 30
 0
 40
0.59000
 50
193.65853
 51
-72.73294
  0
ARC
  8
Engraving
 62
   7
 39
0.400
  6
CONTINUOUS
 10
16.72800
 20
53.72100
 30
 0
 40
0.55300
 50
96.85512
 51
-163.49932
  0
ARC
  8
Engraving
 62
   7
 39
0.400
  6
CONTINUOUS
 10
16.84400
 20
53.04800
 30
 0
 40
1.23500
 50
417.39013
 51
98.47114
  0
ARC
  8
Engraving
 62
   7
 39
0.400
  6
CONTINUOUS
 10
15.98900
 20
51.56100
 30
 0
 40
2.95000
 50
402.76098
 51
58.96630
  0
LINE
  8
Engraving
 62
   7
 39
0.400
  6
CONTINUOUS
 10
18.15500
 20
53.56400
 30
 0
 11
18.64000
 21
53.10000
  0
LINE
  8
Engraving
 62
   7
 39
0.400
  6
CONTINUOUS
 10
18.64000
 20
53.10000
 30
 0
 11
18.78100
 21
53.10000
  0
LINE
  8
Engraving
 62
   7
 39
0.400
  6
CONTINUOUS
 10
18.78100
 20
53.10000
 30
 0
 11
18.78100
 21
54.29000
  0
LINE
  8
Engraving
 62
   7
 39
0.400
  6
CONTINUOUS
 10
18.78100
 20
54.29000
 30
 0
 11
18.78100
 21
53.10000
  0
LINE
  8
Engraving
 62
   7
 39
0.400
  6
CONTINUOUS
 10
16.21800
 20
33.54200
 30
 0
 11
18.78100
 21
33.54200
  0
LINE
  8
Engraving
 62
   7
 39
0.400
  6
CONTINUOUS
 10
18.78100
 20
34.04700
 30
 0
 11
16.21800
 21
34.04700
  0
LINE
  8
Engraving
 62
   7
 39
0.400
  6
CONTINUOUS
 10
16.21800
 20
34.04700
 30
 0
 11
16.21800
 21
34.22900
  0
LINE
  8
Engraving
 62
   7
 39
0.400
  6
CONTINUOUS
 10
16.21800
 20
34.22900
 30
 0
 11
18.78100
 21
35.43900
  0
LINE
  8
Engraving
 62
   7
 39
0.400
  6
CONTINUOUS
 10
18.78100
 20
35.43900
 30
 0
 11
16.21800
 21
35.43900
  0
LINE
  8
Engraving
 62
   7
 39
0.400
  6
CONTINUOUS
 10
17.48900
 20
18.63800
 30
 0
 11
18.31700
 21
18.63800
  0
LINE
  8
Engraving
 62
   7
 39
0.400
  6
CONTINUOUS
 10
18.31700
 20
18.63800
 30
 0
 11
18.51900
 21
18.67900
  0
LINE
  8
Engraving
 62
   7
 39
0.400
  6
CONTINUOUS
 10
18.51900
 20
18.67900
 30
 0
 11
18.64000
 21
18.75900
  0
LINE
  8
Engraving
 62
   7
 39
0.400
  6
CONTINUOUS
 10
18.64000
 20
18.75900
 30
 0
 11
18.72000
 21
18.86000
  0
LINE
  8
Engraving
 62
   7
 39
0.400
  6
CONTINUOUS
 10
18.72000
 20
18.86000
 30
 0
 11
18.80100
 21
19.00100
  0
LINE
  8
Engraving
 62
   7
 39
0.400
  6
CONTINUOUS
 10
18.80100
 20
19.00100
 30
 0
 11
18.80100
 21
19.12300
  0
LINE
  8
Engraving
 62
   7
 39
0.400
  6
CONTINUOUS
 10
18.80100
 20
19.12300
 30
 0
 11
18.80100
 21
19.44500
  0
LINE
  8
Engraving
 62
   7
 39
0.400
  6
CONTINUOUS
 10
18.80100
 20
19.44500
 30
 0
 11
18.78100
 21
19.62700
  0
LINE
  8
Engraving
 62
   7
 39
0.400
  6
CONTINUOUS
 10
18.78100
 20
19.62700
 30
 0
 11
18.70000
 21
19.76800
  0
LINE
  8
Engraving
 62
   7
 39
0.400
  6
CONTINUOUS
 10
18.70000
 20
19.76800
 30
 0
 11
18.53900
 21
19.88900
  0
LINE
  8
Engraving
 62
   7
 39
0.400
  6
CONTINUOUS
 10
18.53900
 20
19.88900
 30
 0
 11
18.31700
 21
19.95000
  0
LINE
  8
Engraving
 62
   7
 39
0.400
  6
CONTINUOUS
 10
18.31700
 20
19.95000
 30
 0
 11
16.68200
 21
19.95000
  0
LINE
  8
Engraving
 62
   7
 39
0.400
  6
CONTINUOUS
 10
16.68200
 20
19.95000
 30
 0
 11
16.52100
 21
19.91000
  0
LINE
  8
Engraving
 62
   7
 39
0.400
  6
CONTINUOUS
 10
16.52100
 20
19.91000
 30
 0
 11
16.35900
 21
19.82900
  0
LINE
  8
Engraving
 62
   7
 39
0.400
  6
CONTINUOUS
 10
16.35900
 20
19.82900
 30
 0
 11
16.27900
 21
19.72800
  0
LINE
  8
Engraving
 62
   7
 39
0.400
  6
CONTINUOUS
 10
16.27900
 20
19.72800
 30
 0
 11
16.21800
 21
19.62700
  0
LINE
  8
Engraving
 62
   7
 39
0.400
  6
CONTINUOUS
 10
16.21800
 20
19.62700
 30
 0
 11
16.19800
 21
19.44500
  0
LINE
  8
Engraving
 62
   7
 39
0.400
  6
CONTINUOUS
 10
16.19800
 20
19.44500
 30
 0
 11
16.19800
 21
19.12300
  0
LINE
  8
Engraving
 62
   7
 39
0.400
  6
CONTINUOUS
 10
16.19800
 20
19.12300
 30
 0
 11
16.21800
 21
18.96100
  0
LINE
  8
Engraving
 62
   7
 39
0.400
  6
CONTINUOUS
 10
16.21800
 20
18.96100
 30
 0
 11
16.29900
 21
18.82000
  0
LINE
  8
Engraving
 62
   7
 39
0.400
  6
CONTINUOUS
 10
16.29900
 20
18.82000
 30
 0
 11
16.40000
 21
18.71900
  0
LINE
  8
Engraving
 62
   7
 39
0.400
  6
CONTINUOUS
 10
16.40000
 20
18.71900
 30
 0
 11
16.52100
 21
18.65800
  0
LINE
  8
Engraving
 62
   7
 39
0.400
  6
CONTINUOUS
 10
16.52100
 20
18.65800
 30
 0
 11
16.68200
 21
18.63800
  0
LINE
  8
Engraving
 62
   7
 39
0.400
  6
CONTINUOUS
 10
16.68200
 20
18.63800
 30
 0
 11
17.48900
 21
18.63800
  0
LINE
  8
Engraving
 62
   7
 39
0.400
  6
CONTINUOUS
 10
16.21800
 20
20.47500
 30
 0
 11
18.29700
 21
20.47500
  0
LINE
  8
Engraving
 62
   7
 39
0.400
  6
CONTINUOUS
 10
18.29700
 20
20.47500
 30
 0
 11
18.53900
 21
20.53500
  0
LINE
  8
Engraving
 62
   7
 39
0.400
  6
CONTINUOUS
 10
18.53900
 20
20.53500
 30
 0
 11
18.66000
 21
20.61600
  0
LINE
  8
Engraving
 62
   7
 39
0.400
  6
CONTINUOUS
 10
18.66000
 20
20.61600
 30
 0
 11
18.76100
 21
20.77700
  0
LINE
  8
Engraving
 62
   7
 39
0.400
  6
CONTINUOUS
 10
18.76100
 20
20.77700
 30
 0
 11
18.80100
 21
20.97900
  0
LINE
  8
Engraving
 62
   7
 39
0.400
  6
CONTINUOUS
 10
18.80100
 20
20.97900
 30
 0
 11
18.80100
 21
21.24200
  0
LINE
  8
Engraving
 62
   7
 39
0.400
  6
CONTINUOUS
 10
18.80100
 20
21.24200
 30
 0
 11
18.78100
 21
21.40300
  0
LINE
  8
Engraving
 62
   7
 39
0.400
  6
CONTINUOUS
 10
18.78100
 20
21.40300
 30
 0
 11
18.68000
 21
21.58500
  0
LINE
  8
Engraving
 62
   7
 39
0.400
  6
CONTINUOUS
 10
18.68000
 20
21.58500
 30
 0
 11
18.49800
 21
21.72600
  0
LINE
  8
Engraving
 62
   7
 39
0.400
  6
CONTINUOUS
 10
18.49800
 20
21.72600
 30
 0
 11
18.29700
 21
21.76600
  0
LINE
  8
Engraving
 62
   7
 39
0.400
  6
CONTINUOUS
 10
18.29700
 20
21.76600
 30
 0
 11
16.21800
 21
21.76600
  0
LINE
  8
Engraving
 62
   7
 39
0.400
  6
CONTINUOUS
 10
18.78100
 20
22.95700
 30
 0
 11
16.21800
 21
22.95700
  0
LINE
  8
Engraving
 62
   7
 39
0.400
  6
CONTINUOUS
 10
16.21800
 20
22.27100
 30
 0
 11
16.21800
 21
23.66300
  0
CIRCLE
  8
Contour
 62
   7
 39
0.100
  6
CONTINUOUS
 10
7.50000
 20
125.50000
 30
 0
 40
1.50000
  0
CIRCLE
  8
Contour
 62
   7
 39
0.100
  6
CONTINUOUS
 10
7.50000
 20
3.00000
 30
 0
 40
1.50000
  0
CIRCLE
  8
Contour
 62
   7
 39
0.100
  6
CONTINUOUS
 10
9.76000
 20
94.20000
 30
 0
 40
3.00000
  0
CIRCLE
  8
Contour
 62
   7
 39
0.100
  6
CONTINUOUS
 10
9.76000
 20
21.15000
 30
 0
 40
3.00000
  0
CIRCLE
  8
Contour
 62
   7
 39
0.100
  6
CONTINUOUS
 10
9.76000
 20
34.49000
 30
 0
 40
3.00000
  0
CIRCLE
  8
Contour
 62
   7
 39
0.100
  6
CONTINUOUS
 10
9.76000
 20
81.50000
 30
 0
 40
3.75000
  0
CIRCLE
  8
Contour
 62
   7
 39
0.100
  6
CONTINUOUS
 10
9.76000
 20
66.88000
 30
 0
 40
3.75000
  0
CIRCLE
  8
Contour
 62
   7
 39
0.100
  6
CONTINUOUS
 10
9.76000
 20
51.00000
 30
 0
 40
3.75000
  0
ENDSEC
  0
EOF
