G75*
%MOIN*%
%OFA0B0*%
%FSLAX25Y25*%
%IPPOS*%
%LPD*%
%AMOC8*
5,1,8,0,0,1.08239X$1,22.5*
%
%ADD10C,0.00000*%
%ADD11C,0.00900*%
%ADD12C,0.00800*%
%ADD13C,0.00700*%
%ADD14C,0.00200*%
D10*
X0001800Y0003000D02*
X0001800Y0067961D01*
X0395501Y0067961D01*
X0395501Y0003000D01*
X0001800Y0003000D01*
D11*
X0361888Y0009671D02*
X0365692Y0009671D01*
X0363790Y0009671D02*
X0365692Y0007769D01*
X0365692Y0006818D01*
X0364741Y0011945D02*
X0363790Y0011945D01*
X0363790Y0015748D01*
X0362839Y0015748D02*
X0364741Y0015748D01*
X0365692Y0014797D01*
X0365692Y0012896D01*
X0364741Y0011945D01*
X0361888Y0012896D02*
X0361888Y0014797D01*
X0362839Y0015748D01*
X0361888Y0017898D02*
X0362839Y0018849D01*
X0366642Y0018849D01*
X0365692Y0019799D02*
X0365692Y0017898D01*
X0365692Y0022011D02*
X0365692Y0022962D01*
X0363790Y0024864D01*
X0361888Y0024864D02*
X0365692Y0024864D01*
X0364741Y0027138D02*
X0363790Y0027138D01*
X0363790Y0030941D01*
X0362839Y0030941D02*
X0364741Y0030941D01*
X0365692Y0029990D01*
X0365692Y0028089D01*
X0364741Y0027138D01*
X0361888Y0028089D02*
X0361888Y0029990D01*
X0362839Y0030941D01*
X0363790Y0033215D02*
X0367593Y0033215D01*
X0363790Y0033215D02*
X0361888Y0035117D01*
X0363790Y0037018D01*
X0367593Y0037018D01*
X0361888Y0039168D02*
X0361888Y0041070D01*
X0361888Y0040119D02*
X0367593Y0040119D01*
X0367593Y0041070D01*
X0364741Y0043344D02*
X0361888Y0043344D01*
X0361888Y0046196D01*
X0362839Y0047147D01*
X0363790Y0046196D01*
X0363790Y0043344D01*
X0364741Y0043344D02*
X0365692Y0044294D01*
X0365692Y0046196D01*
X0365692Y0049421D02*
X0361888Y0049421D01*
X0361888Y0052273D01*
X0362839Y0053224D01*
X0365692Y0053224D01*
X0366642Y0055498D02*
X0362839Y0055498D01*
X0361888Y0056449D01*
X0361888Y0059301D01*
X0367593Y0059301D01*
X0367593Y0056449D01*
X0366642Y0055498D01*
D12*
X0345300Y0054500D02*
X0330300Y0054500D01*
X0345300Y0054500D02*
X0345300Y0043500D01*
X0302115Y0043374D02*
X0302115Y0055185D01*
X0313926Y0055185D01*
X0293060Y0051642D02*
X0290894Y0051642D01*
X0290894Y0053807D01*
X0282233Y0053807D01*
X0293060Y0051642D02*
X0293060Y0019358D01*
X0290894Y0019358D01*
X0290894Y0017193D01*
X0282233Y0017193D01*
X0263335Y0017193D02*
X0250737Y0017193D01*
X0250737Y0019358D01*
X0248572Y0019358D01*
X0248572Y0051642D01*
X0250737Y0051642D01*
X0250737Y0053807D01*
X0263335Y0053807D01*
X0235300Y0054500D02*
X0220300Y0054500D01*
X0235300Y0054500D02*
X0235300Y0043500D01*
X0192115Y0043374D02*
X0192115Y0055185D01*
X0203926Y0055185D01*
X0165300Y0054500D02*
X0150300Y0054500D01*
X0165300Y0054500D02*
X0165300Y0043500D01*
X0122115Y0043374D02*
X0122115Y0055185D01*
X0133926Y0055185D01*
X0113060Y0051642D02*
X0110894Y0051642D01*
X0110894Y0053807D01*
X0102233Y0053807D01*
X0113060Y0051642D02*
X0113060Y0019358D01*
X0110894Y0019358D01*
X0110894Y0017193D01*
X0102233Y0017193D01*
X0121800Y0016000D02*
X0134800Y0016000D01*
X0148300Y0016000D02*
X0165300Y0016000D01*
X0165300Y0026000D01*
X0191800Y0029000D02*
X0191800Y0016000D01*
X0204800Y0016000D01*
X0218300Y0016000D02*
X0235300Y0016000D01*
X0235300Y0026000D01*
X0301800Y0029000D02*
X0301800Y0016000D01*
X0314800Y0016000D01*
X0328300Y0016000D02*
X0345300Y0016000D01*
X0345300Y0026000D01*
X0121800Y0029000D02*
X0121800Y0016000D01*
X0083335Y0017193D02*
X0070737Y0017193D01*
X0070737Y0019358D01*
X0068572Y0019358D01*
X0068572Y0051642D01*
X0070737Y0051642D01*
X0070737Y0053807D01*
X0083335Y0053807D01*
X0055300Y0054500D02*
X0040300Y0054500D01*
X0055300Y0054500D02*
X0055300Y0043500D01*
X0012115Y0043374D02*
X0012115Y0055185D01*
X0023926Y0055185D01*
X0011800Y0029000D02*
X0011800Y0016000D01*
X0024800Y0016000D01*
X0038300Y0016000D02*
X0055300Y0016000D01*
X0055300Y0026000D01*
D13*
X0056001Y0013505D02*
X0054566Y0013505D01*
X0053849Y0012788D01*
X0052114Y0013505D02*
X0049245Y0013505D01*
X0050680Y0013505D02*
X0050680Y0009202D01*
X0053849Y0009202D02*
X0056718Y0012071D01*
X0056718Y0012788D01*
X0056001Y0013505D01*
X0047510Y0013505D02*
X0047510Y0009919D01*
X0046793Y0009202D01*
X0045359Y0009202D01*
X0044641Y0009919D01*
X0044641Y0013505D01*
X0042906Y0012788D02*
X0042189Y0013505D01*
X0040755Y0013505D01*
X0040037Y0012788D01*
X0040037Y0009919D01*
X0040755Y0009202D01*
X0042189Y0009202D01*
X0042906Y0009919D01*
X0042906Y0012788D01*
X0053849Y0009202D02*
X0056718Y0009202D01*
X0154650Y0008350D02*
X0156085Y0008350D01*
X0155367Y0008350D02*
X0155367Y0012654D01*
X0154650Y0012654D02*
X0156085Y0012654D01*
X0157719Y0012654D02*
X0160588Y0008350D01*
X0160588Y0012654D01*
X0162323Y0011936D02*
X0163040Y0012654D01*
X0164475Y0012654D01*
X0165192Y0011936D01*
X0165192Y0011219D01*
X0162323Y0008350D01*
X0165192Y0008350D01*
X0157719Y0008350D02*
X0157719Y0012654D01*
X0219650Y0011936D02*
X0219650Y0009067D01*
X0220367Y0008350D01*
X0221802Y0008350D01*
X0222519Y0009067D01*
X0222519Y0011936D01*
X0221802Y0012654D01*
X0220367Y0012654D01*
X0219650Y0011936D01*
X0224254Y0012654D02*
X0224254Y0009067D01*
X0224971Y0008350D01*
X0226406Y0008350D01*
X0227123Y0009067D01*
X0227123Y0012654D01*
X0228858Y0012654D02*
X0231727Y0012654D01*
X0230292Y0012654D02*
X0230292Y0008350D01*
X0233462Y0008350D02*
X0236331Y0008350D01*
X0234896Y0008350D02*
X0234896Y0012654D01*
X0233462Y0011219D01*
X0334650Y0012654D02*
X0336085Y0012654D01*
X0335367Y0012654D02*
X0335367Y0008350D01*
X0334650Y0008350D02*
X0336085Y0008350D01*
X0337719Y0008350D02*
X0337719Y0012654D01*
X0340588Y0008350D01*
X0340588Y0012654D01*
X0342323Y0011219D02*
X0343758Y0012654D01*
X0343758Y0008350D01*
X0345192Y0008350D02*
X0342323Y0008350D01*
D14*
X0267800Y0035500D02*
X0267802Y0035626D01*
X0267808Y0035752D01*
X0267818Y0035878D01*
X0267832Y0036004D01*
X0267850Y0036129D01*
X0267872Y0036253D01*
X0267897Y0036377D01*
X0267927Y0036500D01*
X0267960Y0036621D01*
X0267998Y0036742D01*
X0268039Y0036861D01*
X0268084Y0036980D01*
X0268132Y0037096D01*
X0268184Y0037211D01*
X0268240Y0037324D01*
X0268300Y0037436D01*
X0268363Y0037545D01*
X0268429Y0037653D01*
X0268498Y0037758D01*
X0268571Y0037861D01*
X0268648Y0037962D01*
X0268727Y0038060D01*
X0268809Y0038156D01*
X0268895Y0038249D01*
X0268983Y0038340D01*
X0269074Y0038427D01*
X0269168Y0038512D01*
X0269264Y0038593D01*
X0269363Y0038672D01*
X0269464Y0038747D01*
X0269568Y0038819D01*
X0269674Y0038888D01*
X0269782Y0038954D01*
X0269892Y0039016D01*
X0270004Y0039074D01*
X0270117Y0039129D01*
X0270233Y0039180D01*
X0270350Y0039228D01*
X0270468Y0039272D01*
X0270588Y0039312D01*
X0270709Y0039348D01*
X0270831Y0039381D01*
X0270954Y0039410D01*
X0271078Y0039434D01*
X0271202Y0039455D01*
X0271327Y0039472D01*
X0271453Y0039485D01*
X0271579Y0039494D01*
X0271705Y0039499D01*
X0271832Y0039500D01*
X0271958Y0039497D01*
X0272084Y0039490D01*
X0272210Y0039479D01*
X0272335Y0039464D01*
X0272460Y0039445D01*
X0272584Y0039422D01*
X0272708Y0039396D01*
X0272830Y0039365D01*
X0272952Y0039331D01*
X0273072Y0039292D01*
X0273191Y0039250D01*
X0273309Y0039205D01*
X0273425Y0039155D01*
X0273540Y0039102D01*
X0273652Y0039045D01*
X0273763Y0038985D01*
X0273872Y0038921D01*
X0273979Y0038854D01*
X0274084Y0038784D01*
X0274187Y0038710D01*
X0274287Y0038633D01*
X0274385Y0038553D01*
X0274480Y0038470D01*
X0274572Y0038384D01*
X0274662Y0038295D01*
X0274749Y0038203D01*
X0274832Y0038109D01*
X0274913Y0038012D01*
X0274991Y0037912D01*
X0275066Y0037810D01*
X0275137Y0037706D01*
X0275205Y0037599D01*
X0275269Y0037491D01*
X0275330Y0037380D01*
X0275388Y0037268D01*
X0275442Y0037154D01*
X0275492Y0037038D01*
X0275539Y0036921D01*
X0275582Y0036802D01*
X0275621Y0036682D01*
X0275657Y0036561D01*
X0275688Y0036438D01*
X0275716Y0036315D01*
X0275740Y0036191D01*
X0275760Y0036066D01*
X0275776Y0035941D01*
X0275788Y0035815D01*
X0275796Y0035689D01*
X0275800Y0035563D01*
X0275800Y0035437D01*
X0275796Y0035311D01*
X0275788Y0035185D01*
X0275776Y0035059D01*
X0275760Y0034934D01*
X0275740Y0034809D01*
X0275716Y0034685D01*
X0275688Y0034562D01*
X0275657Y0034439D01*
X0275621Y0034318D01*
X0275582Y0034198D01*
X0275539Y0034079D01*
X0275492Y0033962D01*
X0275442Y0033846D01*
X0275388Y0033732D01*
X0275330Y0033620D01*
X0275269Y0033509D01*
X0275205Y0033401D01*
X0275137Y0033294D01*
X0275066Y0033190D01*
X0274991Y0033088D01*
X0274913Y0032988D01*
X0274832Y0032891D01*
X0274749Y0032797D01*
X0274662Y0032705D01*
X0274572Y0032616D01*
X0274480Y0032530D01*
X0274385Y0032447D01*
X0274287Y0032367D01*
X0274187Y0032290D01*
X0274084Y0032216D01*
X0273979Y0032146D01*
X0273872Y0032079D01*
X0273763Y0032015D01*
X0273652Y0031955D01*
X0273540Y0031898D01*
X0273425Y0031845D01*
X0273309Y0031795D01*
X0273191Y0031750D01*
X0273072Y0031708D01*
X0272952Y0031669D01*
X0272830Y0031635D01*
X0272708Y0031604D01*
X0272584Y0031578D01*
X0272460Y0031555D01*
X0272335Y0031536D01*
X0272210Y0031521D01*
X0272084Y0031510D01*
X0271958Y0031503D01*
X0271832Y0031500D01*
X0271705Y0031501D01*
X0271579Y0031506D01*
X0271453Y0031515D01*
X0271327Y0031528D01*
X0271202Y0031545D01*
X0271078Y0031566D01*
X0270954Y0031590D01*
X0270831Y0031619D01*
X0270709Y0031652D01*
X0270588Y0031688D01*
X0270468Y0031728D01*
X0270350Y0031772D01*
X0270233Y0031820D01*
X0270117Y0031871D01*
X0270004Y0031926D01*
X0269892Y0031984D01*
X0269782Y0032046D01*
X0269674Y0032112D01*
X0269568Y0032181D01*
X0269464Y0032253D01*
X0269363Y0032328D01*
X0269264Y0032407D01*
X0269168Y0032488D01*
X0269074Y0032573D01*
X0268983Y0032660D01*
X0268895Y0032751D01*
X0268809Y0032844D01*
X0268727Y0032940D01*
X0268648Y0033038D01*
X0268571Y0033139D01*
X0268498Y0033242D01*
X0268429Y0033347D01*
X0268363Y0033455D01*
X0268300Y0033564D01*
X0268240Y0033676D01*
X0268184Y0033789D01*
X0268132Y0033904D01*
X0268084Y0034020D01*
X0268039Y0034139D01*
X0267998Y0034258D01*
X0267960Y0034379D01*
X0267927Y0034500D01*
X0267897Y0034623D01*
X0267872Y0034747D01*
X0267850Y0034871D01*
X0267832Y0034996D01*
X0267818Y0035122D01*
X0267808Y0035248D01*
X0267802Y0035374D01*
X0267800Y0035500D01*
X0266300Y0035500D02*
X0266302Y0035648D01*
X0266308Y0035796D01*
X0266318Y0035944D01*
X0266332Y0036092D01*
X0266350Y0036239D01*
X0266372Y0036386D01*
X0266398Y0036532D01*
X0266427Y0036677D01*
X0266461Y0036822D01*
X0266499Y0036965D01*
X0266540Y0037108D01*
X0266585Y0037249D01*
X0266635Y0037389D01*
X0266687Y0037527D01*
X0266744Y0037665D01*
X0266804Y0037800D01*
X0266868Y0037934D01*
X0266935Y0038066D01*
X0267006Y0038196D01*
X0267081Y0038325D01*
X0267159Y0038451D01*
X0267240Y0038575D01*
X0267324Y0038697D01*
X0267412Y0038816D01*
X0267503Y0038933D01*
X0267597Y0039048D01*
X0267695Y0039160D01*
X0267795Y0039269D01*
X0267898Y0039376D01*
X0268004Y0039480D01*
X0268112Y0039581D01*
X0268224Y0039679D01*
X0268338Y0039774D01*
X0268454Y0039865D01*
X0268573Y0039954D01*
X0268694Y0040039D01*
X0268818Y0040121D01*
X0268944Y0040200D01*
X0269071Y0040275D01*
X0269201Y0040347D01*
X0269333Y0040416D01*
X0269466Y0040480D01*
X0269601Y0040541D01*
X0269738Y0040599D01*
X0269876Y0040653D01*
X0270016Y0040703D01*
X0270157Y0040749D01*
X0270299Y0040791D01*
X0270442Y0040830D01*
X0270586Y0040864D01*
X0270732Y0040895D01*
X0270877Y0040922D01*
X0271024Y0040945D01*
X0271171Y0040964D01*
X0271319Y0040979D01*
X0271466Y0040990D01*
X0271615Y0040997D01*
X0271763Y0041000D01*
X0271911Y0040999D01*
X0272059Y0040994D01*
X0272207Y0040985D01*
X0272355Y0040972D01*
X0272503Y0040955D01*
X0272649Y0040934D01*
X0272796Y0040909D01*
X0272941Y0040880D01*
X0273086Y0040848D01*
X0273229Y0040811D01*
X0273372Y0040771D01*
X0273514Y0040726D01*
X0273654Y0040678D01*
X0273793Y0040626D01*
X0273930Y0040571D01*
X0274066Y0040511D01*
X0274201Y0040448D01*
X0274333Y0040382D01*
X0274464Y0040312D01*
X0274593Y0040238D01*
X0274719Y0040161D01*
X0274844Y0040081D01*
X0274966Y0039997D01*
X0275087Y0039910D01*
X0275204Y0039820D01*
X0275320Y0039726D01*
X0275432Y0039630D01*
X0275542Y0039531D01*
X0275650Y0039428D01*
X0275754Y0039323D01*
X0275856Y0039215D01*
X0275954Y0039104D01*
X0276050Y0038991D01*
X0276143Y0038875D01*
X0276232Y0038757D01*
X0276318Y0038636D01*
X0276401Y0038513D01*
X0276481Y0038388D01*
X0276557Y0038261D01*
X0276630Y0038131D01*
X0276699Y0038000D01*
X0276764Y0037867D01*
X0276827Y0037733D01*
X0276885Y0037596D01*
X0276940Y0037458D01*
X0276990Y0037319D01*
X0277038Y0037178D01*
X0277081Y0037037D01*
X0277121Y0036894D01*
X0277156Y0036750D01*
X0277188Y0036605D01*
X0277216Y0036459D01*
X0277240Y0036313D01*
X0277260Y0036166D01*
X0277276Y0036018D01*
X0277288Y0035871D01*
X0277296Y0035722D01*
X0277300Y0035574D01*
X0277300Y0035426D01*
X0277296Y0035278D01*
X0277288Y0035129D01*
X0277276Y0034982D01*
X0277260Y0034834D01*
X0277240Y0034687D01*
X0277216Y0034541D01*
X0277188Y0034395D01*
X0277156Y0034250D01*
X0277121Y0034106D01*
X0277081Y0033963D01*
X0277038Y0033822D01*
X0276990Y0033681D01*
X0276940Y0033542D01*
X0276885Y0033404D01*
X0276827Y0033267D01*
X0276764Y0033133D01*
X0276699Y0033000D01*
X0276630Y0032869D01*
X0276557Y0032739D01*
X0276481Y0032612D01*
X0276401Y0032487D01*
X0276318Y0032364D01*
X0276232Y0032243D01*
X0276143Y0032125D01*
X0276050Y0032009D01*
X0275954Y0031896D01*
X0275856Y0031785D01*
X0275754Y0031677D01*
X0275650Y0031572D01*
X0275542Y0031469D01*
X0275432Y0031370D01*
X0275320Y0031274D01*
X0275204Y0031180D01*
X0275087Y0031090D01*
X0274966Y0031003D01*
X0274844Y0030919D01*
X0274719Y0030839D01*
X0274593Y0030762D01*
X0274464Y0030688D01*
X0274333Y0030618D01*
X0274201Y0030552D01*
X0274066Y0030489D01*
X0273930Y0030429D01*
X0273793Y0030374D01*
X0273654Y0030322D01*
X0273514Y0030274D01*
X0273372Y0030229D01*
X0273229Y0030189D01*
X0273086Y0030152D01*
X0272941Y0030120D01*
X0272796Y0030091D01*
X0272649Y0030066D01*
X0272503Y0030045D01*
X0272355Y0030028D01*
X0272207Y0030015D01*
X0272059Y0030006D01*
X0271911Y0030001D01*
X0271763Y0030000D01*
X0271615Y0030003D01*
X0271466Y0030010D01*
X0271319Y0030021D01*
X0271171Y0030036D01*
X0271024Y0030055D01*
X0270877Y0030078D01*
X0270732Y0030105D01*
X0270586Y0030136D01*
X0270442Y0030170D01*
X0270299Y0030209D01*
X0270157Y0030251D01*
X0270016Y0030297D01*
X0269876Y0030347D01*
X0269738Y0030401D01*
X0269601Y0030459D01*
X0269466Y0030520D01*
X0269333Y0030584D01*
X0269201Y0030653D01*
X0269071Y0030725D01*
X0268944Y0030800D01*
X0268818Y0030879D01*
X0268694Y0030961D01*
X0268573Y0031046D01*
X0268454Y0031135D01*
X0268338Y0031226D01*
X0268224Y0031321D01*
X0268112Y0031419D01*
X0268004Y0031520D01*
X0267898Y0031624D01*
X0267795Y0031731D01*
X0267695Y0031840D01*
X0267597Y0031952D01*
X0267503Y0032067D01*
X0267412Y0032184D01*
X0267324Y0032303D01*
X0267240Y0032425D01*
X0267159Y0032549D01*
X0267081Y0032675D01*
X0267006Y0032804D01*
X0266935Y0032934D01*
X0266868Y0033066D01*
X0266804Y0033200D01*
X0266744Y0033335D01*
X0266687Y0033473D01*
X0266635Y0033611D01*
X0266585Y0033751D01*
X0266540Y0033892D01*
X0266499Y0034035D01*
X0266461Y0034178D01*
X0266427Y0034323D01*
X0266398Y0034468D01*
X0266372Y0034614D01*
X0266350Y0034761D01*
X0266332Y0034908D01*
X0266318Y0035056D01*
X0266308Y0035204D01*
X0266302Y0035352D01*
X0266300Y0035500D01*
X0087800Y0035500D02*
X0087802Y0035626D01*
X0087808Y0035752D01*
X0087818Y0035878D01*
X0087832Y0036004D01*
X0087850Y0036129D01*
X0087872Y0036253D01*
X0087897Y0036377D01*
X0087927Y0036500D01*
X0087960Y0036621D01*
X0087998Y0036742D01*
X0088039Y0036861D01*
X0088084Y0036980D01*
X0088132Y0037096D01*
X0088184Y0037211D01*
X0088240Y0037324D01*
X0088300Y0037436D01*
X0088363Y0037545D01*
X0088429Y0037653D01*
X0088498Y0037758D01*
X0088571Y0037861D01*
X0088648Y0037962D01*
X0088727Y0038060D01*
X0088809Y0038156D01*
X0088895Y0038249D01*
X0088983Y0038340D01*
X0089074Y0038427D01*
X0089168Y0038512D01*
X0089264Y0038593D01*
X0089363Y0038672D01*
X0089464Y0038747D01*
X0089568Y0038819D01*
X0089674Y0038888D01*
X0089782Y0038954D01*
X0089892Y0039016D01*
X0090004Y0039074D01*
X0090117Y0039129D01*
X0090233Y0039180D01*
X0090350Y0039228D01*
X0090468Y0039272D01*
X0090588Y0039312D01*
X0090709Y0039348D01*
X0090831Y0039381D01*
X0090954Y0039410D01*
X0091078Y0039434D01*
X0091202Y0039455D01*
X0091327Y0039472D01*
X0091453Y0039485D01*
X0091579Y0039494D01*
X0091705Y0039499D01*
X0091832Y0039500D01*
X0091958Y0039497D01*
X0092084Y0039490D01*
X0092210Y0039479D01*
X0092335Y0039464D01*
X0092460Y0039445D01*
X0092584Y0039422D01*
X0092708Y0039396D01*
X0092830Y0039365D01*
X0092952Y0039331D01*
X0093072Y0039292D01*
X0093191Y0039250D01*
X0093309Y0039205D01*
X0093425Y0039155D01*
X0093540Y0039102D01*
X0093652Y0039045D01*
X0093763Y0038985D01*
X0093872Y0038921D01*
X0093979Y0038854D01*
X0094084Y0038784D01*
X0094187Y0038710D01*
X0094287Y0038633D01*
X0094385Y0038553D01*
X0094480Y0038470D01*
X0094572Y0038384D01*
X0094662Y0038295D01*
X0094749Y0038203D01*
X0094832Y0038109D01*
X0094913Y0038012D01*
X0094991Y0037912D01*
X0095066Y0037810D01*
X0095137Y0037706D01*
X0095205Y0037599D01*
X0095269Y0037491D01*
X0095330Y0037380D01*
X0095388Y0037268D01*
X0095442Y0037154D01*
X0095492Y0037038D01*
X0095539Y0036921D01*
X0095582Y0036802D01*
X0095621Y0036682D01*
X0095657Y0036561D01*
X0095688Y0036438D01*
X0095716Y0036315D01*
X0095740Y0036191D01*
X0095760Y0036066D01*
X0095776Y0035941D01*
X0095788Y0035815D01*
X0095796Y0035689D01*
X0095800Y0035563D01*
X0095800Y0035437D01*
X0095796Y0035311D01*
X0095788Y0035185D01*
X0095776Y0035059D01*
X0095760Y0034934D01*
X0095740Y0034809D01*
X0095716Y0034685D01*
X0095688Y0034562D01*
X0095657Y0034439D01*
X0095621Y0034318D01*
X0095582Y0034198D01*
X0095539Y0034079D01*
X0095492Y0033962D01*
X0095442Y0033846D01*
X0095388Y0033732D01*
X0095330Y0033620D01*
X0095269Y0033509D01*
X0095205Y0033401D01*
X0095137Y0033294D01*
X0095066Y0033190D01*
X0094991Y0033088D01*
X0094913Y0032988D01*
X0094832Y0032891D01*
X0094749Y0032797D01*
X0094662Y0032705D01*
X0094572Y0032616D01*
X0094480Y0032530D01*
X0094385Y0032447D01*
X0094287Y0032367D01*
X0094187Y0032290D01*
X0094084Y0032216D01*
X0093979Y0032146D01*
X0093872Y0032079D01*
X0093763Y0032015D01*
X0093652Y0031955D01*
X0093540Y0031898D01*
X0093425Y0031845D01*
X0093309Y0031795D01*
X0093191Y0031750D01*
X0093072Y0031708D01*
X0092952Y0031669D01*
X0092830Y0031635D01*
X0092708Y0031604D01*
X0092584Y0031578D01*
X0092460Y0031555D01*
X0092335Y0031536D01*
X0092210Y0031521D01*
X0092084Y0031510D01*
X0091958Y0031503D01*
X0091832Y0031500D01*
X0091705Y0031501D01*
X0091579Y0031506D01*
X0091453Y0031515D01*
X0091327Y0031528D01*
X0091202Y0031545D01*
X0091078Y0031566D01*
X0090954Y0031590D01*
X0090831Y0031619D01*
X0090709Y0031652D01*
X0090588Y0031688D01*
X0090468Y0031728D01*
X0090350Y0031772D01*
X0090233Y0031820D01*
X0090117Y0031871D01*
X0090004Y0031926D01*
X0089892Y0031984D01*
X0089782Y0032046D01*
X0089674Y0032112D01*
X0089568Y0032181D01*
X0089464Y0032253D01*
X0089363Y0032328D01*
X0089264Y0032407D01*
X0089168Y0032488D01*
X0089074Y0032573D01*
X0088983Y0032660D01*
X0088895Y0032751D01*
X0088809Y0032844D01*
X0088727Y0032940D01*
X0088648Y0033038D01*
X0088571Y0033139D01*
X0088498Y0033242D01*
X0088429Y0033347D01*
X0088363Y0033455D01*
X0088300Y0033564D01*
X0088240Y0033676D01*
X0088184Y0033789D01*
X0088132Y0033904D01*
X0088084Y0034020D01*
X0088039Y0034139D01*
X0087998Y0034258D01*
X0087960Y0034379D01*
X0087927Y0034500D01*
X0087897Y0034623D01*
X0087872Y0034747D01*
X0087850Y0034871D01*
X0087832Y0034996D01*
X0087818Y0035122D01*
X0087808Y0035248D01*
X0087802Y0035374D01*
X0087800Y0035500D01*
X0086300Y0035500D02*
X0086302Y0035648D01*
X0086308Y0035796D01*
X0086318Y0035944D01*
X0086332Y0036092D01*
X0086350Y0036239D01*
X0086372Y0036386D01*
X0086398Y0036532D01*
X0086427Y0036677D01*
X0086461Y0036822D01*
X0086499Y0036965D01*
X0086540Y0037108D01*
X0086585Y0037249D01*
X0086635Y0037389D01*
X0086687Y0037527D01*
X0086744Y0037665D01*
X0086804Y0037800D01*
X0086868Y0037934D01*
X0086935Y0038066D01*
X0087006Y0038196D01*
X0087081Y0038325D01*
X0087159Y0038451D01*
X0087240Y0038575D01*
X0087324Y0038697D01*
X0087412Y0038816D01*
X0087503Y0038933D01*
X0087597Y0039048D01*
X0087695Y0039160D01*
X0087795Y0039269D01*
X0087898Y0039376D01*
X0088004Y0039480D01*
X0088112Y0039581D01*
X0088224Y0039679D01*
X0088338Y0039774D01*
X0088454Y0039865D01*
X0088573Y0039954D01*
X0088694Y0040039D01*
X0088818Y0040121D01*
X0088944Y0040200D01*
X0089071Y0040275D01*
X0089201Y0040347D01*
X0089333Y0040416D01*
X0089466Y0040480D01*
X0089601Y0040541D01*
X0089738Y0040599D01*
X0089876Y0040653D01*
X0090016Y0040703D01*
X0090157Y0040749D01*
X0090299Y0040791D01*
X0090442Y0040830D01*
X0090586Y0040864D01*
X0090732Y0040895D01*
X0090877Y0040922D01*
X0091024Y0040945D01*
X0091171Y0040964D01*
X0091319Y0040979D01*
X0091466Y0040990D01*
X0091615Y0040997D01*
X0091763Y0041000D01*
X0091911Y0040999D01*
X0092059Y0040994D01*
X0092207Y0040985D01*
X0092355Y0040972D01*
X0092503Y0040955D01*
X0092649Y0040934D01*
X0092796Y0040909D01*
X0092941Y0040880D01*
X0093086Y0040848D01*
X0093229Y0040811D01*
X0093372Y0040771D01*
X0093514Y0040726D01*
X0093654Y0040678D01*
X0093793Y0040626D01*
X0093930Y0040571D01*
X0094066Y0040511D01*
X0094201Y0040448D01*
X0094333Y0040382D01*
X0094464Y0040312D01*
X0094593Y0040238D01*
X0094719Y0040161D01*
X0094844Y0040081D01*
X0094966Y0039997D01*
X0095087Y0039910D01*
X0095204Y0039820D01*
X0095320Y0039726D01*
X0095432Y0039630D01*
X0095542Y0039531D01*
X0095650Y0039428D01*
X0095754Y0039323D01*
X0095856Y0039215D01*
X0095954Y0039104D01*
X0096050Y0038991D01*
X0096143Y0038875D01*
X0096232Y0038757D01*
X0096318Y0038636D01*
X0096401Y0038513D01*
X0096481Y0038388D01*
X0096557Y0038261D01*
X0096630Y0038131D01*
X0096699Y0038000D01*
X0096764Y0037867D01*
X0096827Y0037733D01*
X0096885Y0037596D01*
X0096940Y0037458D01*
X0096990Y0037319D01*
X0097038Y0037178D01*
X0097081Y0037037D01*
X0097121Y0036894D01*
X0097156Y0036750D01*
X0097188Y0036605D01*
X0097216Y0036459D01*
X0097240Y0036313D01*
X0097260Y0036166D01*
X0097276Y0036018D01*
X0097288Y0035871D01*
X0097296Y0035722D01*
X0097300Y0035574D01*
X0097300Y0035426D01*
X0097296Y0035278D01*
X0097288Y0035129D01*
X0097276Y0034982D01*
X0097260Y0034834D01*
X0097240Y0034687D01*
X0097216Y0034541D01*
X0097188Y0034395D01*
X0097156Y0034250D01*
X0097121Y0034106D01*
X0097081Y0033963D01*
X0097038Y0033822D01*
X0096990Y0033681D01*
X0096940Y0033542D01*
X0096885Y0033404D01*
X0096827Y0033267D01*
X0096764Y0033133D01*
X0096699Y0033000D01*
X0096630Y0032869D01*
X0096557Y0032739D01*
X0096481Y0032612D01*
X0096401Y0032487D01*
X0096318Y0032364D01*
X0096232Y0032243D01*
X0096143Y0032125D01*
X0096050Y0032009D01*
X0095954Y0031896D01*
X0095856Y0031785D01*
X0095754Y0031677D01*
X0095650Y0031572D01*
X0095542Y0031469D01*
X0095432Y0031370D01*
X0095320Y0031274D01*
X0095204Y0031180D01*
X0095087Y0031090D01*
X0094966Y0031003D01*
X0094844Y0030919D01*
X0094719Y0030839D01*
X0094593Y0030762D01*
X0094464Y0030688D01*
X0094333Y0030618D01*
X0094201Y0030552D01*
X0094066Y0030489D01*
X0093930Y0030429D01*
X0093793Y0030374D01*
X0093654Y0030322D01*
X0093514Y0030274D01*
X0093372Y0030229D01*
X0093229Y0030189D01*
X0093086Y0030152D01*
X0092941Y0030120D01*
X0092796Y0030091D01*
X0092649Y0030066D01*
X0092503Y0030045D01*
X0092355Y0030028D01*
X0092207Y0030015D01*
X0092059Y0030006D01*
X0091911Y0030001D01*
X0091763Y0030000D01*
X0091615Y0030003D01*
X0091466Y0030010D01*
X0091319Y0030021D01*
X0091171Y0030036D01*
X0091024Y0030055D01*
X0090877Y0030078D01*
X0090732Y0030105D01*
X0090586Y0030136D01*
X0090442Y0030170D01*
X0090299Y0030209D01*
X0090157Y0030251D01*
X0090016Y0030297D01*
X0089876Y0030347D01*
X0089738Y0030401D01*
X0089601Y0030459D01*
X0089466Y0030520D01*
X0089333Y0030584D01*
X0089201Y0030653D01*
X0089071Y0030725D01*
X0088944Y0030800D01*
X0088818Y0030879D01*
X0088694Y0030961D01*
X0088573Y0031046D01*
X0088454Y0031135D01*
X0088338Y0031226D01*
X0088224Y0031321D01*
X0088112Y0031419D01*
X0088004Y0031520D01*
X0087898Y0031624D01*
X0087795Y0031731D01*
X0087695Y0031840D01*
X0087597Y0031952D01*
X0087503Y0032067D01*
X0087412Y0032184D01*
X0087324Y0032303D01*
X0087240Y0032425D01*
X0087159Y0032549D01*
X0087081Y0032675D01*
X0087006Y0032804D01*
X0086935Y0032934D01*
X0086868Y0033066D01*
X0086804Y0033200D01*
X0086744Y0033335D01*
X0086687Y0033473D01*
X0086635Y0033611D01*
X0086585Y0033751D01*
X0086540Y0033892D01*
X0086499Y0034035D01*
X0086461Y0034178D01*
X0086427Y0034323D01*
X0086398Y0034468D01*
X0086372Y0034614D01*
X0086350Y0034761D01*
X0086332Y0034908D01*
X0086318Y0035056D01*
X0086308Y0035204D01*
X0086302Y0035352D01*
X0086300Y0035500D01*
M02*
