G75*
%MOIN*%
%OFA0B0*%
%FSLAX25Y25*%
%IPPOS*%
%LPD*%
%AMOC8*
5,1,8,0,0,1.08239X$1,22.5*
%
%ADD10C,0.00000*%
%ADD11C,0.01000*%
%ADD12C,0.00400*%
%ADD13C,0.00600*%
%ADD14C,0.00500*%
D10*
X0001800Y0003000D02*
X0001800Y0067961D01*
X0395501Y0067961D01*
X0395501Y0003000D01*
X0001800Y0003000D01*
D11*
X0169300Y0028000D02*
X0169300Y0043000D01*
X0189300Y0043000D01*
X0189300Y0028000D01*
X0169300Y0028000D01*
X0170292Y0030741D02*
X0188940Y0030741D01*
D12*
X0190000Y0030592D02*
X0190000Y0031509D01*
X0190459Y0031968D01*
X0190000Y0033034D02*
X0190000Y0034868D01*
X0190000Y0033951D02*
X0192752Y0033951D01*
X0191835Y0033034D01*
X0192293Y0031968D02*
X0192752Y0031509D01*
X0192752Y0030592D01*
X0192293Y0030133D01*
X0190459Y0030133D01*
X0190000Y0030592D01*
X0190000Y0029117D02*
X0190000Y0028200D01*
X0190000Y0028659D02*
X0192752Y0028659D01*
X0192752Y0029117D02*
X0192752Y0028200D01*
X0217000Y0033200D02*
X0219752Y0033200D01*
X0219752Y0034576D01*
X0219293Y0035035D01*
X0218376Y0035035D01*
X0217917Y0034576D01*
X0217917Y0033200D01*
X0217917Y0034117D02*
X0217000Y0035035D01*
X0217459Y0036100D02*
X0217000Y0036559D01*
X0217000Y0037476D01*
X0217459Y0037935D01*
X0217917Y0037935D01*
X0218376Y0037476D01*
X0218376Y0036100D01*
X0217459Y0036100D01*
X0218376Y0036100D02*
X0219293Y0037017D01*
X0219752Y0037935D01*
X0152252Y0037017D02*
X0151335Y0036100D01*
X0152252Y0037017D02*
X0149500Y0037017D01*
X0149500Y0036100D02*
X0149500Y0037935D01*
X0149500Y0035035D02*
X0150417Y0034117D01*
X0150417Y0034576D02*
X0150417Y0033200D01*
X0149500Y0033200D02*
X0152252Y0033200D01*
X0152252Y0034576D01*
X0151793Y0035035D01*
X0150876Y0035035D01*
X0150417Y0034576D01*
X0176428Y0018328D02*
X0176887Y0018787D01*
X0177804Y0018787D01*
X0178262Y0018328D01*
X0179328Y0018328D02*
X0179328Y0017411D01*
X0179787Y0016952D01*
X0181163Y0016952D01*
X0180245Y0016952D02*
X0179328Y0016035D01*
X0178262Y0016493D02*
X0177804Y0016035D01*
X0176887Y0016035D01*
X0176428Y0016493D01*
X0176428Y0016952D01*
X0176887Y0017411D01*
X0177345Y0017411D01*
X0176887Y0017411D02*
X0176428Y0017869D01*
X0176428Y0018328D01*
X0179328Y0018328D02*
X0179787Y0018787D01*
X0181163Y0018787D01*
X0181163Y0016035D01*
X0041891Y0033225D02*
X0041891Y0034601D01*
X0041432Y0035060D01*
X0040515Y0035060D01*
X0040056Y0034601D01*
X0040056Y0033225D01*
X0039139Y0033225D02*
X0041891Y0033225D01*
X0040056Y0034143D02*
X0039139Y0035060D01*
X0039598Y0036125D02*
X0039139Y0036584D01*
X0039139Y0037501D01*
X0039598Y0037960D01*
X0040515Y0037960D01*
X0040974Y0037501D01*
X0040974Y0037043D01*
X0040515Y0036125D01*
X0041891Y0036125D01*
X0041891Y0037960D01*
X0165165Y0052688D02*
X0167000Y0052688D01*
X0165165Y0054523D01*
X0165165Y0054981D01*
X0165624Y0055440D01*
X0166541Y0055440D01*
X0167000Y0054981D01*
X0168066Y0054981D02*
X0168066Y0054064D01*
X0168524Y0053605D01*
X0169900Y0053605D01*
X0169900Y0052688D02*
X0169900Y0055440D01*
X0168524Y0055440D01*
X0168066Y0054981D01*
X0168983Y0053605D02*
X0168066Y0052688D01*
X0118938Y0063122D02*
X0118938Y0065874D01*
X0117562Y0065874D01*
X0117103Y0065415D01*
X0117103Y0064498D01*
X0117562Y0064039D01*
X0118938Y0064039D01*
X0118020Y0064039D02*
X0117103Y0063122D01*
X0114662Y0063122D02*
X0114662Y0065874D01*
X0116038Y0064498D01*
X0114203Y0064498D01*
X0365529Y0059929D02*
X0368281Y0059929D01*
X0366905Y0058553D01*
X0366905Y0060388D01*
X0365988Y0057488D02*
X0365529Y0057029D01*
X0365529Y0056112D01*
X0365988Y0055653D01*
X0367823Y0055653D01*
X0368281Y0056112D01*
X0368281Y0057029D01*
X0367823Y0057488D01*
X0399500Y0057061D02*
X0399500Y0053992D01*
X0402569Y0053992D02*
X0404104Y0055527D01*
X0399500Y0055527D01*
X0399500Y0058596D02*
X0402569Y0061665D01*
X0403337Y0061665D01*
X0404104Y0060898D01*
X0404104Y0059363D01*
X0403337Y0058596D01*
X0399500Y0058596D02*
X0399500Y0061665D01*
X0401802Y0052457D02*
X0401802Y0049388D01*
X0368697Y0045207D02*
X0368697Y0044290D01*
X0368238Y0043831D01*
X0368238Y0042766D02*
X0368697Y0042307D01*
X0368697Y0041390D01*
X0368238Y0040931D01*
X0366403Y0040931D01*
X0365945Y0041390D01*
X0365945Y0042307D01*
X0366403Y0042766D01*
X0366403Y0043831D02*
X0365945Y0044290D01*
X0365945Y0045207D01*
X0366403Y0045666D01*
X0366862Y0045666D01*
X0367321Y0045207D01*
X0367321Y0044749D01*
X0367321Y0045207D02*
X0367779Y0045666D01*
X0368238Y0045666D01*
X0368697Y0045207D01*
X0368573Y0030333D02*
X0369032Y0029875D01*
X0369032Y0028957D01*
X0368573Y0028499D01*
X0368573Y0027433D02*
X0369032Y0026975D01*
X0369032Y0026057D01*
X0368573Y0025599D01*
X0366738Y0025599D01*
X0366280Y0026057D01*
X0366280Y0026975D01*
X0366738Y0027433D01*
X0366280Y0028499D02*
X0368114Y0030333D01*
X0368573Y0030333D01*
X0366280Y0030333D02*
X0366280Y0028499D01*
X0366283Y0015333D02*
X0366283Y0013499D01*
X0366283Y0014416D02*
X0369035Y0014416D01*
X0368117Y0013499D01*
X0368576Y0012433D02*
X0369035Y0011975D01*
X0369035Y0011057D01*
X0368576Y0010599D01*
X0366741Y0010599D01*
X0366283Y0011057D01*
X0366283Y0011975D01*
X0366741Y0012433D01*
D13*
X0371800Y0013000D02*
X0374300Y0010500D01*
X0389300Y0010500D01*
X0391800Y0013000D01*
X0391800Y0018000D01*
X0389300Y0020500D01*
X0374300Y0020500D01*
X0371800Y0018000D01*
X0371800Y0013000D01*
X0374300Y0020500D02*
X0371800Y0023000D01*
X0371800Y0028000D01*
X0374300Y0030500D01*
X0389300Y0030500D01*
X0391800Y0028000D01*
X0391800Y0023000D01*
X0389300Y0020500D01*
X0389300Y0030500D02*
X0391800Y0033000D01*
X0391800Y0038000D01*
X0389300Y0040500D01*
X0374300Y0040500D01*
X0371800Y0038000D01*
X0371800Y0033000D01*
X0374300Y0030500D01*
X0374300Y0040500D02*
X0371800Y0043000D01*
X0371800Y0048000D01*
X0374300Y0050500D01*
X0389300Y0050500D01*
X0391800Y0048000D01*
X0391800Y0043000D01*
X0389300Y0040500D01*
X0389300Y0050500D02*
X0391800Y0053000D01*
X0391800Y0055500D01*
X0391800Y0058000D01*
X0389300Y0060500D01*
X0374300Y0060500D01*
X0371800Y0058000D01*
X0371800Y0053000D01*
X0374300Y0050500D01*
D14*
X0391800Y0055500D02*
X0396800Y0050500D01*
X0391800Y0055500D02*
X0396800Y0060500D01*
M02*
