%
M48
M72
T01C0.0240
T02C0.0400
T03C0.0433
T04C0.0591
T05C0.0827
T06C0.0984
%
T01
X18180Y3810
X11610Y5160
X15210Y5340
X15750Y5790
X17820Y5340
T02
X37680Y5550
X38680Y5550
X38680Y4550
X37680Y4550
X37680Y3550
X38680Y3550
X38680Y2550
X37680Y2550
X37680Y1550
X38680Y1550
T03
X6424Y2566
X6424Y3550
X6424Y4534
X24424Y4534
X24424Y3550
X24424Y2566
T04
X3180Y1896
X14180Y1896
X21180Y1896
X32180Y1896
T05
X9180Y1778
X27180Y1778
X27180Y5322
X9180Y5322
T06
X3180Y5204
X1881Y3550
X5109Y3550
X12881Y3550
X16109Y3550
X19881Y3550
X23109Y3550
X30881Y3550
X34109Y3550
X32180Y5204
X21180Y5204
X14180Y5204
M30
