G75*
%MOIN*%
%OFA0B0*%
%FSLAX25Y25*%
%IPPOS*%
%LPD*%
%AMOC8*
5,1,8,0,0,1.08239X$1,22.5*
%
%ADD10C,0.00000*%
%ADD11C,0.14643*%
%ADD12C,0.09658*%
%ADD13OC8,0.08200*%
%ADD14R,0.07296X0.07296*%
%ADD15OC8,0.07296*%
%ADD16C,0.13068*%
%ADD17C,0.04800*%
D10*
X0001800Y0003000D02*
X0001800Y0067961D01*
X0395501Y0067961D01*
X0395501Y0003000D01*
X0001800Y0003000D01*
D11*
X0018808Y0035500D03*
X0051091Y0035500D03*
X0128808Y0035500D03*
X0161091Y0035500D03*
X0198808Y0035500D03*
X0231091Y0035500D03*
X0308808Y0035500D03*
X0341091Y0035500D03*
X0321800Y0052035D03*
X0211800Y0052035D03*
X0141800Y0052035D03*
X0031800Y0052035D03*
D12*
X0031800Y0018965D03*
X0141800Y0018965D03*
X0211800Y0018965D03*
X0321800Y0018965D03*
D13*
X0376800Y0015500D03*
X0386800Y0015500D03*
X0386800Y0025500D03*
X0376800Y0025500D03*
X0376800Y0035500D03*
X0386800Y0035500D03*
X0386800Y0045500D03*
X0376800Y0045500D03*
X0376800Y0055500D03*
X0386800Y0055500D03*
D14*
X0244241Y0045343D03*
X0064241Y0045343D03*
D15*
X0064241Y0035500D03*
X0064241Y0025657D03*
X0244241Y0025657D03*
X0244241Y0035500D03*
D16*
X0271800Y0017783D03*
X0091800Y0017783D03*
X0091800Y0053217D03*
X0271800Y0053217D03*
D17*
X0181800Y0038100D03*
X0116100Y0051600D03*
X0152100Y0053400D03*
X0157500Y0057900D03*
X0178200Y0053400D03*
M02*
