  0
SECTION
  2
HEADER
  9
$MEASUREMENT
  70
  1
  9
$INSUNITS
  70
  4
  0
ENDSEC
  0
SECTION
  2
TABLES
  0
TABLE
  2
LTYPE
 70
     1
  0
LTYPE
  2
CONTINUOUS
 70
    64
  3
Ausgezogene Linie
 72
    65
 73
     0
 40
0.0
  0
ENDTAB
  0
TABLE
  2
LAYER
 70
     3
  0
LAYER
  2
Contour
 70
    64
 62
     7
  6
CONTINUOUS
  0
LAYER
  2
Engraving
 70
    64
 62
     7
  6
CONTINUOUS
  0
LAYER
  2
Reference_points
 70
    64
 62
     1
  6
CONTINUOUS
  0
ENDTAB
  0
TABLE
  2
STYLE
 70
     1
  0
STYLE
  2
TXT
 70
    64
 40
0.0
 41
1.0
 50
0.0
 71
     0
 42
3.500000
  3
TXT
  0
ENDTAB
  0
ENDSEC
  0
SECTION
  2
BLOCKS
  0
ENDSEC
  0
SECTION
  2
ENTITIES
  0
LINE
  8
Contour
 62
   7
 39
0.100
  6
CONTINUOUS
 10
19.98000
 20
128.40000
 30
 0
 11
0.00000
 21
128.40000
  0
LINE
  8
Contour
 62
   7
 39
0.100
  6
CONTINUOUS
 10
0.00000
 20
128.40000
 30
 0
 11
0.00000
 21
128.40000
  0
LINE
  8
Contour
 62
   7
 39
0.100
  6
CONTINUOUS
 10
0.00000
 20
128.40000
 30
 0
 11
0.00000
 21
0.00000
  0
LINE
  8
Contour
 62
   7
 39
0.100
  6
CONTINUOUS
 10
0.00000
 20
0.00000
 30
 0
 11
0.00000
 21
0.00000
  0
LINE
  8
Contour
 62
   7
 39
0.100
  6
CONTINUOUS
 10
0.00000
 20
0.00000
 30
 0
 11
19.98000
 21
0.00000
  0
LINE
  8
Contour
 62
   7
 39
0.100
  6
CONTINUOUS
 10
19.98000
 20
0.00000
 30
 0
 11
19.98000
 21
0.00000
  0
LINE
  8
Contour
 62
   7
 39
0.100
  6
CONTINUOUS
 10
19.98000
 20
0.00000
 30
 0
 11
19.98000
 21
128.40000
  0
LINE
  8
Contour
 62
   7
 39
0.100
  6
CONTINUOUS
 10
19.98000
 20
128.40000
 30
 0
 11
19.98000
 21
128.40000
  0
LINE
  8
Engraving
 62
   7
 39
0.400
  6
CONTINUOUS
 10
16.21800
 20
96.43200
 30
 0
 11
18.78100
 21
96.43200
  0
LINE
  8
Engraving
 62
   7
 39
0.400
  6
CONTINUOUS
 10
18.78100
 20
96.93700
 30
 0
 11
16.21800
 21
96.93700
  0
LINE
  8
Engraving
 62
   7
 39
0.400
  6
CONTINUOUS
 10
16.21800
 20
96.93700
 30
 0
 11
16.21800
 21
97.11900
  0
LINE
  8
Engraving
 62
   7
 39
0.400
  6
CONTINUOUS
 10
16.21800
 20
97.11900
 30
 0
 11
18.78100
 21
98.32900
  0
LINE
  8
Engraving
 62
   7
 39
0.400
  6
CONTINUOUS
 10
18.78100
 20
98.32900
 30
 0
 11
16.21800
 21
98.32900
  0
LINE
  8
Engraving
 62
   7
 39
0.400
  6
CONTINUOUS
 10
17.48900
 20
67.55800
 30
 0
 11
18.31700
 21
67.55800
  0
LINE
  8
Engraving
 62
   7
 39
0.400
  6
CONTINUOUS
 10
18.31700
 20
67.55800
 30
 0
 11
18.51900
 21
67.59900
  0
LINE
  8
Engraving
 62
   7
 39
0.400
  6
CONTINUOUS
 10
18.51900
 20
67.59900
 30
 0
 11
18.64000
 21
67.67900
  0
LINE
  8
Engraving
 62
   7
 39
0.400
  6
CONTINUOUS
 10
18.64000
 20
67.67900
 30
 0
 11
18.72000
 21
67.78000
  0
LINE
  8
Engraving
 62
   7
 39
0.400
  6
CONTINUOUS
 10
18.72000
 20
67.78000
 30
 0
 11
18.80100
 21
67.92100
  0
LINE
  8
Engraving
 62
   7
 39
0.400
  6
CONTINUOUS
 10
18.80100
 20
67.92100
 30
 0
 11
18.80100
 21
68.04300
  0
LINE
  8
Engraving
 62
   7
 39
0.400
  6
CONTINUOUS
 10
18.80100
 20
68.04300
 30
 0
 11
18.80100
 21
68.36500
  0
LINE
  8
Engraving
 62
   7
 39
0.400
  6
CONTINUOUS
 10
18.80100
 20
68.36500
 30
 0
 11
18.78100
 21
68.54700
  0
LINE
  8
Engraving
 62
   7
 39
0.400
  6
CONTINUOUS
 10
18.78100
 20
68.54700
 30
 0
 11
18.70000
 21
68.68800
  0
LINE
  8
Engraving
 62
   7
 39
0.400
  6
CONTINUOUS
 10
18.70000
 20
68.68800
 30
 0
 11
18.53900
 21
68.80900
  0
LINE
  8
Engraving
 62
   7
 39
0.400
  6
CONTINUOUS
 10
18.53900
 20
68.80900
 30
 0
 11
18.31700
 21
68.87000
  0
LINE
  8
Engraving
 62
   7
 39
0.400
  6
CONTINUOUS
 10
18.31700
 20
68.87000
 30
 0
 11
16.68200
 21
68.87000
  0
LINE
  8
Engraving
 62
   7
 39
0.400
  6
CONTINUOUS
 10
16.68200
 20
68.87000
 30
 0
 11
16.52100
 21
68.83000
  0
LINE
  8
Engraving
 62
   7
 39
0.400
  6
CONTINUOUS
 10
16.52100
 20
68.83000
 30
 0
 11
16.35900
 21
68.74900
  0
LINE
  8
Engraving
 62
   7
 39
0.400
  6
CONTINUOUS
 10
16.35900
 20
68.74900
 30
 0
 11
16.27900
 21
68.64800
  0
LINE
  8
Engraving
 62
   7
 39
0.400
  6
CONTINUOUS
 10
16.27900
 20
68.64800
 30
 0
 11
16.21800
 21
68.54700
  0
LINE
  8
Engraving
 62
   7
 39
0.400
  6
CONTINUOUS
 10
16.21800
 20
68.54700
 30
 0
 11
16.19800
 21
68.36500
  0
LINE
  8
Engraving
 62
   7
 39
0.400
  6
CONTINUOUS
 10
16.19800
 20
68.36500
 30
 0
 11
16.19800
 21
68.04300
  0
LINE
  8
Engraving
 62
   7
 39
0.400
  6
CONTINUOUS
 10
16.19800
 20
68.04300
 30
 0
 11
16.21800
 21
67.88100
  0
LINE
  8
Engraving
 62
   7
 39
0.400
  6
CONTINUOUS
 10
16.21800
 20
67.88100
 30
 0
 11
16.29900
 21
67.74000
  0
LINE
  8
Engraving
 62
   7
 39
0.400
  6
CONTINUOUS
 10
16.29900
 20
67.74000
 30
 0
 11
16.40000
 21
67.63900
  0
LINE
  8
Engraving
 62
   7
 39
0.400
  6
CONTINUOUS
 10
16.40000
 20
67.63900
 30
 0
 11
16.52100
 21
67.57800
  0
LINE
  8
Engraving
 62
   7
 39
0.400
  6
CONTINUOUS
 10
16.52100
 20
67.57800
 30
 0
 11
16.68200
 21
67.55800
  0
LINE
  8
Engraving
 62
   7
 39
0.400
  6
CONTINUOUS
 10
16.68200
 20
67.55800
 30
 0
 11
17.48900
 21
67.55800
  0
LINE
  8
Engraving
 62
   7
 39
0.400
  6
CONTINUOUS
 10
16.21800
 20
69.39500
 30
 0
 11
18.29700
 21
69.39500
  0
LINE
  8
Engraving
 62
   7
 39
0.400
  6
CONTINUOUS
 10
18.29700
 20
69.39500
 30
 0
 11
18.53900
 21
69.45500
  0
LINE
  8
Engraving
 62
   7
 39
0.400
  6
CONTINUOUS
 10
18.53900
 20
69.45500
 30
 0
 11
18.66000
 21
69.53600
  0
LINE
  8
Engraving
 62
   7
 39
0.400
  6
CONTINUOUS
 10
18.66000
 20
69.53600
 30
 0
 11
18.76100
 21
69.69700
  0
LINE
  8
Engraving
 62
   7
 39
0.400
  6
CONTINUOUS
 10
18.76100
 20
69.69700
 30
 0
 11
18.80100
 21
69.89900
  0
LINE
  8
Engraving
 62
   7
 39
0.400
  6
CONTINUOUS
 10
18.80100
 20
69.89900
 30
 0
 11
18.80100
 21
70.16200
  0
LINE
  8
Engraving
 62
   7
 39
0.400
  6
CONTINUOUS
 10
18.80100
 20
70.16200
 30
 0
 11
18.78100
 21
70.32300
  0
LINE
  8
Engraving
 62
   7
 39
0.400
  6
CONTINUOUS
 10
18.78100
 20
70.32300
 30
 0
 11
18.68000
 21
70.50500
  0
LINE
  8
Engraving
 62
   7
 39
0.400
  6
CONTINUOUS
 10
18.68000
 20
70.50500
 30
 0
 11
18.49800
 21
70.64600
  0
LINE
  8
Engraving
 62
   7
 39
0.400
  6
CONTINUOUS
 10
18.49800
 20
70.64600
 30
 0
 11
18.29700
 21
70.68600
  0
LINE
  8
Engraving
 62
   7
 39
0.400
  6
CONTINUOUS
 10
18.29700
 20
70.68600
 30
 0
 11
16.21800
 21
70.68600
  0
LINE
  8
Engraving
 62
   7
 39
0.400
  6
CONTINUOUS
 10
18.78100
 20
71.87700
 30
 0
 11
16.21800
 21
71.87700
  0
LINE
  8
Engraving
 62
   7
 39
0.400
  6
CONTINUOUS
 10
16.21800
 20
71.19100
 30
 0
 11
16.21800
 21
72.58300
  0
LINE
  8
Engraving
 62
   7
 39
0.400
  6
CONTINUOUS
 10
17.48900
 20
18.01800
 30
 0
 11
18.31700
 21
18.01800
  0
LINE
  8
Engraving
 62
   7
 39
0.400
  6
CONTINUOUS
 10
18.31700
 20
18.01800
 30
 0
 11
18.51900
 21
18.05900
  0
LINE
  8
Engraving
 62
   7
 39
0.400
  6
CONTINUOUS
 10
18.51900
 20
18.05900
 30
 0
 11
18.64000
 21
18.13900
  0
LINE
  8
Engraving
 62
   7
 39
0.400
  6
CONTINUOUS
 10
18.64000
 20
18.13900
 30
 0
 11
18.72000
 21
18.24000
  0
LINE
  8
Engraving
 62
   7
 39
0.400
  6
CONTINUOUS
 10
18.72000
 20
18.24000
 30
 0
 11
18.80100
 21
18.38100
  0
LINE
  8
Engraving
 62
   7
 39
0.400
  6
CONTINUOUS
 10
18.80100
 20
18.38100
 30
 0
 11
18.80100
 21
18.50300
  0
LINE
  8
Engraving
 62
   7
 39
0.400
  6
CONTINUOUS
 10
18.80100
 20
18.50300
 30
 0
 11
18.80100
 21
18.82500
  0
LINE
  8
Engraving
 62
   7
 39
0.400
  6
CONTINUOUS
 10
18.80100
 20
18.82500
 30
 0
 11
18.78100
 21
19.00700
  0
LINE
  8
Engraving
 62
   7
 39
0.400
  6
CONTINUOUS
 10
18.78100
 20
19.00700
 30
 0
 11
18.70000
 21
19.14800
  0
LINE
  8
Engraving
 62
   7
 39
0.400
  6
CONTINUOUS
 10
18.70000
 20
19.14800
 30
 0
 11
18.53900
 21
19.26900
  0
LINE
  8
Engraving
 62
   7
 39
0.400
  6
CONTINUOUS
 10
18.53900
 20
19.26900
 30
 0
 11
18.31700
 21
19.33000
  0
LINE
  8
Engraving
 62
   7
 39
0.400
  6
CONTINUOUS
 10
18.31700
 20
19.33000
 30
 0
 11
16.68200
 21
19.33000
  0
LINE
  8
Engraving
 62
   7
 39
0.400
  6
CONTINUOUS
 10
16.68200
 20
19.33000
 30
 0
 11
16.52100
 21
19.29000
  0
LINE
  8
Engraving
 62
   7
 39
0.400
  6
CONTINUOUS
 10
16.52100
 20
19.29000
 30
 0
 11
16.35900
 21
19.20900
  0
LINE
  8
Engraving
 62
   7
 39
0.400
  6
CONTINUOUS
 10
16.35900
 20
19.20900
 30
 0
 11
16.27900
 21
19.10800
  0
LINE
  8
Engraving
 62
   7
 39
0.400
  6
CONTINUOUS
 10
16.27900
 20
19.10800
 30
 0
 11
16.21800
 21
19.00700
  0
LINE
  8
Engraving
 62
   7
 39
0.400
  6
CONTINUOUS
 10
16.21800
 20
19.00700
 30
 0
 11
16.19800
 21
18.82500
  0
LINE
  8
Engraving
 62
   7
 39
0.400
  6
CONTINUOUS
 10
16.19800
 20
18.82500
 30
 0
 11
16.19800
 21
18.50300
  0
LINE
  8
Engraving
 62
   7
 39
0.400
  6
CONTINUOUS
 10
16.19800
 20
18.50300
 30
 0
 11
16.21800
 21
18.34100
  0
LINE
  8
Engraving
 62
   7
 39
0.400
  6
CONTINUOUS
 10
16.21800
 20
18.34100
 30
 0
 11
16.29900
 21
18.20000
  0
LINE
  8
Engraving
 62
   7
 39
0.400
  6
CONTINUOUS
 10
16.29900
 20
18.20000
 30
 0
 11
16.40000
 21
18.09900
  0
LINE
  8
Engraving
 62
   7
 39
0.400
  6
CONTINUOUS
 10
16.40000
 20
18.09900
 30
 0
 11
16.52100
 21
18.03800
  0
LINE
  8
Engraving
 62
   7
 39
0.400
  6
CONTINUOUS
 10
16.52100
 20
18.03800
 30
 0
 11
16.68200
 21
18.01800
  0
LINE
  8
Engraving
 62
   7
 39
0.400
  6
CONTINUOUS
 10
16.68200
 20
18.01800
 30
 0
 11
17.48900
 21
18.01800
  0
LINE
  8
Engraving
 62
   7
 39
0.400
  6
CONTINUOUS
 10
16.21800
 20
19.85500
 30
 0
 11
18.29700
 21
19.85500
  0
LINE
  8
Engraving
 62
   7
 39
0.400
  6
CONTINUOUS
 10
18.29700
 20
19.85500
 30
 0
 11
18.53900
 21
19.91500
  0
LINE
  8
Engraving
 62
   7
 39
0.400
  6
CONTINUOUS
 10
18.53900
 20
19.91500
 30
 0
 11
18.66000
 21
19.99600
  0
LINE
  8
Engraving
 62
   7
 39
0.400
  6
CONTINUOUS
 10
18.66000
 20
19.99600
 30
 0
 11
18.76100
 21
20.15700
  0
LINE
  8
Engraving
 62
   7
 39
0.400
  6
CONTINUOUS
 10
18.76100
 20
20.15700
 30
 0
 11
18.80100
 21
20.35900
  0
LINE
  8
Engraving
 62
   7
 39
0.400
  6
CONTINUOUS
 10
18.80100
 20
20.35900
 30
 0
 11
18.80100
 21
20.62200
  0
LINE
  8
Engraving
 62
   7
 39
0.400
  6
CONTINUOUS
 10
18.80100
 20
20.62200
 30
 0
 11
18.78100
 21
20.78300
  0
LINE
  8
Engraving
 62
   7
 39
0.400
  6
CONTINUOUS
 10
18.78100
 20
20.78300
 30
 0
 11
18.68000
 21
20.96500
  0
LINE
  8
Engraving
 62
   7
 39
0.400
  6
CONTINUOUS
 10
18.68000
 20
20.96500
 30
 0
 11
18.49800
 21
21.10600
  0
LINE
  8
Engraving
 62
   7
 39
0.400
  6
CONTINUOUS
 10
18.49800
 20
21.10600
 30
 0
 11
18.29700
 21
21.14600
  0
LINE
  8
Engraving
 62
   7
 39
0.400
  6
CONTINUOUS
 10
18.29700
 20
21.14600
 30
 0
 11
16.21800
 21
21.14600
  0
LINE
  8
Engraving
 62
   7
 39
0.400
  6
CONTINUOUS
 10
18.78100
 20
22.33700
 30
 0
 11
16.21800
 21
22.33700
  0
LINE
  8
Engraving
 62
   7
 39
0.400
  6
CONTINUOUS
 10
16.21800
 20
21.65100
 30
 0
 11
16.21800
 21
23.04300
  0
LINE
  8
Engraving
 62
   7
 39
0.400
  6
CONTINUOUS
 10
16.21800
 20
46.89200
 30
 0
 11
18.78100
 21
46.89200
  0
LINE
  8
Engraving
 62
   7
 39
0.400
  6
CONTINUOUS
 10
18.78100
 20
47.39700
 30
 0
 11
16.21800
 21
47.39700
  0
LINE
  8
Engraving
 62
   7
 39
0.400
  6
CONTINUOUS
 10
16.21800
 20
47.39700
 30
 0
 11
16.21800
 21
47.57900
  0
LINE
  8
Engraving
 62
   7
 39
0.400
  6
CONTINUOUS
 10
16.21800
 20
47.57900
 30
 0
 11
18.78100
 21
48.78900
  0
LINE
  8
Engraving
 62
   7
 39
0.400
  6
CONTINUOUS
 10
18.78100
 20
48.78900
 30
 0
 11
16.21800
 21
48.78900
  0
LINE
  8
Engraving
 62
   7
 39
0.600
  6
CONTINUOUS
 10
4.74500
 20
111.90100
 30
 0
 11
5.68500
 21
111.90100
  0
LINE
  8
Engraving
 62
   7
 39
0.600
  6
CONTINUOUS
 10
5.68500
 20
111.90100
 30
 0
 11
5.68500
 21
111.26000
  0
ARC
  8
Engraving
 62
   7
 39
0.600
  6
CONTINUOUS
 10
4.31800
 20
111.26000
 30
 0
 40
1.36700
 50
180.00000
 51
0.00000
  0
LINE
  8
Engraving
 62
   7
 39
0.600
  6
CONTINUOUS
 10
2.95100
 20
111.26000
 30
 0
 11
2.95100
 21
112.54100
  0
ARC
  8
Engraving
 62
   7
 39
0.600
  6
CONTINUOUS
 10
4.26800
 20
112.57200
 30
 0
 40
1.31700
 50
31.90393
 51
-178.65160
  0
LINE
  8
Engraving
 62
   7
 39
0.600
  6
CONTINUOUS
 10
6.71000
 20
113.82300
 30
 0
 11
6.71000
 21
109.97800
  0
LINE
  8
Engraving
 62
   7
 39
0.600
  6
CONTINUOUS
 10
6.71000
 20
109.97800
 30
 0
 11
8.84600
 21
109.97800
  0
LINE
  8
Engraving
 62
   7
 39
0.600
  6
CONTINUOUS
 10
9.87200
 20
113.82300
 30
 0
 11
9.87200
 21
109.97800
  0
LINE
  8
Engraving
 62
   7
 39
0.600
  6
CONTINUOUS
 10
10.89700
 20
113.82300
 30
 0
 11
12.22100
 21
113.82300
  0
ARC
  8
Engraving
 62
   7
 39
0.600
  6
CONTINUOUS
 10
12.17100
 20
112.53500
 30
 0
 40
1.28900
 50
360.26670
 51
87.77690
  0
LINE
  8
Engraving
 62
   7
 39
0.600
  6
CONTINUOUS
 10
13.46000
 20
112.54100
 30
 0
 11
13.46000
 21
111.26000
  0
ARC
  8
Engraving
 62
   7
 39
0.600
  6
CONTINUOUS
 10
12.22300
 20
111.21600
 30
 0
 40
1.23800
 50
269.90744
 51
2.03715
  0
LINE
  8
Engraving
 62
   7
 39
0.600
  6
CONTINUOUS
 10
12.22100
 20
109.97800
 30
 0
 11
10.89700
 21
109.97800
  0
LINE
  8
Engraving
 62
   7
 39
0.600
  6
CONTINUOUS
 10
10.89700
 20
109.97800
 30
 0
 11
10.89700
 21
113.82300
  0
LINE
  8
Engraving
 62
   7
 39
0.600
  6
CONTINUOUS
 10
14.48600
 20
111.90000
 30
 0
 11
16.62200
 21
111.90000
  0
LINE
  8
Engraving
 62
   7
 39
0.600
  6
CONTINUOUS
 10
17.04900
 20
113.82300
 30
 0
 11
14.48600
 21
113.82300
  0
LINE
  8
Engraving
 62
   7
 39
0.600
  6
CONTINUOUS
 10
14.48600
 20
113.82300
 30
 0
 11
14.48600
 21
109.97800
  0
LINE
  8
Engraving
 62
   7
 39
0.600
  6
CONTINUOUS
 10
14.48600
 20
109.97800
 30
 0
 11
17.04900
 21
109.97800
  0
CIRCLE
  8
Contour
 62
   7
 39
0.100
  6
CONTINUOUS
 10
7.50000
 20
125.50000
 30
 0
 40
1.50000
  0
CIRCLE
  8
Contour
 62
   7
 39
0.100
  6
CONTINUOUS
 10
7.50000
 20
3.00000
 30
 0
 40
1.50000
  0
CIRCLE
  8
Contour
 62
   7
 39
0.100
  6
CONTINUOUS
 10
10.00000
 20
20.53000
 30
 0
 40
3.00000
  0
CIRCLE
  8
Contour
 62
   7
 39
0.100
  6
CONTINUOUS
 10
10.00000
 20
47.84000
 30
 0
 40
3.00000
  0
CIRCLE
  8
Contour
 62
   7
 39
0.100
  6
CONTINUOUS
 10
10.00000
 20
70.07000
 30
 0
 40
3.00000
  0
CIRCLE
  8
Contour
 62
   7
 39
0.100
  6
CONTINUOUS
 10
10.00000
 20
97.38000
 30
 0
 40
3.00000
  0
CIRCLE
  8
Contour
 62
   7
 39
0.100
  6
CONTINUOUS
 10
10.00000
 20
85.31000
 30
 0
 40
3.75000
  0
CIRCLE
  8
Contour
 62
   7
 39
0.100
  6
CONTINUOUS
 10
10.00000
 20
35.77000
 30
 0
 40
3.75000
  0
ENDSEC
  0
EOF
