  0
SECTION
  2
HEADER
  9
$MEASUREMENT
  70
  1
  9
$INSUNITS
  70
  4
  0
ENDSEC
  0
SECTION
  2
TABLES
  0
TABLE
  2
LTYPE
 70
     1
  0
LTYPE
  2
CONTINUOUS
 70
    64
  3
Ausgezogene Linie
 72
    65
 73
     0
 40
0.0
  0
ENDTAB
  0
TABLE
  2
LAYER
 70
     3
  0
LAYER
  2
Contour
 70
    64
 62
     7
  6
CONTINUOUS
  0
LAYER
  2
Engraving
 70
    64
 62
     7
  6
CONTINUOUS
  0
LAYER
  2
Reference_points
 70
    64
 62
     1
  6
CONTINUOUS
  0
ENDTAB
  0
TABLE
  2
STYLE
 70
     1
  0
STYLE
  2
TXT
 70
    64
 40
0.0
 41
1.0
 50
0.0
 71
     0
 42
3.500000
  3
TXT
  0
ENDTAB
  0
ENDSEC
  0
SECTION
  2
BLOCKS
  0
ENDSEC
  0
SECTION
  2
ENTITIES
  0
LINE
  8
Contour
 62
   7
 39
0.100
  6
CONTINUOUS
 10
19.98000
 20
128.40000
 30
 0
 11
0.00000
 21
128.40000
  0
LINE
  8
Contour
 62
   7
 39
0.100
  6
CONTINUOUS
 10
0.00000
 20
128.40000
 30
 0
 11
0.00000
 21
128.40000
  0
LINE
  8
Contour
 62
   7
 39
0.100
  6
CONTINUOUS
 10
0.00000
 20
128.40000
 30
 0
 11
0.00000
 21
0.00000
  0
LINE
  8
Contour
 62
   7
 39
0.100
  6
CONTINUOUS
 10
0.00000
 20
0.00000
 30
 0
 11
0.00000
 21
0.00000
  0
LINE
  8
Contour
 62
   7
 39
0.100
  6
CONTINUOUS
 10
0.00000
 20
0.00000
 30
 0
 11
19.98000
 21
0.00000
  0
LINE
  8
Contour
 62
   7
 39
0.100
  6
CONTINUOUS
 10
19.98000
 20
0.00000
 30
 0
 11
19.98000
 21
0.00000
  0
LINE
  8
Contour
 62
   7
 39
0.100
  6
CONTINUOUS
 10
19.98000
 20
0.00000
 30
 0
 11
19.98000
 21
128.40000
  0
LINE
  8
Contour
 62
   7
 39
0.100
  6
CONTINUOUS
 10
19.98000
 20
128.40000
 30
 0
 11
19.98000
 21
128.40000
  0
LINE
  8
Engraving
 62
   7
 39
0.800
  6
CONTINUOUS
 10
2.95500
 20
109.33700
 30
 0
 11
2.95500
 21
114.46400
  0
LINE
  8
Engraving
 62
   7
 39
0.800
  6
CONTINUOUS
 10
2.95500
 20
114.46400
 30
 0
 11
3.31900
 21
114.46400
  0
LINE
  8
Engraving
 62
   7
 39
0.800
  6
CONTINUOUS
 10
3.31900
 20
114.46400
 30
 0
 11
5.74100
 21
109.33700
  0
LINE
  8
Engraving
 62
   7
 39
0.800
  6
CONTINUOUS
 10
5.74100
 20
109.33700
 30
 0
 11
5.74100
 21
114.46400
  0
LINE
  8
Engraving
 62
   7
 39
0.800
  6
CONTINUOUS
 10
6.75000
 20
111.92100
 30
 0
 11
6.75000
 21
110.26600
  0
LINE
  8
Engraving
 62
   7
 39
0.800
  6
CONTINUOUS
 10
6.75000
 20
110.26600
 30
 0
 11
6.83100
 21
109.86200
  0
LINE
  8
Engraving
 62
   7
 39
0.800
  6
CONTINUOUS
 10
6.83100
 20
109.86200
 30
 0
 11
6.99200
 21
109.62000
  0
LINE
  8
Engraving
 62
   7
 39
0.800
  6
CONTINUOUS
 10
6.99200
 20
109.62000
 30
 0
 11
7.19400
 21
109.45800
  0
LINE
  8
Engraving
 62
   7
 39
0.800
  6
CONTINUOUS
 10
7.19400
 20
109.45800
 30
 0
 11
7.47700
 21
109.29700
  0
LINE
  8
Engraving
 62
   7
 39
0.800
  6
CONTINUOUS
 10
7.47700
 20
109.29700
 30
 0
 11
7.71900
 21
109.29700
  0
LINE
  8
Engraving
 62
   7
 39
0.800
  6
CONTINUOUS
 10
7.71900
 20
109.29700
 30
 0
 11
8.36500
 21
109.29700
  0
LINE
  8
Engraving
 62
   7
 39
0.800
  6
CONTINUOUS
 10
8.36500
 20
109.29700
 30
 0
 11
8.72800
 21
109.33700
  0
LINE
  8
Engraving
 62
   7
 39
0.800
  6
CONTINUOUS
 10
8.72800
 20
109.33700
 30
 0
 11
9.01100
 21
109.49800
  0
LINE
  8
Engraving
 62
   7
 39
0.800
  6
CONTINUOUS
 10
9.01100
 20
109.49800
 30
 0
 11
9.25300
 21
109.82100
  0
LINE
  8
Engraving
 62
   7
 39
0.800
  6
CONTINUOUS
 10
9.25300
 20
109.82100
 30
 0
 11
9.37400
 21
110.26600
  0
LINE
  8
Engraving
 62
   7
 39
0.800
  6
CONTINUOUS
 10
9.37400
 20
110.26600
 30
 0
 11
9.37400
 21
113.53500
  0
LINE
  8
Engraving
 62
   7
 39
0.800
  6
CONTINUOUS
 10
9.37400
 20
113.53500
 30
 0
 11
9.29400
 21
113.85800
  0
LINE
  8
Engraving
 62
   7
 39
0.800
  6
CONTINUOUS
 10
9.29400
 20
113.85800
 30
 0
 11
9.13200
 21
114.18100
  0
LINE
  8
Engraving
 62
   7
 39
0.800
  6
CONTINUOUS
 10
9.13200
 20
114.18100
 30
 0
 11
8.93000
 21
114.34300
  0
LINE
  8
Engraving
 62
   7
 39
0.800
  6
CONTINUOUS
 10
8.93000
 20
114.34300
 30
 0
 11
8.72800
 21
114.46400
  0
LINE
  8
Engraving
 62
   7
 39
0.800
  6
CONTINUOUS
 10
8.72800
 20
114.46400
 30
 0
 11
8.36500
 21
114.50400
  0
LINE
  8
Engraving
 62
   7
 39
0.800
  6
CONTINUOUS
 10
8.36500
 20
114.50400
 30
 0
 11
7.71900
 21
114.50400
  0
LINE
  8
Engraving
 62
   7
 39
0.800
  6
CONTINUOUS
 10
7.71900
 20
114.50400
 30
 0
 11
7.39600
 21
114.46400
  0
LINE
  8
Engraving
 62
   7
 39
0.800
  6
CONTINUOUS
 10
7.39600
 20
114.46400
 30
 0
 11
7.11400
 21
114.30300
  0
LINE
  8
Engraving
 62
   7
 39
0.800
  6
CONTINUOUS
 10
7.11400
 20
114.30300
 30
 0
 11
6.91200
 21
114.10100
  0
LINE
  8
Engraving
 62
   7
 39
0.800
  6
CONTINUOUS
 10
6.91200
 20
114.10100
 30
 0
 11
6.79100
 21
113.85800
  0
LINE
  8
Engraving
 62
   7
 39
0.800
  6
CONTINUOUS
 10
6.79100
 20
113.85800
 30
 0
 11
6.75000
 21
113.53500
  0
LINE
  8
Engraving
 62
   7
 39
0.800
  6
CONTINUOUS
 10
6.75000
 20
113.53500
 30
 0
 11
6.75000
 21
111.92100
  0
LINE
  8
Engraving
 62
   7
 39
0.800
  6
CONTINUOUS
 10
10.42400
 20
114.46400
 30
 0
 11
10.42400
 21
109.33700
  0
LINE
  8
Engraving
 62
   7
 39
0.800
  6
CONTINUOUS
 10
11.47400
 20
110.95200
 30
 0
 11
11.47400
 21
110.26600
  0
LINE
  8
Engraving
 62
   7
 39
0.800
  6
CONTINUOUS
 10
11.47400
 20
110.26600
 30
 0
 11
11.55400
 21
109.90200
  0
LINE
  8
Engraving
 62
   7
 39
0.800
  6
CONTINUOUS
 10
11.55400
 20
109.90200
 30
 0
 11
11.75600
 21
109.57900
  0
LINE
  8
Engraving
 62
   7
 39
0.800
  6
CONTINUOUS
 10
11.75600
 20
109.57900
 30
 0
 11
12.03900
 21
109.37700
  0
LINE
  8
Engraving
 62
   7
 39
0.800
  6
CONTINUOUS
 10
12.03900
 20
109.37700
 30
 0
 11
12.44200
 21
109.29700
  0
LINE
  8
Engraving
 62
   7
 39
0.800
  6
CONTINUOUS
 10
12.44200
 20
109.29700
 30
 0
 11
12.92700
 21
109.29700
  0
LINE
  8
Engraving
 62
   7
 39
0.800
  6
CONTINUOUS
 10
12.92700
 20
109.29700
 30
 0
 11
13.20900
 21
109.33700
  0
LINE
  8
Engraving
 62
   7
 39
0.800
  6
CONTINUOUS
 10
13.20900
 20
109.33700
 30
 0
 11
13.57300
 21
109.53900
  0
LINE
  8
Engraving
 62
   7
 39
0.800
  6
CONTINUOUS
 10
13.57300
 20
109.53900
 30
 0
 11
13.81500
 21
109.86200
  0
LINE
  8
Engraving
 62
   7
 39
0.800
  6
CONTINUOUS
 10
13.81500
 20
109.86200
 30
 0
 11
13.89600
 21
110.26600
  0
LINE
  8
Engraving
 62
   7
 39
0.800
  6
CONTINUOUS
 10
13.89600
 20
110.26600
 30
 0
 11
13.89600
 21
110.54800
  0
LINE
  8
Engraving
 62
   7
 39
0.800
  6
CONTINUOUS
 10
13.89600
 20
110.54800
 30
 0
 11
13.81500
 21
110.83100
  0
LINE
  8
Engraving
 62
   7
 39
0.800
  6
CONTINUOUS
 10
13.81500
 20
110.83100
 30
 0
 11
13.65400
 21
111.15400
  0
LINE
  8
Engraving
 62
   7
 39
0.800
  6
CONTINUOUS
 10
13.65400
 20
111.15400
 30
 0
 11
13.49200
 21
111.31500
  0
LINE
  8
Engraving
 62
   7
 39
0.800
  6
CONTINUOUS
 10
13.49200
 20
111.31500
 30
 0
 11
13.25000
 21
111.51700
  0
LINE
  8
Engraving
 62
   7
 39
0.800
  6
CONTINUOUS
 10
13.25000
 20
111.51700
 30
 0
 11
12.07900
 21
112.56700
  0
LINE
  8
Engraving
 62
   7
 39
0.800
  6
CONTINUOUS
 10
12.07900
 20
112.56700
 30
 0
 11
11.87700
 21
112.72800
  0
LINE
  8
Engraving
 62
   7
 39
0.800
  6
CONTINUOUS
 10
11.87700
 20
112.72800
 30
 0
 11
11.67500
 21
112.97000
  0
LINE
  8
Engraving
 62
   7
 39
0.800
  6
CONTINUOUS
 10
11.67500
 20
112.97000
 30
 0
 11
11.59500
 21
113.09100
  0
LINE
  8
Engraving
 62
   7
 39
0.800
  6
CONTINUOUS
 10
11.59500
 20
113.09100
 30
 0
 11
11.55400
 21
113.29300
  0
LINE
  8
Engraving
 62
   7
 39
0.800
  6
CONTINUOUS
 10
11.55400
 20
113.29300
 30
 0
 11
11.55400
 21
113.65700
  0
LINE
  8
Engraving
 62
   7
 39
0.800
  6
CONTINUOUS
 10
11.55400
 20
113.65700
 30
 0
 11
11.67500
 21
114.02000
  0
LINE
  8
Engraving
 62
   7
 39
0.800
  6
CONTINUOUS
 10
11.67500
 20
114.02000
 30
 0
 11
11.83700
 21
114.26200
  0
LINE
  8
Engraving
 62
   7
 39
0.800
  6
CONTINUOUS
 10
11.83700
 20
114.26200
 30
 0
 11
12.07900
 21
114.42400
  0
LINE
  8
Engraving
 62
   7
 39
0.800
  6
CONTINUOUS
 10
12.07900
 20
114.42400
 30
 0
 11
12.48300
 21
114.50400
  0
LINE
  8
Engraving
 62
   7
 39
0.800
  6
CONTINUOUS
 10
12.48300
 20
114.50400
 30
 0
 11
12.88600
 21
114.50400
  0
LINE
  8
Engraving
 62
   7
 39
0.800
  6
CONTINUOUS
 10
12.88600
 20
114.50400
 30
 0
 11
13.12900
 21
114.46400
  0
LINE
  8
Engraving
 62
   7
 39
0.800
  6
CONTINUOUS
 10
13.12900
 20
114.46400
 30
 0
 11
13.41100
 21
114.34300
  0
LINE
  8
Engraving
 62
   7
 39
0.800
  6
CONTINUOUS
 10
13.41100
 20
114.34300
 30
 0
 11
13.61300
 21
114.14100
  0
LINE
  8
Engraving
 62
   7
 39
0.800
  6
CONTINUOUS
 10
13.61300
 20
114.14100
 30
 0
 11
13.77500
 21
113.85800
  0
LINE
  8
Engraving
 62
   7
 39
0.800
  6
CONTINUOUS
 10
13.77500
 20
113.85800
 30
 0
 11
13.81500
 21
113.57600
  0
LINE
  8
Engraving
 62
   7
 39
0.800
  6
CONTINUOUS
 10
13.81500
 20
113.57600
 30
 0
 11
13.81500
 21
113.21300
  0
LINE
  8
Engraving
 62
   7
 39
0.800
  6
CONTINUOUS
 10
17.00400
 20
114.46400
 30
 0
 11
14.90500
 21
114.46400
  0
LINE
  8
Engraving
 62
   7
 39
0.800
  6
CONTINUOUS
 10
14.90500
 20
114.46400
 30
 0
 11
14.90500
 21
109.33700
  0
LINE
  8
Engraving
 62
   7
 39
0.800
  6
CONTINUOUS
 10
14.90500
 20
109.33700
 30
 0
 11
17.04500
 21
109.33700
  0
LINE
  8
Engraving
 62
   7
 39
0.800
  6
CONTINUOUS
 10
16.92300
 20
111.96100
 30
 0
 11
14.90500
 21
111.96100
  0
LINE
  8
Engraving
 62
   7
 39
0.400
  6
CONTINUOUS
 10
16.21800
 20
74.96600
 30
 0
 11
18.78100
 21
74.96600
  0
LINE
  8
Engraving
 62
   7
 39
0.400
  6
CONTINUOUS
 10
18.78100
 20
74.96600
 30
 0
 11
18.78100
 21
75.97500
  0
LINE
  8
Engraving
 62
   7
 39
0.400
  6
CONTINUOUS
 10
16.21800
 20
77.52900
 30
 0
 11
16.21800
 21
76.48000
  0
LINE
  8
Engraving
 62
   7
 39
0.400
  6
CONTINUOUS
 10
16.21800
 20
76.48000
 30
 0
 11
18.78100
 21
76.48000
  0
LINE
  8
Engraving
 62
   7
 39
0.400
  6
CONTINUOUS
 10
18.78100
 20
76.48000
 30
 0
 11
18.78100
 21
77.55000
  0
LINE
  8
Engraving
 62
   7
 39
0.400
  6
CONTINUOUS
 10
17.46900
 20
77.48900
 30
 0
 11
17.46900
 21
76.48000
  0
LINE
  8
Engraving
 62
   7
 39
0.400
  6
CONTINUOUS
 10
16.21800
 20
78.07400
 30
 0
 11
18.78100
 21
78.80100
  0
LINE
  8
Engraving
 62
   7
 39
0.400
  6
CONTINUOUS
 10
18.78100
 20
78.80100
 30
 0
 11
16.21800
 21
79.52700
  0
LINE
  8
Engraving
 62
   7
 39
0.400
  6
CONTINUOUS
 10
16.21800
 20
81.08100
 30
 0
 11
16.21800
 21
80.03200
  0
LINE
  8
Engraving
 62
   7
 39
0.400
  6
CONTINUOUS
 10
16.21800
 20
80.03200
 30
 0
 11
18.78100
 21
80.03200
  0
LINE
  8
Engraving
 62
   7
 39
0.400
  6
CONTINUOUS
 10
18.78100
 20
80.03200
 30
 0
 11
18.78100
 21
81.10100
  0
LINE
  8
Engraving
 62
   7
 39
0.400
  6
CONTINUOUS
 10
17.46900
 20
81.04100
 30
 0
 11
17.46900
 21
80.03200
  0
LINE
  8
Engraving
 62
   7
 39
0.400
  6
CONTINUOUS
 10
16.21800
 20
81.62600
 30
 0
 11
18.78100
 21
81.62600
  0
LINE
  8
Engraving
 62
   7
 39
0.400
  6
CONTINUOUS
 10
18.78100
 20
81.62600
 30
 0
 11
18.78100
 21
82.63500
  0
LINE
  8
Engraving
 62
   7
 39
0.400
  6
CONTINUOUS
 10
17.48900
 20
33.10800
 30
 0
 11
18.31700
 21
33.10800
  0
LINE
  8
Engraving
 62
   7
 39
0.400
  6
CONTINUOUS
 10
18.31700
 20
33.10800
 30
 0
 11
18.51900
 21
33.14900
  0
LINE
  8
Engraving
 62
   7
 39
0.400
  6
CONTINUOUS
 10
18.51900
 20
33.14900
 30
 0
 11
18.64000
 21
33.22900
  0
LINE
  8
Engraving
 62
   7
 39
0.400
  6
CONTINUOUS
 10
18.64000
 20
33.22900
 30
 0
 11
18.72000
 21
33.33000
  0
LINE
  8
Engraving
 62
   7
 39
0.400
  6
CONTINUOUS
 10
18.72000
 20
33.33000
 30
 0
 11
18.80100
 21
33.47100
  0
LINE
  8
Engraving
 62
   7
 39
0.400
  6
CONTINUOUS
 10
18.80100
 20
33.47100
 30
 0
 11
18.80100
 21
33.59300
  0
LINE
  8
Engraving
 62
   7
 39
0.400
  6
CONTINUOUS
 10
18.80100
 20
33.59300
 30
 0
 11
18.80100
 21
33.91500
  0
LINE
  8
Engraving
 62
   7
 39
0.400
  6
CONTINUOUS
 10
18.80100
 20
33.91500
 30
 0
 11
18.78100
 21
34.09700
  0
LINE
  8
Engraving
 62
   7
 39
0.400
  6
CONTINUOUS
 10
18.78100
 20
34.09700
 30
 0
 11
18.70000
 21
34.23800
  0
LINE
  8
Engraving
 62
   7
 39
0.400
  6
CONTINUOUS
 10
18.70000
 20
34.23800
 30
 0
 11
18.53900
 21
34.35900
  0
LINE
  8
Engraving
 62
   7
 39
0.400
  6
CONTINUOUS
 10
18.53900
 20
34.35900
 30
 0
 11
18.31700
 21
34.42000
  0
LINE
  8
Engraving
 62
   7
 39
0.400
  6
CONTINUOUS
 10
18.31700
 20
34.42000
 30
 0
 11
16.68200
 21
34.42000
  0
LINE
  8
Engraving
 62
   7
 39
0.400
  6
CONTINUOUS
 10
16.68200
 20
34.42000
 30
 0
 11
16.52100
 21
34.38000
  0
LINE
  8
Engraving
 62
   7
 39
0.400
  6
CONTINUOUS
 10
16.52100
 20
34.38000
 30
 0
 11
16.35900
 21
34.29900
  0
LINE
  8
Engraving
 62
   7
 39
0.400
  6
CONTINUOUS
 10
16.35900
 20
34.29900
 30
 0
 11
16.27900
 21
34.19800
  0
LINE
  8
Engraving
 62
   7
 39
0.400
  6
CONTINUOUS
 10
16.27900
 20
34.19800
 30
 0
 11
16.21800
 21
34.09700
  0
LINE
  8
Engraving
 62
   7
 39
0.400
  6
CONTINUOUS
 10
16.21800
 20
34.09700
 30
 0
 11
16.19800
 21
33.91500
  0
LINE
  8
Engraving
 62
   7
 39
0.400
  6
CONTINUOUS
 10
16.19800
 20
33.91500
 30
 0
 11
16.19800
 21
33.59300
  0
LINE
  8
Engraving
 62
   7
 39
0.400
  6
CONTINUOUS
 10
16.19800
 20
33.59300
 30
 0
 11
16.21800
 21
33.43100
  0
LINE
  8
Engraving
 62
   7
 39
0.400
  6
CONTINUOUS
 10
16.21800
 20
33.43100
 30
 0
 11
16.29900
 21
33.29000
  0
LINE
  8
Engraving
 62
   7
 39
0.400
  6
CONTINUOUS
 10
16.29900
 20
33.29000
 30
 0
 11
16.40000
 21
33.18900
  0
LINE
  8
Engraving
 62
   7
 39
0.400
  6
CONTINUOUS
 10
16.40000
 20
33.18900
 30
 0
 11
16.52100
 21
33.12800
  0
LINE
  8
Engraving
 62
   7
 39
0.400
  6
CONTINUOUS
 10
16.52100
 20
33.12800
 30
 0
 11
16.68200
 21
33.10800
  0
LINE
  8
Engraving
 62
   7
 39
0.400
  6
CONTINUOUS
 10
16.68200
 20
33.10800
 30
 0
 11
17.48900
 21
33.10800
  0
LINE
  8
Engraving
 62
   7
 39
0.400
  6
CONTINUOUS
 10
16.21800
 20
34.94500
 30
 0
 11
18.29700
 21
34.94500
  0
LINE
  8
Engraving
 62
   7
 39
0.400
  6
CONTINUOUS
 10
18.29700
 20
34.94500
 30
 0
 11
18.53900
 21
35.00500
  0
LINE
  8
Engraving
 62
   7
 39
0.400
  6
CONTINUOUS
 10
18.53900
 20
35.00500
 30
 0
 11
18.66000
 21
35.08600
  0
LINE
  8
Engraving
 62
   7
 39
0.400
  6
CONTINUOUS
 10
18.66000
 20
35.08600
 30
 0
 11
18.76100
 21
35.24700
  0
LINE
  8
Engraving
 62
   7
 39
0.400
  6
CONTINUOUS
 10
18.76100
 20
35.24700
 30
 0
 11
18.80100
 21
35.44900
  0
LINE
  8
Engraving
 62
   7
 39
0.400
  6
CONTINUOUS
 10
18.80100
 20
35.44900
 30
 0
 11
18.80100
 21
35.71200
  0
LINE
  8
Engraving
 62
   7
 39
0.400
  6
CONTINUOUS
 10
18.80100
 20
35.71200
 30
 0
 11
18.78100
 21
35.87300
  0
LINE
  8
Engraving
 62
   7
 39
0.400
  6
CONTINUOUS
 10
18.78100
 20
35.87300
 30
 0
 11
18.68000
 21
36.05500
  0
LINE
  8
Engraving
 62
   7
 39
0.400
  6
CONTINUOUS
 10
18.68000
 20
36.05500
 30
 0
 11
18.49800
 21
36.19600
  0
LINE
  8
Engraving
 62
   7
 39
0.400
  6
CONTINUOUS
 10
18.49800
 20
36.19600
 30
 0
 11
18.29700
 21
36.23600
  0
LINE
  8
Engraving
 62
   7
 39
0.400
  6
CONTINUOUS
 10
18.29700
 20
36.23600
 30
 0
 11
16.21800
 21
36.23600
  0
LINE
  8
Engraving
 62
   7
 39
0.400
  6
CONTINUOUS
 10
18.78100
 20
37.42700
 30
 0
 11
16.21800
 21
37.42700
  0
LINE
  8
Engraving
 62
   7
 39
0.400
  6
CONTINUOUS
 10
16.21800
 20
36.74100
 30
 0
 11
16.21800
 21
38.13300
  0
CIRCLE
  8
Contour
 62
   7
 39
0.100
  6
CONTINUOUS
 10
7.50000
 20
125.50000
 30
 0
 40
1.50000
  0
CIRCLE
  8
Contour
 62
   7
 39
0.100
  6
CONTINUOUS
 10
7.50000
 20
3.00000
 30
 0
 40
1.50000
  0
CIRCLE
  8
Contour
 62
   7
 39
0.100
  6
CONTINUOUS
 10
9.95000
 20
78.80000
 30
 0
 40
3.75000
  0
CIRCLE
  8
Contour
 62
   7
 39
0.100
  6
CONTINUOUS
 10
9.95000
 20
35.62000
 30
 0
 40
3.00000
  0
ENDSEC
  0
EOF
