  0
SECTION
  2
HEADER
  9
$MEASUREMENT
  70
  1
  9
$INSUNITS
  70
  4
  0
ENDSEC
  0
SECTION
  2
TABLES
  0
TABLE
  2
LTYPE
 70
     1
  0
LTYPE
  2
CONTINUOUS
 70
    64
  3
Ausgezogene Linie
 72
    65
 73
     0
 40
0.0
  0
ENDTAB
  0
TABLE
  2
LAYER
 70
     3
  0
LAYER
  2
Contour
 70
    64
 62
     7
  6
CONTINUOUS
  0
LAYER
  2
Engraving
 70
    64
 62
     7
  6
CONTINUOUS
  0
LAYER
  2
Reference_points
 70
    64
 62
     1
  6
CONTINUOUS
  0
ENDTAB
  0
TABLE
  2
STYLE
 70
     1
  0
STYLE
  2
TXT
 70
    64
 40
0.0
 41
1.0
 50
0.0
 71
     0
 42
3.500000
  3
TXT
  0
ENDTAB
  0
ENDSEC
  0
SECTION
  2
BLOCKS
  0
ENDSEC
  0
SECTION
  2
ENTITIES
  0
LINE
  8
Contour
 62
   7
 39
0.100
  6
CONTINUOUS
 10
19.98000
 20
128.40000
 30
 0
 11
0.00000
 21
128.40000
  0
LINE
  8
Contour
 62
   7
 39
0.100
  6
CONTINUOUS
 10
0.00000
 20
128.40000
 30
 0
 11
0.00000
 21
128.40000
  0
LINE
  8
Contour
 62
   7
 39
0.100
  6
CONTINUOUS
 10
0.00000
 20
128.40000
 30
 0
 11
0.00000
 21
0.00000
  0
LINE
  8
Contour
 62
   7
 39
0.100
  6
CONTINUOUS
 10
0.00000
 20
0.00000
 30
 0
 11
0.00000
 21
0.00000
  0
LINE
  8
Contour
 62
   7
 39
0.100
  6
CONTINUOUS
 10
0.00000
 20
0.00000
 30
 0
 11
19.98000
 21
0.00000
  0
LINE
  8
Contour
 62
   7
 39
0.100
  6
CONTINUOUS
 10
19.98000
 20
0.00000
 30
 0
 11
19.98000
 21
0.00000
  0
LINE
  8
Contour
 62
   7
 39
0.100
  6
CONTINUOUS
 10
19.98000
 20
0.00000
 30
 0
 11
19.98000
 21
128.40000
  0
LINE
  8
Contour
 62
   7
 39
0.100
  6
CONTINUOUS
 10
19.98000
 20
128.40000
 30
 0
 11
19.98000
 21
128.40000
  0
LINE
  8
Engraving
 62
   7
 39
0.400
  6
CONTINUOUS
 10
2.49900
 20
32.75500
 30
 0
 11
2.49900
 21
34.08000
  0
LINE
  8
Engraving
 62
   7
 39
0.400
  6
CONTINUOUS
 10
0.97100
 20
34.76000
 30
 0
 11
0.97100
 21
32.72200
  0
LINE
  8
Engraving
 62
   7
 39
0.400
  6
CONTINUOUS
 10
0.97100
 20
32.72200
 30
 0
 11
4.02800
 21
32.72200
  0
LINE
  8
Engraving
 62
   7
 39
0.400
  6
CONTINUOUS
 10
0.93700
 20
35.77900
 30
 0
 11
1.20900
 21
35.77900
  0
LINE
  8
Engraving
 62
   7
 39
0.400
  6
CONTINUOUS
 10
1.88800
 20
35.77900
 30
 0
 11
4.02800
 21
35.77900
  0
LINE
  8
Engraving
 62
   7
 39
0.400
  6
CONTINUOUS
 10
0.97100
 20
36.79800
 30
 0
 11
4.02800
 21
36.79800
  0
LINE
  8
Engraving
 62
   7
 39
0.400
  6
CONTINUOUS
 10
1.92200
 20
37.78300
 30
 0
 11
1.92200
 21
38.63200
  0
LINE
  8
Engraving
 62
   7
 39
0.400
  6
CONTINUOUS
 10
0.97100
 20
38.19000
 30
 0
 11
4.02800
 21
38.19000
  0
LINE
  8
Engraving
 62
   7
 39
0.400
  6
CONTINUOUS
 10
2.87300
 20
39.65100
 30
 0
 11
2.87300
 21
41.28100
  0
ARC
  8
Engraving
 62
   7
 39
0.400
  6
CONTINUOUS
 10
2.83700
 20
40.27400
 30
 0
 40
1.00800
 50
87.95256
 51
120.20324
  0
ARC
  8
Engraving
 62
   7
 39
0.400
  6
CONTINUOUS
 10
2.70200
 20
40.49800
 30
 0
 40
0.74600
 50
119.89724
 51
179.84639
  0
ARC
  8
Engraving
 62
   7
 39
0.400
  6
CONTINUOUS
 10
2.75500
 20
40.50200
 30
 0
 40
0.79900
 50
-179.85658
 51
-116.53299
  0
ARC
  8
Engraving
 62
   7
 39
0.400
  6
CONTINUOUS
 10
3.00900
 20
41.00900
 30
 0
 40
1.36600
 50
-116.56505
 51
-63.43495
  0
ARC
  8
Engraving
 62
   7
 39
0.400
  6
CONTINUOUS
 10
3.26300
 20
40.50200
 30
 0
 40
0.79900
 50
-63.46701
 51
-0.14342
  0
ARC
  8
Engraving
 62
   7
 39
0.400
  6
CONTINUOUS
 10
3.18800
 20
40.49600
 30
 0
 40
0.87400
 50
0.26222
 51
55.11001
  0
LINE
  8
Engraving
 62
   7
 39
0.400
  6
CONTINUOUS
 10
1.88800
 20
42.30000
 30
 0
 11
4.02800
 21
42.30000
  0
LINE
  8
Engraving
 62
   7
 39
0.400
  6
CONTINUOUS
 10
4.02800
 20
42.30000
 30
 0
 11
2.63500
 21
42.30000
  0
ARC
  8
Engraving
 62
   7
 39
0.400
  6
CONTINUOUS
 10
2.77700
 20
43.17800
 30
 0
 40
0.88900
 50
179.67775
 51
-99.18697
  0
LINE
  8
Engraving
 62
   7
 39
0.400
  6
CONTINUOUS
 10
2.66900
 20
44.33800
 30
 0
 11
2.66900
 21
44.16800
  0
LINE
  8
Engraving
 62
   7
 39
0.400
  6
CONTINUOUS
 10
2.66900
 20
44.16800
 30
 0
 11
2.49900
 21
44.16800
  0
LINE
  8
Engraving
 62
   7
 39
0.400
  6
CONTINUOUS
 10
2.49900
 20
44.16800
 30
 0
 11
2.49900
 21
44.33800
  0
LINE
  8
Engraving
 62
   7
 39
0.400
  6
CONTINUOUS
 10
2.49900
 20
44.33800
 30
 0
 11
2.66900
 21
44.33800
  0
LINE
  8
Engraving
 62
   7
 39
0.400
  6
CONTINUOUS
 10
4.02800
 20
44.33800
 30
 0
 11
4.02800
 21
44.16800
  0
LINE
  8
Engraving
 62
   7
 39
0.400
  6
CONTINUOUS
 10
4.02800
 20
44.16800
 30
 0
 11
3.85800
 21
44.16800
  0
LINE
  8
Engraving
 62
   7
 39
0.400
  6
CONTINUOUS
 10
3.85800
 20
44.16800
 30
 0
 11
3.85800
 21
44.33800
  0
LINE
  8
Engraving
 62
   7
 39
0.400
  6
CONTINUOUS
 10
3.85800
 20
44.33800
 30
 0
 11
4.02800
 21
44.33800
  0
LINE
  8
Engraving
 62
   7
 39
0.400
  6
CONTINUOUS
 10
2.66900
 20
45.49300
 30
 0
 11
2.66900
 21
45.32300
  0
LINE
  8
Engraving
 62
   7
 39
0.400
  6
CONTINUOUS
 10
2.66900
 20
45.32300
 30
 0
 11
2.49900
 21
45.32300
  0
LINE
  8
Engraving
 62
   7
 39
0.400
  6
CONTINUOUS
 10
2.49900
 20
45.32300
 30
 0
 11
2.49900
 21
45.49300
  0
LINE
  8
Engraving
 62
   7
 39
0.400
  6
CONTINUOUS
 10
2.49900
 20
45.49300
 30
 0
 11
2.66900
 21
45.49300
  0
LINE
  8
Engraving
 62
   7
 39
0.400
  6
CONTINUOUS
 10
4.02800
 20
45.49300
 30
 0
 11
4.02800
 21
45.32300
  0
LINE
  8
Engraving
 62
   7
 39
0.400
  6
CONTINUOUS
 10
4.02800
 20
45.32300
 30
 0
 11
3.85800
 21
45.32300
  0
LINE
  8
Engraving
 62
   7
 39
0.400
  6
CONTINUOUS
 10
3.85800
 20
45.32300
 30
 0
 11
3.85800
 21
45.49300
  0
LINE
  8
Engraving
 62
   7
 39
0.400
  6
CONTINUOUS
 10
3.85800
 20
45.49300
 30
 0
 11
4.02800
 21
45.49300
  0
LINE
  8
Engraving
 62
   7
 39
0.400
  6
CONTINUOUS
 10
4.02800
 20
46.51200
 30
 0
 11
0.97100
 21
46.51200
  0
LINE
  8
Engraving
 62
   7
 39
0.400
  6
CONTINUOUS
 10
0.97100
 20
46.51200
 30
 0
 11
0.97100
 21
47.97300
  0
ARC
  8
Engraving
 62
   7
 39
0.400
  6
CONTINUOUS
 10
1.75200
 20
47.97300
 30
 0
 40
0.78100
 50
360.00000
 51
180.00000
  0
LINE
  8
Engraving
 62
   7
 39
0.400
  6
CONTINUOUS
 10
2.53300
 20
47.97300
 30
 0
 11
2.53300
 21
46.51200
  0
LINE
  8
Engraving
 62
   7
 39
0.400
  6
CONTINUOUS
 10
2.53300
 20
46.51200
 30
 0
 11
2.53300
 21
47.87100
  0
LINE
  8
Engraving
 62
   7
 39
0.400
  6
CONTINUOUS
 10
2.53300
 20
47.87100
 30
 0
 11
4.02800
 21
48.55000
  0
LINE
  8
Engraving
 62
   7
 39
0.400
  6
CONTINUOUS
 10
2.87300
 20
49.77300
 30
 0
 11
2.87300
 21
51.40300
  0
ARC
  8
Engraving
 62
   7
 39
0.400
  6
CONTINUOUS
 10
2.83700
 20
50.39600
 30
 0
 40
1.00800
 50
87.95256
 51
120.20324
  0
ARC
  8
Engraving
 62
   7
 39
0.400
  6
CONTINUOUS
 10
2.70200
 20
50.62000
 30
 0
 40
0.74600
 50
119.89724
 51
179.84639
  0
ARC
  8
Engraving
 62
   7
 39
0.400
  6
CONTINUOUS
 10
2.75500
 20
50.62400
 30
 0
 40
0.79900
 50
-179.85658
 51
-116.53299
  0
ARC
  8
Engraving
 62
   7
 39
0.400
  6
CONTINUOUS
 10
3.00900
 20
51.13100
 30
 0
 40
1.36600
 50
-116.56505
 51
-63.43495
  0
ARC
  8
Engraving
 62
   7
 39
0.400
  6
CONTINUOUS
 10
3.26300
 20
50.62400
 30
 0
 40
0.79900
 50
-63.46701
 51
-0.14342
  0
ARC
  8
Engraving
 62
   7
 39
0.400
  6
CONTINUOUS
 10
3.18800
 20
50.61800
 30
 0
 40
0.87400
 50
0.26222
 51
55.11001
  0
ARC
  8
Engraving
 62
   7
 39
0.400
  6
CONTINUOUS
 10
3.52900
 20
52.81900
 30
 0
 40
0.45700
 50
-60.23958
 51
-29.76042
  0
ARC
  8
Engraving
 62
   7
 39
0.400
  6
CONTINUOUS
 10
3.16000
 20
53.03400
 30
 0
 40
0.88400
 50
-29.98596
 51
29.92981
  0
ARC
  8
Engraving
 62
   7
 39
0.400
  6
CONTINUOUS
 10
3.52400
 20
53.23700
 30
 0
 40
0.46700
 50
30.62722
 51
163.07759
  0
LINE
  8
Engraving
 62
   7
 39
0.400
  6
CONTINUOUS
 10
3.07700
 20
53.37300
 30
 0
 11
2.87300
 21
52.69400
  0
ARC
  8
Engraving
 62
   7
 39
0.400
  6
CONTINUOUS
 10
2.45900
 20
52.82400
 30
 0
 40
0.43400
 50
212.29913
 51
-17.43279
  0
ARC
  8
Engraving
 62
   7
 39
0.400
  6
CONTINUOUS
 10
2.79100
 20
53.03700
 30
 0
 40
0.82900
 50
132.79928
 51
-147.51820
  0
ARC
  8
Engraving
 62
   7
 39
0.400
  6
CONTINUOUS
 10
3.00900
 20
56.09000
 30
 0
 40
1.36600
 50
-116.56505
 51
-63.43495
  0
ARC
  8
Engraving
 62
   7
 39
0.400
  6
CONTINUOUS
 10
3.26800
 20
55.58100
 30
 0
 40
0.79500
 50
-63.72497
 51
63.72497
  0
ARC
  8
Engraving
 62
   7
 39
0.400
  6
CONTINUOUS
 10
3.00900
 20
55.07200
 30
 0
 40
1.36600
 50
63.43495
 51
116.56505
  0
ARC
  8
Engraving
 62
   7
 39
0.400
  6
CONTINUOUS
 10
2.75000
 20
55.58100
 30
 0
 40
0.79500
 50
116.27503
 51
243.72497
  0
LINE
  8
Engraving
 62
   7
 39
0.400
  6
CONTINUOUS
 10
4.02800
 20
57.41500
 30
 0
 11
1.88800
 21
57.41500
  0
LINE
  8
Engraving
 62
   7
 39
0.400
  6
CONTINUOUS
 10
1.88800
 20
57.41500
 30
 0
 11
2.43200
 21
57.41500
  0
ARC
  8
Engraving
 62
   7
 39
0.400
  6
CONTINUOUS
 10
2.87600
 20
58.29800
 30
 0
 40
0.98800
 50
180.00000
 51
-116.69468
  0
ARC
  8
Engraving
 62
   7
 39
0.400
  6
CONTINUOUS
 10
2.46200
 20
58.30200
 30
 0
 40
0.57400
 50
89.60073
 51
-179.60073
  0
LINE
  8
Engraving
 62
   7
 39
0.400
  6
CONTINUOUS
 10
2.46600
 20
58.87600
 30
 0
 11
4.02800
 21
58.87600
  0
LINE
  8
Engraving
 62
   7
 39
0.400
  6
CONTINUOUS
 10
1.92200
 20
61.45700
 30
 0
 11
4.02800
 21
61.45700
  0
LINE
  8
Engraving
 62
   7
 39
0.400
  6
CONTINUOUS
 10
4.02800
 20
61.45700
 30
 0
 11
3.68800
 21
61.45700
  0
ARC
  8
Engraving
 62
   7
 39
0.400
  6
CONTINUOUS
 10
3.18800
 20
60.74000
 30
 0
 40
0.87400
 50
360.26222
 51
55.11001
  0
ARC
  8
Engraving
 62
   7
 39
0.400
  6
CONTINUOUS
 10
3.26300
 20
60.74600
 30
 0
 40
0.79900
 50
296.53299
 51
-0.14342
  0
ARC
  8
Engraving
 62
   7
 39
0.400
  6
CONTINUOUS
 10
3.00900
 20
61.25300
 30
 0
 40
1.36600
 50
243.43495
 51
-63.43495
  0
ARC
  8
Engraving
 62
   7
 39
0.400
  6
CONTINUOUS
 10
2.75500
 20
60.74600
 30
 0
 40
0.79900
 50
180.14342
 51
-116.53299
  0
ARC
  8
Engraving
 62
   7
 39
0.400
  6
CONTINUOUS
 10
2.83000
 20
60.74000
 30
 0
 40
0.87400
 50
484.88999
 51
179.73778
  0
LINE
  8
Engraving
 62
   7
 39
0.400
  6
CONTINUOUS
 10
4.02800
 20
62.44200
 30
 0
 11
1.88800
 21
62.44200
  0
LINE
  8
Engraving
 62
   7
 39
0.400
  6
CONTINUOUS
 10
1.88800
 20
62.44200
 30
 0
 11
2.43200
 21
62.44200
  0
ARC
  8
Engraving
 62
   7
 39
0.400
  6
CONTINUOUS
 10
2.87600
 20
63.32500
 30
 0
 40
0.98800
 50
180.00000
 51
-116.69468
  0
ARC
  8
Engraving
 62
   7
 39
0.400
  6
CONTINUOUS
 10
2.46200
 20
63.32900
 30
 0
 40
0.57400
 50
89.60073
 51
-179.60073
  0
LINE
  8
Engraving
 62
   7
 39
0.400
  6
CONTINUOUS
 10
2.46600
 20
63.90300
 30
 0
 11
4.02800
 21
63.90300
  0
LINE
  8
Engraving
 62
   7
 39
0.400
  6
CONTINUOUS
 10
1.92200
 20
64.88800
 30
 0
 11
1.92200
 21
65.73700
  0
LINE
  8
Engraving
 62
   7
 39
0.400
  6
CONTINUOUS
 10
0.97100
 20
65.29600
 30
 0
 11
4.02800
 21
65.29600
  0
LINE
  8
Engraving
 62
   7
 39
0.400
  6
CONTINUOUS
 10
0.97100
 20
70.11900
 30
 0
 11
4.02800
 21
70.11900
  0
LINE
  8
Engraving
 62
   7
 39
0.400
  6
CONTINUOUS
 10
4.02800
 20
70.11900
 30
 0
 11
2.39800
 21
70.11900
  0
LINE
  8
Engraving
 62
   7
 39
0.400
  6
CONTINUOUS
 10
2.39800
 20
70.11900
 30
 0
 11
2.39800
 21
72.32700
  0
LINE
  8
Engraving
 62
   7
 39
0.400
  6
CONTINUOUS
 10
2.39800
 20
72.32700
 30
 0
 11
4.02800
 21
72.32700
  0
LINE
  8
Engraving
 62
   7
 39
0.400
  6
CONTINUOUS
 10
4.02800
 20
72.32700
 30
 0
 11
0.97100
 21
72.32700
  0
LINE
  8
Engraving
 62
   7
 39
0.400
  6
CONTINUOUS
 10
0.93700
 20
73.34600
 30
 0
 11
1.20900
 21
73.34600
  0
LINE
  8
Engraving
 62
   7
 39
0.400
  6
CONTINUOUS
 10
1.88800
 20
73.34600
 30
 0
 11
4.02800
 21
73.34600
  0
ARC
  8
Engraving
 62
   7
 39
0.400
  6
CONTINUOUS
 10
2.83000
 20
75.21000
 30
 0
 40
0.87400
 50
124.88999
 51
179.73778
  0
ARC
  8
Engraving
 62
   7
 39
0.400
  6
CONTINUOUS
 10
2.75500
 20
75.21600
 30
 0
 40
0.79900
 50
-179.85658
 51
-116.53299
  0
ARC
  8
Engraving
 62
   7
 39
0.400
  6
CONTINUOUS
 10
3.00900
 20
75.72300
 30
 0
 40
1.36600
 50
-116.56505
 51
-63.43495
  0
ARC
  8
Engraving
 62
   7
 39
0.400
  6
CONTINUOUS
 10
3.26300
 20
75.21600
 30
 0
 40
0.79900
 50
-63.46701
 51
-0.14342
  0
ARC
  8
Engraving
 62
   7
 39
0.400
  6
CONTINUOUS
 10
3.18800
 20
75.21000
 30
 0
 40
0.87400
 50
0.26222
 51
55.11001
  0
LINE
  8
Engraving
 62
   7
 39
0.400
  6
CONTINUOUS
 10
3.68800
 20
75.92700
 30
 0
 11
1.95600
 21
75.92700
  0
LINE
  8
Engraving
 62
   7
 39
0.400
  6
CONTINUOUS
 10
1.95600
 20
75.92700
 30
 0
 11
4.50400
 21
75.92700
  0
ARC
  8
Engraving
 62
   7
 39
0.400
  6
CONTINUOUS
 10
4.50200
 20
75.54000
 30
 0
 40
0.38700
 50
388.22054
 51
89.70390
  0
ARC
  8
Engraving
 62
   7
 39
0.400
  6
CONTINUOUS
 10
4.17100
 20
75.36100
 30
 0
 40
0.76300
 50
326.70550
 51
28.31092
  0
LINE
  8
Engraving
 62
   7
 39
0.400
  6
CONTINUOUS
 10
0.97100
 20
76.91200
 30
 0
 11
4.02800
 21
76.91200
  0
LINE
  8
Engraving
 62
   7
 39
0.400
  6
CONTINUOUS
 10
4.02800
 20
76.91200
 30
 0
 11
2.43200
 21
76.91200
  0
ARC
  8
Engraving
 62
   7
 39
0.400
  6
CONTINUOUS
 10
2.87600
 20
77.79500
 30
 0
 40
0.98800
 50
180.00000
 51
-116.69468
  0
ARC
  8
Engraving
 62
   7
 39
0.400
  6
CONTINUOUS
 10
2.46200
 20
77.79900
 30
 0
 40
0.57400
 50
89.60073
 51
-179.60073
  0
LINE
  8
Engraving
 62
   7
 39
0.400
  6
CONTINUOUS
 10
2.46600
 20
78.37300
 30
 0
 11
4.02800
 21
78.37300
  0
LINE
  8
Engraving
 62
   7
 39
0.400
  6
CONTINUOUS
 10
3.07700
 20
79.39200
 30
 0
 11
3.07700
 21
81.22600
  0
LINE
  8
Engraving
 62
   7
 39
0.400
  6
CONTINUOUS
 10
2.53300
 20
82.24500
 30
 0
 11
2.53300
 21
83.70500
  0
ARC
  8
Engraving
 62
   7
 39
0.400
  6
CONTINUOUS
 10
1.75200
 20
83.70500
 30
 0
 40
0.78100
 50
0.00000
 51
180.00000
  0
LINE
  8
Engraving
 62
   7
 39
0.400
  6
CONTINUOUS
 10
0.97100
 20
83.70500
 30
 0
 11
0.97100
 21
82.24500
  0
LINE
  8
Engraving
 62
   7
 39
0.400
  6
CONTINUOUS
 10
0.97100
 20
82.24500
 30
 0
 11
4.02800
 21
82.24500
  0
LINE
  8
Engraving
 62
   7
 39
0.400
  6
CONTINUOUS
 10
1.92200
 20
87.06800
 30
 0
 11
4.02800
 21
87.06800
  0
LINE
  8
Engraving
 62
   7
 39
0.400
  6
CONTINUOUS
 10
4.02800
 20
87.06800
 30
 0
 11
3.68800
 21
87.06800
  0
ARC
  8
Engraving
 62
   7
 39
0.400
  6
CONTINUOUS
 10
3.18800
 20
86.35100
 30
 0
 40
0.87400
 50
360.26222
 51
55.11001
  0
ARC
  8
Engraving
 62
   7
 39
0.400
  6
CONTINUOUS
 10
3.26300
 20
86.35700
 30
 0
 40
0.79900
 50
296.53299
 51
-0.14342
  0
ARC
  8
Engraving
 62
   7
 39
0.400
  6
CONTINUOUS
 10
3.00900
 20
86.86400
 30
 0
 40
1.36600
 50
243.43495
 51
-63.43495
  0
ARC
  8
Engraving
 62
   7
 39
0.400
  6
CONTINUOUS
 10
2.75500
 20
86.35700
 30
 0
 40
0.79900
 50
180.14342
 51
-116.53299
  0
ARC
  8
Engraving
 62
   7
 39
0.400
  6
CONTINUOUS
 10
2.83000
 20
86.35100
 30
 0
 40
0.87400
 50
484.88999
 51
179.73778
  0
ARC
  8
Engraving
 62
   7
 39
0.400
  6
CONTINUOUS
 10
3.52900
 20
88.48400
 30
 0
 40
0.45700
 50
-60.23958
 51
-29.76042
  0
ARC
  8
Engraving
 62
   7
 39
0.400
  6
CONTINUOUS
 10
3.16000
 20
88.69900
 30
 0
 40
0.88400
 50
-29.98596
 51
29.92981
  0
ARC
  8
Engraving
 62
   7
 39
0.400
  6
CONTINUOUS
 10
3.52400
 20
88.90200
 30
 0
 40
0.46700
 50
30.62722
 51
163.07759
  0
LINE
  8
Engraving
 62
   7
 39
0.400
  6
CONTINUOUS
 10
3.07700
 20
89.03800
 30
 0
 11
2.87300
 21
88.35900
  0
ARC
  8
Engraving
 62
   7
 39
0.400
  6
CONTINUOUS
 10
2.45900
 20
88.48900
 30
 0
 40
0.43400
 50
212.29913
 51
-17.43279
  0
ARC
  8
Engraving
 62
   7
 39
0.400
  6
CONTINUOUS
 10
2.79100
 20
88.70200
 30
 0
 40
0.82900
 50
132.79928
 51
-147.51820
  0
ARC
  8
Engraving
 62
   7
 39
0.400
  6
CONTINUOUS
 10
3.52900
 20
90.79400
 30
 0
 40
0.45700
 50
-60.23958
 51
-29.76042
  0
ARC
  8
Engraving
 62
   7
 39
0.400
  6
CONTINUOUS
 10
3.16000
 20
91.00900
 30
 0
 40
0.88400
 50
-29.98596
 51
29.92981
  0
ARC
  8
Engraving
 62
   7
 39
0.400
  6
CONTINUOUS
 10
3.52400
 20
91.21200
 30
 0
 40
0.46700
 50
30.62722
 51
163.07759
  0
LINE
  8
Engraving
 62
   7
 39
0.400
  6
CONTINUOUS
 10
3.07700
 20
91.34800
 30
 0
 11
2.87300
 21
90.66900
  0
ARC
  8
Engraving
 62
   7
 39
0.400
  6
CONTINUOUS
 10
2.45900
 20
90.79900
 30
 0
 40
0.43400
 50
212.29913
 51
-17.43279
  0
ARC
  8
Engraving
 62
   7
 39
0.400
  6
CONTINUOUS
 10
2.79100
 20
91.01200
 30
 0
 40
0.82900
 50
132.79928
 51
-147.51820
  0
ARC
  8
Engraving
 62
   7
 39
0.400
  6
CONTINUOUS
 10
17.51600
 20
74.37000
 30
 0
 40
0.95600
 50
120.74801
 51
129.78256
  0
ARC
  8
Engraving
 62
   7
 39
0.400
  6
CONTINUOUS
 10
17.22700
 20
74.70300
 30
 0
 40
0.51600
 50
128.78127
 51
231.28821
  0
ARC
  8
Engraving
 62
   7
 39
0.400
  6
CONTINUOUS
 10
17.50800
 20
75.04500
 30
 0
 40
0.95900
 50
-129.03300
 51
-50.96700
  0
ARC
  8
Engraving
 62
   7
 39
0.400
  6
CONTINUOUS
 10
17.78900
 20
74.70300
 30
 0
 40
0.51600
 50
-51.28821
 51
51.21873
  0
ARC
  8
Engraving
 62
   7
 39
0.400
  6
CONTINUOUS
 10
17.55000
 20
74.36700
 30
 0
 40
0.92800
 50
52.71009
 51
65.34134
  0
LINE
  8
Engraving
 62
   7
 39
0.400
  6
CONTINUOUS
 10
16.71200
 20
75.73500
 30
 0
 11
17.76200
 21
75.73500
  0
ARC
  8
Engraving
 62
   7
 39
0.400
  6
CONTINUOUS
 10
17.76200
 20
76.26000
 30
 0
 40
0.52500
 50
-90.00000
 51
90.00000
  0
LINE
  8
Engraving
 62
   7
 39
0.400
  6
CONTINUOUS
 10
17.76200
 20
76.78500
 30
 0
 11
16.71200
 21
76.78500
  0
LINE
  8
Engraving
 62
   7
 39
0.400
  6
CONTINUOUS
 10
16.71200
 20
77.31000
 30
 0
 11
16.71200
 21
78.53500
  0
LINE
  8
Engraving
 62
   7
 39
0.400
  6
CONTINUOUS
 10
16.71200
 20
78.53500
 30
 0
 11
16.71200
 21
77.92200
  0
LINE
  8
Engraving
 62
   7
 39
0.400
  6
CONTINUOUS
 10
16.71200
 20
77.92200
 30
 0
 11
18.28700
 21
77.92200
  0
LINE
  8
Engraving
 62
   7
 39
0.400
  6
CONTINUOUS
 10
18.28700
 20
58.94500
 30
 0
 11
16.71200
 21
58.94500
  0
LINE
  8
Engraving
 62
   7
 39
0.400
  6
CONTINUOUS
 10
16.71200
 20
58.94500
 30
 0
 11
16.71200
 21
59.69700
  0
ARC
  8
Engraving
 62
   7
 39
0.400
  6
CONTINUOUS
 10
17.11400
 20
59.67700
 30
 0
 40
0.40200
 50
362.84113
 51
177.15181
  0
LINE
  8
Engraving
 62
   7
 39
0.400
  6
CONTINUOUS
 10
17.51700
 20
59.69700
 30
 0
 11
17.51700
 21
58.94500
  0
LINE
  8
Engraving
 62
   7
 39
0.400
  6
CONTINUOUS
 10
17.51700
 20
58.94500
 30
 0
 11
17.51700
 21
59.64500
  0
LINE
  8
Engraving
 62
   7
 39
0.400
  6
CONTINUOUS
 10
17.51700
 20
59.64500
 30
 0
 11
18.28700
 21
59.99500
  0
LINE
  8
Engraving
 62
   7
 39
0.400
  6
CONTINUOUS
 10
17.44700
 20
60.64200
 30
 0
 11
17.44700
 21
61.32500
  0
LINE
  8
Engraving
 62
   7
 39
0.400
  6
CONTINUOUS
 10
16.71200
 20
61.67500
 30
 0
 11
16.71200
 21
60.62500
  0
LINE
  8
Engraving
 62
   7
 39
0.400
  6
CONTINUOUS
 10
16.71200
 20
60.62500
 30
 0
 11
18.28700
 21
60.62500
  0
LINE
  8
Engraving
 62
   7
 39
0.400
  6
CONTINUOUS
 10
18.28700
 20
60.62500
 30
 0
 11
18.28700
 21
61.67500
  0
ARC
  8
Engraving
 62
   7
 39
0.400
  6
CONTINUOUS
 10
17.90400
 20
62.53500
 30
 0
 40
0.35400
 50
-64.01441
 51
-33.46538
  0
ARC
  8
Engraving
 62
   7
 39
0.400
  6
CONTINUOUS
 10
17.60700
 20
62.68100
 30
 0
 40
0.68300
 50
-29.94252
 51
29.94252
  0
ARC
  8
Engraving
 62
   7
 39
0.400
  6
CONTINUOUS
 10
17.89900
 20
62.84900
 30
 0
 40
0.34600
 50
29.97062
 51
162.66575
  0
LINE
  8
Engraving
 62
   7
 39
0.400
  6
CONTINUOUS
 10
17.56900
 20
62.95200
 30
 0
 11
17.39400
 21
62.42700
  0
ARC
  8
Engraving
 62
   7
 39
0.400
  6
CONTINUOUS
 10
17.08500
 20
62.51800
 30
 0
 40
0.32200
 50
213.59128
 51
-16.40962
  0
ARC
  8
Engraving
 62
   7
 39
0.400
  6
CONTINUOUS
 10
17.35200
 20
62.68000
 30
 0
 40
0.63400
 50
132.76052
 51
-147.56347
  0
LINE
  8
Engraving
 62
   7
 39
0.400
  6
CONTINUOUS
 10
16.71200
 20
43.77300
 30
 0
 11
18.28700
 21
43.77300
  0
LINE
  8
Engraving
 62
   7
 39
0.400
  6
CONTINUOUS
 10
18.28700
 20
44.29800
 30
 0
 11
16.71200
 21
44.29800
  0
LINE
  8
Engraving
 62
   7
 39
0.400
  6
CONTINUOUS
 10
16.71200
 20
44.29800
 30
 0
 11
16.71200
 21
44.38500
  0
LINE
  8
Engraving
 62
   7
 39
0.400
  6
CONTINUOUS
 10
16.71200
 20
44.38500
 30
 0
 11
18.28700
 21
45.26000
  0
LINE
  8
Engraving
 62
   7
 39
0.400
  6
CONTINUOUS
 10
18.28700
 20
45.26000
 30
 0
 11
18.28700
 21
45.34800
  0
LINE
  8
Engraving
 62
   7
 39
0.400
  6
CONTINUOUS
 10
18.28700
 20
45.34800
 30
 0
 11
16.71200
 21
45.34800
  0
ARC
  8
Engraving
 62
   7
 39
0.400
  6
CONTINUOUS
 10
17.50800
 20
29.18200
 30
 0
 40
0.95900
 50
-129.03300
 51
-50.96700
  0
ARC
  8
Engraving
 62
   7
 39
0.400
  6
CONTINUOUS
 10
17.78900
 20
28.84000
 30
 0
 40
0.51600
 50
-51.28821
 51
51.21873
  0
ARC
  8
Engraving
 62
   7
 39
0.400
  6
CONTINUOUS
 10
17.50800
 20
28.49700
 30
 0
 40
0.95900
 50
50.96700
 51
129.03300
  0
ARC
  8
Engraving
 62
   7
 39
0.400
  6
CONTINUOUS
 10
17.22700
 20
28.84000
 30
 0
 40
0.51600
 50
128.78127
 51
231.28821
  0
LINE
  8
Engraving
 62
   7
 39
0.400
  6
CONTINUOUS
 10
16.71200
 20
29.97700
 30
 0
 11
17.76200
 21
29.97700
  0
ARC
  8
Engraving
 62
   7
 39
0.400
  6
CONTINUOUS
 10
17.76200
 20
30.50200
 30
 0
 40
0.52500
 50
-90.00000
 51
90.00000
  0
LINE
  8
Engraving
 62
   7
 39
0.400
  6
CONTINUOUS
 10
17.76200
 20
31.02700
 30
 0
 11
16.71200
 21
31.02700
  0
LINE
  8
Engraving
 62
   7
 39
0.400
  6
CONTINUOUS
 10
16.71200
 20
31.55200
 30
 0
 11
16.71200
 21
32.77700
  0
LINE
  8
Engraving
 62
   7
 39
0.400
  6
CONTINUOUS
 10
16.71200
 20
32.77700
 30
 0
 11
16.71200
 21
32.16400
  0
LINE
  8
Engraving
 62
   7
 39
0.400
  6
CONTINUOUS
 10
16.71200
 20
32.16400
 30
 0
 11
18.28700
 21
32.16400
  0
CIRCLE
  8
Contour
 62
   7
 39
0.100
  6
CONTINUOUS
 10
7.50000
 20
125.50000
 30
 0
 40
1.50000
  0
CIRCLE
  8
Contour
 62
   7
 39
0.100
  6
CONTINUOUS
 10
7.50000
 20
3.00000
 30
 0
 40
1.50000
  0
CIRCLE
  8
Contour
 62
   7
 39
0.100
  6
CONTINUOUS
 10
10.00000
 20
76.31000
 30
 0
 40
3.50000
  0
CIRCLE
  8
Contour
 62
   7
 39
0.100
  6
CONTINUOUS
 10
10.00000
 20
61.07000
 30
 0
 40
3.50000
  0
CIRCLE
  8
Contour
 62
   7
 39
0.100
  6
CONTINUOUS
 10
10.00000
 20
44.56000
 30
 0
 40
3.00000
  0
CIRCLE
  8
Contour
 62
   7
 39
0.100
  6
CONTINUOUS
 10
10.00000
 20
30.59000
 30
 0
 40
3.00000
  0
ENDSEC
  0
EOF
