  0
SECTION
  2
HEADER
  9
$MEASUREMENT
  70
  1
  9
$INSUNITS
  70
  4
  0
ENDSEC
  0
SECTION
  2
TABLES
  0
TABLE
  2
LTYPE
 70
     1
  0
LTYPE
  2
CONTINUOUS
 70
    64
  3
Ausgezogene Linie
 72
    65
 73
     0
 40
0.0
  0
ENDTAB
  0
TABLE
  2
LAYER
 70
     3
  0
LAYER
  2
Contour
 70
    64
 62
     7
  6
CONTINUOUS
  0
LAYER
  2
Engraving
 70
    64
 62
     7
  6
CONTINUOUS
  0
LAYER
  2
Reference_points
 70
    64
 62
     1
  6
CONTINUOUS
  0
ENDTAB
  0
TABLE
  2
STYLE
 70
     1
  0
STYLE
  2
TXT
 70
    64
 40
0.0
 41
1.0
 50
0.0
 71
     0
 42
3.500000
  3
TXT
  0
ENDTAB
  0
ENDSEC
  0
SECTION
  2
BLOCKS
  0
ENDSEC
  0
SECTION
  2
ENTITIES
  0
LINE
  8
Contour
 62
   7
 39
0.100
  6
CONTINUOUS
 10
19.98000
 20
128.40000
 30
 0
 11
0.00000
 21
128.40000
  0
LINE
  8
Contour
 62
   7
 39
0.100
  6
CONTINUOUS
 10
0.00000
 20
128.40000
 30
 0
 11
0.00000
 21
128.40000
  0
LINE
  8
Contour
 62
   7
 39
0.100
  6
CONTINUOUS
 10
0.00000
 20
128.40000
 30
 0
 11
0.00000
 21
0.00000
  0
LINE
  8
Contour
 62
   7
 39
0.100
  6
CONTINUOUS
 10
0.00000
 20
0.00000
 30
 0
 11
0.00000
 21
0.00000
  0
LINE
  8
Contour
 62
   7
 39
0.100
  6
CONTINUOUS
 10
0.00000
 20
0.00000
 30
 0
 11
19.98000
 21
0.00000
  0
LINE
  8
Contour
 62
   7
 39
0.100
  6
CONTINUOUS
 10
19.98000
 20
0.00000
 30
 0
 11
19.98000
 21
0.00000
  0
LINE
  8
Contour
 62
   7
 39
0.100
  6
CONTINUOUS
 10
19.98000
 20
0.00000
 30
 0
 11
19.98000
 21
128.40000
  0
LINE
  8
Contour
 62
   7
 39
0.100
  6
CONTINUOUS
 10
19.98000
 20
128.40000
 30
 0
 11
19.98000
 21
128.40000
  0
ARC
  8
Engraving
 62
   7
 39
0.400
  6
CONTINUOUS
 10
7.56700
 20
113.36800
 30
 0
 40
1.56000
 50
140.98454
 51
219.04399
  0
ARC
  8
Engraving
 62
   7
 39
0.400
  6
CONTINUOUS
 10
7.01000
 20
112.90900
 30
 0
 40
0.83900
 50
-141.34019
 51
-38.65981
  0
ARC
  8
Engraving
 62
   7
 39
0.400
  6
CONTINUOUS
 10
6.45300
 20
113.36800
 30
 0
 40
1.56100
 50
-39.04399
 51
39.01546
  0
ARC
  8
Engraving
 62
   7
 39
0.400
  6
CONTINUOUS
 10
7.01000
 20
113.82600
 30
 0
 40
0.83900
 50
38.65981
 51
141.34019
  0
LINE
  8
Engraving
 62
   7
 39
0.400
  6
CONTINUOUS
 10
8.86100
 20
113.86600
 30
 0
 11
8.86100
 21
111.38800
  0
LINE
  8
Engraving
 62
   7
 39
0.400
  6
CONTINUOUS
 10
8.86100
 20
111.38800
 30
 0
 11
8.86100
 21
112.38500
  0
ARC
  8
Engraving
 62
   7
 39
0.400
  6
CONTINUOUS
 10
9.46200
 20
112.80500
 30
 0
 40
0.73300
 50
-145.05279
 51
-90.23450
  0
ARC
  8
Engraving
 62
   7
 39
0.400
  6
CONTINUOUS
 10
9.45800
 20
112.74200
 30
 0
 40
0.67000
 50
-89.91448
 51
-26.60330
  0
ARC
  8
Engraving
 62
   7
 39
0.400
  6
CONTINUOUS
 10
9.03200
 20
112.95500
 30
 0
 40
1.14600
 50
-26.58741
 51
26.54269
  0
ARC
  8
Engraving
 62
   7
 39
0.400
  6
CONTINUOUS
 10
9.45800
 20
113.16700
 30
 0
 40
0.67000
 50
26.60330
 51
89.91448
  0
ARC
  8
Engraving
 62
   7
 39
0.400
  6
CONTINUOUS
 10
9.46200
 20
113.10400
 30
 0
 40
0.73300
 50
90.23450
 51
145.05279
  0
LINE
  8
Engraving
 62
   7
 39
0.400
  6
CONTINUOUS
 10
10.99700
 20
113.86600
 30
 0
 11
11.70900
 21
113.86600
  0
LINE
  8
Engraving
 62
   7
 39
0.400
  6
CONTINUOUS
 10
11.33900
 20
114.66300
 30
 0
 11
11.33900
 21
112.10000
  0
ARC
  8
Engraving
 62
   7
 39
0.400
  6
CONTINUOUS
 10
13.70200
 20
112.95500
 30
 0
 40
1.14600
 50
153.45731
 51
206.58741
  0
ARC
  8
Engraving
 62
   7
 39
0.400
  6
CONTINUOUS
 10
13.27500
 20
112.73700
 30
 0
 40
0.66700
 50
-153.74237
 51
-26.25763
  0
ARC
  8
Engraving
 62
   7
 39
0.400
  6
CONTINUOUS
 10
12.84800
 20
112.95500
 30
 0
 40
1.14600
 50
-26.58741
 51
26.54269
  0
ARC
  8
Engraving
 62
   7
 39
0.400
  6
CONTINUOUS
 10
13.27500
 20
113.17200
 30
 0
 40
0.66700
 50
26.25763
 51
153.74237
  0
LINE
  8
Engraving
 62
   7
 39
0.400
  6
CONTINUOUS
 10
5.44400
 20
110.43000
 30
 0
 11
7.43800
 21
110.43000
  0
LINE
  8
Engraving
 62
   7
 39
0.400
  6
CONTINUOUS
 10
7.43800
 20
110.43000
 30
 0
 11
6.44100
 21
110.43000
  0
LINE
  8
Engraving
 62
   7
 39
0.400
  6
CONTINUOUS
 10
6.44100
 20
110.43000
 30
 0
 11
6.44100
 21
107.86700
  0
LINE
  8
Engraving
 62
   7
 39
0.400
  6
CONTINUOUS
 10
8.26300
 20
110.43000
 30
 0
 11
8.26300
 21
107.86700
  0
LINE
  8
Engraving
 62
   7
 39
0.400
  6
CONTINUOUS
 10
8.26300
 20
107.86700
 30
 0
 11
8.26300
 21
109.20500
  0
ARC
  8
Engraving
 62
   7
 39
0.400
  6
CONTINUOUS
 10
9.00300
 20
108.83300
 30
 0
 40
0.82800
 50
449.93080
 51
153.31120
  0
ARC
  8
Engraving
 62
   7
 39
0.400
  6
CONTINUOUS
 10
9.00600
 20
109.17900
 30
 0
 40
0.48200
 50
359.76226
 51
90.23774
  0
LINE
  8
Engraving
 62
   7
 39
0.400
  6
CONTINUOUS
 10
9.48800
 20
109.17700
 30
 0
 11
9.48800
 21
107.86700
  0
LINE
  8
Engraving
 62
   7
 39
0.400
  6
CONTINUOUS
 10
10.34200
 20
110.45800
 30
 0
 11
10.34200
 21
110.23100
  0
LINE
  8
Engraving
 62
   7
 39
0.400
  6
CONTINUOUS
 10
10.34200
 20
109.66100
 30
 0
 11
10.34200
 21
107.86700
  0
LINE
  8
Engraving
 62
   7
 39
0.400
  6
CONTINUOUS
 10
11.16800
 20
107.86700
 30
 0
 11
11.16800
 21
109.66100
  0
LINE
  8
Engraving
 62
   7
 39
0.400
  6
CONTINUOUS
 10
11.16800
 20
109.66100
 30
 0
 11
11.16800
 21
109.20500
  0
ARC
  8
Engraving
 62
   7
 39
0.400
  6
CONTINUOUS
 10
11.90800
 20
108.83300
 30
 0
 40
0.82800
 50
449.93080
 51
153.31120
  0
ARC
  8
Engraving
 62
   7
 39
0.400
  6
CONTINUOUS
 10
11.91100
 20
109.17900
 30
 0
 40
0.48200
 50
359.76226
 51
90.23774
  0
LINE
  8
Engraving
 62
   7
 39
0.400
  6
CONTINUOUS
 10
12.39300
 20
109.17700
 30
 0
 11
12.39300
 21
107.86700
  0
ARC
  8
Engraving
 62
   7
 39
0.400
  6
CONTINUOUS
 10
13.95600
 20
108.87100
 30
 0
 40
0.73300
 50
34.94721
 51
89.76550
  0
ARC
  8
Engraving
 62
   7
 39
0.400
  6
CONTINUOUS
 10
13.96000
 20
108.93400
 30
 0
 40
0.67000
 50
90.08552
 51
153.39670
  0
ARC
  8
Engraving
 62
   7
 39
0.400
  6
CONTINUOUS
 10
14.38600
 20
108.72200
 30
 0
 40
1.14600
 50
153.45731
 51
206.58741
  0
ARC
  8
Engraving
 62
   7
 39
0.400
  6
CONTINUOUS
 10
13.96000
 20
108.50900
 30
 0
 40
0.67000
 50
-153.39670
 51
-90.08552
  0
ARC
  8
Engraving
 62
   7
 39
0.400
  6
CONTINUOUS
 10
13.95600
 20
108.57200
 30
 0
 40
0.73300
 50
-89.76550
 51
-34.94721
  0
LINE
  8
Engraving
 62
   7
 39
0.400
  6
CONTINUOUS
 10
14.55700
 20
108.15200
 30
 0
 11
14.55700
 21
109.60400
  0
LINE
  8
Engraving
 62
   7
 39
0.400
  6
CONTINUOUS
 10
14.55700
 20
109.60400
 30
 0
 11
14.55700
 21
107.46800
  0
ARC
  8
Engraving
 62
   7
 39
0.400
  6
CONTINUOUS
 10
14.23300
 20
107.47000
 30
 0
 40
0.32400
 50
298.14522
 51
-0.35367
  0
ARC
  8
Engraving
 62
   7
 39
0.400
  6
CONTINUOUS
 10
14.08200
 20
107.74700
 30
 0
 40
0.64000
 50
236.73213
 51
-61.63253
  0
LINE
  8
Engraving
 62
   7
 39
0.400
  6
CONTINUOUS
 10
6.08100
 20
105.42800
 30
 0
 11
6.76400
 21
103.63400
  0
LINE
  8
Engraving
 62
   7
 39
0.400
  6
CONTINUOUS
 10
6.76400
 20
103.63400
 30
 0
 11
6.85000
 21
103.63400
  0
LINE
  8
Engraving
 62
   7
 39
0.400
  6
CONTINUOUS
 10
6.85000
 20
103.63400
 30
 0
 11
7.53300
 21
105.42800
  0
ARC
  8
Engraving
 62
   7
 39
0.400
  6
CONTINUOUS
 10
9.10100
 20
105.54400
 30
 0
 40
0.61000
 50
477.95097
 51
169.42648
  0
ARC
  8
Engraving
 62
   7
 39
0.400
  6
CONTINUOUS
 10
9.29900
 20
105.18300
 30
 0
 40
1.02200
 50
421.72962
 51
118.27038
  0
ARC
  8
Engraving
 62
   7
 39
0.400
  6
CONTINUOUS
 10
9.46800
 20
105.54200
 30
 0
 40
0.62600
 50
300.21032
 51
59.78968
  0
LINE
  8
Engraving
 62
   7
 39
0.400
  6
CONTINUOUS
 10
9.78300
 20
105.00100
 30
 0
 11
8.81500
 21
104.40300
  0
ARC
  8
Engraving
 62
   7
 39
0.400
  6
CONTINUOUS
 10
9.29000
 20
103.63500
 30
 0
 40
0.90300
 50
121.73636
 51
180.06345
  0
LINE
  8
Engraving
 62
   7
 39
0.400
  6
CONTINUOUS
 10
8.38700
 20
103.63400
 30
 0
 11
10.09600
 21
103.63400
  0
LINE
  8
Engraving
 62
   7
 39
0.400
  6
CONTINUOUS
 10
11.06400
 20
103.63400
 30
 0
 11
10.92200
 21
103.63400
  0
LINE
  8
Engraving
 62
   7
 39
0.400
  6
CONTINUOUS
 10
10.92200
 20
103.63400
 30
 0
 11
10.92200
 21
103.77600
  0
LINE
  8
Engraving
 62
   7
 39
0.400
  6
CONTINUOUS
 10
10.92200
 20
103.77600
 30
 0
 11
11.06400
 21
103.77600
  0
LINE
  8
Engraving
 62
   7
 39
0.400
  6
CONTINUOUS
 10
11.06400
 20
103.77600
 30
 0
 11
11.06400
 21
103.63400
  0
ARC
  8
Engraving
 62
   7
 39
0.400
  6
CONTINUOUS
 10
13.47200
 20
104.90200
 30
 0
 40
1.56000
 50
140.98454
 51
219.04399
  0
ARC
  8
Engraving
 62
   7
 39
0.400
  6
CONTINUOUS
 10
12.91500
 20
104.44300
 30
 0
 40
0.83900
 50
-141.34019
 51
-38.65981
  0
ARC
  8
Engraving
 62
   7
 39
0.400
  6
CONTINUOUS
 10
12.35800
 20
104.90200
 30
 0
 40
1.56100
 50
-39.04399
 51
39.01546
  0
ARC
  8
Engraving
 62
   7
 39
0.400
  6
CONTINUOUS
 10
12.91500
 20
105.36000
 30
 0
 40
0.83900
 50
38.65981
 51
141.34019
  0
ARC
  8
Engraving
 62
   7
 39
0.400
  6
CONTINUOUS
 10
17.53000
 20
92.74900
 30
 0
 40
1.55800
 50
120.86282
 51
129.89506
  0
ARC
  8
Engraving
 62
   7
 39
0.400
  6
CONTINUOUS
 10
17.05500
 20
93.28900
 30
 0
 40
0.83900
 50
128.65981
 51
231.34019
  0
ARC
  8
Engraving
 62
   7
 39
0.400
  6
CONTINUOUS
 10
17.51300
 20
93.84600
 30
 0
 40
1.56000
 50
-129.01546
 51
-50.95601
  0
ARC
  8
Engraving
 62
   7
 39
0.400
  6
CONTINUOUS
 10
17.97200
 20
93.28900
 30
 0
 40
0.83900
 50
-51.34019
 51
51.34019
  0
ARC
  8
Engraving
 62
   7
 39
0.400
  6
CONTINUOUS
 10
17.58100
 20
92.74200
 30
 0
 40
1.51100
 50
52.72047
 51
65.35201
  0
LINE
  8
Engraving
 62
   7
 39
0.400
  6
CONTINUOUS
 10
16.21800
 20
94.94100
 30
 0
 11
18.78100
 21
95.96600
  0
LINE
  8
Engraving
 62
   7
 39
0.400
  6
CONTINUOUS
 10
18.78100
 20
95.96600
 30
 0
 11
18.78100
 21
96.05100
  0
LINE
  8
Engraving
 62
   7
 39
0.400
  6
CONTINUOUS
 10
18.78100
 20
96.05100
 30
 0
 11
16.21800
 21
97.07600
  0
LINE
  8
Engraving
 62
   7
 39
0.400
  6
CONTINUOUS
 10
18.78100
 20
64.10600
 30
 0
 11
16.21800
 21
64.10600
  0
LINE
  8
Engraving
 62
   7
 39
0.400
  6
CONTINUOUS
 10
16.21800
 20
64.10600
 30
 0
 11
16.21800
 21
65.33100
  0
ARC
  8
Engraving
 62
   7
 39
0.400
  6
CONTINUOUS
 10
16.87300
 20
65.33100
 30
 0
 40
0.65500
 50
360.00000
 51
180.00000
  0
LINE
  8
Engraving
 62
   7
 39
0.400
  6
CONTINUOUS
 10
17.52800
 20
65.33100
 30
 0
 11
17.52800
 21
64.10600
  0
LINE
  8
Engraving
 62
   7
 39
0.400
  6
CONTINUOUS
 10
17.52800
 20
64.10600
 30
 0
 11
17.52800
 21
65.24500
  0
LINE
  8
Engraving
 62
   7
 39
0.400
  6
CONTINUOUS
 10
17.52800
 20
65.24500
 30
 0
 11
18.78100
 21
65.81500
  0
LINE
  8
Engraving
 62
   7
 39
0.400
  6
CONTINUOUS
 10
17.81300
 20
66.84000
 30
 0
 11
17.81300
 21
68.20700
  0
ARC
  8
Engraving
 62
   7
 39
0.400
  6
CONTINUOUS
 10
17.78200
 20
67.36300
 30
 0
 40
0.84500
 50
87.89648
 51
120.20761
  0
ARC
  8
Engraving
 62
   7
 39
0.400
  6
CONTINUOUS
 10
17.67000
 20
67.55100
 30
 0
 40
0.62600
 50
120.00604
 51
179.90847
  0
ARC
  8
Engraving
 62
   7
 39
0.400
  6
CONTINUOUS
 10
17.71400
 20
67.55300
 30
 0
 40
0.67000
 50
-179.91448
 51
-116.60330
  0
ARC
  8
Engraving
 62
   7
 39
0.400
  6
CONTINUOUS
 10
17.92600
 20
67.97900
 30
 0
 40
1.14600
 50
-116.54269
 51
-63.41259
  0
ARC
  8
Engraving
 62
   7
 39
0.400
  6
CONTINUOUS
 10
18.13900
 20
67.55300
 30
 0
 40
0.67000
 50
-63.39670
 51
-0.08552
  0
ARC
  8
Engraving
 62
   7
 39
0.400
  6
CONTINUOUS
 10
18.07600
 20
67.54900
 30
 0
 40
0.73300
 50
0.23450
 51
55.05279
  0
ARC
  8
Engraving
 62
   7
 39
0.400
  6
CONTINUOUS
 10
18.36300
 20
69.39400
 30
 0
 40
0.38300
 50
-60.29219
 51
-29.70781
  0
ARC
  8
Engraving
 62
   7
 39
0.400
  6
CONTINUOUS
 10
18.05400
 20
69.57400
 30
 0
 40
0.74100
 50
-29.95588
 51
29.95588
  0
ARC
  8
Engraving
 62
   7
 39
0.400
  6
CONTINUOUS
 10
18.35800
 20
69.74700
 30
 0
 40
0.39100
 50
30.23535
 51
163.32887
  0
LINE
  8
Engraving
 62
   7
 39
0.400
  6
CONTINUOUS
 10
17.98400
 20
69.85900
 30
 0
 11
17.81300
 21
69.28900
  0
ARC
  8
Engraving
 62
   7
 39
0.400
  6
CONTINUOUS
 10
17.46600
 20
69.39800
 30
 0
 40
0.36400
 50
212.20560
 51
-17.43860
  0
ARC
  8
Engraving
 62
   7
 39
0.400
  6
CONTINUOUS
 10
17.74400
 20
69.57700
 30
 0
 40
0.69500
 50
132.78396
 51
-147.52248
  0
LINE
  8
Engraving
 62
   7
 39
0.400
  6
CONTINUOUS
 10
17.01500
 20
70.99800
 30
 0
 11
19.49300
 21
70.99800
  0
LINE
  8
Engraving
 62
   7
 39
0.400
  6
CONTINUOUS
 10
19.49300
 20
70.99800
 30
 0
 11
18.49600
 21
70.99800
  0
ARC
  8
Engraving
 62
   7
 39
0.400
  6
CONTINUOUS
 10
18.07600
 20
71.59900
 30
 0
 40
0.73300
 50
-55.05279
 51
-0.23450
  0
ARC
  8
Engraving
 62
   7
 39
0.400
  6
CONTINUOUS
 10
18.13900
 20
71.59500
 30
 0
 40
0.67000
 50
0.08552
 51
63.39670
  0
ARC
  8
Engraving
 62
   7
 39
0.400
  6
CONTINUOUS
 10
17.92600
 20
71.16900
 30
 0
 40
1.14600
 50
63.41259
 51
116.54269
  0
ARC
  8
Engraving
 62
   7
 39
0.400
  6
CONTINUOUS
 10
17.71400
 20
71.59500
 30
 0
 40
0.67000
 50
116.60330
 51
179.91448
  0
ARC
  8
Engraving
 62
   7
 39
0.400
  6
CONTINUOUS
 10
17.77700
 20
71.59900
 30
 0
 40
0.73300
 50
-179.76550
 51
-124.94721
  0
ARC
  8
Engraving
 62
   7
 39
0.400
  6
CONTINUOUS
 10
17.92600
 20
74.30100
 30
 0
 40
1.14600
 50
-116.54269
 51
-63.41259
  0
ARC
  8
Engraving
 62
   7
 39
0.400
  6
CONTINUOUS
 10
18.14400
 20
73.87400
 30
 0
 40
0.66700
 50
-63.74237
 51
63.74237
  0
ARC
  8
Engraving
 62
   7
 39
0.400
  6
CONTINUOUS
 10
17.92600
 20
73.44700
 30
 0
 40
1.14600
 50
63.41259
 51
116.54269
  0
ARC
  8
Engraving
 62
   7
 39
0.400
  6
CONTINUOUS
 10
17.70900
 20
73.87400
 30
 0
 40
0.66700
 50
116.25763
 51
243.74237
  0
LINE
  8
Engraving
 62
   7
 39
0.400
  6
CONTINUOUS
 10
18.78100
 20
75.41200
 30
 0
 11
16.98700
 21
75.41200
  0
LINE
  8
Engraving
 62
   7
 39
0.400
  6
CONTINUOUS
 10
16.98700
 20
75.41200
 30
 0
 11
17.44300
 21
75.41200
  0
ARC
  8
Engraving
 62
   7
 39
0.400
  6
CONTINUOUS
 10
17.81500
 20
76.15200
 30
 0
 40
0.82800
 50
180.00000
 51
-116.68880
  0
ARC
  8
Engraving
 62
   7
 39
0.400
  6
CONTINUOUS
 10
17.46900
 20
76.15400
 30
 0
 40
0.48200
 50
89.76226
 51
-179.76226
  0
LINE
  8
Engraving
 62
   7
 39
0.400
  6
CONTINUOUS
 10
17.47100
 20
76.63600
 30
 0
 11
18.78100
 21
76.63600
  0
ARC
  8
Engraving
 62
   7
 39
0.400
  6
CONTINUOUS
 10
18.36400
 20
77.82400
 30
 0
 40
0.38300
 50
-60.42216
 51
-29.91187
  0
ARC
  8
Engraving
 62
   7
 39
0.400
  6
CONTINUOUS
 10
18.05400
 20
78.00400
 30
 0
 40
0.74100
 50
-30.02283
 51
29.95588
  0
ARC
  8
Engraving
 62
   7
 39
0.400
  6
CONTINUOUS
 10
18.35900
 20
78.17600
 30
 0
 40
0.39100
 50
30.43582
 51
163.37087
  0
LINE
  8
Engraving
 62
   7
 39
0.400
  6
CONTINUOUS
 10
17.98400
 20
78.28800
 30
 0
 11
17.81300
 21
77.71900
  0
ARC
  8
Engraving
 62
   7
 39
0.400
  6
CONTINUOUS
 10
17.46600
 20
77.82800
 30
 0
 40
0.36400
 50
212.33859
 51
-17.43860
  0
ARC
  8
Engraving
 62
   7
 39
0.400
  6
CONTINUOUS
 10
17.74400
 20
78.00600
 30
 0
 40
0.69500
 50
132.78396
 51
-147.52248
  0
LINE
  8
Engraving
 62
   7
 39
0.400
  6
CONTINUOUS
 10
17.81300
 20
79.42700
 30
 0
 11
17.81300
 21
80.79400
  0
ARC
  8
Engraving
 62
   7
 39
0.400
  6
CONTINUOUS
 10
17.78200
 20
79.95000
 30
 0
 40
0.84500
 50
87.89648
 51
120.20761
  0
ARC
  8
Engraving
 62
   7
 39
0.400
  6
CONTINUOUS
 10
17.67000
 20
80.13800
 30
 0
 40
0.62600
 50
120.00604
 51
179.90847
  0
ARC
  8
Engraving
 62
   7
 39
0.400
  6
CONTINUOUS
 10
17.71400
 20
80.14000
 30
 0
 40
0.67000
 50
-179.91448
 51
-116.60330
  0
ARC
  8
Engraving
 62
   7
 39
0.400
  6
CONTINUOUS
 10
17.92600
 20
80.56600
 30
 0
 40
1.14600
 50
-116.54269
 51
-63.41259
  0
ARC
  8
Engraving
 62
   7
 39
0.400
  6
CONTINUOUS
 10
18.13900
 20
80.14000
 30
 0
 40
0.67000
 50
-63.39670
 51
-0.08552
  0
ARC
  8
Engraving
 62
   7
 39
0.400
  6
CONTINUOUS
 10
18.07600
 20
80.13600
 30
 0
 40
0.73300
 50
0.23450
 51
55.05279
  0
LINE
  8
Engraving
 62
   7
 39
0.400
  6
CONTINUOUS
 10
16.21800
 20
46.39900
 30
 0
 11
18.78100
 21
46.39900
  0
LINE
  8
Engraving
 62
   7
 39
0.400
  6
CONTINUOUS
 10
18.78100
 20
47.25400
 30
 0
 11
16.21800
 21
47.25400
  0
LINE
  8
Engraving
 62
   7
 39
0.400
  6
CONTINUOUS
 10
16.21800
 20
47.25400
 30
 0
 11
16.21800
 21
47.39600
  0
LINE
  8
Engraving
 62
   7
 39
0.400
  6
CONTINUOUS
 10
16.21800
 20
47.39600
 30
 0
 11
18.78100
 21
48.82000
  0
LINE
  8
Engraving
 62
   7
 39
0.400
  6
CONTINUOUS
 10
18.78100
 20
48.82000
 30
 0
 11
18.78100
 21
48.96200
  0
LINE
  8
Engraving
 62
   7
 39
0.400
  6
CONTINUOUS
 10
18.78100
 20
48.96200
 30
 0
 11
16.21800
 21
48.96200
  0
ARC
  8
Engraving
 62
   7
 39
0.400
  6
CONTINUOUS
 10
17.51300
 20
29.02600
 30
 0
 40
1.56000
 50
-129.01546
 51
-50.95601
  0
ARC
  8
Engraving
 62
   7
 39
0.400
  6
CONTINUOUS
 10
17.97200
 20
28.46900
 30
 0
 40
0.83900
 50
-51.34019
 51
51.34019
  0
ARC
  8
Engraving
 62
   7
 39
0.400
  6
CONTINUOUS
 10
17.51300
 20
27.91200
 30
 0
 40
1.56100
 50
50.95601
 51
129.01546
  0
ARC
  8
Engraving
 62
   7
 39
0.400
  6
CONTINUOUS
 10
17.05500
 20
28.46900
 30
 0
 40
0.83900
 50
128.65981
 51
231.34019
  0
LINE
  8
Engraving
 62
   7
 39
0.400
  6
CONTINUOUS
 10
16.21800
 20
30.32000
 30
 0
 11
17.92700
 21
30.32000
  0
ARC
  8
Engraving
 62
   7
 39
0.400
  6
CONTINUOUS
 10
17.92700
 20
31.17400
 30
 0
 40
0.85400
 50
-90.00000
 51
90.00000
  0
LINE
  8
Engraving
 62
   7
 39
0.400
  6
CONTINUOUS
 10
17.92700
 20
32.02900
 30
 0
 11
16.21800
 21
32.02900
  0
LINE
  8
Engraving
 62
   7
 39
0.400
  6
CONTINUOUS
 10
16.21800
 20
32.88300
 30
 0
 11
16.21800
 21
34.87600
  0
LINE
  8
Engraving
 62
   7
 39
0.400
  6
CONTINUOUS
 10
16.21800
 20
34.87600
 30
 0
 11
16.21800
 21
33.88000
  0
LINE
  8
Engraving
 62
   7
 39
0.400
  6
CONTINUOUS
 10
16.21800
 20
33.88000
 30
 0
 11
18.78100
 21
33.88000
  0
CIRCLE
  8
Contour
 62
   7
 39
0.100
  6
CONTINUOUS
 10
7.50000
 20
125.50000
 30
 0
 40
1.50000
  0
CIRCLE
  8
Contour
 62
   7
 39
0.100
  6
CONTINUOUS
 10
7.50000
 20
3.00000
 30
 0
 40
1.50000
  0
CIRCLE
  8
Contour
 62
   7
 39
0.100
  6
CONTINUOUS
 10
10.00000
 20
94.68000
 30
 0
 40
3.00000
  0
CIRCLE
  8
Contour
 62
   7
 39
0.100
  6
CONTINUOUS
 10
10.00000
 20
31.17000
 30
 0
 40
3.00000
  0
CIRCLE
  8
Contour
 62
   7
 39
0.100
  6
CONTINUOUS
 10
10.00000
 20
72.45000
 30
 0
 40
3.75000
  0
CIRCLE
  8
Contour
 62
   7
 39
0.100
  6
CONTINUOUS
 10
10.00000
 20
47.68000
 30
 0
 40
3.00000
  0
ENDSEC
  0
EOF
