G75*
%MOIN*%
%OFA0B0*%
%FSLAX25Y25*%
%IPPOS*%
%LPD*%
%AMOC8*
5,1,8,0,0,1.08239X$1,22.5*
%
%ADD10C,0.00000*%
%ADD11OC8,0.05200*%
%ADD12C,0.13843*%
%ADD13C,0.08858*%
%ADD14OC8,0.07400*%
%ADD15R,0.06496X0.06496*%
%ADD16OC8,0.06496*%
%ADD17C,0.12268*%
%ADD18R,0.05118X0.05906*%
%ADD19C,0.01600*%
%ADD20C,0.01000*%
%ADD21C,0.04000*%
D10*
X0003000Y0001000D02*
X0003000Y0325961D01*
X0201701Y0325961D01*
X0201701Y0001000D01*
X0003000Y0001000D01*
D11*
X0075500Y0303500D03*
X0075500Y0313500D03*
X0068000Y0308500D03*
D12*
X0049535Y0261000D03*
X0033000Y0273992D03*
X0033000Y0241709D03*
X0033000Y0216492D03*
X0049535Y0203500D03*
X0033000Y0184209D03*
X0033000Y0161492D03*
X0049535Y0148500D03*
X0033000Y0129209D03*
X0033000Y0106492D03*
X0049535Y0093500D03*
X0033000Y0074209D03*
X0173000Y0048992D03*
X0189535Y0036000D03*
X0173000Y0016709D03*
D13*
X0156465Y0036000D03*
X0016465Y0093500D03*
X0016465Y0148500D03*
X0016465Y0203500D03*
X0016465Y0261000D03*
D14*
X0015500Y0303500D03*
X0015500Y0313500D03*
X0025500Y0313500D03*
X0025500Y0303500D03*
X0035500Y0303500D03*
X0035500Y0313500D03*
X0045500Y0313500D03*
X0045500Y0303500D03*
X0055500Y0303500D03*
X0055500Y0313500D03*
D15*
X0075657Y0233441D03*
X0075657Y0175941D03*
X0075657Y0120941D03*
X0075657Y0065941D03*
X0075657Y0008441D03*
X0023157Y0008441D03*
X0163157Y0065941D03*
X0163157Y0120941D03*
X0163157Y0175941D03*
X0163157Y0233441D03*
D16*
X0173000Y0233441D03*
X0182843Y0233441D03*
X0182843Y0175941D03*
X0173000Y0175941D03*
X0173000Y0120941D03*
X0182843Y0120941D03*
X0182843Y0065941D03*
X0173000Y0065941D03*
X0095343Y0065941D03*
X0085500Y0065941D03*
X0085500Y0120941D03*
X0095343Y0120941D03*
X0095343Y0175941D03*
X0085500Y0175941D03*
X0085500Y0233441D03*
X0095343Y0233441D03*
X0095343Y0008441D03*
X0085500Y0008441D03*
X0042843Y0008441D03*
X0033000Y0008441D03*
D17*
X0015283Y0036000D03*
X0050717Y0036000D03*
X0067783Y0036000D03*
X0103217Y0036000D03*
X0103217Y0093500D03*
X0103217Y0148500D03*
X0103217Y0203500D03*
X0103217Y0261000D03*
X0067783Y0261000D03*
X0067783Y0203500D03*
X0067783Y0148500D03*
X0067783Y0093500D03*
X0155283Y0093500D03*
X0155283Y0148500D03*
X0155283Y0203500D03*
X0155283Y0261000D03*
X0190717Y0261000D03*
X0190717Y0203500D03*
X0190717Y0148500D03*
X0190717Y0093500D03*
D18*
X0131740Y0026000D03*
X0124260Y0026000D03*
D19*
X0107624Y0026694D02*
X0098430Y0017500D01*
X0091230Y0017500D01*
X0087019Y0013289D01*
X0083492Y0013289D01*
X0080705Y0010503D01*
X0080705Y0011926D01*
X0080583Y0012384D01*
X0080346Y0012794D01*
X0080011Y0013129D01*
X0079600Y0013366D01*
X0079142Y0013489D01*
X0075940Y0013489D01*
X0075940Y0008724D01*
X0075375Y0008724D01*
X0075375Y0013489D01*
X0072172Y0013489D01*
X0071715Y0013366D01*
X0071304Y0013129D01*
X0070969Y0012794D01*
X0070732Y0012384D01*
X0070609Y0011926D01*
X0070609Y0008724D01*
X0075375Y0008724D01*
X0075375Y0008158D01*
X0070609Y0008158D01*
X0070609Y0006000D01*
X0047258Y0006000D01*
X0047691Y0006433D01*
X0047691Y0010449D01*
X0044851Y0013289D01*
X0044700Y0013289D01*
X0044700Y0030670D01*
X0042000Y0033370D01*
X0042000Y0064930D01*
X0045270Y0068200D01*
X0046500Y0069430D01*
X0046500Y0083770D01*
X0039300Y0090970D01*
X0039300Y0097270D01*
X0037456Y0099114D01*
X0037827Y0099268D01*
X0040224Y0101665D01*
X0041521Y0104797D01*
X0041521Y0108187D01*
X0040224Y0111319D01*
X0037827Y0113716D01*
X0034695Y0115013D01*
X0031305Y0115013D01*
X0028173Y0113716D01*
X0025776Y0111319D01*
X0024479Y0108187D01*
X0024479Y0104797D01*
X0025776Y0101665D01*
X0028173Y0099268D01*
X0031305Y0097971D01*
X0032659Y0097971D01*
X0032730Y0097900D01*
X0035100Y0095530D01*
X0035100Y0089230D01*
X0036330Y0088000D01*
X0042300Y0082030D01*
X0042300Y0071170D01*
X0037800Y0066670D01*
X0037800Y0031630D01*
X0039030Y0030400D01*
X0040500Y0028930D01*
X0040500Y0012955D01*
X0037994Y0010449D01*
X0037994Y0006433D01*
X0038427Y0006000D01*
X0037415Y0006000D01*
X0037848Y0006433D01*
X0037848Y0010449D01*
X0035008Y0013289D01*
X0030992Y0013289D01*
X0028152Y0010449D01*
X0028152Y0006433D01*
X0028585Y0006000D01*
X0028005Y0006000D01*
X0028005Y0012352D01*
X0027068Y0013289D01*
X0019247Y0013289D01*
X0018309Y0012352D01*
X0018309Y0012060D01*
X0013000Y0017370D01*
X0013000Y0028575D01*
X0013745Y0028266D01*
X0016822Y0028266D01*
X0019664Y0029444D01*
X0021840Y0031619D01*
X0023017Y0034462D01*
X0023017Y0037538D01*
X0021840Y0040381D01*
X0019664Y0042556D01*
X0016822Y0043734D01*
X0013745Y0043734D01*
X0013000Y0043425D01*
X0013000Y0088318D01*
X0013200Y0088172D01*
X0014073Y0087727D01*
X0015006Y0087424D01*
X0015788Y0087300D01*
X0015788Y0092824D01*
X0017141Y0092824D01*
X0017141Y0094176D01*
X0022664Y0094176D01*
X0022540Y0094959D01*
X0022237Y0095891D01*
X0021792Y0096765D01*
X0021216Y0097558D01*
X0020523Y0098251D01*
X0019729Y0098828D01*
X0018856Y0099273D01*
X0017923Y0099576D01*
X0017141Y0099700D01*
X0017141Y0094176D01*
X0015788Y0094176D01*
X0015788Y0099700D01*
X0015006Y0099576D01*
X0014700Y0099476D01*
X0014700Y0099816D01*
X0014152Y0101139D01*
X0013139Y0102152D01*
X0013000Y0102210D01*
X0013000Y0143318D01*
X0013200Y0143172D01*
X0014073Y0142727D01*
X0015006Y0142424D01*
X0015788Y0142300D01*
X0015788Y0147824D01*
X0017141Y0147824D01*
X0017141Y0149176D01*
X0022664Y0149176D01*
X0022540Y0149959D01*
X0022237Y0150891D01*
X0021792Y0151765D01*
X0021216Y0152558D01*
X0020523Y0153251D01*
X0019729Y0153828D01*
X0018856Y0154273D01*
X0017923Y0154576D01*
X0017141Y0154700D01*
X0017141Y0149176D01*
X0015788Y0149176D01*
X0015788Y0154700D01*
X0015006Y0154576D01*
X0014073Y0154273D01*
X0013200Y0153828D01*
X0013000Y0153682D01*
X0013000Y0160830D01*
X0032700Y0141130D01*
X0032700Y0139784D01*
X0033248Y0138461D01*
X0033979Y0137730D01*
X0031305Y0137730D01*
X0028173Y0136433D01*
X0025776Y0134036D01*
X0024479Y0130904D01*
X0024479Y0127514D01*
X0025776Y0124382D01*
X0028173Y0121985D01*
X0031305Y0120687D01*
X0034695Y0120687D01*
X0037827Y0121985D01*
X0040224Y0124382D01*
X0041521Y0127514D01*
X0041521Y0130904D01*
X0040224Y0134036D01*
X0037827Y0136433D01*
X0036699Y0136900D01*
X0037016Y0136900D01*
X0038339Y0137448D01*
X0039352Y0138461D01*
X0039900Y0139784D01*
X0039900Y0141216D01*
X0039352Y0142539D01*
X0038339Y0143552D01*
X0037016Y0144100D01*
X0035670Y0144100D01*
X0013000Y0166770D01*
X0013000Y0198318D01*
X0013200Y0198172D01*
X0014073Y0197727D01*
X0015006Y0197424D01*
X0015788Y0197300D01*
X0015788Y0202824D01*
X0017141Y0202824D01*
X0017141Y0204176D01*
X0022664Y0204176D01*
X0022540Y0204959D01*
X0022237Y0205891D01*
X0021792Y0206765D01*
X0021216Y0207558D01*
X0020523Y0208251D01*
X0019729Y0208828D01*
X0018856Y0209273D01*
X0017923Y0209576D01*
X0017141Y0209700D01*
X0017141Y0204176D01*
X0015788Y0204176D01*
X0015788Y0209700D01*
X0015006Y0209576D01*
X0014073Y0209273D01*
X0013200Y0208828D01*
X0013000Y0208682D01*
X0013000Y0255818D01*
X0013200Y0255672D01*
X0014073Y0255227D01*
X0015006Y0254924D01*
X0015788Y0254800D01*
X0015788Y0260324D01*
X0017141Y0260324D01*
X0017141Y0261676D01*
X0022664Y0261676D01*
X0022540Y0262459D01*
X0022237Y0263391D01*
X0021792Y0264265D01*
X0021216Y0265058D01*
X0020523Y0265751D01*
X0019729Y0266328D01*
X0018856Y0266773D01*
X0017923Y0267076D01*
X0017141Y0267200D01*
X0017141Y0261676D01*
X0015788Y0261676D01*
X0015788Y0267200D01*
X0015006Y0267076D01*
X0014073Y0266773D01*
X0013200Y0266328D01*
X0013000Y0266182D01*
X0013000Y0281000D01*
X0027957Y0281000D01*
X0025776Y0278819D01*
X0024479Y0275687D01*
X0024479Y0272297D01*
X0025776Y0269165D01*
X0028173Y0266768D01*
X0031305Y0265471D01*
X0034695Y0265471D01*
X0037827Y0266768D01*
X0040224Y0269165D01*
X0041521Y0272297D01*
X0041521Y0275687D01*
X0040224Y0278819D01*
X0038043Y0281000D01*
X0103000Y0281000D01*
X0103223Y0268734D01*
X0101678Y0268734D01*
X0098836Y0267556D01*
X0096660Y0265381D01*
X0095483Y0262538D01*
X0095483Y0259462D01*
X0096660Y0256619D01*
X0098836Y0254444D01*
X0101678Y0253266D01*
X0103504Y0253266D01*
X0104268Y0211234D01*
X0101678Y0211234D01*
X0098836Y0210056D01*
X0096660Y0207881D01*
X0095483Y0205038D01*
X0095483Y0201962D01*
X0096660Y0199119D01*
X0098836Y0196944D01*
X0101678Y0195766D01*
X0104550Y0195766D01*
X0105052Y0168122D01*
X0065700Y0128770D01*
X0065700Y0123691D01*
X0065648Y0123639D01*
X0065100Y0122316D01*
X0065100Y0120884D01*
X0065648Y0119561D01*
X0066661Y0118548D01*
X0067984Y0118000D01*
X0069416Y0118000D01*
X0070609Y0118494D01*
X0070609Y0117456D01*
X0070732Y0116998D01*
X0070969Y0116588D01*
X0071304Y0116253D01*
X0071715Y0116016D01*
X0072172Y0115893D01*
X0075375Y0115893D01*
X0075375Y0120658D01*
X0075940Y0120658D01*
X0075940Y0115893D01*
X0079142Y0115893D01*
X0079600Y0116016D01*
X0080011Y0116253D01*
X0080346Y0116588D01*
X0080583Y0116998D01*
X0080705Y0117456D01*
X0080705Y0118879D01*
X0083492Y0116093D01*
X0087508Y0116093D01*
X0090348Y0118933D01*
X0090348Y0122949D01*
X0090233Y0123064D01*
X0095670Y0128500D01*
X0105773Y0128500D01*
X0106280Y0100602D01*
X0104755Y0101234D01*
X0101678Y0101234D01*
X0098836Y0100056D01*
X0096660Y0097881D01*
X0095483Y0095038D01*
X0095483Y0091962D01*
X0096660Y0089119D01*
X0098836Y0086944D01*
X0101678Y0085766D01*
X0104755Y0085766D01*
X0106536Y0086504D01*
X0106563Y0085033D01*
X0096630Y0075100D01*
X0091230Y0075100D01*
X0086919Y0070789D01*
X0083492Y0070789D01*
X0080705Y0068003D01*
X0080705Y0069426D01*
X0080583Y0069884D01*
X0080346Y0070294D01*
X0080011Y0070629D01*
X0079600Y0070866D01*
X0079142Y0070989D01*
X0075940Y0070989D01*
X0075940Y0066224D01*
X0075375Y0066224D01*
X0075375Y0070989D01*
X0072172Y0070989D01*
X0071715Y0070866D01*
X0071304Y0070629D01*
X0070969Y0070294D01*
X0070732Y0069884D01*
X0070609Y0069426D01*
X0070609Y0066224D01*
X0075375Y0066224D01*
X0075375Y0065658D01*
X0075940Y0065658D01*
X0075940Y0060893D01*
X0079142Y0060893D01*
X0079600Y0061016D01*
X0080011Y0061253D01*
X0080346Y0061588D01*
X0080583Y0061998D01*
X0080705Y0062456D01*
X0080705Y0063879D01*
X0083492Y0061093D01*
X0087508Y0061093D01*
X0090348Y0063933D01*
X0090348Y0067949D01*
X0090183Y0068114D01*
X0092970Y0070900D01*
X0098370Y0070900D01*
X0099600Y0072130D01*
X0106669Y0079199D01*
X0107136Y0053527D01*
X0107048Y0053439D01*
X0106500Y0052116D01*
X0106500Y0050684D01*
X0107048Y0049361D01*
X0107215Y0049194D01*
X0107333Y0042666D01*
X0104755Y0043734D01*
X0101678Y0043734D01*
X0098836Y0042556D01*
X0096660Y0040381D01*
X0095483Y0037538D01*
X0095483Y0034462D01*
X0096660Y0031619D01*
X0098836Y0029444D01*
X0101678Y0028266D01*
X0104755Y0028266D01*
X0107574Y0029434D01*
X0107624Y0026694D01*
X0107506Y0026576D02*
X0044700Y0026576D01*
X0044700Y0024978D02*
X0105908Y0024978D01*
X0104309Y0023379D02*
X0044700Y0023379D01*
X0044700Y0021781D02*
X0102711Y0021781D01*
X0101112Y0020182D02*
X0044700Y0020182D01*
X0044700Y0018584D02*
X0099514Y0018584D01*
X0098506Y0029773D02*
X0072494Y0029773D01*
X0072164Y0029444D02*
X0074340Y0031619D01*
X0075517Y0034462D01*
X0075517Y0037538D01*
X0074340Y0040381D01*
X0072164Y0042556D01*
X0069322Y0043734D01*
X0066245Y0043734D01*
X0063403Y0042556D01*
X0061227Y0040381D01*
X0060050Y0037538D01*
X0060050Y0034462D01*
X0061227Y0031619D01*
X0063403Y0029444D01*
X0066245Y0028266D01*
X0069322Y0028266D01*
X0072164Y0029444D01*
X0074092Y0031372D02*
X0096907Y0031372D01*
X0096100Y0032970D02*
X0074900Y0032970D01*
X0075517Y0034569D02*
X0095483Y0034569D01*
X0095483Y0036167D02*
X0075517Y0036167D01*
X0075423Y0037766D02*
X0095577Y0037766D01*
X0096239Y0039364D02*
X0074761Y0039364D01*
X0073758Y0040963D02*
X0097242Y0040963D01*
X0098847Y0042561D02*
X0072153Y0042561D01*
X0063414Y0042561D02*
X0055086Y0042561D01*
X0055097Y0042556D02*
X0052255Y0043734D01*
X0049178Y0043734D01*
X0046336Y0042556D01*
X0044160Y0040381D01*
X0042983Y0037538D01*
X0042983Y0034462D01*
X0044160Y0031619D01*
X0046336Y0029444D01*
X0049178Y0028266D01*
X0052255Y0028266D01*
X0055097Y0029444D01*
X0057273Y0031619D01*
X0058450Y0034462D01*
X0058450Y0037538D01*
X0057273Y0040381D01*
X0055097Y0042556D01*
X0056691Y0040963D02*
X0061809Y0040963D01*
X0060806Y0039364D02*
X0057694Y0039364D01*
X0058356Y0037766D02*
X0060144Y0037766D01*
X0060050Y0036167D02*
X0058450Y0036167D01*
X0058450Y0034569D02*
X0060050Y0034569D01*
X0060667Y0032970D02*
X0057833Y0032970D01*
X0057026Y0031372D02*
X0061474Y0031372D01*
X0063073Y0029773D02*
X0055427Y0029773D01*
X0046006Y0029773D02*
X0044700Y0029773D01*
X0044700Y0028175D02*
X0107597Y0028175D01*
X0107306Y0044160D02*
X0042000Y0044160D01*
X0042000Y0045758D02*
X0107277Y0045758D01*
X0107248Y0047357D02*
X0042000Y0047357D01*
X0042000Y0048955D02*
X0107219Y0048955D01*
X0106554Y0050554D02*
X0042000Y0050554D01*
X0042000Y0052152D02*
X0106515Y0052152D01*
X0107132Y0053751D02*
X0042000Y0053751D01*
X0042000Y0055349D02*
X0107103Y0055349D01*
X0107074Y0056948D02*
X0042000Y0056948D01*
X0042000Y0058546D02*
X0107045Y0058546D01*
X0107016Y0060145D02*
X0042000Y0060145D01*
X0042000Y0061743D02*
X0070879Y0061743D01*
X0070969Y0061588D02*
X0070732Y0061998D01*
X0070609Y0062456D01*
X0070609Y0065658D01*
X0075375Y0065658D01*
X0075375Y0060893D01*
X0072172Y0060893D01*
X0071715Y0061016D01*
X0071304Y0061253D01*
X0070969Y0061588D01*
X0070609Y0063342D02*
X0042000Y0063342D01*
X0042010Y0064940D02*
X0070609Y0064940D01*
X0070609Y0066539D02*
X0043609Y0066539D01*
X0045207Y0068137D02*
X0070609Y0068137D01*
X0070693Y0069736D02*
X0046500Y0069736D01*
X0046500Y0071334D02*
X0087465Y0071334D01*
X0089063Y0072933D02*
X0046500Y0072933D01*
X0046500Y0074532D02*
X0090662Y0074532D01*
X0091806Y0069736D02*
X0092281Y0069736D01*
X0093334Y0070789D02*
X0090494Y0067949D01*
X0090494Y0063933D01*
X0093334Y0061093D01*
X0097351Y0061093D01*
X0100191Y0063933D01*
X0100191Y0067949D01*
X0097351Y0070789D01*
X0093334Y0070789D01*
X0090683Y0068137D02*
X0090207Y0068137D01*
X0090348Y0066539D02*
X0090494Y0066539D01*
X0090494Y0064940D02*
X0090348Y0064940D01*
X0089757Y0063342D02*
X0091085Y0063342D01*
X0092684Y0061743D02*
X0088159Y0061743D01*
X0082841Y0061743D02*
X0080436Y0061743D01*
X0080705Y0063342D02*
X0081243Y0063342D01*
X0080840Y0068137D02*
X0080705Y0068137D01*
X0080622Y0069736D02*
X0082439Y0069736D01*
X0075940Y0069736D02*
X0075375Y0069736D01*
X0075375Y0068137D02*
X0075940Y0068137D01*
X0075940Y0066539D02*
X0075375Y0066539D01*
X0075375Y0064940D02*
X0075940Y0064940D01*
X0075940Y0063342D02*
X0075375Y0063342D01*
X0075375Y0061743D02*
X0075940Y0061743D01*
X0069322Y0085766D02*
X0066245Y0085766D01*
X0063403Y0086944D01*
X0061227Y0089119D01*
X0060050Y0091962D01*
X0060050Y0095038D01*
X0061227Y0097881D01*
X0063403Y0100056D01*
X0066245Y0101234D01*
X0069322Y0101234D01*
X0072164Y0100056D01*
X0074340Y0097881D01*
X0075517Y0095038D01*
X0075517Y0091962D01*
X0074340Y0089119D01*
X0072164Y0086944D01*
X0069322Y0085766D01*
X0072540Y0087320D02*
X0098460Y0087320D01*
X0096861Y0088918D02*
X0074139Y0088918D01*
X0074919Y0090517D02*
X0096081Y0090517D01*
X0095483Y0092115D02*
X0075517Y0092115D01*
X0075517Y0093714D02*
X0095483Y0093714D01*
X0095596Y0095312D02*
X0075404Y0095312D01*
X0074742Y0096911D02*
X0096258Y0096911D01*
X0097288Y0098509D02*
X0073712Y0098509D01*
X0072041Y0100108D02*
X0098959Y0100108D01*
X0106260Y0101706D02*
X0052514Y0101706D01*
X0052345Y0101776D02*
X0051241Y0102072D01*
X0050335Y0102191D01*
X0050335Y0094300D01*
X0048735Y0094300D01*
X0048735Y0092700D01*
X0040844Y0092700D01*
X0040963Y0091795D01*
X0041259Y0090691D01*
X0041697Y0089634D01*
X0042268Y0088644D01*
X0042964Y0087737D01*
X0043773Y0086929D01*
X0044680Y0086233D01*
X0045670Y0085661D01*
X0046726Y0085224D01*
X0047830Y0084928D01*
X0048735Y0084809D01*
X0048735Y0092700D01*
X0050335Y0092700D01*
X0050335Y0084809D01*
X0051241Y0084928D01*
X0052345Y0085224D01*
X0053401Y0085661D01*
X0054391Y0086233D01*
X0055298Y0086929D01*
X0056106Y0087737D01*
X0056802Y0088644D01*
X0057374Y0089634D01*
X0057812Y0090691D01*
X0058107Y0091795D01*
X0058227Y0092700D01*
X0050335Y0092700D01*
X0050335Y0094300D01*
X0058227Y0094300D01*
X0058107Y0095205D01*
X0057812Y0096309D01*
X0057374Y0097366D01*
X0056802Y0098356D01*
X0056106Y0099263D01*
X0055298Y0100071D01*
X0054391Y0100767D01*
X0053401Y0101339D01*
X0052345Y0101776D01*
X0050335Y0101706D02*
X0048735Y0101706D01*
X0048735Y0102191D02*
X0047830Y0102072D01*
X0046726Y0101776D01*
X0045670Y0101339D01*
X0044680Y0100767D01*
X0043773Y0100071D01*
X0042964Y0099263D01*
X0042268Y0098356D01*
X0041697Y0097366D01*
X0041259Y0096309D01*
X0040963Y0095205D01*
X0040844Y0094300D01*
X0048735Y0094300D01*
X0048735Y0102191D01*
X0048735Y0100108D02*
X0050335Y0100108D01*
X0050335Y0098509D02*
X0048735Y0098509D01*
X0048735Y0096911D02*
X0050335Y0096911D01*
X0050335Y0095312D02*
X0048735Y0095312D01*
X0048735Y0093714D02*
X0039300Y0093714D01*
X0039300Y0095312D02*
X0040992Y0095312D01*
X0041508Y0096911D02*
X0039300Y0096911D01*
X0038061Y0098509D02*
X0042386Y0098509D01*
X0043821Y0100108D02*
X0038666Y0100108D01*
X0040241Y0101706D02*
X0046557Y0101706D01*
X0040903Y0103305D02*
X0106231Y0103305D01*
X0106202Y0104903D02*
X0041521Y0104903D01*
X0041521Y0106502D02*
X0106173Y0106502D01*
X0106144Y0108100D02*
X0041521Y0108100D01*
X0040895Y0109699D02*
X0106115Y0109699D01*
X0106085Y0111297D02*
X0040233Y0111297D01*
X0038647Y0112896D02*
X0106056Y0112896D01*
X0106027Y0114494D02*
X0035948Y0114494D01*
X0035180Y0120888D02*
X0065100Y0120888D01*
X0065171Y0122487D02*
X0038329Y0122487D01*
X0039928Y0124085D02*
X0065700Y0124085D01*
X0065700Y0125684D02*
X0040763Y0125684D01*
X0041425Y0127282D02*
X0065700Y0127282D01*
X0065811Y0128881D02*
X0041521Y0128881D01*
X0041521Y0130479D02*
X0067410Y0130479D01*
X0069008Y0132078D02*
X0041035Y0132078D01*
X0040373Y0133676D02*
X0070607Y0133676D01*
X0072205Y0135275D02*
X0038985Y0135275D01*
X0036763Y0136873D02*
X0073804Y0136873D01*
X0075402Y0138472D02*
X0039357Y0138472D01*
X0039900Y0140070D02*
X0047298Y0140070D01*
X0047830Y0139928D02*
X0046726Y0140224D01*
X0045670Y0140661D01*
X0044680Y0141233D01*
X0043773Y0141929D01*
X0042964Y0142737D01*
X0042268Y0143644D01*
X0041697Y0144634D01*
X0041259Y0145691D01*
X0040963Y0146795D01*
X0040844Y0147700D01*
X0048735Y0147700D01*
X0048735Y0149300D01*
X0040844Y0149300D01*
X0040963Y0150205D01*
X0041259Y0151309D01*
X0041697Y0152366D01*
X0042268Y0153356D01*
X0042964Y0154263D01*
X0043773Y0155071D01*
X0044680Y0155767D01*
X0045670Y0156339D01*
X0046726Y0156776D01*
X0047830Y0157072D01*
X0048735Y0157191D01*
X0048735Y0149300D01*
X0050335Y0149300D01*
X0050335Y0157191D01*
X0051241Y0157072D01*
X0052345Y0156776D01*
X0053401Y0156339D01*
X0054391Y0155767D01*
X0055298Y0155071D01*
X0056106Y0154263D01*
X0056802Y0153356D01*
X0057374Y0152366D01*
X0057812Y0151309D01*
X0058107Y0150205D01*
X0058227Y0149300D01*
X0050335Y0149300D01*
X0050335Y0147700D01*
X0050335Y0139809D01*
X0051241Y0139928D01*
X0052345Y0140224D01*
X0053401Y0140661D01*
X0054391Y0141233D01*
X0055298Y0141929D01*
X0056106Y0142737D01*
X0056802Y0143644D01*
X0057374Y0144634D01*
X0057812Y0145691D01*
X0058107Y0146795D01*
X0058227Y0147700D01*
X0050335Y0147700D01*
X0048735Y0147700D01*
X0048735Y0139809D01*
X0047830Y0139928D01*
X0048735Y0140070D02*
X0050335Y0140070D01*
X0051772Y0140070D02*
X0077001Y0140070D01*
X0078599Y0141669D02*
X0071501Y0141669D01*
X0072164Y0141944D02*
X0074340Y0144119D01*
X0075517Y0146962D01*
X0075517Y0150038D01*
X0074340Y0152881D01*
X0072164Y0155056D01*
X0069322Y0156234D01*
X0066245Y0156234D01*
X0063403Y0155056D01*
X0061227Y0152881D01*
X0060050Y0150038D01*
X0060050Y0146962D01*
X0061227Y0144119D01*
X0063403Y0141944D01*
X0066245Y0140766D01*
X0069322Y0140766D01*
X0072164Y0141944D01*
X0073488Y0143268D02*
X0080198Y0143268D01*
X0081796Y0144866D02*
X0074649Y0144866D01*
X0075311Y0146465D02*
X0083395Y0146465D01*
X0084993Y0148063D02*
X0075517Y0148063D01*
X0075517Y0149662D02*
X0086592Y0149662D01*
X0088190Y0151260D02*
X0075011Y0151260D01*
X0074349Y0152859D02*
X0089789Y0152859D01*
X0091387Y0154457D02*
X0072764Y0154457D01*
X0069752Y0156056D02*
X0092986Y0156056D01*
X0094584Y0157654D02*
X0040634Y0157654D01*
X0040224Y0156665D02*
X0041521Y0159797D01*
X0041521Y0163187D01*
X0040224Y0166319D01*
X0037827Y0168716D01*
X0034695Y0170013D01*
X0031305Y0170013D01*
X0030705Y0169765D01*
X0024000Y0176470D01*
X0024000Y0187330D01*
X0027600Y0190930D01*
X0027600Y0204430D01*
X0031189Y0208019D01*
X0031305Y0207971D01*
X0034695Y0207971D01*
X0037827Y0209268D01*
X0040224Y0211665D01*
X0041521Y0214797D01*
X0041521Y0218187D01*
X0040224Y0221319D01*
X0037827Y0223716D01*
X0034695Y0225013D01*
X0031305Y0225013D01*
X0028173Y0223716D01*
X0025776Y0221319D01*
X0024479Y0218187D01*
X0024479Y0214797D01*
X0025776Y0211665D01*
X0027336Y0210106D01*
X0024630Y0207400D01*
X0023400Y0206170D01*
X0023400Y0192670D01*
X0021030Y0190300D01*
X0019800Y0189070D01*
X0019800Y0174730D01*
X0026994Y0167537D01*
X0025776Y0166319D01*
X0024479Y0163187D01*
X0024479Y0159797D01*
X0025776Y0156665D01*
X0028173Y0154268D01*
X0031305Y0152971D01*
X0034695Y0152971D01*
X0037827Y0154268D01*
X0040224Y0156665D01*
X0039614Y0156056D02*
X0045180Y0156056D01*
X0043159Y0154457D02*
X0038016Y0154457D01*
X0041981Y0152859D02*
X0026911Y0152859D01*
X0027984Y0154457D02*
X0025313Y0154457D01*
X0026386Y0156056D02*
X0023714Y0156056D01*
X0022116Y0157654D02*
X0025366Y0157654D01*
X0024704Y0159253D02*
X0020517Y0159253D01*
X0018919Y0160851D02*
X0024479Y0160851D01*
X0024479Y0162450D02*
X0017320Y0162450D01*
X0015722Y0164048D02*
X0024835Y0164048D01*
X0025498Y0165647D02*
X0014123Y0165647D01*
X0013000Y0167245D02*
X0026702Y0167245D01*
X0025686Y0168844D02*
X0013000Y0168844D01*
X0013000Y0170442D02*
X0024088Y0170442D01*
X0022489Y0172041D02*
X0013000Y0172041D01*
X0013000Y0173639D02*
X0020891Y0173639D01*
X0019800Y0175238D02*
X0013000Y0175238D01*
X0013000Y0176836D02*
X0019800Y0176836D01*
X0019800Y0178435D02*
X0013000Y0178435D01*
X0013000Y0180033D02*
X0019800Y0180033D01*
X0019800Y0181632D02*
X0013000Y0181632D01*
X0013000Y0183230D02*
X0019800Y0183230D01*
X0019800Y0184829D02*
X0013000Y0184829D01*
X0013000Y0186427D02*
X0019800Y0186427D01*
X0019800Y0188026D02*
X0013000Y0188026D01*
X0013000Y0189624D02*
X0020354Y0189624D01*
X0021953Y0191223D02*
X0013000Y0191223D01*
X0013000Y0192821D02*
X0023400Y0192821D01*
X0023400Y0194420D02*
X0013000Y0194420D01*
X0013000Y0196018D02*
X0023400Y0196018D01*
X0023400Y0197617D02*
X0018516Y0197617D01*
X0018856Y0197727D02*
X0019729Y0198172D01*
X0020523Y0198749D01*
X0021216Y0199442D01*
X0021792Y0200235D01*
X0022237Y0201109D01*
X0022540Y0202041D01*
X0022664Y0202824D01*
X0017141Y0202824D01*
X0017141Y0197300D01*
X0017923Y0197424D01*
X0018856Y0197727D01*
X0017141Y0197617D02*
X0015788Y0197617D01*
X0014413Y0197617D02*
X0013000Y0197617D01*
X0015788Y0199215D02*
X0017141Y0199215D01*
X0017141Y0200814D02*
X0015788Y0200814D01*
X0015788Y0202412D02*
X0017141Y0202412D01*
X0017141Y0204011D02*
X0023400Y0204011D01*
X0023400Y0205609D02*
X0022329Y0205609D01*
X0021470Y0207208D02*
X0024438Y0207208D01*
X0026037Y0208806D02*
X0019758Y0208806D01*
X0017141Y0208806D02*
X0015788Y0208806D01*
X0015788Y0207208D02*
X0017141Y0207208D01*
X0017141Y0205609D02*
X0015788Y0205609D01*
X0013171Y0208806D02*
X0013000Y0208806D01*
X0013000Y0210405D02*
X0027036Y0210405D01*
X0025636Y0212003D02*
X0013000Y0212003D01*
X0013000Y0213602D02*
X0024974Y0213602D01*
X0024479Y0215201D02*
X0013000Y0215201D01*
X0013000Y0216799D02*
X0024479Y0216799D01*
X0024566Y0218398D02*
X0013000Y0218398D01*
X0013000Y0219996D02*
X0025228Y0219996D01*
X0026052Y0221595D02*
X0013000Y0221595D01*
X0013000Y0223193D02*
X0027650Y0223193D01*
X0030770Y0224792D02*
X0013000Y0224792D01*
X0013000Y0226390D02*
X0103993Y0226390D01*
X0104022Y0224792D02*
X0035230Y0224792D01*
X0038350Y0223193D02*
X0104051Y0223193D01*
X0104080Y0221595D02*
X0039948Y0221595D01*
X0040772Y0219996D02*
X0104109Y0219996D01*
X0104138Y0218398D02*
X0041434Y0218398D01*
X0041521Y0216799D02*
X0104167Y0216799D01*
X0104196Y0215201D02*
X0041521Y0215201D01*
X0041026Y0213602D02*
X0104225Y0213602D01*
X0104254Y0212003D02*
X0051496Y0212003D01*
X0051241Y0212072D02*
X0050335Y0212191D01*
X0050335Y0204300D01*
X0048735Y0204300D01*
X0048735Y0202700D01*
X0040844Y0202700D01*
X0040963Y0201795D01*
X0041259Y0200691D01*
X0041697Y0199634D01*
X0042268Y0198644D01*
X0042964Y0197737D01*
X0043773Y0196929D01*
X0044680Y0196233D01*
X0045670Y0195661D01*
X0046726Y0195224D01*
X0047830Y0194928D01*
X0048735Y0194809D01*
X0048735Y0202700D01*
X0050335Y0202700D01*
X0050335Y0194809D01*
X0051241Y0194928D01*
X0052345Y0195224D01*
X0053401Y0195661D01*
X0054391Y0196233D01*
X0055298Y0196929D01*
X0056106Y0197737D01*
X0056802Y0198644D01*
X0057374Y0199634D01*
X0057812Y0200691D01*
X0058107Y0201795D01*
X0058227Y0202700D01*
X0050335Y0202700D01*
X0050335Y0204300D01*
X0058227Y0204300D01*
X0058107Y0205205D01*
X0057812Y0206309D01*
X0057374Y0207366D01*
X0056802Y0208356D01*
X0056106Y0209263D01*
X0055298Y0210071D01*
X0054391Y0210767D01*
X0053401Y0211339D01*
X0052345Y0211776D01*
X0051241Y0212072D01*
X0050335Y0212003D02*
X0048735Y0212003D01*
X0048735Y0212191D02*
X0047830Y0212072D01*
X0046726Y0211776D01*
X0045670Y0211339D01*
X0044680Y0210767D01*
X0043773Y0210071D01*
X0042964Y0209263D01*
X0042268Y0208356D01*
X0041697Y0207366D01*
X0041259Y0206309D01*
X0040963Y0205205D01*
X0040844Y0204300D01*
X0048735Y0204300D01*
X0048735Y0212191D01*
X0047575Y0212003D02*
X0040364Y0212003D01*
X0038964Y0210405D02*
X0044208Y0210405D01*
X0042614Y0208806D02*
X0036712Y0208806D01*
X0041632Y0207208D02*
X0030378Y0207208D01*
X0028779Y0205609D02*
X0041072Y0205609D01*
X0040882Y0202412D02*
X0027600Y0202412D01*
X0027600Y0200814D02*
X0041226Y0200814D01*
X0041939Y0199215D02*
X0027600Y0199215D01*
X0027600Y0197617D02*
X0043085Y0197617D01*
X0045051Y0196018D02*
X0027600Y0196018D01*
X0027600Y0194420D02*
X0104574Y0194420D01*
X0104603Y0192821D02*
X0027600Y0192821D01*
X0028173Y0191433D02*
X0025776Y0189036D01*
X0024479Y0185904D01*
X0024479Y0182514D01*
X0025776Y0179382D01*
X0028173Y0176985D01*
X0031305Y0175687D01*
X0034695Y0175687D01*
X0037827Y0176985D01*
X0040224Y0179382D01*
X0041521Y0182514D01*
X0041521Y0185904D01*
X0040224Y0189036D01*
X0037827Y0191433D01*
X0034695Y0192730D01*
X0031305Y0192730D01*
X0028173Y0191433D01*
X0027963Y0191223D02*
X0027600Y0191223D01*
X0026365Y0189624D02*
X0026294Y0189624D01*
X0025358Y0188026D02*
X0024696Y0188026D01*
X0024696Y0186427D02*
X0024000Y0186427D01*
X0024000Y0184829D02*
X0024479Y0184829D01*
X0024479Y0183230D02*
X0024000Y0183230D01*
X0024000Y0181632D02*
X0024844Y0181632D01*
X0025506Y0180033D02*
X0024000Y0180033D01*
X0024000Y0178435D02*
X0026723Y0178435D01*
X0028531Y0176836D02*
X0024000Y0176836D01*
X0025232Y0175238D02*
X0070609Y0175238D01*
X0070609Y0175658D02*
X0070609Y0172456D01*
X0070732Y0171998D01*
X0070969Y0171588D01*
X0071304Y0171253D01*
X0071715Y0171016D01*
X0072172Y0170893D01*
X0075375Y0170893D01*
X0075375Y0175658D01*
X0075940Y0175658D01*
X0075940Y0170893D01*
X0079142Y0170893D01*
X0079600Y0171016D01*
X0080011Y0171253D01*
X0080346Y0171588D01*
X0080583Y0171998D01*
X0080705Y0172456D01*
X0080705Y0173879D01*
X0083492Y0171093D01*
X0087508Y0171093D01*
X0090348Y0173933D01*
X0090348Y0177949D01*
X0087508Y0180789D01*
X0083492Y0180789D01*
X0080705Y0178003D01*
X0080705Y0179426D01*
X0080583Y0179884D01*
X0080346Y0180294D01*
X0080011Y0180629D01*
X0079600Y0180866D01*
X0079142Y0180989D01*
X0075940Y0180989D01*
X0075940Y0176224D01*
X0075375Y0176224D01*
X0075375Y0180989D01*
X0072172Y0180989D01*
X0071715Y0180866D01*
X0071304Y0180629D01*
X0070969Y0180294D01*
X0070732Y0179884D01*
X0070609Y0179426D01*
X0070609Y0176224D01*
X0075375Y0176224D01*
X0075375Y0175658D01*
X0070609Y0175658D01*
X0070609Y0176836D02*
X0037469Y0176836D01*
X0039277Y0178435D02*
X0070609Y0178435D01*
X0070818Y0180033D02*
X0040494Y0180033D01*
X0041156Y0181632D02*
X0104807Y0181632D01*
X0104778Y0183230D02*
X0041521Y0183230D01*
X0041521Y0184829D02*
X0104749Y0184829D01*
X0104719Y0186427D02*
X0041304Y0186427D01*
X0040642Y0188026D02*
X0104690Y0188026D01*
X0104661Y0189624D02*
X0039635Y0189624D01*
X0038037Y0191223D02*
X0104632Y0191223D01*
X0101069Y0196018D02*
X0069931Y0196018D01*
X0069322Y0195766D02*
X0072164Y0196944D01*
X0074340Y0199119D01*
X0075517Y0201962D01*
X0075517Y0205038D01*
X0074340Y0207881D01*
X0072164Y0210056D01*
X0069322Y0211234D01*
X0066245Y0211234D01*
X0063403Y0210056D01*
X0061227Y0207881D01*
X0060050Y0205038D01*
X0060050Y0201962D01*
X0061227Y0199119D01*
X0063403Y0196944D01*
X0066245Y0195766D01*
X0069322Y0195766D01*
X0072838Y0197617D02*
X0098162Y0197617D01*
X0096620Y0199215D02*
X0074380Y0199215D01*
X0075042Y0200814D02*
X0095958Y0200814D01*
X0095483Y0202412D02*
X0075517Y0202412D01*
X0075517Y0204011D02*
X0095483Y0204011D01*
X0095719Y0205609D02*
X0075281Y0205609D01*
X0074619Y0207208D02*
X0096381Y0207208D01*
X0097586Y0208806D02*
X0073414Y0208806D01*
X0071323Y0210405D02*
X0099677Y0210405D01*
X0103964Y0227989D02*
X0013000Y0227989D01*
X0013000Y0229587D02*
X0070708Y0229587D01*
X0070732Y0229498D02*
X0070969Y0229088D01*
X0071304Y0228753D01*
X0071715Y0228516D01*
X0072172Y0228393D01*
X0075375Y0228393D01*
X0075375Y0233158D01*
X0075940Y0233158D01*
X0075940Y0228393D01*
X0079142Y0228393D01*
X0079600Y0228516D01*
X0080011Y0228753D01*
X0080346Y0229088D01*
X0080583Y0229498D01*
X0080705Y0229956D01*
X0080705Y0231379D01*
X0083492Y0228593D01*
X0087508Y0228593D01*
X0090348Y0231433D01*
X0090348Y0235449D01*
X0087508Y0238289D01*
X0083492Y0238289D01*
X0080705Y0235503D01*
X0080705Y0236926D01*
X0080583Y0237384D01*
X0080346Y0237794D01*
X0080011Y0238129D01*
X0079600Y0238366D01*
X0079142Y0238489D01*
X0075940Y0238489D01*
X0075940Y0233724D01*
X0075375Y0233724D01*
X0075375Y0238489D01*
X0072172Y0238489D01*
X0071715Y0238366D01*
X0071304Y0238129D01*
X0070969Y0237794D01*
X0070732Y0237384D01*
X0070609Y0236926D01*
X0070609Y0233724D01*
X0075375Y0233724D01*
X0075375Y0233158D01*
X0070609Y0233158D01*
X0070609Y0229956D01*
X0070732Y0229498D01*
X0070609Y0231186D02*
X0013000Y0231186D01*
X0013000Y0232784D02*
X0070609Y0232784D01*
X0070609Y0234383D02*
X0037581Y0234383D01*
X0037827Y0234485D02*
X0040224Y0236882D01*
X0041521Y0240014D01*
X0041521Y0243404D01*
X0040224Y0246536D01*
X0037827Y0248933D01*
X0034695Y0250230D01*
X0031305Y0250230D01*
X0028173Y0248933D01*
X0025776Y0246536D01*
X0024479Y0243404D01*
X0024479Y0240014D01*
X0025776Y0236882D01*
X0028173Y0234485D01*
X0031305Y0233187D01*
X0034695Y0233187D01*
X0037827Y0234485D01*
X0039323Y0235981D02*
X0070609Y0235981D01*
X0070845Y0237580D02*
X0040513Y0237580D01*
X0041175Y0239178D02*
X0103760Y0239178D01*
X0103789Y0237580D02*
X0098060Y0237580D01*
X0097351Y0238289D02*
X0093334Y0238289D01*
X0090494Y0235449D01*
X0090494Y0231433D01*
X0093334Y0228593D01*
X0097351Y0228593D01*
X0100191Y0231433D01*
X0100191Y0235449D01*
X0097351Y0238289D01*
X0099658Y0235981D02*
X0103819Y0235981D01*
X0103848Y0234383D02*
X0100191Y0234383D01*
X0100191Y0232784D02*
X0103877Y0232784D01*
X0103906Y0231186D02*
X0099943Y0231186D01*
X0098345Y0229587D02*
X0103935Y0229587D01*
X0103731Y0240777D02*
X0041521Y0240777D01*
X0041521Y0242375D02*
X0103702Y0242375D01*
X0103673Y0243974D02*
X0041285Y0243974D01*
X0040623Y0245572D02*
X0103644Y0245572D01*
X0103615Y0247171D02*
X0039589Y0247171D01*
X0037990Y0248769D02*
X0103586Y0248769D01*
X0103557Y0250368D02*
X0013000Y0250368D01*
X0013000Y0251966D02*
X0103528Y0251966D01*
X0100957Y0253565D02*
X0070043Y0253565D01*
X0069322Y0253266D02*
X0072164Y0254444D01*
X0074340Y0256619D01*
X0075517Y0259462D01*
X0075517Y0262538D01*
X0074340Y0265381D01*
X0072164Y0267556D01*
X0069322Y0268734D01*
X0066245Y0268734D01*
X0063403Y0267556D01*
X0061227Y0265381D01*
X0060050Y0262538D01*
X0060050Y0259462D01*
X0061227Y0256619D01*
X0063403Y0254444D01*
X0066245Y0253266D01*
X0069322Y0253266D01*
X0072884Y0255163D02*
X0098116Y0255163D01*
X0096601Y0256762D02*
X0074399Y0256762D01*
X0075061Y0258360D02*
X0095939Y0258360D01*
X0095483Y0259959D02*
X0075517Y0259959D01*
X0075517Y0261557D02*
X0095483Y0261557D01*
X0095738Y0263156D02*
X0075262Y0263156D01*
X0074599Y0264754D02*
X0096401Y0264754D01*
X0097632Y0266353D02*
X0073368Y0266353D01*
X0071211Y0267951D02*
X0099789Y0267951D01*
X0103208Y0269550D02*
X0051323Y0269550D01*
X0051241Y0269572D02*
X0050335Y0269691D01*
X0050335Y0261800D01*
X0048735Y0261800D01*
X0048735Y0260200D01*
X0040844Y0260200D01*
X0040963Y0259295D01*
X0041259Y0258191D01*
X0041697Y0257134D01*
X0042268Y0256144D01*
X0042964Y0255237D01*
X0043773Y0254429D01*
X0044680Y0253733D01*
X0045670Y0253161D01*
X0046726Y0252724D01*
X0047830Y0252428D01*
X0048735Y0252309D01*
X0048735Y0260200D01*
X0050335Y0260200D01*
X0050335Y0252309D01*
X0051241Y0252428D01*
X0052345Y0252724D01*
X0053401Y0253161D01*
X0054391Y0253733D01*
X0055298Y0254429D01*
X0056106Y0255237D01*
X0056802Y0256144D01*
X0057374Y0257134D01*
X0057812Y0258191D01*
X0058107Y0259295D01*
X0058227Y0260200D01*
X0050335Y0260200D01*
X0050335Y0261800D01*
X0058227Y0261800D01*
X0058107Y0262705D01*
X0057812Y0263809D01*
X0057374Y0264866D01*
X0056802Y0265856D01*
X0056106Y0266763D01*
X0055298Y0267571D01*
X0054391Y0268267D01*
X0053401Y0268839D01*
X0052345Y0269276D01*
X0051241Y0269572D01*
X0050335Y0269550D02*
X0048735Y0269550D01*
X0048735Y0269691D02*
X0047830Y0269572D01*
X0046726Y0269276D01*
X0045670Y0268839D01*
X0044680Y0268267D01*
X0043773Y0267571D01*
X0042964Y0266763D01*
X0042268Y0265856D01*
X0041697Y0264866D01*
X0041259Y0263809D01*
X0040963Y0262705D01*
X0040844Y0261800D01*
X0048735Y0261800D01*
X0048735Y0269691D01*
X0047748Y0269550D02*
X0040383Y0269550D01*
X0041045Y0271148D02*
X0103179Y0271148D01*
X0103150Y0272747D02*
X0041521Y0272747D01*
X0041521Y0274345D02*
X0103121Y0274345D01*
X0103092Y0275944D02*
X0041415Y0275944D01*
X0040753Y0277542D02*
X0103063Y0277542D01*
X0103034Y0279141D02*
X0039902Y0279141D01*
X0038304Y0280739D02*
X0103005Y0280739D01*
X0092625Y0237580D02*
X0088217Y0237580D01*
X0089816Y0235981D02*
X0091027Y0235981D01*
X0090494Y0234383D02*
X0090348Y0234383D01*
X0090348Y0232784D02*
X0090494Y0232784D01*
X0090742Y0231186D02*
X0090101Y0231186D01*
X0088502Y0229587D02*
X0092340Y0229587D01*
X0082498Y0229587D02*
X0080607Y0229587D01*
X0080705Y0231186D02*
X0080899Y0231186D01*
X0080705Y0235981D02*
X0081184Y0235981D01*
X0080470Y0237580D02*
X0082783Y0237580D01*
X0075940Y0237580D02*
X0075375Y0237580D01*
X0075375Y0235981D02*
X0075940Y0235981D01*
X0075940Y0234383D02*
X0075375Y0234383D01*
X0075375Y0232784D02*
X0075940Y0232784D01*
X0075940Y0231186D02*
X0075375Y0231186D01*
X0075375Y0229587D02*
X0075940Y0229587D01*
X0064244Y0210405D02*
X0054863Y0210405D01*
X0056457Y0208806D02*
X0062153Y0208806D01*
X0060948Y0207208D02*
X0057439Y0207208D01*
X0057999Y0205609D02*
X0060286Y0205609D01*
X0060050Y0204011D02*
X0050335Y0204011D01*
X0050335Y0205609D02*
X0048735Y0205609D01*
X0048735Y0204011D02*
X0027600Y0204011D01*
X0023400Y0202412D02*
X0022599Y0202412D01*
X0022087Y0200814D02*
X0023400Y0200814D01*
X0023400Y0199215D02*
X0020989Y0199215D01*
X0026831Y0173639D02*
X0070609Y0173639D01*
X0070721Y0172041D02*
X0028429Y0172041D01*
X0030028Y0170442D02*
X0105010Y0170442D01*
X0105039Y0168844D02*
X0037519Y0168844D01*
X0039298Y0167245D02*
X0104175Y0167245D01*
X0102577Y0165647D02*
X0040502Y0165647D01*
X0041165Y0164048D02*
X0100978Y0164048D01*
X0099380Y0162450D02*
X0041521Y0162450D01*
X0041521Y0160851D02*
X0097781Y0160851D01*
X0096183Y0159253D02*
X0041296Y0159253D01*
X0041246Y0151260D02*
X0028510Y0151260D01*
X0030108Y0149662D02*
X0040892Y0149662D01*
X0041052Y0146465D02*
X0033305Y0146465D01*
X0031707Y0148063D02*
X0048735Y0148063D01*
X0048735Y0146465D02*
X0050335Y0146465D01*
X0050335Y0148063D02*
X0060050Y0148063D01*
X0060050Y0149662D02*
X0058179Y0149662D01*
X0057825Y0151260D02*
X0060556Y0151260D01*
X0061218Y0152859D02*
X0057089Y0152859D01*
X0055912Y0154457D02*
X0062803Y0154457D01*
X0065815Y0156056D02*
X0053891Y0156056D01*
X0050335Y0156056D02*
X0048735Y0156056D01*
X0048735Y0154457D02*
X0050335Y0154457D01*
X0050335Y0152859D02*
X0048735Y0152859D01*
X0048735Y0151260D02*
X0050335Y0151260D01*
X0050335Y0149662D02*
X0048735Y0149662D01*
X0048735Y0144866D02*
X0050335Y0144866D01*
X0050335Y0143268D02*
X0048735Y0143268D01*
X0048735Y0141669D02*
X0050335Y0141669D01*
X0054959Y0141669D02*
X0064065Y0141669D01*
X0062079Y0143268D02*
X0056513Y0143268D01*
X0057470Y0144866D02*
X0060918Y0144866D01*
X0060255Y0146465D02*
X0058019Y0146465D01*
X0070152Y0127282D02*
X0088513Y0127282D01*
X0087019Y0125789D02*
X0083492Y0125789D01*
X0080705Y0123003D01*
X0080705Y0124426D01*
X0080583Y0124884D01*
X0080346Y0125294D01*
X0080011Y0125629D01*
X0079600Y0125866D01*
X0079142Y0125989D01*
X0075940Y0125989D01*
X0075940Y0121224D01*
X0075375Y0121224D01*
X0075375Y0125989D01*
X0072172Y0125989D01*
X0071715Y0125866D01*
X0071304Y0125629D01*
X0070969Y0125294D01*
X0070732Y0124884D01*
X0070677Y0124678D01*
X0069900Y0125000D01*
X0069900Y0127030D01*
X0105158Y0162289D01*
X0105272Y0156020D01*
X0104755Y0156234D01*
X0101678Y0156234D01*
X0098836Y0155056D01*
X0096660Y0152881D01*
X0095483Y0150038D01*
X0095483Y0146962D01*
X0096660Y0144119D01*
X0098836Y0141944D01*
X0101678Y0140766D01*
X0104755Y0140766D01*
X0105544Y0141093D01*
X0105696Y0132700D01*
X0093930Y0132700D01*
X0087019Y0125789D01*
X0083387Y0125684D02*
X0079916Y0125684D01*
X0080705Y0124085D02*
X0081788Y0124085D01*
X0081893Y0117691D02*
X0080705Y0117691D01*
X0079734Y0116093D02*
X0105998Y0116093D01*
X0105969Y0117691D02*
X0098949Y0117691D01*
X0100191Y0118933D02*
X0097351Y0116093D01*
X0093334Y0116093D01*
X0090494Y0118933D01*
X0090494Y0122949D01*
X0093334Y0125789D01*
X0097351Y0125789D01*
X0100191Y0122949D01*
X0100191Y0118933D01*
X0100191Y0119290D02*
X0105940Y0119290D01*
X0105911Y0120888D02*
X0100191Y0120888D01*
X0100191Y0122487D02*
X0105882Y0122487D01*
X0105853Y0124085D02*
X0099054Y0124085D01*
X0097456Y0125684D02*
X0105824Y0125684D01*
X0105795Y0127282D02*
X0094452Y0127282D01*
X0093229Y0125684D02*
X0092854Y0125684D01*
X0091631Y0124085D02*
X0091255Y0124085D01*
X0090494Y0122487D02*
X0090348Y0122487D01*
X0090348Y0120888D02*
X0090494Y0120888D01*
X0090494Y0119290D02*
X0090348Y0119290D01*
X0089107Y0117691D02*
X0091736Y0117691D01*
X0090111Y0128881D02*
X0071751Y0128881D01*
X0073349Y0130479D02*
X0091710Y0130479D01*
X0093308Y0132078D02*
X0074948Y0132078D01*
X0076546Y0133676D02*
X0105679Y0133676D01*
X0105650Y0135275D02*
X0078145Y0135275D01*
X0079743Y0136873D02*
X0105620Y0136873D01*
X0105591Y0138472D02*
X0081342Y0138472D01*
X0082940Y0140070D02*
X0105562Y0140070D01*
X0099498Y0141669D02*
X0084539Y0141669D01*
X0086137Y0143268D02*
X0097512Y0143268D01*
X0096351Y0144866D02*
X0087736Y0144866D01*
X0089334Y0146465D02*
X0095689Y0146465D01*
X0095483Y0148063D02*
X0090933Y0148063D01*
X0092531Y0149662D02*
X0095483Y0149662D01*
X0095989Y0151260D02*
X0094130Y0151260D01*
X0095728Y0152859D02*
X0096651Y0152859D01*
X0097327Y0154457D02*
X0098236Y0154457D01*
X0098925Y0156056D02*
X0101248Y0156056D01*
X0100524Y0157654D02*
X0105243Y0157654D01*
X0105272Y0156056D02*
X0105185Y0156056D01*
X0105214Y0159253D02*
X0102122Y0159253D01*
X0103721Y0160851D02*
X0105185Y0160851D01*
X0097351Y0171093D02*
X0100191Y0173933D01*
X0100191Y0177949D01*
X0097351Y0180789D01*
X0093334Y0180789D01*
X0090494Y0177949D01*
X0090494Y0173933D01*
X0093334Y0171093D01*
X0097351Y0171093D01*
X0098298Y0172041D02*
X0104981Y0172041D01*
X0104952Y0173639D02*
X0099897Y0173639D01*
X0100191Y0175238D02*
X0104923Y0175238D01*
X0104894Y0176836D02*
X0100191Y0176836D01*
X0099705Y0178435D02*
X0104865Y0178435D01*
X0104836Y0180033D02*
X0098106Y0180033D01*
X0092579Y0180033D02*
X0088264Y0180033D01*
X0089862Y0178435D02*
X0090980Y0178435D01*
X0090494Y0176836D02*
X0090348Y0176836D01*
X0090348Y0175238D02*
X0090494Y0175238D01*
X0090788Y0173639D02*
X0090054Y0173639D01*
X0088456Y0172041D02*
X0092387Y0172041D01*
X0082544Y0172041D02*
X0080594Y0172041D01*
X0080705Y0173639D02*
X0080946Y0173639D01*
X0081138Y0178435D02*
X0080705Y0178435D01*
X0080497Y0180033D02*
X0082736Y0180033D01*
X0075940Y0180033D02*
X0075375Y0180033D01*
X0075375Y0178435D02*
X0075940Y0178435D01*
X0075940Y0176836D02*
X0075375Y0176836D01*
X0075375Y0175238D02*
X0075940Y0175238D01*
X0075940Y0173639D02*
X0075375Y0173639D01*
X0075375Y0172041D02*
X0075940Y0172041D01*
X0065636Y0196018D02*
X0054019Y0196018D01*
X0055986Y0197617D02*
X0062729Y0197617D01*
X0061187Y0199215D02*
X0057132Y0199215D01*
X0057845Y0200814D02*
X0060525Y0200814D01*
X0060050Y0202412D02*
X0058189Y0202412D01*
X0050335Y0202412D02*
X0048735Y0202412D01*
X0048735Y0200814D02*
X0050335Y0200814D01*
X0050335Y0199215D02*
X0048735Y0199215D01*
X0048735Y0197617D02*
X0050335Y0197617D01*
X0050335Y0196018D02*
X0048735Y0196018D01*
X0048735Y0207208D02*
X0050335Y0207208D01*
X0050335Y0208806D02*
X0048735Y0208806D01*
X0048735Y0210405D02*
X0050335Y0210405D01*
X0028419Y0234383D02*
X0013000Y0234383D01*
X0013000Y0235981D02*
X0026677Y0235981D01*
X0025487Y0237580D02*
X0013000Y0237580D01*
X0013000Y0239178D02*
X0024825Y0239178D01*
X0024479Y0240777D02*
X0013000Y0240777D01*
X0013000Y0242375D02*
X0024479Y0242375D01*
X0024715Y0243974D02*
X0013000Y0243974D01*
X0013000Y0245572D02*
X0025377Y0245572D01*
X0026411Y0247171D02*
X0013000Y0247171D01*
X0013000Y0248769D02*
X0028010Y0248769D01*
X0020523Y0256249D02*
X0021216Y0256942D01*
X0021792Y0257735D01*
X0022237Y0258609D01*
X0022540Y0259541D01*
X0022664Y0260324D01*
X0017141Y0260324D01*
X0017141Y0254800D01*
X0017923Y0254924D01*
X0018856Y0255227D01*
X0019729Y0255672D01*
X0020523Y0256249D01*
X0021036Y0256762D02*
X0041912Y0256762D01*
X0041214Y0258360D02*
X0022111Y0258360D01*
X0022606Y0259959D02*
X0040876Y0259959D01*
X0041084Y0263156D02*
X0022314Y0263156D01*
X0021436Y0264754D02*
X0041651Y0264754D01*
X0042650Y0266353D02*
X0036824Y0266353D01*
X0039010Y0267951D02*
X0044268Y0267951D01*
X0048735Y0267951D02*
X0050335Y0267951D01*
X0050335Y0266353D02*
X0048735Y0266353D01*
X0048735Y0264754D02*
X0050335Y0264754D01*
X0050335Y0263156D02*
X0048735Y0263156D01*
X0048735Y0261557D02*
X0017141Y0261557D01*
X0017141Y0259959D02*
X0015788Y0259959D01*
X0015788Y0258360D02*
X0017141Y0258360D01*
X0017141Y0256762D02*
X0015788Y0256762D01*
X0015788Y0255163D02*
X0017141Y0255163D01*
X0018659Y0255163D02*
X0043038Y0255163D01*
X0044971Y0253565D02*
X0013000Y0253565D01*
X0013000Y0255163D02*
X0014270Y0255163D01*
X0015788Y0263156D02*
X0017141Y0263156D01*
X0017141Y0264754D02*
X0015788Y0264754D01*
X0015788Y0266353D02*
X0017141Y0266353D01*
X0019680Y0266353D02*
X0029176Y0266353D01*
X0026990Y0267951D02*
X0013000Y0267951D01*
X0013000Y0266353D02*
X0013249Y0266353D01*
X0013000Y0269550D02*
X0025617Y0269550D01*
X0024955Y0271148D02*
X0013000Y0271148D01*
X0013000Y0272747D02*
X0024479Y0272747D01*
X0024479Y0274345D02*
X0013000Y0274345D01*
X0013000Y0275944D02*
X0024585Y0275944D01*
X0025247Y0277542D02*
X0013000Y0277542D01*
X0013000Y0279141D02*
X0026098Y0279141D01*
X0027696Y0280739D02*
X0013000Y0280739D01*
X0048735Y0259959D02*
X0050335Y0259959D01*
X0050335Y0261557D02*
X0060050Y0261557D01*
X0060050Y0259959D02*
X0058195Y0259959D01*
X0057857Y0258360D02*
X0060506Y0258360D01*
X0061168Y0256762D02*
X0057159Y0256762D01*
X0056032Y0255163D02*
X0062683Y0255163D01*
X0065524Y0253565D02*
X0054100Y0253565D01*
X0050335Y0253565D02*
X0048735Y0253565D01*
X0048735Y0255163D02*
X0050335Y0255163D01*
X0050335Y0256762D02*
X0048735Y0256762D01*
X0048735Y0258360D02*
X0050335Y0258360D01*
X0056421Y0266353D02*
X0062199Y0266353D01*
X0060968Y0264754D02*
X0057420Y0264754D01*
X0057987Y0263156D02*
X0060305Y0263156D01*
X0064356Y0267951D02*
X0054802Y0267951D01*
X0014578Y0159253D02*
X0013000Y0159253D01*
X0013000Y0157654D02*
X0016176Y0157654D01*
X0017775Y0156056D02*
X0013000Y0156056D01*
X0013000Y0154457D02*
X0014641Y0154457D01*
X0015788Y0154457D02*
X0017141Y0154457D01*
X0018288Y0154457D02*
X0019373Y0154457D01*
X0020915Y0152859D02*
X0020972Y0152859D01*
X0022049Y0151260D02*
X0022570Y0151260D01*
X0022587Y0149662D02*
X0024169Y0149662D01*
X0025767Y0148063D02*
X0017141Y0148063D01*
X0017141Y0147824D02*
X0022664Y0147824D01*
X0022540Y0147041D01*
X0022237Y0146109D01*
X0021792Y0145235D01*
X0021216Y0144442D01*
X0020523Y0143749D01*
X0019729Y0143172D01*
X0018856Y0142727D01*
X0017923Y0142424D01*
X0017141Y0142300D01*
X0017141Y0147824D01*
X0017141Y0146465D02*
X0015788Y0146465D01*
X0015788Y0144866D02*
X0017141Y0144866D01*
X0017141Y0143268D02*
X0015788Y0143268D01*
X0013069Y0143268D02*
X0013000Y0143268D01*
X0013000Y0141669D02*
X0032161Y0141669D01*
X0032700Y0140070D02*
X0013000Y0140070D01*
X0013000Y0138472D02*
X0033243Y0138472D01*
X0030563Y0143268D02*
X0019860Y0143268D01*
X0021524Y0144866D02*
X0028964Y0144866D01*
X0027366Y0146465D02*
X0022353Y0146465D01*
X0017141Y0149662D02*
X0015788Y0149662D01*
X0015788Y0151260D02*
X0017141Y0151260D01*
X0017141Y0152859D02*
X0015788Y0152859D01*
X0013000Y0136873D02*
X0029237Y0136873D01*
X0027015Y0135275D02*
X0013000Y0135275D01*
X0013000Y0133676D02*
X0025627Y0133676D01*
X0024965Y0132078D02*
X0013000Y0132078D01*
X0013000Y0130479D02*
X0024479Y0130479D01*
X0024479Y0128881D02*
X0013000Y0128881D01*
X0013000Y0127282D02*
X0024575Y0127282D01*
X0025237Y0125684D02*
X0013000Y0125684D01*
X0013000Y0124085D02*
X0026072Y0124085D01*
X0027671Y0122487D02*
X0013000Y0122487D01*
X0013000Y0120888D02*
X0030820Y0120888D01*
X0030052Y0114494D02*
X0013000Y0114494D01*
X0013000Y0112896D02*
X0027353Y0112896D01*
X0025767Y0111297D02*
X0013000Y0111297D01*
X0013000Y0109699D02*
X0025105Y0109699D01*
X0024479Y0108100D02*
X0013000Y0108100D01*
X0013000Y0106502D02*
X0024479Y0106502D01*
X0024479Y0104903D02*
X0013000Y0104903D01*
X0013000Y0103305D02*
X0025097Y0103305D01*
X0025759Y0101706D02*
X0013585Y0101706D01*
X0014579Y0100108D02*
X0027334Y0100108D01*
X0030005Y0098509D02*
X0020168Y0098509D01*
X0021686Y0096911D02*
X0033719Y0096911D01*
X0035100Y0095312D02*
X0022425Y0095312D01*
X0022664Y0092824D02*
X0017141Y0092824D01*
X0017141Y0087300D01*
X0017923Y0087424D01*
X0018856Y0087727D01*
X0019729Y0088172D01*
X0020523Y0088749D01*
X0021216Y0089442D01*
X0021792Y0090235D01*
X0022237Y0091109D01*
X0022540Y0092041D01*
X0022664Y0092824D01*
X0022552Y0092115D02*
X0035100Y0092115D01*
X0035100Y0090517D02*
X0021936Y0090517D01*
X0020692Y0088918D02*
X0035412Y0088918D01*
X0037011Y0087320D02*
X0017263Y0087320D01*
X0017141Y0087320D02*
X0015788Y0087320D01*
X0015667Y0087320D02*
X0013000Y0087320D01*
X0013000Y0085721D02*
X0038609Y0085721D01*
X0040208Y0084123D02*
X0013000Y0084123D01*
X0013000Y0082524D02*
X0030808Y0082524D01*
X0031305Y0082730D02*
X0028173Y0081433D01*
X0025776Y0079036D01*
X0024479Y0075904D01*
X0024479Y0072514D01*
X0025776Y0069382D01*
X0028173Y0066985D01*
X0031305Y0065687D01*
X0034695Y0065687D01*
X0037827Y0066985D01*
X0040224Y0069382D01*
X0041521Y0072514D01*
X0041521Y0075904D01*
X0040224Y0079036D01*
X0037827Y0081433D01*
X0034695Y0082730D01*
X0031305Y0082730D01*
X0035192Y0082524D02*
X0041806Y0082524D01*
X0042300Y0080926D02*
X0038334Y0080926D01*
X0039932Y0079327D02*
X0042300Y0079327D01*
X0042300Y0077729D02*
X0040765Y0077729D01*
X0041427Y0076130D02*
X0042300Y0076130D01*
X0042300Y0074532D02*
X0041521Y0074532D01*
X0041521Y0072933D02*
X0042300Y0072933D01*
X0042300Y0071334D02*
X0041033Y0071334D01*
X0040866Y0069736D02*
X0040371Y0069736D01*
X0039268Y0068137D02*
X0038980Y0068137D01*
X0037800Y0066539D02*
X0036751Y0066539D01*
X0037800Y0064940D02*
X0013000Y0064940D01*
X0013000Y0063342D02*
X0037800Y0063342D01*
X0037800Y0061743D02*
X0013000Y0061743D01*
X0013000Y0060145D02*
X0037800Y0060145D01*
X0037800Y0058546D02*
X0013000Y0058546D01*
X0013000Y0056948D02*
X0037800Y0056948D01*
X0037800Y0055349D02*
X0013000Y0055349D01*
X0013000Y0053751D02*
X0037800Y0053751D01*
X0037800Y0052152D02*
X0013000Y0052152D01*
X0013000Y0050554D02*
X0037800Y0050554D01*
X0037800Y0048955D02*
X0013000Y0048955D01*
X0013000Y0047357D02*
X0037800Y0047357D01*
X0037800Y0045758D02*
X0013000Y0045758D01*
X0013000Y0044160D02*
X0037800Y0044160D01*
X0037800Y0042561D02*
X0019653Y0042561D01*
X0021258Y0040963D02*
X0037800Y0040963D01*
X0037800Y0039364D02*
X0022261Y0039364D01*
X0022923Y0037766D02*
X0037800Y0037766D01*
X0037800Y0036167D02*
X0023017Y0036167D01*
X0023017Y0034569D02*
X0037800Y0034569D01*
X0037800Y0032970D02*
X0022400Y0032970D01*
X0021592Y0031372D02*
X0038058Y0031372D01*
X0039657Y0029773D02*
X0019994Y0029773D01*
X0013000Y0028175D02*
X0040500Y0028175D01*
X0040500Y0026576D02*
X0013000Y0026576D01*
X0013000Y0024978D02*
X0040500Y0024978D01*
X0040500Y0023379D02*
X0013000Y0023379D01*
X0013000Y0021781D02*
X0040500Y0021781D01*
X0040500Y0020182D02*
X0013000Y0020182D01*
X0013000Y0018584D02*
X0040500Y0018584D01*
X0040500Y0016985D02*
X0013385Y0016985D01*
X0014983Y0015387D02*
X0040500Y0015387D01*
X0040500Y0013788D02*
X0016582Y0013788D01*
X0018180Y0012190D02*
X0018309Y0012190D01*
X0028005Y0012190D02*
X0029892Y0012190D01*
X0028294Y0010591D02*
X0028005Y0010591D01*
X0028005Y0008993D02*
X0028152Y0008993D01*
X0028152Y0007394D02*
X0028005Y0007394D01*
X0036107Y0012190D02*
X0039735Y0012190D01*
X0038137Y0010591D02*
X0037706Y0010591D01*
X0037848Y0008993D02*
X0037994Y0008993D01*
X0037994Y0007394D02*
X0037848Y0007394D01*
X0044700Y0013788D02*
X0087518Y0013788D01*
X0089117Y0015387D02*
X0044700Y0015387D01*
X0044700Y0016985D02*
X0090715Y0016985D01*
X0082393Y0012190D02*
X0080635Y0012190D01*
X0080705Y0010591D02*
X0080794Y0010591D01*
X0075940Y0010591D02*
X0075375Y0010591D01*
X0075375Y0008993D02*
X0075940Y0008993D01*
X0075940Y0012190D02*
X0075375Y0012190D01*
X0070680Y0012190D02*
X0045950Y0012190D01*
X0047549Y0010591D02*
X0070609Y0010591D01*
X0070609Y0008993D02*
X0047691Y0008993D01*
X0047691Y0007394D02*
X0070609Y0007394D01*
X0044742Y0040963D02*
X0042000Y0040963D01*
X0042000Y0042561D02*
X0046347Y0042561D01*
X0043739Y0039364D02*
X0042000Y0039364D01*
X0042000Y0037766D02*
X0043077Y0037766D01*
X0042983Y0036167D02*
X0042000Y0036167D01*
X0042000Y0034569D02*
X0042983Y0034569D01*
X0042400Y0032970D02*
X0043600Y0032970D01*
X0043998Y0031372D02*
X0044407Y0031372D01*
X0029249Y0066539D02*
X0013000Y0066539D01*
X0013000Y0068137D02*
X0027020Y0068137D01*
X0025629Y0069736D02*
X0013000Y0069736D01*
X0013000Y0071334D02*
X0024967Y0071334D01*
X0024479Y0072933D02*
X0013000Y0072933D01*
X0013000Y0074532D02*
X0024479Y0074532D01*
X0024573Y0076130D02*
X0013000Y0076130D01*
X0013000Y0077729D02*
X0025235Y0077729D01*
X0026068Y0079327D02*
X0013000Y0079327D01*
X0013000Y0080926D02*
X0027666Y0080926D01*
X0035100Y0093714D02*
X0017141Y0093714D01*
X0017141Y0095312D02*
X0015788Y0095312D01*
X0015788Y0096911D02*
X0017141Y0096911D01*
X0017141Y0098509D02*
X0015788Y0098509D01*
X0015788Y0092115D02*
X0017141Y0092115D01*
X0017141Y0090517D02*
X0015788Y0090517D01*
X0015788Y0088918D02*
X0017141Y0088918D01*
X0013000Y0116093D02*
X0071581Y0116093D01*
X0070609Y0117691D02*
X0013000Y0117691D01*
X0013000Y0119290D02*
X0065919Y0119290D01*
X0069900Y0125684D02*
X0071399Y0125684D01*
X0075375Y0125684D02*
X0075940Y0125684D01*
X0075940Y0124085D02*
X0075375Y0124085D01*
X0075375Y0122487D02*
X0075940Y0122487D01*
X0075940Y0119290D02*
X0075375Y0119290D01*
X0075375Y0117691D02*
X0075940Y0117691D01*
X0075940Y0116093D02*
X0075375Y0116093D01*
X0063526Y0100108D02*
X0055250Y0100108D01*
X0056685Y0098509D02*
X0061855Y0098509D01*
X0060825Y0096911D02*
X0057562Y0096911D01*
X0058079Y0095312D02*
X0060163Y0095312D01*
X0060050Y0093714D02*
X0050335Y0093714D01*
X0050335Y0092115D02*
X0048735Y0092115D01*
X0048735Y0090517D02*
X0050335Y0090517D01*
X0050335Y0088918D02*
X0048735Y0088918D01*
X0048735Y0087320D02*
X0050335Y0087320D01*
X0050335Y0085721D02*
X0048735Y0085721D01*
X0046147Y0084123D02*
X0105653Y0084123D01*
X0106551Y0085721D02*
X0053504Y0085721D01*
X0055689Y0087320D02*
X0063027Y0087320D01*
X0061428Y0088918D02*
X0056961Y0088918D01*
X0057739Y0090517D02*
X0060648Y0090517D01*
X0060050Y0092115D02*
X0058150Y0092115D01*
X0045566Y0085721D02*
X0044549Y0085721D01*
X0043382Y0087320D02*
X0042950Y0087320D01*
X0042110Y0088918D02*
X0041352Y0088918D01*
X0041331Y0090517D02*
X0039753Y0090517D01*
X0039300Y0092115D02*
X0040921Y0092115D01*
X0046500Y0082524D02*
X0104054Y0082524D01*
X0102456Y0080926D02*
X0046500Y0080926D01*
X0046500Y0079327D02*
X0100857Y0079327D01*
X0099259Y0077729D02*
X0046500Y0077729D01*
X0046500Y0076130D02*
X0097660Y0076130D01*
X0100403Y0072933D02*
X0106783Y0072933D01*
X0106812Y0071334D02*
X0098804Y0071334D01*
X0098404Y0069736D02*
X0106841Y0069736D01*
X0106870Y0068137D02*
X0100002Y0068137D01*
X0100191Y0066539D02*
X0106899Y0066539D01*
X0106928Y0064940D02*
X0100191Y0064940D01*
X0099600Y0063342D02*
X0106957Y0063342D01*
X0106986Y0061743D02*
X0098001Y0061743D01*
X0102001Y0074532D02*
X0106754Y0074532D01*
X0106725Y0076130D02*
X0103600Y0076130D01*
X0105198Y0077729D02*
X0106696Y0077729D01*
X0044112Y0141669D02*
X0039712Y0141669D01*
X0038624Y0143268D02*
X0042558Y0143268D01*
X0041601Y0144866D02*
X0034904Y0144866D01*
D20*
X0036300Y0140500D02*
X0010200Y0166600D01*
X0010200Y0298900D01*
X0014700Y0303400D01*
X0015500Y0303500D01*
X0015600Y0304300D01*
X0015600Y0313300D01*
X0015500Y0313500D01*
X0025500Y0313500D02*
X0025500Y0303500D01*
X0025500Y0303400D01*
X0025500Y0280900D01*
X0025500Y0303400D02*
X0035400Y0303400D01*
X0035500Y0303500D01*
X0036300Y0304300D01*
X0036300Y0313300D01*
X0035500Y0313500D01*
X0036300Y0314200D01*
X0045300Y0314200D01*
X0045500Y0313500D01*
X0045500Y0303500D02*
X0045300Y0303400D01*
X0036300Y0303400D01*
X0035500Y0303500D01*
X0055500Y0303500D02*
X0056100Y0304300D01*
X0056100Y0313300D01*
X0055500Y0313500D01*
X0056100Y0314200D01*
X0075000Y0314200D01*
X0075500Y0313500D01*
X0070500Y0294400D02*
X0065100Y0294400D01*
X0056100Y0303400D01*
X0055500Y0303500D01*
X0070500Y0294400D02*
X0071400Y0293500D01*
X0093900Y0293500D01*
X0111000Y0276400D01*
X0111000Y0171100D01*
X0067800Y0127900D01*
X0067800Y0122500D01*
X0068700Y0121600D01*
X0085500Y0120941D02*
X0085800Y0121600D01*
X0094800Y0130600D01*
X0140700Y0130600D01*
X0132600Y0145000D02*
X0121800Y0155800D01*
X0118200Y0157600D02*
X0145200Y0184600D01*
X0145200Y0235000D01*
X0147000Y0231400D02*
X0185700Y0270100D01*
X0185700Y0303400D01*
X0180300Y0308800D01*
X0174000Y0308800D01*
X0167700Y0308800D02*
X0136200Y0308800D01*
X0132600Y0305200D01*
X0124500Y0305200D01*
X0122700Y0303400D01*
X0122700Y0246700D01*
X0126300Y0243100D01*
X0126300Y0237700D01*
X0122700Y0234100D01*
X0122700Y0219700D01*
X0132600Y0209800D01*
X0132600Y0177400D01*
X0131700Y0168400D02*
X0147000Y0183700D01*
X0147000Y0231400D01*
X0141600Y0226000D02*
X0141600Y0190900D01*
X0131700Y0168400D02*
X0131700Y0159400D01*
X0118200Y0157600D02*
X0118200Y0136900D01*
X0122700Y0098200D02*
X0097500Y0073000D01*
X0092100Y0073000D01*
X0085800Y0066700D01*
X0085500Y0065941D01*
X0113700Y0035200D02*
X0108300Y0029800D01*
X0107574Y0029434D01*
X0109200Y0025300D02*
X0099300Y0015400D01*
X0092100Y0015400D01*
X0085800Y0009100D01*
X0085500Y0008441D01*
X0109200Y0025300D02*
X0123600Y0025300D01*
X0124260Y0026000D01*
X0131740Y0026000D02*
X0132600Y0025300D01*
X0164100Y0025300D01*
X0172200Y0017200D01*
X0173000Y0016709D01*
X0185700Y0036100D02*
X0173100Y0048700D01*
X0173000Y0048992D01*
X0172200Y0048700D01*
X0159600Y0036100D01*
X0156900Y0036100D01*
X0156465Y0036000D01*
X0156000Y0035200D01*
X0113700Y0035200D01*
X0110100Y0051400D02*
X0121800Y0051400D01*
X0134400Y0064000D01*
X0134400Y0083800D01*
X0152400Y0101800D01*
X0160500Y0101800D01*
X0177600Y0118900D01*
X0177600Y0122500D01*
X0183000Y0127900D01*
X0183000Y0151300D01*
X0189300Y0157600D01*
X0181200Y0148600D02*
X0181200Y0167500D01*
X0187500Y0173800D01*
X0187500Y0195400D01*
X0173100Y0209800D01*
X0173100Y0233200D01*
X0173000Y0233441D01*
X0147900Y0270100D02*
X0126300Y0248500D01*
X0120900Y0241300D02*
X0122700Y0239500D01*
X0120900Y0241300D02*
X0120900Y0269200D01*
X0093000Y0297100D01*
X0137100Y0304300D02*
X0164100Y0304300D01*
X0170400Y0298000D01*
X0182100Y0301600D02*
X0182100Y0277300D01*
X0126300Y0221500D01*
X0163157Y0175941D02*
X0163200Y0175600D01*
X0163200Y0145900D01*
X0114600Y0097300D01*
X0114600Y0095500D01*
X0121800Y0091900D02*
X0121800Y0080200D01*
X0121800Y0091900D02*
X0179400Y0149500D01*
X0179400Y0172900D01*
X0182100Y0175600D01*
X0182843Y0175941D01*
X0181200Y0148600D02*
X0127200Y0094600D01*
X0127200Y0062200D01*
X0130800Y0078400D02*
X0130800Y0089200D01*
X0162300Y0120700D01*
X0163157Y0120941D01*
X0163200Y0120700D01*
X0172200Y0120700D01*
X0173000Y0120941D01*
X0182100Y0120700D02*
X0182100Y0109000D01*
X0147000Y0073900D01*
X0163157Y0065941D02*
X0163200Y0065800D01*
X0172200Y0065800D01*
X0173000Y0065941D01*
X0185700Y0036100D02*
X0189300Y0036100D01*
X0189535Y0036000D01*
X0182100Y0120700D02*
X0182843Y0120941D01*
X0044400Y0082900D02*
X0044400Y0070300D01*
X0039900Y0065800D01*
X0039900Y0032500D01*
X0042600Y0029800D01*
X0042600Y0009100D01*
X0042843Y0008441D01*
X0023157Y0008441D02*
X0022800Y0009100D01*
X0018300Y0009100D01*
X0007500Y0019900D01*
X0007500Y0095500D01*
X0011100Y0099100D01*
X0033600Y0100000D02*
X0033600Y0106300D01*
X0033000Y0106492D01*
X0033600Y0100000D02*
X0037200Y0096400D01*
X0037200Y0090100D01*
X0044400Y0082900D01*
X0033000Y0161492D02*
X0032700Y0162100D01*
X0032700Y0164800D01*
X0021900Y0175600D01*
X0021900Y0188200D01*
X0025500Y0191800D01*
X0025500Y0205300D01*
X0032700Y0212500D01*
X0032700Y0216100D01*
X0033000Y0216492D01*
D21*
X0036300Y0140500D03*
X0011100Y0099100D03*
X0068700Y0121600D03*
X0110100Y0051400D03*
X0127200Y0062200D03*
X0130800Y0078400D03*
X0121800Y0080200D03*
X0114600Y0095500D03*
X0122700Y0098200D03*
X0140700Y0130600D03*
X0132600Y0145000D03*
X0131700Y0159400D03*
X0121800Y0155800D03*
X0118200Y0136900D03*
X0132600Y0177400D03*
X0141600Y0190900D03*
X0126300Y0221500D03*
X0122700Y0239500D03*
X0126300Y0248500D03*
X0141600Y0226000D03*
X0145200Y0235000D03*
X0147900Y0270100D03*
X0137100Y0304300D03*
X0124500Y0305200D03*
X0093000Y0297100D03*
X0070500Y0294400D03*
X0167700Y0308800D03*
X0174000Y0308800D03*
X0170400Y0298000D03*
X0182100Y0301600D03*
X0189300Y0157600D03*
X0147000Y0073900D03*
M02*
