%
M48
M72
T01C0.0240
T02C0.0320
T03C0.0400
T04C0.0433
T05C0.0591
T06C0.0827
T07C0.0984
%
T01
X1110Y9910
X3630Y14050
X6870Y12160
X11010Y5140
X12720Y6220
X13080Y7840
X12180Y8020
X11460Y9550
X12270Y9820
X14070Y13060
X13260Y14500
X13170Y15940
X12180Y15580
X11820Y13690
X13260Y17740
X14160Y19090
X12630Y22150
X12270Y23950
X12630Y24850
X14160Y22600
X14520Y23500
X14790Y27010
X13710Y30430
X12450Y30520
X9300Y29710
X7050Y29440
X16770Y30880
X17400Y30880
X17040Y29800
X18210Y30160
X18930Y15760
X14700Y7390
T02
X7550Y30350
X7550Y31350
X6800Y30850
T03
X1550Y31350
X1550Y30350
X2550Y30350
X2550Y31350
X3550Y31350
X3550Y30350
X4550Y30350
X4550Y31350
X5550Y31350
X5550Y30350
T04
X7566Y23344
X8550Y23344
X9534Y23344
X9534Y17594
X8550Y17594
X7566Y17594
X7566Y12094
X8550Y12094
X9534Y12094
X9534Y6594
X8550Y6594
X7566Y6594
X7566Y844
X8550Y844
X9534Y844
X4284Y844
X3300Y844
X2316Y844
X16316Y6594
X17300Y6594
X18284Y6594
X18284Y12094
X17300Y12094
X16316Y12094
X16316Y17594
X17300Y17594
X18284Y17594
X18284Y23344
X17300Y23344
X16316Y23344
T05
X1646Y26100
X1646Y20350
X1646Y14850
X1646Y9350
X15646Y3600
T06
X1528Y3600
X5072Y3600
X6778Y3600
X10322Y3600
X10322Y9350
X10322Y14850
X10322Y20350
X10322Y26100
X6778Y26100
X6778Y20350
X6778Y14850
X6778Y9350
X15528Y9350
X15528Y14850
X15528Y20350
X15528Y26100
X19072Y26100
X19072Y20350
X19072Y14850
X19072Y9350
T07
X3300Y7421
X4954Y9350
X3300Y10649
X3300Y12921
X4954Y14850
X3300Y16149
X3300Y18421
X4954Y20350
X3300Y21649
X3300Y24171
X4954Y26100
X3300Y27399
X17300Y4899
X18954Y3600
X17300Y1671
M30
