G75*
%MOIN*%
%OFA0B0*%
%FSLAX25Y25*%
%IPPOS*%
%LPD*%
%AMOC8*
5,1,8,0,0,1.08239X$1,22.5*
%
%ADD10C,0.00000*%
%ADD11R,0.05906X0.05118*%
%ADD12R,0.05118X0.05906*%
%ADD13R,0.02600X0.08000*%
%ADD14R,0.03937X0.01969*%
%ADD15R,0.01969X0.03937*%
%ADD16R,0.08661X0.02362*%
D10*
X0003000Y0001000D02*
X0003000Y0325961D01*
X0201701Y0325961D01*
X0201701Y0001000D01*
X0003000Y0001000D01*
D11*
X0058000Y0064760D03*
X0058000Y0072240D03*
X0058852Y0117260D03*
X0058852Y0124740D03*
X0059640Y0171962D03*
X0059640Y0179442D03*
X0058000Y0227260D03*
X0058000Y0234740D03*
X0050500Y0279760D03*
X0050500Y0287240D03*
X0013000Y0287240D03*
X0013000Y0279760D03*
X0093000Y0304760D03*
X0093000Y0312240D03*
X0105500Y0312240D03*
X0105500Y0304760D03*
X0118000Y0304760D03*
X0118000Y0312240D03*
X0130732Y0312293D03*
X0130732Y0304813D03*
X0135500Y0292240D03*
X0135500Y0284760D03*
X0190500Y0299760D03*
X0190500Y0307240D03*
X0145500Y0184740D03*
X0145500Y0177260D03*
X0120500Y0149740D03*
X0120500Y0142260D03*
X0103000Y0059740D03*
X0103000Y0052260D03*
X0171623Y0092797D03*
X0171623Y0100278D03*
D12*
X0169260Y0136000D03*
X0176740Y0136000D03*
X0176740Y0161000D03*
X0169260Y0161000D03*
X0169260Y0193500D03*
X0176740Y0193500D03*
X0176740Y0218500D03*
X0169260Y0218500D03*
X0131740Y0233500D03*
X0124260Y0233500D03*
X0121760Y0268500D03*
X0129240Y0268500D03*
X0114240Y0288500D03*
X0106760Y0288500D03*
X0089240Y0273500D03*
X0081760Y0273500D03*
X0074240Y0288500D03*
X0066760Y0288500D03*
X0081760Y0248500D03*
X0089240Y0248500D03*
X0119260Y0176000D03*
X0126740Y0176000D03*
X0122985Y0123503D03*
X0115505Y0123503D03*
X0141760Y0123500D03*
X0149240Y0123500D03*
X0131740Y0028500D03*
X0124260Y0028500D03*
D13*
X0148000Y0291400D03*
X0153000Y0291400D03*
X0158000Y0291400D03*
X0163000Y0291400D03*
X0168000Y0291400D03*
X0173000Y0291400D03*
X0178000Y0291400D03*
X0178000Y0315600D03*
X0173000Y0315600D03*
X0168000Y0315600D03*
X0163000Y0315600D03*
X0158000Y0315600D03*
X0153000Y0315600D03*
X0148000Y0315600D03*
D14*
X0140756Y0253500D03*
X0140756Y0248500D03*
X0115244Y0248500D03*
X0115244Y0253500D03*
D15*
X0125500Y0216256D03*
X0130500Y0216256D03*
X0130500Y0190744D03*
X0125500Y0190744D03*
X0135500Y0161256D03*
X0140500Y0161256D03*
X0140500Y0135744D03*
X0135500Y0135744D03*
X0130500Y0108756D03*
X0125500Y0108756D03*
X0125500Y0083244D03*
X0130500Y0083244D03*
D16*
X0138236Y0073500D03*
X0138236Y0068500D03*
X0138236Y0063500D03*
X0138236Y0058500D03*
X0138236Y0053500D03*
X0138236Y0048500D03*
X0138236Y0043500D03*
X0117764Y0043500D03*
X0117764Y0048500D03*
X0117764Y0053500D03*
X0117764Y0058500D03*
X0117764Y0063500D03*
X0117764Y0068500D03*
X0117764Y0073500D03*
M02*
