G75*
%MOIN*%
%OFA0B0*%
%FSLAX25Y25*%
%IPPOS*%
%LPD*%
%AMOC8*
5,1,8,0,0,1.08239X$1,22.5*
%
%ADD10C,0.00000*%
%ADD11C,0.01000*%
%ADD12C,0.00300*%
%ADD13C,0.00600*%
%ADD14C,0.00400*%
%ADD15C,0.00800*%
D10*
X0003000Y0001000D02*
X0003000Y0325961D01*
X0201701Y0325961D01*
X0201701Y0001000D01*
X0003000Y0001000D01*
D11*
X0120500Y0041000D02*
X0120500Y0076000D01*
X0123000Y0076000D01*
X0123000Y0041000D01*
X0120500Y0041000D01*
X0123000Y0041000D02*
X0135500Y0041000D01*
X0135500Y0076000D01*
X0123000Y0076000D01*
D12*
X0127746Y0055819D02*
X0127139Y0055213D01*
X0127139Y0053999D01*
X0127746Y0053393D01*
X0127746Y0052194D02*
X0127139Y0051588D01*
X0127139Y0050374D01*
X0127746Y0049767D01*
X0130173Y0049767D01*
X0130779Y0050374D01*
X0130779Y0051588D01*
X0130173Y0052194D01*
X0130173Y0053393D02*
X0130779Y0053999D01*
X0130779Y0055213D01*
X0130173Y0055819D01*
X0129566Y0055819D01*
X0128959Y0055213D01*
X0128353Y0055819D01*
X0127746Y0055819D01*
X0128959Y0055213D02*
X0128959Y0054606D01*
X0127139Y0048564D02*
X0127139Y0047351D01*
X0127139Y0047957D02*
X0130779Y0047957D01*
X0130779Y0047351D02*
X0130779Y0048564D01*
X0130020Y0022889D02*
X0129413Y0022282D01*
X0129413Y0021069D01*
X0130020Y0020462D01*
X0131840Y0020462D01*
X0131840Y0019249D02*
X0131840Y0022889D01*
X0130020Y0022889D01*
X0128214Y0021676D02*
X0127001Y0022889D01*
X0127001Y0019249D01*
X0128214Y0019249D02*
X0125788Y0019249D01*
X0124589Y0019855D02*
X0124589Y0021069D01*
X0122769Y0021069D01*
X0122163Y0020462D01*
X0122163Y0019855D01*
X0122769Y0019249D01*
X0123983Y0019249D01*
X0124589Y0019855D01*
X0124589Y0021069D02*
X0123376Y0022282D01*
X0122163Y0022889D01*
X0129413Y0019249D02*
X0130626Y0020462D01*
X0097853Y0051400D02*
X0097853Y0053220D01*
X0097246Y0053826D01*
X0096033Y0053826D01*
X0095426Y0053220D01*
X0095426Y0051400D01*
X0094213Y0051400D02*
X0097853Y0051400D01*
X0095426Y0052613D02*
X0094213Y0053826D01*
X0094820Y0055025D02*
X0094213Y0055632D01*
X0094213Y0056845D01*
X0094820Y0057452D01*
X0097246Y0057452D01*
X0097853Y0056845D01*
X0097853Y0055632D01*
X0097246Y0055025D01*
X0096640Y0055025D01*
X0096033Y0055632D01*
X0096033Y0057452D01*
X0061126Y0056847D02*
X0059306Y0056847D01*
X0058699Y0057454D01*
X0058699Y0058667D01*
X0059306Y0059274D01*
X0061126Y0059274D01*
X0061126Y0055634D01*
X0059913Y0056847D02*
X0058699Y0055634D01*
X0057501Y0057454D02*
X0055074Y0057454D01*
X0055681Y0055634D02*
X0055681Y0059274D01*
X0057501Y0057454D01*
X0056642Y0109769D02*
X0057248Y0110375D01*
X0056642Y0109769D02*
X0055428Y0109769D01*
X0054822Y0110375D01*
X0054822Y0110982D01*
X0055428Y0111589D01*
X0056035Y0111589D01*
X0055428Y0111589D02*
X0054822Y0112195D01*
X0054822Y0112802D01*
X0055428Y0113409D01*
X0056642Y0113409D01*
X0057248Y0112802D01*
X0058447Y0112802D02*
X0058447Y0111589D01*
X0059053Y0110982D01*
X0060873Y0110982D01*
X0059660Y0110982D02*
X0058447Y0109769D01*
X0058447Y0112802D02*
X0059053Y0113409D01*
X0060873Y0113409D01*
X0060873Y0109769D01*
X0053967Y0172026D02*
X0050327Y0172026D01*
X0051541Y0172026D02*
X0051541Y0173846D01*
X0052147Y0174453D01*
X0053361Y0174453D01*
X0053967Y0173846D01*
X0053967Y0172026D01*
X0051541Y0173239D02*
X0050327Y0174453D01*
X0050327Y0175651D02*
X0052754Y0178078D01*
X0053361Y0178078D01*
X0053967Y0177471D01*
X0053967Y0176258D01*
X0053361Y0175651D01*
X0050327Y0175651D02*
X0050327Y0178078D01*
X0063308Y0228986D02*
X0066948Y0228986D01*
X0066948Y0230806D01*
X0066341Y0231413D01*
X0065128Y0231413D01*
X0064521Y0230806D01*
X0064521Y0228986D01*
X0064521Y0230199D02*
X0063308Y0231413D01*
X0063308Y0232611D02*
X0063308Y0235038D01*
X0063308Y0233824D02*
X0066948Y0233824D01*
X0065735Y0232611D01*
X0081280Y0253650D02*
X0080673Y0254257D01*
X0080673Y0256683D01*
X0083100Y0254257D01*
X0082493Y0253650D01*
X0081280Y0253650D01*
X0083100Y0254257D02*
X0083100Y0256683D01*
X0082493Y0257290D01*
X0081280Y0257290D01*
X0080673Y0256683D01*
X0084298Y0253650D02*
X0086725Y0253650D01*
X0085512Y0253650D02*
X0085512Y0257290D01*
X0086725Y0256077D01*
X0087923Y0256683D02*
X0088530Y0257290D01*
X0089743Y0257290D01*
X0090350Y0256683D01*
X0090350Y0254257D01*
X0089743Y0253650D01*
X0088530Y0253650D01*
X0087923Y0254257D01*
X0088530Y0278650D02*
X0087923Y0279257D01*
X0088530Y0278650D02*
X0089743Y0278650D01*
X0090350Y0279257D01*
X0090350Y0281683D01*
X0089743Y0282290D01*
X0088530Y0282290D01*
X0087923Y0281683D01*
X0086725Y0281683D02*
X0086118Y0282290D01*
X0084905Y0282290D01*
X0084298Y0281683D01*
X0084298Y0281077D01*
X0086725Y0278650D01*
X0084298Y0278650D01*
X0082395Y0286543D02*
X0079968Y0286543D01*
X0079361Y0287150D01*
X0079361Y0288363D01*
X0079968Y0288970D01*
X0079361Y0290168D02*
X0079361Y0292595D01*
X0079361Y0291382D02*
X0083001Y0291382D01*
X0081788Y0290168D01*
X0082395Y0288970D02*
X0083001Y0288363D01*
X0083001Y0287150D01*
X0082395Y0286543D01*
X0092208Y0318264D02*
X0093421Y0318264D01*
X0094028Y0318871D01*
X0095227Y0318871D02*
X0095833Y0318264D01*
X0097047Y0318264D01*
X0097653Y0318871D01*
X0097653Y0321298D01*
X0097047Y0321904D01*
X0095833Y0321904D01*
X0095227Y0321298D01*
X0094028Y0321904D02*
X0094028Y0320084D01*
X0092815Y0320691D01*
X0092208Y0320691D01*
X0091601Y0320084D01*
X0091601Y0318871D01*
X0092208Y0318264D01*
X0091601Y0321904D02*
X0094028Y0321904D01*
X0103760Y0320439D02*
X0106186Y0320439D01*
X0104366Y0322259D01*
X0104366Y0318619D01*
X0107385Y0319226D02*
X0107991Y0318619D01*
X0109205Y0318619D01*
X0109811Y0319226D01*
X0109811Y0321652D01*
X0109205Y0322259D01*
X0107991Y0322259D01*
X0107385Y0321652D01*
X0116195Y0322531D02*
X0117408Y0321924D01*
X0118622Y0320711D01*
X0116802Y0320711D01*
X0116195Y0320104D01*
X0116195Y0319497D01*
X0116802Y0318891D01*
X0118015Y0318891D01*
X0118622Y0319497D01*
X0118622Y0320711D01*
X0119820Y0321924D02*
X0120427Y0322531D01*
X0121640Y0322531D01*
X0122247Y0321924D01*
X0122247Y0319497D01*
X0121640Y0318891D01*
X0120427Y0318891D01*
X0119820Y0319497D01*
X0128770Y0319430D02*
X0129377Y0318823D01*
X0130590Y0318823D01*
X0131197Y0319430D01*
X0131197Y0320037D01*
X0130590Y0320643D01*
X0129377Y0320643D01*
X0128770Y0320037D01*
X0128770Y0319430D01*
X0129377Y0320643D02*
X0128770Y0321250D01*
X0128770Y0321857D01*
X0129377Y0322463D01*
X0130590Y0322463D01*
X0131197Y0321857D01*
X0131197Y0321250D01*
X0130590Y0320643D01*
X0132395Y0319430D02*
X0133002Y0318823D01*
X0134215Y0318823D01*
X0134822Y0319430D01*
X0134822Y0321857D01*
X0134215Y0322463D01*
X0133002Y0322463D01*
X0132395Y0321857D01*
X0114039Y0296930D02*
X0114645Y0296323D01*
X0114645Y0293897D01*
X0114039Y0293290D01*
X0112825Y0293290D01*
X0112219Y0293897D01*
X0111020Y0293897D02*
X0111020Y0293290D01*
X0111020Y0293897D02*
X0108594Y0296323D01*
X0108594Y0296930D01*
X0111020Y0296930D01*
X0112219Y0296323D02*
X0112825Y0296930D01*
X0114039Y0296930D01*
X0112620Y0270959D02*
X0112620Y0268533D01*
X0112620Y0267334D02*
X0112620Y0264907D01*
X0112620Y0266121D02*
X0116260Y0266121D01*
X0115047Y0264907D01*
X0115653Y0263709D02*
X0116260Y0263102D01*
X0116260Y0261889D01*
X0115653Y0261282D01*
X0113227Y0261282D01*
X0112620Y0261889D01*
X0112620Y0263102D01*
X0113227Y0263709D01*
X0115047Y0268533D02*
X0116260Y0269746D01*
X0112620Y0269746D01*
X0123780Y0242290D02*
X0123173Y0241683D01*
X0123173Y0241077D01*
X0125600Y0238650D01*
X0123173Y0238650D01*
X0123780Y0242290D02*
X0124993Y0242290D01*
X0125600Y0241683D01*
X0126798Y0238650D02*
X0129225Y0238650D01*
X0128012Y0238650D02*
X0128012Y0242290D01*
X0129225Y0241077D01*
X0130423Y0241683D02*
X0131030Y0242290D01*
X0132243Y0242290D01*
X0132850Y0241683D01*
X0132850Y0239257D01*
X0132243Y0238650D01*
X0131030Y0238650D01*
X0130423Y0239257D01*
X0134597Y0275835D02*
X0135811Y0275835D01*
X0136417Y0276442D01*
X0136417Y0277655D02*
X0135204Y0278262D01*
X0134597Y0278262D01*
X0133990Y0277655D01*
X0133990Y0276442D01*
X0134597Y0275835D01*
X0136417Y0277655D02*
X0136417Y0279475D01*
X0133990Y0279475D01*
X0137616Y0278868D02*
X0137616Y0277655D01*
X0138222Y0277048D01*
X0140042Y0277048D01*
X0140042Y0275835D02*
X0140042Y0279475D01*
X0138222Y0279475D01*
X0137616Y0278868D01*
X0138829Y0277048D02*
X0137616Y0275835D01*
X0172155Y0213353D02*
X0171548Y0212746D01*
X0171548Y0212140D01*
X0172155Y0211533D01*
X0171548Y0210926D01*
X0171548Y0210320D01*
X0172155Y0209713D01*
X0173368Y0209713D01*
X0173975Y0210320D01*
X0175174Y0209713D02*
X0177600Y0209713D01*
X0178799Y0209713D02*
X0180012Y0210926D01*
X0179405Y0210926D02*
X0181225Y0210926D01*
X0181225Y0209713D02*
X0181225Y0213353D01*
X0179405Y0213353D01*
X0178799Y0212746D01*
X0178799Y0211533D01*
X0179405Y0210926D01*
X0177600Y0212140D02*
X0176387Y0213353D01*
X0176387Y0209713D01*
X0173975Y0212746D02*
X0173368Y0213353D01*
X0172155Y0213353D01*
X0172155Y0211533D02*
X0172762Y0211533D01*
X0173368Y0188353D02*
X0172155Y0188353D01*
X0171548Y0187746D01*
X0173975Y0185320D01*
X0173368Y0184713D01*
X0172155Y0184713D01*
X0171548Y0185320D01*
X0171548Y0187746D01*
X0173368Y0188353D02*
X0173975Y0187746D01*
X0173975Y0185320D01*
X0175174Y0184713D02*
X0177600Y0184713D01*
X0178799Y0184713D02*
X0180012Y0185926D01*
X0179405Y0185926D02*
X0181225Y0185926D01*
X0181225Y0184713D02*
X0181225Y0188353D01*
X0179405Y0188353D01*
X0178799Y0187746D01*
X0178799Y0186533D01*
X0179405Y0185926D01*
X0177600Y0187140D02*
X0176387Y0188353D01*
X0176387Y0184713D01*
X0177047Y0155853D02*
X0176440Y0155246D01*
X0176440Y0154033D01*
X0177047Y0153426D01*
X0178867Y0153426D01*
X0178867Y0152213D02*
X0178867Y0155853D01*
X0177047Y0155853D01*
X0175242Y0154640D02*
X0174028Y0155853D01*
X0174028Y0152213D01*
X0172815Y0152213D02*
X0175242Y0152213D01*
X0176440Y0152213D02*
X0177654Y0153426D01*
X0177336Y0145287D02*
X0175516Y0145287D01*
X0174909Y0144680D01*
X0174909Y0143467D01*
X0175516Y0142860D01*
X0177336Y0142860D01*
X0176123Y0142860D02*
X0174909Y0141647D01*
X0173711Y0141647D02*
X0171284Y0141647D01*
X0172498Y0141647D02*
X0172498Y0145287D01*
X0173711Y0144073D01*
X0170086Y0143467D02*
X0168873Y0144073D01*
X0168266Y0144073D01*
X0167659Y0143467D01*
X0167659Y0142253D01*
X0168266Y0141647D01*
X0169479Y0141647D01*
X0170086Y0142253D01*
X0170086Y0143467D02*
X0170086Y0145287D01*
X0167659Y0145287D01*
X0169797Y0152213D02*
X0169797Y0155853D01*
X0171617Y0154033D01*
X0169190Y0154033D01*
X0177336Y0145287D02*
X0177336Y0141647D01*
X0178188Y0109476D02*
X0176368Y0109476D01*
X0175761Y0108869D01*
X0175761Y0107656D01*
X0176368Y0107049D01*
X0178188Y0107049D01*
X0178188Y0105836D02*
X0178188Y0109476D01*
X0176975Y0107049D02*
X0175761Y0105836D01*
X0174563Y0105836D02*
X0172136Y0105836D01*
X0170938Y0105836D02*
X0168511Y0108262D01*
X0168511Y0108869D01*
X0169118Y0109476D01*
X0170331Y0109476D01*
X0170938Y0108869D01*
X0173349Y0109476D02*
X0173349Y0105836D01*
X0170938Y0105836D02*
X0168511Y0105836D01*
X0173349Y0109476D02*
X0174563Y0108262D01*
X0153725Y0114713D02*
X0153725Y0118353D01*
X0151905Y0118353D01*
X0151299Y0117746D01*
X0151299Y0116533D01*
X0151905Y0115926D01*
X0153725Y0115926D01*
X0152512Y0115926D02*
X0151299Y0114713D01*
X0150100Y0114713D02*
X0147674Y0114713D01*
X0146475Y0114713D02*
X0144048Y0114713D01*
X0145262Y0114713D02*
X0145262Y0118353D01*
X0146475Y0117140D01*
X0148887Y0118353D02*
X0148887Y0114713D01*
X0150100Y0117140D02*
X0148887Y0118353D01*
X0132847Y0118340D02*
X0132847Y0117126D01*
X0132240Y0116520D01*
X0129813Y0116520D01*
X0129207Y0117126D01*
X0129207Y0118340D01*
X0129813Y0118947D01*
X0129207Y0120145D02*
X0129207Y0122572D01*
X0129207Y0121358D02*
X0132847Y0121358D01*
X0131633Y0120145D01*
X0132240Y0118947D02*
X0132847Y0118340D01*
X0131027Y0123770D02*
X0131027Y0126197D01*
X0132847Y0125590D02*
X0131027Y0123770D01*
X0129207Y0125590D02*
X0132847Y0125590D01*
X0130184Y0141243D02*
X0126544Y0141243D01*
X0127758Y0141243D02*
X0127758Y0143063D01*
X0128364Y0143669D01*
X0129578Y0143669D01*
X0130184Y0143063D01*
X0130184Y0141243D01*
X0127758Y0142456D02*
X0126544Y0143669D01*
X0126544Y0144868D02*
X0127151Y0144868D01*
X0129578Y0147294D01*
X0130184Y0147294D01*
X0130184Y0144868D01*
X0128119Y0167213D02*
X0126905Y0167213D01*
X0126299Y0167820D01*
X0125100Y0167213D02*
X0122674Y0167213D01*
X0123887Y0167213D02*
X0123887Y0170853D01*
X0125100Y0169640D01*
X0126299Y0170246D02*
X0126905Y0170853D01*
X0128119Y0170853D01*
X0128725Y0170246D01*
X0128725Y0167820D01*
X0128119Y0167213D01*
X0135798Y0176315D02*
X0139438Y0176315D01*
X0139438Y0178135D01*
X0138831Y0178741D01*
X0137618Y0178741D01*
X0137011Y0178135D01*
X0137011Y0176315D01*
X0137011Y0177528D02*
X0135798Y0178741D01*
X0136404Y0179940D02*
X0135798Y0180546D01*
X0135798Y0181760D01*
X0136404Y0182366D01*
X0137011Y0182366D01*
X0137618Y0181760D01*
X0137618Y0180546D01*
X0138225Y0179940D01*
X0138831Y0179940D01*
X0139438Y0180546D01*
X0139438Y0181760D01*
X0138831Y0182366D01*
X0138225Y0182366D01*
X0137618Y0181760D01*
X0137618Y0180546D02*
X0137011Y0179940D01*
X0136404Y0179940D01*
X0121475Y0170246D02*
X0120868Y0170853D01*
X0119655Y0170853D01*
X0119048Y0170246D01*
X0119048Y0169640D01*
X0119655Y0169033D01*
X0119048Y0168426D01*
X0119048Y0167820D01*
X0119655Y0167213D01*
X0120868Y0167213D01*
X0121475Y0167820D01*
X0120262Y0169033D02*
X0119655Y0169033D01*
X0058683Y0278650D02*
X0056257Y0278650D01*
X0055650Y0279257D01*
X0055650Y0280470D01*
X0056257Y0281077D01*
X0056257Y0282275D02*
X0055650Y0282882D01*
X0055650Y0284095D01*
X0056257Y0284702D01*
X0058683Y0284702D01*
X0059290Y0284095D01*
X0059290Y0282882D01*
X0058683Y0282275D01*
X0058077Y0282275D01*
X0057470Y0282882D01*
X0057470Y0284702D01*
X0058683Y0281077D02*
X0059290Y0280470D01*
X0059290Y0279257D01*
X0058683Y0278650D01*
X0021790Y0279257D02*
X0021183Y0278650D01*
X0018757Y0278650D01*
X0018150Y0279257D01*
X0018150Y0280470D01*
X0018757Y0281077D01*
X0018757Y0282275D02*
X0018150Y0282882D01*
X0018150Y0284095D01*
X0018757Y0284702D01*
X0019363Y0284702D01*
X0019970Y0284095D01*
X0019970Y0283488D01*
X0019970Y0284095D02*
X0020577Y0284702D01*
X0021183Y0284702D01*
X0021790Y0284095D01*
X0021790Y0282882D01*
X0021183Y0282275D01*
X0021183Y0281077D02*
X0021790Y0280470D01*
X0021790Y0279257D01*
X0188710Y0310998D02*
X0188710Y0311605D01*
X0189317Y0312212D01*
X0191137Y0312212D01*
X0191137Y0310998D01*
X0190530Y0310392D01*
X0189317Y0310392D01*
X0188710Y0310998D01*
X0189923Y0313425D02*
X0191137Y0312212D01*
X0192335Y0312212D02*
X0192942Y0311605D01*
X0194762Y0311605D01*
X0194762Y0310392D02*
X0194762Y0314032D01*
X0192942Y0314032D01*
X0192335Y0313425D01*
X0192335Y0312212D01*
X0193549Y0311605D02*
X0192335Y0310392D01*
X0189923Y0313425D02*
X0188710Y0314032D01*
D13*
X0180500Y0309800D02*
X0145500Y0309800D01*
X0145500Y0309700D02*
X0145500Y0305500D01*
X0145500Y0301500D01*
X0145500Y0297300D01*
X0145502Y0297224D01*
X0145508Y0297148D01*
X0145517Y0297073D01*
X0145531Y0296998D01*
X0145548Y0296924D01*
X0145569Y0296851D01*
X0145593Y0296779D01*
X0145622Y0296708D01*
X0145653Y0296639D01*
X0145688Y0296572D01*
X0145727Y0296507D01*
X0145769Y0296443D01*
X0145814Y0296382D01*
X0145862Y0296323D01*
X0145913Y0296267D01*
X0145967Y0296213D01*
X0146023Y0296162D01*
X0146082Y0296114D01*
X0146143Y0296069D01*
X0146207Y0296027D01*
X0146272Y0295988D01*
X0146339Y0295953D01*
X0146408Y0295922D01*
X0146479Y0295893D01*
X0146551Y0295869D01*
X0146624Y0295848D01*
X0146698Y0295831D01*
X0146773Y0295817D01*
X0146848Y0295808D01*
X0146924Y0295802D01*
X0147000Y0295800D01*
X0179000Y0295800D01*
X0179076Y0295802D01*
X0179152Y0295808D01*
X0179227Y0295817D01*
X0179302Y0295831D01*
X0179376Y0295848D01*
X0179449Y0295869D01*
X0179521Y0295893D01*
X0179592Y0295922D01*
X0179661Y0295953D01*
X0179728Y0295988D01*
X0179793Y0296027D01*
X0179857Y0296069D01*
X0179918Y0296114D01*
X0179977Y0296162D01*
X0180033Y0296213D01*
X0180087Y0296267D01*
X0180138Y0296323D01*
X0180186Y0296382D01*
X0180231Y0296443D01*
X0180273Y0296507D01*
X0180312Y0296572D01*
X0180347Y0296639D01*
X0180378Y0296708D01*
X0180407Y0296779D01*
X0180431Y0296851D01*
X0180452Y0296924D01*
X0180469Y0296998D01*
X0180483Y0297073D01*
X0180492Y0297148D01*
X0180498Y0297224D01*
X0180500Y0297300D01*
X0180500Y0309700D01*
X0180498Y0309776D01*
X0180492Y0309852D01*
X0180483Y0309927D01*
X0180469Y0310002D01*
X0180452Y0310076D01*
X0180431Y0310149D01*
X0180407Y0310221D01*
X0180378Y0310292D01*
X0180347Y0310361D01*
X0180312Y0310428D01*
X0180273Y0310493D01*
X0180231Y0310557D01*
X0180186Y0310618D01*
X0180138Y0310677D01*
X0180087Y0310733D01*
X0180033Y0310787D01*
X0179977Y0310838D01*
X0179918Y0310886D01*
X0179857Y0310931D01*
X0179793Y0310973D01*
X0179728Y0311012D01*
X0179661Y0311047D01*
X0179592Y0311078D01*
X0179521Y0311107D01*
X0179449Y0311131D01*
X0179376Y0311152D01*
X0179302Y0311169D01*
X0179227Y0311183D01*
X0179152Y0311192D01*
X0179076Y0311198D01*
X0179000Y0311200D01*
X0147000Y0311200D01*
X0146924Y0311198D01*
X0146848Y0311192D01*
X0146773Y0311183D01*
X0146698Y0311169D01*
X0146624Y0311152D01*
X0146551Y0311131D01*
X0146479Y0311107D01*
X0146408Y0311078D01*
X0146339Y0311047D01*
X0146272Y0311012D01*
X0146207Y0310973D01*
X0146143Y0310931D01*
X0146082Y0310886D01*
X0146023Y0310838D01*
X0145967Y0310787D01*
X0145913Y0310733D01*
X0145862Y0310677D01*
X0145814Y0310618D01*
X0145769Y0310557D01*
X0145727Y0310493D01*
X0145688Y0310428D01*
X0145653Y0310361D01*
X0145622Y0310292D01*
X0145593Y0310221D01*
X0145569Y0310149D01*
X0145548Y0310076D01*
X0145531Y0310002D01*
X0145517Y0309927D01*
X0145508Y0309852D01*
X0145502Y0309776D01*
X0145500Y0309700D01*
X0145500Y0305500D02*
X0145588Y0305498D01*
X0145677Y0305492D01*
X0145765Y0305482D01*
X0145852Y0305469D01*
X0145939Y0305451D01*
X0146025Y0305430D01*
X0146110Y0305405D01*
X0146193Y0305376D01*
X0146276Y0305343D01*
X0146356Y0305307D01*
X0146435Y0305268D01*
X0146513Y0305225D01*
X0146588Y0305178D01*
X0146661Y0305128D01*
X0146732Y0305075D01*
X0146801Y0305019D01*
X0146867Y0304960D01*
X0146930Y0304898D01*
X0146990Y0304834D01*
X0147048Y0304767D01*
X0147102Y0304697D01*
X0147154Y0304625D01*
X0147202Y0304551D01*
X0147247Y0304474D01*
X0147288Y0304396D01*
X0147326Y0304316D01*
X0147360Y0304235D01*
X0147391Y0304152D01*
X0147418Y0304067D01*
X0147441Y0303982D01*
X0147460Y0303896D01*
X0147476Y0303808D01*
X0147488Y0303721D01*
X0147496Y0303633D01*
X0147500Y0303544D01*
X0147500Y0303456D01*
X0147496Y0303367D01*
X0147488Y0303279D01*
X0147476Y0303192D01*
X0147460Y0303104D01*
X0147441Y0303018D01*
X0147418Y0302933D01*
X0147391Y0302848D01*
X0147360Y0302765D01*
X0147326Y0302684D01*
X0147288Y0302604D01*
X0147247Y0302526D01*
X0147202Y0302449D01*
X0147154Y0302375D01*
X0147102Y0302303D01*
X0147048Y0302233D01*
X0146990Y0302166D01*
X0146930Y0302102D01*
X0146867Y0302040D01*
X0146801Y0301981D01*
X0146732Y0301925D01*
X0146661Y0301872D01*
X0146588Y0301822D01*
X0146513Y0301775D01*
X0146435Y0301732D01*
X0146356Y0301693D01*
X0146276Y0301657D01*
X0146193Y0301624D01*
X0146110Y0301595D01*
X0146025Y0301570D01*
X0145939Y0301549D01*
X0145852Y0301531D01*
X0145765Y0301518D01*
X0145677Y0301508D01*
X0145588Y0301502D01*
X0145500Y0301500D01*
D14*
X0172958Y0301613D02*
X0173548Y0302203D01*
X0172958Y0301613D02*
X0172958Y0300433D01*
X0173548Y0299843D01*
X0175908Y0299843D01*
X0176498Y0300433D01*
X0176498Y0301613D01*
X0175908Y0302203D01*
X0175908Y0303468D02*
X0176498Y0304058D01*
X0176498Y0305238D01*
X0175908Y0305828D01*
X0175318Y0305828D01*
X0172958Y0303468D01*
X0172958Y0305828D01*
X0172958Y0298606D02*
X0172958Y0297426D01*
X0172958Y0298016D02*
X0176498Y0298016D01*
X0176498Y0297426D02*
X0176498Y0298606D01*
X0121622Y0249606D02*
X0121624Y0249678D01*
X0121630Y0249750D01*
X0121640Y0249821D01*
X0121653Y0249892D01*
X0121671Y0249962D01*
X0121692Y0250031D01*
X0121717Y0250098D01*
X0121746Y0250164D01*
X0121778Y0250229D01*
X0121814Y0250291D01*
X0121853Y0250352D01*
X0121895Y0250410D01*
X0121941Y0250466D01*
X0121989Y0250519D01*
X0122041Y0250570D01*
X0122095Y0250618D01*
X0122151Y0250662D01*
X0122210Y0250704D01*
X0122271Y0250742D01*
X0122334Y0250777D01*
X0122399Y0250809D01*
X0122466Y0250836D01*
X0122533Y0250860D01*
X0122603Y0250881D01*
X0122673Y0250897D01*
X0122744Y0250910D01*
X0122815Y0250919D01*
X0122887Y0250924D01*
X0122959Y0250925D01*
X0123031Y0250922D01*
X0123103Y0250915D01*
X0123174Y0250904D01*
X0123245Y0250890D01*
X0123314Y0250871D01*
X0123383Y0250849D01*
X0123450Y0250823D01*
X0123516Y0250793D01*
X0123580Y0250760D01*
X0123642Y0250724D01*
X0123702Y0250684D01*
X0123759Y0250640D01*
X0123815Y0250594D01*
X0123867Y0250545D01*
X0123917Y0250493D01*
X0123964Y0250438D01*
X0124008Y0250381D01*
X0124049Y0250322D01*
X0124086Y0250260D01*
X0124120Y0250197D01*
X0124151Y0250131D01*
X0124178Y0250065D01*
X0124201Y0249996D01*
X0124220Y0249927D01*
X0124236Y0249857D01*
X0124248Y0249786D01*
X0124256Y0249714D01*
X0124260Y0249642D01*
X0124260Y0249570D01*
X0124256Y0249498D01*
X0124248Y0249426D01*
X0124236Y0249355D01*
X0124220Y0249285D01*
X0124201Y0249216D01*
X0124178Y0249147D01*
X0124151Y0249081D01*
X0124120Y0249015D01*
X0124086Y0248952D01*
X0124049Y0248890D01*
X0124008Y0248831D01*
X0123964Y0248774D01*
X0123917Y0248719D01*
X0123867Y0248667D01*
X0123815Y0248618D01*
X0123759Y0248572D01*
X0123702Y0248528D01*
X0123642Y0248488D01*
X0123580Y0248452D01*
X0123516Y0248419D01*
X0123450Y0248389D01*
X0123383Y0248363D01*
X0123314Y0248341D01*
X0123245Y0248322D01*
X0123174Y0248308D01*
X0123103Y0248297D01*
X0123031Y0248290D01*
X0122959Y0248287D01*
X0122887Y0248288D01*
X0122815Y0248293D01*
X0122744Y0248302D01*
X0122673Y0248315D01*
X0122603Y0248331D01*
X0122533Y0248352D01*
X0122466Y0248376D01*
X0122399Y0248403D01*
X0122334Y0248435D01*
X0122271Y0248470D01*
X0122210Y0248508D01*
X0122151Y0248550D01*
X0122095Y0248594D01*
X0122041Y0248642D01*
X0121989Y0248693D01*
X0121941Y0248746D01*
X0121895Y0248802D01*
X0121853Y0248860D01*
X0121814Y0248921D01*
X0121778Y0248983D01*
X0121746Y0249048D01*
X0121717Y0249114D01*
X0121692Y0249181D01*
X0121671Y0249250D01*
X0121653Y0249320D01*
X0121640Y0249391D01*
X0121630Y0249462D01*
X0121624Y0249534D01*
X0121622Y0249606D01*
X0128075Y0198441D02*
X0128077Y0198513D01*
X0128083Y0198585D01*
X0128093Y0198656D01*
X0128106Y0198727D01*
X0128124Y0198797D01*
X0128145Y0198866D01*
X0128170Y0198933D01*
X0128199Y0198999D01*
X0128231Y0199064D01*
X0128267Y0199126D01*
X0128306Y0199187D01*
X0128348Y0199245D01*
X0128394Y0199301D01*
X0128442Y0199354D01*
X0128494Y0199405D01*
X0128548Y0199453D01*
X0128604Y0199497D01*
X0128663Y0199539D01*
X0128724Y0199577D01*
X0128787Y0199612D01*
X0128852Y0199644D01*
X0128919Y0199671D01*
X0128986Y0199695D01*
X0129056Y0199716D01*
X0129126Y0199732D01*
X0129197Y0199745D01*
X0129268Y0199754D01*
X0129340Y0199759D01*
X0129412Y0199760D01*
X0129484Y0199757D01*
X0129556Y0199750D01*
X0129627Y0199739D01*
X0129698Y0199725D01*
X0129767Y0199706D01*
X0129836Y0199684D01*
X0129903Y0199658D01*
X0129969Y0199628D01*
X0130033Y0199595D01*
X0130095Y0199559D01*
X0130155Y0199519D01*
X0130212Y0199475D01*
X0130268Y0199429D01*
X0130320Y0199380D01*
X0130370Y0199328D01*
X0130417Y0199273D01*
X0130461Y0199216D01*
X0130502Y0199157D01*
X0130539Y0199095D01*
X0130573Y0199032D01*
X0130604Y0198966D01*
X0130631Y0198900D01*
X0130654Y0198831D01*
X0130673Y0198762D01*
X0130689Y0198692D01*
X0130701Y0198621D01*
X0130709Y0198549D01*
X0130713Y0198477D01*
X0130713Y0198405D01*
X0130709Y0198333D01*
X0130701Y0198261D01*
X0130689Y0198190D01*
X0130673Y0198120D01*
X0130654Y0198051D01*
X0130631Y0197982D01*
X0130604Y0197916D01*
X0130573Y0197850D01*
X0130539Y0197787D01*
X0130502Y0197725D01*
X0130461Y0197666D01*
X0130417Y0197609D01*
X0130370Y0197554D01*
X0130320Y0197502D01*
X0130268Y0197453D01*
X0130212Y0197407D01*
X0130155Y0197363D01*
X0130095Y0197323D01*
X0130033Y0197287D01*
X0129969Y0197254D01*
X0129903Y0197224D01*
X0129836Y0197198D01*
X0129767Y0197176D01*
X0129698Y0197157D01*
X0129627Y0197143D01*
X0129556Y0197132D01*
X0129484Y0197125D01*
X0129412Y0197122D01*
X0129340Y0197123D01*
X0129268Y0197128D01*
X0129197Y0197137D01*
X0129126Y0197150D01*
X0129056Y0197166D01*
X0128986Y0197187D01*
X0128919Y0197211D01*
X0128852Y0197238D01*
X0128787Y0197270D01*
X0128724Y0197305D01*
X0128663Y0197343D01*
X0128604Y0197385D01*
X0128548Y0197429D01*
X0128494Y0197477D01*
X0128442Y0197528D01*
X0128394Y0197581D01*
X0128348Y0197637D01*
X0128306Y0197695D01*
X0128267Y0197756D01*
X0128231Y0197818D01*
X0128199Y0197883D01*
X0128170Y0197949D01*
X0128145Y0198016D01*
X0128124Y0198085D01*
X0128106Y0198155D01*
X0128093Y0198226D01*
X0128083Y0198297D01*
X0128077Y0198369D01*
X0128075Y0198441D01*
X0138075Y0143441D02*
X0138077Y0143513D01*
X0138083Y0143585D01*
X0138093Y0143656D01*
X0138106Y0143727D01*
X0138124Y0143797D01*
X0138145Y0143866D01*
X0138170Y0143933D01*
X0138199Y0143999D01*
X0138231Y0144064D01*
X0138267Y0144126D01*
X0138306Y0144187D01*
X0138348Y0144245D01*
X0138394Y0144301D01*
X0138442Y0144354D01*
X0138494Y0144405D01*
X0138548Y0144453D01*
X0138604Y0144497D01*
X0138663Y0144539D01*
X0138724Y0144577D01*
X0138787Y0144612D01*
X0138852Y0144644D01*
X0138919Y0144671D01*
X0138986Y0144695D01*
X0139056Y0144716D01*
X0139126Y0144732D01*
X0139197Y0144745D01*
X0139268Y0144754D01*
X0139340Y0144759D01*
X0139412Y0144760D01*
X0139484Y0144757D01*
X0139556Y0144750D01*
X0139627Y0144739D01*
X0139698Y0144725D01*
X0139767Y0144706D01*
X0139836Y0144684D01*
X0139903Y0144658D01*
X0139969Y0144628D01*
X0140033Y0144595D01*
X0140095Y0144559D01*
X0140155Y0144519D01*
X0140212Y0144475D01*
X0140268Y0144429D01*
X0140320Y0144380D01*
X0140370Y0144328D01*
X0140417Y0144273D01*
X0140461Y0144216D01*
X0140502Y0144157D01*
X0140539Y0144095D01*
X0140573Y0144032D01*
X0140604Y0143966D01*
X0140631Y0143900D01*
X0140654Y0143831D01*
X0140673Y0143762D01*
X0140689Y0143692D01*
X0140701Y0143621D01*
X0140709Y0143549D01*
X0140713Y0143477D01*
X0140713Y0143405D01*
X0140709Y0143333D01*
X0140701Y0143261D01*
X0140689Y0143190D01*
X0140673Y0143120D01*
X0140654Y0143051D01*
X0140631Y0142982D01*
X0140604Y0142916D01*
X0140573Y0142850D01*
X0140539Y0142787D01*
X0140502Y0142725D01*
X0140461Y0142666D01*
X0140417Y0142609D01*
X0140370Y0142554D01*
X0140320Y0142502D01*
X0140268Y0142453D01*
X0140212Y0142407D01*
X0140155Y0142363D01*
X0140095Y0142323D01*
X0140033Y0142287D01*
X0139969Y0142254D01*
X0139903Y0142224D01*
X0139836Y0142198D01*
X0139767Y0142176D01*
X0139698Y0142157D01*
X0139627Y0142143D01*
X0139556Y0142132D01*
X0139484Y0142125D01*
X0139412Y0142122D01*
X0139340Y0142123D01*
X0139268Y0142128D01*
X0139197Y0142137D01*
X0139126Y0142150D01*
X0139056Y0142166D01*
X0138986Y0142187D01*
X0138919Y0142211D01*
X0138852Y0142238D01*
X0138787Y0142270D01*
X0138724Y0142305D01*
X0138663Y0142343D01*
X0138604Y0142385D01*
X0138548Y0142429D01*
X0138494Y0142477D01*
X0138442Y0142528D01*
X0138394Y0142581D01*
X0138348Y0142637D01*
X0138306Y0142695D01*
X0138267Y0142756D01*
X0138231Y0142818D01*
X0138199Y0142883D01*
X0138170Y0142949D01*
X0138145Y0143016D01*
X0138124Y0143085D01*
X0138106Y0143155D01*
X0138093Y0143226D01*
X0138083Y0143297D01*
X0138077Y0143369D01*
X0138075Y0143441D01*
X0128075Y0090941D02*
X0128077Y0091013D01*
X0128083Y0091085D01*
X0128093Y0091156D01*
X0128106Y0091227D01*
X0128124Y0091297D01*
X0128145Y0091366D01*
X0128170Y0091433D01*
X0128199Y0091499D01*
X0128231Y0091564D01*
X0128267Y0091626D01*
X0128306Y0091687D01*
X0128348Y0091745D01*
X0128394Y0091801D01*
X0128442Y0091854D01*
X0128494Y0091905D01*
X0128548Y0091953D01*
X0128604Y0091997D01*
X0128663Y0092039D01*
X0128724Y0092077D01*
X0128787Y0092112D01*
X0128852Y0092144D01*
X0128919Y0092171D01*
X0128986Y0092195D01*
X0129056Y0092216D01*
X0129126Y0092232D01*
X0129197Y0092245D01*
X0129268Y0092254D01*
X0129340Y0092259D01*
X0129412Y0092260D01*
X0129484Y0092257D01*
X0129556Y0092250D01*
X0129627Y0092239D01*
X0129698Y0092225D01*
X0129767Y0092206D01*
X0129836Y0092184D01*
X0129903Y0092158D01*
X0129969Y0092128D01*
X0130033Y0092095D01*
X0130095Y0092059D01*
X0130155Y0092019D01*
X0130212Y0091975D01*
X0130268Y0091929D01*
X0130320Y0091880D01*
X0130370Y0091828D01*
X0130417Y0091773D01*
X0130461Y0091716D01*
X0130502Y0091657D01*
X0130539Y0091595D01*
X0130573Y0091532D01*
X0130604Y0091466D01*
X0130631Y0091400D01*
X0130654Y0091331D01*
X0130673Y0091262D01*
X0130689Y0091192D01*
X0130701Y0091121D01*
X0130709Y0091049D01*
X0130713Y0090977D01*
X0130713Y0090905D01*
X0130709Y0090833D01*
X0130701Y0090761D01*
X0130689Y0090690D01*
X0130673Y0090620D01*
X0130654Y0090551D01*
X0130631Y0090482D01*
X0130604Y0090416D01*
X0130573Y0090350D01*
X0130539Y0090287D01*
X0130502Y0090225D01*
X0130461Y0090166D01*
X0130417Y0090109D01*
X0130370Y0090054D01*
X0130320Y0090002D01*
X0130268Y0089953D01*
X0130212Y0089907D01*
X0130155Y0089863D01*
X0130095Y0089823D01*
X0130033Y0089787D01*
X0129969Y0089754D01*
X0129903Y0089724D01*
X0129836Y0089698D01*
X0129767Y0089676D01*
X0129698Y0089657D01*
X0129627Y0089643D01*
X0129556Y0089632D01*
X0129484Y0089625D01*
X0129412Y0089622D01*
X0129340Y0089623D01*
X0129268Y0089628D01*
X0129197Y0089637D01*
X0129126Y0089650D01*
X0129056Y0089666D01*
X0128986Y0089687D01*
X0128919Y0089711D01*
X0128852Y0089738D01*
X0128787Y0089770D01*
X0128724Y0089805D01*
X0128663Y0089843D01*
X0128604Y0089885D01*
X0128548Y0089929D01*
X0128494Y0089977D01*
X0128442Y0090028D01*
X0128394Y0090081D01*
X0128348Y0090137D01*
X0128306Y0090195D01*
X0128267Y0090256D01*
X0128231Y0090318D01*
X0128199Y0090383D01*
X0128170Y0090449D01*
X0128145Y0090516D01*
X0128124Y0090585D01*
X0128106Y0090655D01*
X0128093Y0090726D01*
X0128083Y0090797D01*
X0128077Y0090869D01*
X0128075Y0090941D01*
D15*
X0132600Y0087792D02*
X0123400Y0087792D01*
X0123400Y0104208D01*
X0132600Y0104208D01*
X0132600Y0087792D01*
X0133400Y0140292D02*
X0142600Y0140292D01*
X0142600Y0156708D01*
X0133400Y0156708D01*
X0133400Y0140292D01*
X0132600Y0195292D02*
X0123400Y0195292D01*
X0123400Y0211708D01*
X0132600Y0211708D01*
X0132600Y0195292D01*
X0136208Y0246400D02*
X0119792Y0246400D01*
X0119792Y0255600D01*
X0136208Y0255600D01*
X0136208Y0246400D01*
M02*
