G75*
%MOIN*%
%OFA0B0*%
%FSLAX25Y25*%
%IPPOS*%
%LPD*%
%AMOC8*
5,1,8,0,0,1.08239X$1,22.5*
%
%ADD10C,0.00000*%
%ADD11R,0.05906X0.05118*%
%ADD12R,0.05118X0.05906*%
%ADD13R,0.02600X0.08000*%
%ADD14OC8,0.05200*%
%ADD15C,0.13843*%
%ADD16C,0.08858*%
%ADD17R,0.03937X0.01969*%
%ADD18R,0.01969X0.03937*%
%ADD19OC8,0.07400*%
%ADD20R,0.06496X0.06496*%
%ADD21OC8,0.06496*%
%ADD22C,0.12268*%
%ADD23R,0.08661X0.02362*%
%ADD24C,0.01000*%
%ADD25C,0.04000*%
D10*
X0003000Y0001000D02*
X0003000Y0325961D01*
X0201701Y0325961D01*
X0201701Y0001000D01*
X0003000Y0001000D01*
D11*
X0058000Y0064760D03*
X0058000Y0072240D03*
X0058852Y0117260D03*
X0058852Y0124740D03*
X0059640Y0171962D03*
X0059640Y0179442D03*
X0058000Y0227260D03*
X0058000Y0234740D03*
X0050500Y0279760D03*
X0050500Y0287240D03*
X0013000Y0287240D03*
X0013000Y0279760D03*
X0093000Y0304760D03*
X0093000Y0312240D03*
X0105500Y0312240D03*
X0105500Y0304760D03*
X0118000Y0304760D03*
X0118000Y0312240D03*
X0130732Y0312293D03*
X0130732Y0304813D03*
X0135500Y0292240D03*
X0135500Y0284760D03*
X0190500Y0299760D03*
X0190500Y0307240D03*
X0145500Y0184740D03*
X0145500Y0177260D03*
X0120500Y0149740D03*
X0120500Y0142260D03*
X0103000Y0059740D03*
X0103000Y0052260D03*
X0171623Y0092797D03*
X0171623Y0100278D03*
D12*
X0169260Y0136000D03*
X0176740Y0136000D03*
X0176740Y0161000D03*
X0169260Y0161000D03*
X0169260Y0193500D03*
X0176740Y0193500D03*
X0176740Y0218500D03*
X0169260Y0218500D03*
X0131740Y0233500D03*
X0124260Y0233500D03*
X0121760Y0268500D03*
X0129240Y0268500D03*
X0114240Y0288500D03*
X0106760Y0288500D03*
X0089240Y0273500D03*
X0081760Y0273500D03*
X0074240Y0288500D03*
X0066760Y0288500D03*
X0081760Y0248500D03*
X0089240Y0248500D03*
X0119260Y0176000D03*
X0126740Y0176000D03*
X0122985Y0123503D03*
X0115505Y0123503D03*
X0141760Y0123500D03*
X0149240Y0123500D03*
X0131740Y0028500D03*
X0124260Y0028500D03*
D13*
X0148000Y0291400D03*
X0153000Y0291400D03*
X0158000Y0291400D03*
X0163000Y0291400D03*
X0168000Y0291400D03*
X0173000Y0291400D03*
X0178000Y0291400D03*
X0178000Y0315600D03*
X0173000Y0315600D03*
X0168000Y0315600D03*
X0163000Y0315600D03*
X0158000Y0315600D03*
X0153000Y0315600D03*
X0148000Y0315600D03*
D14*
X0075500Y0313500D03*
X0075500Y0303500D03*
X0068000Y0308500D03*
D15*
X0049535Y0261000D03*
X0033000Y0273992D03*
X0033000Y0241709D03*
X0033000Y0216492D03*
X0049535Y0203500D03*
X0033000Y0184209D03*
X0033000Y0161492D03*
X0049535Y0148500D03*
X0033000Y0129209D03*
X0033000Y0106492D03*
X0049535Y0093500D03*
X0033000Y0074209D03*
X0173000Y0048992D03*
X0189535Y0036000D03*
X0173000Y0016709D03*
D16*
X0156465Y0036000D03*
X0016465Y0093500D03*
X0016465Y0148500D03*
X0016465Y0203500D03*
X0016465Y0261000D03*
D17*
X0115244Y0253500D03*
X0115244Y0248500D03*
X0140756Y0248500D03*
X0140756Y0253500D03*
D18*
X0130500Y0216256D03*
X0125500Y0216256D03*
X0125500Y0190744D03*
X0130500Y0190744D03*
X0135500Y0161256D03*
X0140500Y0161256D03*
X0140500Y0135744D03*
X0135500Y0135744D03*
X0130500Y0108756D03*
X0125500Y0108756D03*
X0125500Y0083244D03*
X0130500Y0083244D03*
D19*
X0055500Y0303500D03*
X0055500Y0313500D03*
X0045500Y0313500D03*
X0045500Y0303500D03*
X0035500Y0303500D03*
X0035500Y0313500D03*
X0025500Y0313500D03*
X0025500Y0303500D03*
X0015500Y0303500D03*
X0015500Y0313500D03*
D20*
X0075657Y0233441D03*
X0075657Y0175941D03*
X0075657Y0120941D03*
X0075657Y0065941D03*
X0075657Y0008441D03*
X0023157Y0008441D03*
X0163157Y0065941D03*
X0163157Y0120941D03*
X0163157Y0175941D03*
X0163157Y0233441D03*
D21*
X0173000Y0233441D03*
X0182843Y0233441D03*
X0182843Y0175941D03*
X0173000Y0175941D03*
X0173000Y0120941D03*
X0182843Y0120941D03*
X0182843Y0065941D03*
X0173000Y0065941D03*
X0095343Y0065941D03*
X0085500Y0065941D03*
X0085500Y0120941D03*
X0095343Y0120941D03*
X0095343Y0175941D03*
X0085500Y0175941D03*
X0085500Y0233441D03*
X0095343Y0233441D03*
X0095343Y0008441D03*
X0085500Y0008441D03*
X0042843Y0008441D03*
X0033000Y0008441D03*
D22*
X0015283Y0036000D03*
X0050717Y0036000D03*
X0067783Y0036000D03*
X0103217Y0036000D03*
X0103217Y0093500D03*
X0103217Y0148500D03*
X0103217Y0203500D03*
X0103217Y0261000D03*
X0067783Y0261000D03*
X0067783Y0203500D03*
X0067783Y0148500D03*
X0067783Y0093500D03*
X0155283Y0093500D03*
X0155283Y0148500D03*
X0155283Y0203500D03*
X0155283Y0261000D03*
X0190717Y0261000D03*
X0190717Y0203500D03*
X0190717Y0148500D03*
X0190717Y0093500D03*
D23*
X0138236Y0073500D03*
X0138236Y0068500D03*
X0138236Y0063500D03*
X0138236Y0058500D03*
X0138236Y0053500D03*
X0138236Y0048500D03*
X0138236Y0043500D03*
X0117764Y0043500D03*
X0117764Y0048500D03*
X0117764Y0053500D03*
X0117764Y0058500D03*
X0117764Y0063500D03*
X0117764Y0068500D03*
X0117764Y0073500D03*
D24*
X0117300Y0073900D01*
X0117300Y0092800D01*
X0114600Y0095500D01*
X0122700Y0098200D02*
X0129900Y0091000D01*
X0129900Y0083800D01*
X0130500Y0083244D01*
X0130800Y0078400D02*
X0135300Y0073900D01*
X0138000Y0073900D01*
X0138236Y0073500D01*
X0138236Y0068500D02*
X0141600Y0068500D01*
X0147000Y0073900D01*
X0150600Y0075700D02*
X0150600Y0068500D01*
X0140700Y0058600D01*
X0138900Y0058600D01*
X0138236Y0058500D01*
X0138000Y0063100D02*
X0138236Y0063500D01*
X0138000Y0063100D02*
X0135300Y0063100D01*
X0133500Y0061300D01*
X0125400Y0069400D01*
X0125400Y0082900D01*
X0125500Y0083244D01*
X0125400Y0083800D01*
X0125400Y0090100D01*
X0099300Y0116200D01*
X0080400Y0116200D01*
X0075900Y0120700D01*
X0075657Y0120941D01*
X0071400Y0125200D02*
X0072300Y0126100D01*
X0090300Y0126100D01*
X0094800Y0121600D01*
X0095343Y0120941D01*
X0109200Y0118900D02*
X0109200Y0143200D01*
X0114600Y0148600D01*
X0114600Y0179200D01*
X0116400Y0181000D01*
X0141600Y0181000D01*
X0145200Y0177400D01*
X0145500Y0177260D01*
X0145500Y0184740D02*
X0145200Y0185500D01*
X0145200Y0187300D01*
X0141600Y0190900D01*
X0143400Y0194500D02*
X0129000Y0194500D01*
X0125400Y0190900D01*
X0125500Y0190744D01*
X0125400Y0190000D01*
X0116400Y0190000D01*
X0097500Y0171100D01*
X0093000Y0171100D01*
X0090300Y0173800D01*
X0090300Y0178300D01*
X0087600Y0181000D01*
X0080400Y0181000D01*
X0075900Y0176500D01*
X0075657Y0175941D01*
X0071400Y0180100D02*
X0074100Y0182800D01*
X0088500Y0182800D01*
X0094800Y0176500D01*
X0095343Y0175941D01*
X0098400Y0169300D02*
X0092100Y0169300D01*
X0085800Y0175600D01*
X0085500Y0175941D01*
X0098400Y0169300D02*
X0111900Y0182800D01*
X0122700Y0182800D01*
X0129900Y0190000D01*
X0130500Y0190744D01*
X0132600Y0177400D02*
X0131700Y0176500D01*
X0127200Y0176500D01*
X0126740Y0176000D01*
X0126300Y0175600D01*
X0139800Y0162100D01*
X0140500Y0161256D01*
X0135500Y0161256D02*
X0135300Y0161200D01*
X0135300Y0156700D01*
X0120900Y0142300D01*
X0120500Y0142260D01*
X0118200Y0136900D02*
X0118200Y0127900D01*
X0111900Y0127900D01*
X0111000Y0127000D01*
X0111000Y0119800D01*
X0113700Y0117100D01*
X0122700Y0117100D01*
X0128100Y0111700D01*
X0128100Y0110800D01*
X0129900Y0109000D01*
X0130500Y0108756D01*
X0125500Y0108756D02*
X0125400Y0109000D01*
X0119100Y0109000D01*
X0109200Y0118900D01*
X0115500Y0123400D02*
X0115505Y0123503D01*
X0115500Y0123400D02*
X0120000Y0118900D01*
X0140700Y0118900D01*
X0158700Y0100900D01*
X0171300Y0100900D01*
X0171623Y0100278D01*
X0171623Y0092797D02*
X0172200Y0091900D01*
X0172200Y0076600D01*
X0165000Y0076600D01*
X0157800Y0069400D01*
X0157800Y0064900D01*
X0141600Y0048700D01*
X0138900Y0048700D01*
X0138236Y0048500D01*
X0138236Y0053500D02*
X0138000Y0054100D01*
X0134400Y0054100D01*
X0132600Y0055900D01*
X0132600Y0060400D01*
X0133500Y0061300D01*
X0127200Y0062200D02*
X0127200Y0050500D01*
X0120900Y0044200D01*
X0118200Y0044200D01*
X0117764Y0043500D01*
X0117764Y0048500D02*
X0117300Y0048700D01*
X0114600Y0048700D01*
X0111900Y0051400D01*
X0110100Y0051400D01*
X0103800Y0051400D01*
X0103000Y0052260D01*
X0103000Y0059740D02*
X0102900Y0060400D01*
X0102900Y0064900D01*
X0083100Y0084700D01*
X0016500Y0084700D01*
X0007500Y0093700D01*
X0007500Y0173800D01*
X0049800Y0216100D01*
X0091200Y0216100D01*
X0120900Y0245800D01*
X0120900Y0268300D01*
X0121760Y0268500D01*
X0129000Y0269200D02*
X0129000Y0281800D01*
X0122700Y0288100D01*
X0130800Y0296200D01*
X0134400Y0296200D01*
X0147900Y0309700D01*
X0147900Y0315100D01*
X0148000Y0315600D01*
X0152400Y0315100D02*
X0152400Y0311500D01*
X0136200Y0295300D01*
X0136200Y0292600D01*
X0135500Y0292240D01*
X0135500Y0284760D02*
X0136200Y0284500D01*
X0140700Y0280000D01*
X0140700Y0253900D01*
X0140756Y0253500D01*
X0140700Y0248500D02*
X0140756Y0248500D01*
X0140700Y0248500D02*
X0129900Y0259300D01*
X0129900Y0268300D01*
X0129240Y0268500D01*
X0129000Y0269200D01*
X0119100Y0255700D02*
X0119100Y0246700D01*
X0090300Y0217900D01*
X0034500Y0217900D01*
X0033600Y0217000D01*
X0033000Y0216492D01*
X0032700Y0217000D01*
X0024600Y0225100D01*
X0024600Y0245800D01*
X0032700Y0253900D01*
X0032700Y0273700D01*
X0033000Y0273992D01*
X0033600Y0274600D01*
X0067800Y0274600D01*
X0078600Y0285400D01*
X0078600Y0291700D01*
X0075900Y0294400D01*
X0075900Y0303400D01*
X0075500Y0303500D01*
X0076800Y0308800D02*
X0068700Y0308800D01*
X0068000Y0308500D01*
X0067800Y0307900D01*
X0066900Y0307000D01*
X0066900Y0298000D01*
X0051600Y0298000D01*
X0046200Y0303400D01*
X0045500Y0303500D01*
X0049800Y0287200D02*
X0050500Y0287240D01*
X0049800Y0287200D02*
X0013800Y0287200D01*
X0013000Y0287240D01*
X0013800Y0288100D01*
X0013800Y0302500D01*
X0014700Y0303400D01*
X0015500Y0303500D01*
X0013000Y0279760D02*
X0013800Y0279100D01*
X0013800Y0262900D01*
X0015600Y0261100D01*
X0016465Y0261000D01*
X0033000Y0241709D02*
X0033600Y0241300D01*
X0047100Y0227800D01*
X0057900Y0227800D01*
X0058000Y0227260D01*
X0058800Y0234100D02*
X0058000Y0234740D01*
X0058800Y0234100D02*
X0066000Y0234100D01*
X0071400Y0228700D01*
X0090300Y0228700D01*
X0094800Y0233200D01*
X0095343Y0233441D01*
X0088500Y0246700D02*
X0075900Y0234100D01*
X0075657Y0233441D01*
X0085500Y0233441D02*
X0085800Y0234100D01*
X0100200Y0248500D01*
X0115244Y0248500D01*
X0114600Y0253000D02*
X0115244Y0253500D01*
X0114600Y0253000D02*
X0093900Y0253000D01*
X0089400Y0257500D01*
X0089400Y0272800D01*
X0089240Y0273500D01*
X0089400Y0273700D01*
X0089400Y0279100D01*
X0106500Y0296200D01*
X0113700Y0289000D01*
X0114240Y0288500D01*
X0116400Y0293500D02*
X0117300Y0293500D01*
X0122700Y0288100D01*
X0116400Y0293500D02*
X0105600Y0304300D01*
X0105500Y0304760D01*
X0101100Y0307900D02*
X0104700Y0311500D01*
X0105500Y0312240D01*
X0105600Y0312400D01*
X0117300Y0312400D01*
X0118000Y0312240D01*
X0118200Y0312400D01*
X0129900Y0312400D01*
X0130732Y0312293D01*
X0130800Y0312400D01*
X0139800Y0321400D01*
X0174900Y0321400D01*
X0177600Y0318700D01*
X0177600Y0316000D01*
X0178000Y0315600D01*
X0178500Y0315100D01*
X0190200Y0315100D01*
X0195600Y0309700D01*
X0195600Y0297100D01*
X0193800Y0295300D01*
X0183000Y0295300D01*
X0176700Y0301600D01*
X0167700Y0301600D01*
X0161400Y0295300D01*
X0159600Y0297100D01*
X0156000Y0297100D01*
X0153300Y0294400D01*
X0153300Y0291700D01*
X0153000Y0291400D01*
X0148000Y0291400D02*
X0147900Y0290800D01*
X0147900Y0270100D01*
X0144300Y0246700D02*
X0137100Y0239500D01*
X0122700Y0239500D01*
X0122700Y0235000D01*
X0123600Y0234100D01*
X0124260Y0233500D01*
X0124500Y0233200D01*
X0129900Y0227800D01*
X0129900Y0217000D01*
X0130500Y0216256D01*
X0126300Y0217000D02*
X0126300Y0221500D01*
X0126300Y0217000D02*
X0125500Y0216256D01*
X0132600Y0229600D02*
X0150600Y0211600D01*
X0157800Y0211600D01*
X0168600Y0200800D01*
X0168600Y0193600D01*
X0169260Y0193500D01*
X0176740Y0193500D02*
X0177600Y0192700D01*
X0177600Y0181000D01*
X0182100Y0176500D01*
X0182843Y0175941D01*
X0187500Y0171100D02*
X0177600Y0161200D01*
X0176740Y0161000D01*
X0176700Y0160300D01*
X0169500Y0153100D01*
X0169500Y0140500D01*
X0180300Y0140500D01*
X0187500Y0133300D01*
X0187500Y0118900D01*
X0183000Y0114400D01*
X0183000Y0090100D01*
X0187500Y0085600D01*
X0187500Y0064000D01*
X0184800Y0061300D01*
X0173100Y0061300D01*
X0135300Y0023500D01*
X0129000Y0023500D01*
X0124500Y0028000D01*
X0124260Y0028500D01*
X0123600Y0028000D01*
X0114600Y0028000D01*
X0095700Y0009100D01*
X0095343Y0008441D01*
X0117764Y0053500D02*
X0118200Y0054100D01*
X0120900Y0054100D01*
X0123600Y0056800D01*
X0123600Y0061300D01*
X0120900Y0064000D01*
X0117764Y0063500D01*
X0118200Y0064000D01*
X0120900Y0064000D01*
X0125400Y0068500D01*
X0125400Y0069400D01*
X0123600Y0071200D02*
X0123600Y0078400D01*
X0121800Y0080200D01*
X0123600Y0071200D02*
X0120900Y0068500D01*
X0117764Y0068500D01*
X0117300Y0058600D02*
X0114600Y0058600D01*
X0068700Y0104500D01*
X0068700Y0121600D01*
X0071400Y0125200D02*
X0059700Y0125200D01*
X0058852Y0124740D01*
X0058800Y0118000D02*
X0058852Y0117260D01*
X0058800Y0118000D02*
X0044400Y0118000D01*
X0033600Y0128800D01*
X0033000Y0129209D01*
X0037200Y0139600D02*
X0036300Y0140500D01*
X0037200Y0139600D02*
X0084000Y0139600D01*
X0116400Y0107200D01*
X0119100Y0107200D01*
X0150600Y0075700D01*
X0163157Y0065941D02*
X0163200Y0065800D01*
X0141600Y0044200D01*
X0138900Y0044200D01*
X0138236Y0043500D01*
X0138000Y0043300D01*
X0132600Y0037900D01*
X0132600Y0028900D01*
X0131740Y0028500D01*
X0117764Y0058500D02*
X0117300Y0058600D01*
X0095343Y0065941D02*
X0094800Y0066700D01*
X0089400Y0072100D01*
X0058800Y0072100D01*
X0058000Y0072240D01*
X0057900Y0064900D02*
X0058000Y0064760D01*
X0057900Y0064900D02*
X0042600Y0064900D01*
X0033600Y0073900D01*
X0033000Y0074209D01*
X0033000Y0106492D02*
X0032700Y0107200D01*
X0024600Y0115300D01*
X0024600Y0133300D01*
X0032700Y0141400D01*
X0032700Y0161200D01*
X0033000Y0161492D01*
X0045300Y0172000D02*
X0033600Y0183700D01*
X0033000Y0184209D01*
X0029100Y0192700D02*
X0022800Y0186400D01*
X0022800Y0110800D01*
X0011100Y0099100D01*
X0045300Y0172000D02*
X0058800Y0172000D01*
X0059640Y0171962D01*
X0059640Y0179442D02*
X0059700Y0180100D01*
X0071400Y0180100D01*
X0070500Y0192700D02*
X0029100Y0192700D01*
X0070500Y0192700D02*
X0126300Y0248500D01*
X0119100Y0255700D02*
X0107400Y0267400D01*
X0107400Y0288100D01*
X0106760Y0288500D01*
X0106500Y0296200D02*
X0101100Y0301600D01*
X0101100Y0307900D01*
X0097500Y0315100D02*
X0095700Y0316900D01*
X0078600Y0316900D01*
X0075900Y0314200D01*
X0075500Y0313500D01*
X0079500Y0311500D02*
X0076800Y0308800D01*
X0079500Y0311500D02*
X0093000Y0311500D01*
X0093000Y0312240D01*
X0093000Y0304760D02*
X0093000Y0297100D01*
X0097500Y0296200D02*
X0097500Y0315100D01*
X0097500Y0296200D02*
X0082200Y0280900D01*
X0082200Y0273700D01*
X0081760Y0273500D01*
X0082200Y0272800D01*
X0082200Y0248500D01*
X0081760Y0248500D01*
X0088500Y0248500D02*
X0088500Y0246700D01*
X0088500Y0248500D02*
X0089240Y0248500D01*
X0089400Y0248500D01*
X0093900Y0253000D01*
X0074240Y0288500D02*
X0074100Y0289000D01*
X0074100Y0290800D01*
X0070500Y0294400D01*
X0066900Y0298000D02*
X0066900Y0289000D01*
X0066760Y0288500D01*
X0066000Y0288100D01*
X0057900Y0280000D01*
X0050700Y0280000D01*
X0050500Y0279760D01*
X0118000Y0304760D02*
X0118200Y0305200D01*
X0124500Y0305200D01*
X0130732Y0304813D02*
X0130800Y0304300D01*
X0137100Y0304300D01*
X0144300Y0295300D02*
X0144300Y0246700D01*
X0145200Y0240400D02*
X0172200Y0267400D01*
X0172200Y0290800D01*
X0173000Y0291400D01*
X0172200Y0291700D01*
X0172200Y0294400D01*
X0170400Y0296200D01*
X0170400Y0298000D01*
X0165900Y0305200D02*
X0175800Y0305200D01*
X0177600Y0307000D01*
X0190200Y0307000D01*
X0190500Y0307240D01*
X0188400Y0301600D02*
X0190200Y0299800D01*
X0190500Y0299760D01*
X0188400Y0301600D02*
X0182100Y0301600D01*
X0178000Y0291400D02*
X0177600Y0290800D01*
X0177600Y0262000D01*
X0141600Y0226000D01*
X0145200Y0235000D02*
X0145200Y0240400D01*
X0132600Y0233200D02*
X0132600Y0229600D01*
X0132600Y0233200D02*
X0131740Y0233500D01*
X0143400Y0194500D02*
X0150600Y0187300D01*
X0150600Y0165700D01*
X0136200Y0151300D01*
X0136200Y0136000D01*
X0135500Y0135744D01*
X0132600Y0133300D02*
X0141600Y0124300D01*
X0141760Y0123500D01*
X0140700Y0130600D02*
X0140700Y0135100D01*
X0140500Y0135744D01*
X0132600Y0133300D02*
X0132600Y0145000D01*
X0122700Y0150400D02*
X0131700Y0159400D01*
X0121800Y0155800D02*
X0120000Y0157600D01*
X0120000Y0175600D01*
X0119260Y0176000D01*
X0120900Y0150400D02*
X0120500Y0149740D01*
X0120900Y0150400D02*
X0122700Y0150400D01*
X0119100Y0127900D02*
X0122700Y0124300D01*
X0122985Y0123503D01*
X0119100Y0127900D02*
X0118200Y0127900D01*
X0149240Y0123500D02*
X0149700Y0123400D01*
X0151500Y0123400D01*
X0158700Y0116200D01*
X0177600Y0116200D01*
X0182100Y0120700D01*
X0182843Y0120941D01*
X0176700Y0125200D02*
X0173100Y0121600D01*
X0173000Y0120941D01*
X0176700Y0125200D02*
X0176700Y0136000D01*
X0176740Y0136000D01*
X0169500Y0136000D02*
X0169260Y0136000D01*
X0169500Y0136000D02*
X0169500Y0140500D01*
X0169260Y0161000D02*
X0169500Y0161200D01*
X0169500Y0172900D01*
X0165900Y0172900D01*
X0163200Y0175600D01*
X0163157Y0175941D01*
X0169500Y0172900D02*
X0172200Y0175600D01*
X0173000Y0175941D01*
X0189300Y0191800D02*
X0183000Y0198100D01*
X0183000Y0233200D01*
X0182843Y0233441D01*
X0176740Y0218500D02*
X0177600Y0217900D01*
X0177600Y0200800D01*
X0187500Y0190900D01*
X0187500Y0171100D01*
X0189300Y0157600D02*
X0189300Y0191800D01*
X0169260Y0218500D02*
X0169500Y0218800D01*
X0169500Y0230500D01*
X0166800Y0233200D01*
X0163200Y0233200D01*
X0163157Y0233441D01*
X0169500Y0230500D02*
X0172200Y0233200D01*
X0173000Y0233441D01*
X0163000Y0291400D02*
X0162300Y0291700D01*
X0162300Y0294400D01*
X0161400Y0295300D01*
X0165900Y0305200D02*
X0163200Y0307900D01*
X0163200Y0315100D01*
X0163000Y0315600D01*
X0167700Y0315100D02*
X0167700Y0308800D01*
X0167700Y0315100D02*
X0168000Y0315600D01*
X0173000Y0315600D02*
X0173100Y0315100D01*
X0174000Y0314200D01*
X0174000Y0308800D01*
X0157800Y0308800D02*
X0144300Y0295300D01*
X0157800Y0308800D02*
X0157800Y0315100D01*
X0158000Y0315600D01*
X0153000Y0315600D02*
X0152400Y0315100D01*
X0172200Y0076600D02*
X0182100Y0066700D01*
X0182843Y0065941D01*
X0033000Y0008441D02*
X0032700Y0008200D01*
X0023700Y0008200D01*
X0023157Y0008441D01*
D25*
X0011100Y0099100D03*
X0036300Y0140500D03*
X0068700Y0121600D03*
X0110100Y0051400D03*
X0127200Y0062200D03*
X0130800Y0078400D03*
X0121800Y0080200D03*
X0114600Y0095500D03*
X0122700Y0098200D03*
X0140700Y0130600D03*
X0132600Y0145000D03*
X0131700Y0159400D03*
X0121800Y0155800D03*
X0118200Y0136900D03*
X0132600Y0177400D03*
X0141600Y0190900D03*
X0126300Y0221500D03*
X0122700Y0239500D03*
X0126300Y0248500D03*
X0141600Y0226000D03*
X0145200Y0235000D03*
X0147900Y0270100D03*
X0137100Y0304300D03*
X0124500Y0305200D03*
X0093000Y0297100D03*
X0070500Y0294400D03*
X0167700Y0308800D03*
X0174000Y0308800D03*
X0170400Y0298000D03*
X0182100Y0301600D03*
X0189300Y0157600D03*
X0147000Y0073900D03*
M02*
