G75*
%MOIN*%
%OFA0B0*%
%FSLAX25Y25*%
%IPPOS*%
%LPD*%
%AMOC8*
5,1,8,0,0,1.08239X$1,22.5*
%
%ADD10C,0.00000*%
%ADD11OC8,0.06000*%
%ADD12C,0.14643*%
%ADD13C,0.09658*%
%ADD14OC8,0.08200*%
%ADD15R,0.07296X0.07296*%
%ADD16OC8,0.07296*%
%ADD17C,0.13068*%
%ADD18R,0.05918X0.06706*%
%ADD19C,0.04800*%
D10*
X0003000Y0001000D02*
X0003000Y0325961D01*
X0201701Y0325961D01*
X0201701Y0001000D01*
X0003000Y0001000D01*
D11*
X0075500Y0303500D03*
X0075500Y0313500D03*
X0068000Y0308500D03*
D12*
X0049535Y0261000D03*
X0033000Y0273992D03*
X0033000Y0241709D03*
X0033000Y0216492D03*
X0049535Y0203500D03*
X0033000Y0184209D03*
X0033000Y0161492D03*
X0049535Y0148500D03*
X0033000Y0129209D03*
X0033000Y0106492D03*
X0049535Y0093500D03*
X0033000Y0074209D03*
X0173000Y0048992D03*
X0189535Y0036000D03*
X0173000Y0016709D03*
D13*
X0156465Y0036000D03*
X0016465Y0093500D03*
X0016465Y0148500D03*
X0016465Y0203500D03*
X0016465Y0261000D03*
D14*
X0015500Y0303500D03*
X0015500Y0313500D03*
X0025500Y0313500D03*
X0025500Y0303500D03*
X0035500Y0303500D03*
X0035500Y0313500D03*
X0045500Y0313500D03*
X0045500Y0303500D03*
X0055500Y0303500D03*
X0055500Y0313500D03*
D15*
X0075657Y0233441D03*
X0075657Y0175941D03*
X0075657Y0120941D03*
X0075657Y0065941D03*
X0075657Y0008441D03*
X0023157Y0008441D03*
X0163157Y0065941D03*
X0163157Y0120941D03*
X0163157Y0175941D03*
X0163157Y0233441D03*
D16*
X0173000Y0233441D03*
X0182843Y0233441D03*
X0182843Y0175941D03*
X0173000Y0175941D03*
X0173000Y0120941D03*
X0182843Y0120941D03*
X0182843Y0065941D03*
X0173000Y0065941D03*
X0095343Y0065941D03*
X0085500Y0065941D03*
X0085500Y0120941D03*
X0095343Y0120941D03*
X0095343Y0175941D03*
X0085500Y0175941D03*
X0085500Y0233441D03*
X0095343Y0233441D03*
X0095343Y0008441D03*
X0085500Y0008441D03*
X0042843Y0008441D03*
X0033000Y0008441D03*
D17*
X0015283Y0036000D03*
X0050717Y0036000D03*
X0067783Y0036000D03*
X0103217Y0036000D03*
X0103217Y0093500D03*
X0103217Y0148500D03*
X0103217Y0203500D03*
X0103217Y0261000D03*
X0067783Y0261000D03*
X0067783Y0203500D03*
X0067783Y0148500D03*
X0067783Y0093500D03*
X0155283Y0093500D03*
X0155283Y0148500D03*
X0155283Y0203500D03*
X0155283Y0261000D03*
X0190717Y0261000D03*
X0190717Y0203500D03*
X0190717Y0148500D03*
X0190717Y0093500D03*
D18*
X0131740Y0026000D03*
X0124260Y0026000D03*
D19*
X0110100Y0051400D03*
X0127200Y0062200D03*
X0130800Y0078400D03*
X0121800Y0080200D03*
X0114600Y0095500D03*
X0122700Y0098200D03*
X0140700Y0130600D03*
X0132600Y0145000D03*
X0131700Y0159400D03*
X0121800Y0155800D03*
X0118200Y0136900D03*
X0132600Y0177400D03*
X0141600Y0190900D03*
X0126300Y0221500D03*
X0122700Y0239500D03*
X0126300Y0248500D03*
X0141600Y0226000D03*
X0145200Y0235000D03*
X0147900Y0270100D03*
X0137100Y0304300D03*
X0124500Y0305200D03*
X0093000Y0297100D03*
X0070500Y0294400D03*
X0036300Y0140500D03*
X0011100Y0099100D03*
X0068700Y0121600D03*
X0147000Y0073900D03*
X0189300Y0157600D03*
X0170400Y0298000D03*
X0167700Y0308800D03*
X0174000Y0308800D03*
X0182100Y0301600D03*
M02*
