G75*
%MOIN*%
%OFA0B0*%
%FSLAX25Y25*%
%IPPOS*%
%LPD*%
%AMOC8*
5,1,8,0,0,1.08239X$1,22.5*
%
%ADD10C,0.00000*%
%ADD11R,0.06706X0.05918*%
%ADD12R,0.05918X0.06706*%
%ADD13R,0.03400X0.08800*%
%ADD14OC8,0.06000*%
%ADD15C,0.14643*%
%ADD16C,0.09658*%
%ADD17R,0.04737X0.02769*%
%ADD18R,0.02769X0.04737*%
%ADD19OC8,0.08200*%
%ADD20R,0.07296X0.07296*%
%ADD21OC8,0.07296*%
%ADD22C,0.13068*%
%ADD23R,0.09461X0.03162*%
%ADD24C,0.04800*%
D10*
X0003000Y0001000D02*
X0003000Y0325961D01*
X0201701Y0325961D01*
X0201701Y0001000D01*
X0003000Y0001000D01*
D11*
X0058000Y0064760D03*
X0058000Y0072240D03*
X0058852Y0117260D03*
X0058852Y0124740D03*
X0059640Y0171962D03*
X0059640Y0179442D03*
X0058000Y0227260D03*
X0058000Y0234740D03*
X0050500Y0279760D03*
X0050500Y0287240D03*
X0013000Y0287240D03*
X0013000Y0279760D03*
X0093000Y0304760D03*
X0093000Y0312240D03*
X0105500Y0312240D03*
X0105500Y0304760D03*
X0118000Y0304760D03*
X0118000Y0312240D03*
X0130732Y0312293D03*
X0130732Y0304813D03*
X0135500Y0292240D03*
X0135500Y0284760D03*
X0190500Y0299760D03*
X0190500Y0307240D03*
X0145500Y0184740D03*
X0145500Y0177260D03*
X0120500Y0149740D03*
X0120500Y0142260D03*
X0103000Y0059740D03*
X0103000Y0052260D03*
X0171623Y0092797D03*
X0171623Y0100278D03*
D12*
X0169260Y0136000D03*
X0176740Y0136000D03*
X0176740Y0161000D03*
X0169260Y0161000D03*
X0169260Y0193500D03*
X0176740Y0193500D03*
X0176740Y0218500D03*
X0169260Y0218500D03*
X0131740Y0233500D03*
X0124260Y0233500D03*
X0121760Y0268500D03*
X0129240Y0268500D03*
X0114240Y0288500D03*
X0106760Y0288500D03*
X0089240Y0273500D03*
X0081760Y0273500D03*
X0074240Y0288500D03*
X0066760Y0288500D03*
X0081760Y0248500D03*
X0089240Y0248500D03*
X0119260Y0176000D03*
X0126740Y0176000D03*
X0122985Y0123503D03*
X0115505Y0123503D03*
X0141760Y0123500D03*
X0149240Y0123500D03*
X0131740Y0028500D03*
X0124260Y0028500D03*
D13*
X0148000Y0291400D03*
X0153000Y0291400D03*
X0158000Y0291400D03*
X0163000Y0291400D03*
X0168000Y0291400D03*
X0173000Y0291400D03*
X0178000Y0291400D03*
X0178000Y0315600D03*
X0173000Y0315600D03*
X0168000Y0315600D03*
X0163000Y0315600D03*
X0158000Y0315600D03*
X0153000Y0315600D03*
X0148000Y0315600D03*
D14*
X0075500Y0313500D03*
X0075500Y0303500D03*
X0068000Y0308500D03*
D15*
X0049535Y0261000D03*
X0033000Y0273992D03*
X0033000Y0241709D03*
X0033000Y0216492D03*
X0049535Y0203500D03*
X0033000Y0184209D03*
X0033000Y0161492D03*
X0049535Y0148500D03*
X0033000Y0129209D03*
X0033000Y0106492D03*
X0049535Y0093500D03*
X0033000Y0074209D03*
X0173000Y0048992D03*
X0189535Y0036000D03*
X0173000Y0016709D03*
D16*
X0156465Y0036000D03*
X0016465Y0093500D03*
X0016465Y0148500D03*
X0016465Y0203500D03*
X0016465Y0261000D03*
D17*
X0115244Y0253500D03*
X0115244Y0248500D03*
X0140756Y0248500D03*
X0140756Y0253500D03*
D18*
X0130500Y0216256D03*
X0125500Y0216256D03*
X0125500Y0190744D03*
X0130500Y0190744D03*
X0135500Y0161256D03*
X0140500Y0161256D03*
X0140500Y0135744D03*
X0135500Y0135744D03*
X0130500Y0108756D03*
X0125500Y0108756D03*
X0125500Y0083244D03*
X0130500Y0083244D03*
D19*
X0055500Y0303500D03*
X0055500Y0313500D03*
X0045500Y0313500D03*
X0045500Y0303500D03*
X0035500Y0303500D03*
X0035500Y0313500D03*
X0025500Y0313500D03*
X0025500Y0303500D03*
X0015500Y0303500D03*
X0015500Y0313500D03*
D20*
X0075657Y0233441D03*
X0075657Y0175941D03*
X0075657Y0120941D03*
X0075657Y0065941D03*
X0075657Y0008441D03*
X0023157Y0008441D03*
X0163157Y0065941D03*
X0163157Y0120941D03*
X0163157Y0175941D03*
X0163157Y0233441D03*
D21*
X0173000Y0233441D03*
X0182843Y0233441D03*
X0182843Y0175941D03*
X0173000Y0175941D03*
X0173000Y0120941D03*
X0182843Y0120941D03*
X0182843Y0065941D03*
X0173000Y0065941D03*
X0095343Y0065941D03*
X0085500Y0065941D03*
X0085500Y0120941D03*
X0095343Y0120941D03*
X0095343Y0175941D03*
X0085500Y0175941D03*
X0085500Y0233441D03*
X0095343Y0233441D03*
X0095343Y0008441D03*
X0085500Y0008441D03*
X0042843Y0008441D03*
X0033000Y0008441D03*
D22*
X0015283Y0036000D03*
X0050717Y0036000D03*
X0067783Y0036000D03*
X0103217Y0036000D03*
X0103217Y0093500D03*
X0103217Y0148500D03*
X0103217Y0203500D03*
X0103217Y0261000D03*
X0067783Y0261000D03*
X0067783Y0203500D03*
X0067783Y0148500D03*
X0067783Y0093500D03*
X0155283Y0093500D03*
X0155283Y0148500D03*
X0155283Y0203500D03*
X0155283Y0261000D03*
X0190717Y0261000D03*
X0190717Y0203500D03*
X0190717Y0148500D03*
X0190717Y0093500D03*
D23*
X0138236Y0073500D03*
X0138236Y0068500D03*
X0138236Y0063500D03*
X0138236Y0058500D03*
X0138236Y0053500D03*
X0138236Y0048500D03*
X0138236Y0043500D03*
X0117764Y0043500D03*
X0117764Y0048500D03*
X0117764Y0053500D03*
X0117764Y0058500D03*
X0117764Y0063500D03*
X0117764Y0068500D03*
X0117764Y0073500D03*
D24*
X0121800Y0080200D03*
X0130800Y0078400D03*
X0127200Y0062200D03*
X0110100Y0051400D03*
X0114600Y0095500D03*
X0122700Y0098200D03*
X0140700Y0130600D03*
X0132600Y0145000D03*
X0131700Y0159400D03*
X0121800Y0155800D03*
X0118200Y0136900D03*
X0132600Y0177400D03*
X0141600Y0190900D03*
X0126300Y0221500D03*
X0122700Y0239500D03*
X0126300Y0248500D03*
X0141600Y0226000D03*
X0145200Y0235000D03*
X0147900Y0270100D03*
X0137100Y0304300D03*
X0124500Y0305200D03*
X0093000Y0297100D03*
X0070500Y0294400D03*
X0036300Y0140500D03*
X0011100Y0099100D03*
X0068700Y0121600D03*
X0147000Y0073900D03*
X0189300Y0157600D03*
X0170400Y0298000D03*
X0167700Y0308800D03*
X0174000Y0308800D03*
X0182100Y0301600D03*
M02*
