  0
SECTION
  2
HEADER
  9
$MEASUREMENT
  70
  1
  9
$INSUNITS
  70
  4
  0
ENDSEC
  0
SECTION
  2
TABLES
  0
TABLE
  2
LTYPE
 70
     1
  0
LTYPE
  2
CONTINUOUS
 70
    64
  3
Ausgezogene Linie
 72
    65
 73
     0
 40
0.0
  0
ENDTAB
  0
TABLE
  2
LAYER
 70
     3
  0
LAYER
  2
Contour
 70
    64
 62
     7
  6
CONTINUOUS
  0
LAYER
  2
Engraving
 70
    64
 62
     7
  6
CONTINUOUS
  0
LAYER
  2
Reference_points
 70
    64
 62
     1
  6
CONTINUOUS
  0
ENDTAB
  0
TABLE
  2
STYLE
 70
     1
  0
STYLE
  2
TXT
 70
    64
 40
0.0
 41
1.0
 50
0.0
 71
     0
 42
3.500000
  3
TXT
  0
ENDTAB
  0
ENDSEC
  0
SECTION
  2
BLOCKS
  0
ENDSEC
  0
SECTION
  2
ENTITIES
  0
LINE
  8
Contour
 62
   7
 39
0.100
  6
CONTINUOUS
 10
19.98000
 20
128.40000
 30
 0
 11
0.00000
 21
128.40000
  0
LINE
  8
Contour
 62
   7
 39
0.100
  6
CONTINUOUS
 10
0.00000
 20
128.40000
 30
 0
 11
0.00000
 21
128.40000
  0
LINE
  8
Contour
 62
   7
 39
0.100
  6
CONTINUOUS
 10
0.00000
 20
128.40000
 30
 0
 11
0.00000
 21
0.00000
  0
LINE
  8
Contour
 62
   7
 39
0.100
  6
CONTINUOUS
 10
0.00000
 20
0.00000
 30
 0
 11
0.00000
 21
0.00000
  0
LINE
  8
Contour
 62
   7
 39
0.100
  6
CONTINUOUS
 10
0.00000
 20
0.00000
 30
 0
 11
19.98000
 21
0.00000
  0
LINE
  8
Contour
 62
   7
 39
0.100
  6
CONTINUOUS
 10
19.98000
 20
0.00000
 30
 0
 11
19.98000
 21
0.00000
  0
LINE
  8
Contour
 62
   7
 39
0.100
  6
CONTINUOUS
 10
19.98000
 20
0.00000
 30
 0
 11
19.98000
 21
128.40000
  0
LINE
  8
Contour
 62
   7
 39
0.100
  6
CONTINUOUS
 10
19.98000
 20
128.40000
 30
 0
 11
19.98000
 21
128.40000
  0
ARC
  8
Engraving
 62
   7
 39
0.400
  6
CONTINUOUS
 10
6.01400
 20
111.12500
 30
 0
 40
0.83700
 50
179.58928
 51
259.18688
  0
ARC
  8
Engraving
 62
   7
 39
0.400
  6
CONTINUOUS
 10
6.46400
 20
113.77800
 30
 0
 40
3.52800
 50
-99.90825
 51
-80.09175
  0
ARC
  8
Engraving
 62
   7
 39
0.400
  6
CONTINUOUS
 10
6.92700
 20
111.13200
 30
 0
 40
0.84100
 50
-80.14586
 51
80.13419
  0
ARC
  8
Engraving
 62
   7
 39
0.400
  6
CONTINUOUS
 10
6.62200
 20
108.84900
 30
 0
 40
3.14300
 50
81.78741
 51
92.60753
  0
ARC
  8
Engraving
 62
   7
 39
0.400
  6
CONTINUOUS
 10
6.49400
 20
115.14300
 30
 0
 40
3.15400
 50
258.90383
 51
-90.27249
  0
ARC
  8
Engraving
 62
   7
 39
0.400
  6
CONTINUOUS
 10
6.00800
 20
112.74400
 30
 0
 40
0.70600
 50
99.87624
 51
-99.86233
  0
ARC
  8
Engraving
 62
   7
 39
0.400
  6
CONTINUOUS
 10
6.46400
 20
110.13300
 30
 0
 40
3.35600
 50
440.09982
 51
99.90018
  0
ARC
  8
Engraving
 62
   7
 39
0.400
  6
CONTINUOUS
 10
6.92900
 20
112.74400
 30
 0
 40
0.70400
 50
361.22061
 51
80.84543
  0
LINE
  8
Engraving
 62
   7
 39
0.400
  6
CONTINUOUS
 10
7.63300
 20
112.75900
 30
 0
 11
7.69200
 21
112.75900
  0
ARC
  8
Engraving
 62
   7
 39
0.400
  6
CONTINUOUS
 10
6.93800
 20
112.75600
 30
 0
 40
0.75400
 50
0.22797
 51
79.83792
  0
ARC
  8
Engraving
 62
   7
 39
0.400
  6
CONTINUOUS
 10
6.46400
 20
110.02300
 30
 0
 40
3.52800
 50
80.09175
 51
99.90825
  0
ARC
  8
Engraving
 62
   7
 39
0.400
  6
CONTINUOUS
 10
5.98900
 20
112.74400
 30
 0
 40
0.76500
 50
99.92993
 51
260.08296
  0
ARC
  8
Engraving
 62
   7
 39
0.400
  6
CONTINUOUS
 10
6.47900
 20
115.24100
 30
 0
 40
3.31100
 50
-100.82801
 51
-90.00000
  0
ARC
  8
Engraving
 62
   7
 39
0.400
  6
CONTINUOUS
 10
6.61700
 20
108.79000
 30
 0
 40
3.14300
 50
441.69459
 51
92.51648
  0
ARC
  8
Engraving
 62
   7
 39
0.400
  6
CONTINUOUS
 10
6.93500
 20
111.13100
 30
 0
 40
0.78100
 50
280.02923
 51
79.97077
  0
ARC
  8
Engraving
 62
   7
 39
0.400
  6
CONTINUOUS
 10
6.46400
 20
113.83700
 30
 0
 40
3.52800
 50
260.09175
 51
-80.09175
  0
ARC
  8
Engraving
 62
   7
 39
0.400
  6
CONTINUOUS
 10
6.00800
 20
111.11900
 30
 0
 40
0.77200
 50
179.10946
 51
-101.28082
  0
LINE
  8
Engraving
 62
   7
 39
0.400
  6
CONTINUOUS
 10
5.23600
 20
111.13100
 30
 0
 11
5.11800
 21
111.13100
  0
ARC
  8
Engraving
 62
   7
 39
0.400
  6
CONTINUOUS
 10
6.02000
 20
111.13000
 30
 0
 40
0.90200
 50
179.93648
 51
259.58719
  0
ARC
  8
Engraving
 62
   7
 39
0.400
  6
CONTINUOUS
 10
6.47900
 20
113.80300
 30
 0
 40
3.61400
 50
-99.91063
 51
-80.10499
  0
ARC
  8
Engraving
 62
   7
 39
0.400
  6
CONTINUOUS
 10
6.94700
 20
111.13100
 30
 0
 40
0.90100
 50
-80.22408
 51
80.22408
  0
ARC
  8
Engraving
 62
   7
 39
0.400
  6
CONTINUOUS
 10
6.63600
 20
108.75300
 30
 0
 40
3.29900
 50
81.91411
 51
92.72796
  0
ARC
  8
Engraving
 62
   7
 39
0.400
  6
CONTINUOUS
 10
6.50000
 20
115.20200
 30
 0
 40
3.15400
 50
258.79338
 51
-90.38148
  0
ARC
  8
Engraving
 62
   7
 39
0.400
  6
CONTINUOUS
 10
6.00000
 20
112.74400
 30
 0
 40
0.64600
 50
100.07478
 51
-100.07478
  0
ARC
  8
Engraving
 62
   7
 39
0.400
  6
CONTINUOUS
 10
6.46400
 20
110.07400
 30
 0
 40
3.35600
 50
440.09982
 51
99.90018
  0
ARC
  8
Engraving
 62
   7
 39
0.400
  6
CONTINUOUS
 10
6.93500
 20
112.75000
 30
 0
 40
0.63900
 50
360.80693
 51
80.44921
  0
LINE
  8
Engraving
 62
   7
 39
0.400
  6
CONTINUOUS
 10
7.57400
 20
112.75900
 30
 0
 11
7.69200
 21
112.75900
  0
LINE
  8
Engraving
 62
   7
 39
0.400
  6
CONTINUOUS
 10
7.69200
 20
112.75900
 30
 0
 11
7.75100
 21
112.75900
  0
ARC
  8
Engraving
 62
   7
 39
0.400
  6
CONTINUOUS
 10
6.93200
 20
112.75100
 30
 0
 40
0.81900
 50
0.55965
 51
80.22710
  0
ARC
  8
Engraving
 62
   7
 39
0.400
  6
CONTINUOUS
 10
6.46400
 20
110.08300
 30
 0
 40
3.52800
 50
80.09175
 51
99.90825
  0
ARC
  8
Engraving
 62
   7
 39
0.400
  6
CONTINUOUS
 10
5.99700
 20
112.74400
 30
 0
 40
0.82600
 50
99.75883
 51
260.24117
  0
ARC
  8
Engraving
 62
   7
 39
0.400
  6
CONTINUOUS
 10
6.47900
 20
115.18200
 30
 0
 40
3.31100
 50
-100.82801
 51
-90.00000
  0
ARC
  8
Engraving
 62
   7
 39
0.400
  6
CONTINUOUS
 10
6.60200
 20
108.88800
 30
 0
 40
2.98600
 50
441.54420
 51
92.36118
  0
ARC
  8
Engraving
 62
   7
 39
0.400
  6
CONTINUOUS
 10
6.91600
 20
111.13100
 30
 0
 40
0.72100
 50
279.98496
 51
80.01504
  0
ARC
  8
Engraving
 62
   7
 39
0.400
  6
CONTINUOUS
 10
6.46400
 20
113.72700
 30
 0
 40
3.35600
 50
260.09982
 51
-80.09982
  0
ARC
  8
Engraving
 62
   7
 39
0.400
  6
CONTINUOUS
 10
6.01700
 20
111.13100
 30
 0
 40
0.72200
 50
180.00000
 51
-100.37584
  0
LINE
  8
Engraving
 62
   7
 39
0.400
  6
CONTINUOUS
 10
5.29500
 20
111.13100
 30
 0
 11
5.05800
 21
111.13100
  0
ARC
  8
Engraving
 62
   7
 39
0.400
  6
CONTINUOUS
 10
6.01100
 20
111.11900
 30
 0
 40
0.95300
 50
179.27858
 51
258.92595
  0
ARC
  8
Engraving
 62
   7
 39
0.400
  6
CONTINUOUS
 10
6.46400
 20
113.82900
 30
 0
 40
3.70000
 50
-99.89765
 51
-80.10235
  0
ARC
  8
Engraving
 62
   7
 39
0.400
  6
CONTINUOUS
 10
6.93700
 20
111.13100
 30
 0
 40
0.96100
 50
-80.23380
 51
80.23380
  0
ARC
  8
Engraving
 62
   7
 39
0.400
  6
CONTINUOUS
 10
6.63100
 20
108.81300
 30
 0
 40
3.29900
 50
81.82568
 51
92.64121
  0
ARC
  8
Engraving
 62
   7
 39
0.400
  6
CONTINUOUS
 10
6.51000
 20
115.10600
 30
 0
 40
2.99800
 50
258.59263
 51
-90.59243
  0
ARC
  8
Engraving
 62
   7
 39
0.400
  6
CONTINUOUS
 10
6.01900
 20
112.74400
 30
 0
 40
0.58600
 50
100.02497
 51
-100.02497
  0
ARC
  8
Engraving
 62
   7
 39
0.400
  6
CONTINUOUS
 10
6.47900
 20
110.10000
 30
 0
 40
3.27000
 50
440.10267
 51
99.89733
  0
ARC
  8
Engraving
 62
   7
 39
0.400
  6
CONTINUOUS
 10
6.94100
 20
112.75600
 30
 0
 40
0.57400
 50
360.29945
 51
79.96310
  0
LINE
  8
Engraving
 62
   7
 39
0.400
  6
CONTINUOUS
 10
7.51500
 20
112.75900
 30
 0
 11
7.75100
 21
112.75900
  0
LINE
  8
Engraving
 62
   7
 39
0.400
  6
CONTINUOUS
 10
7.75100
 20
112.75900
 30
 0
 11
7.81000
 21
112.75900
  0
ARC
  8
Engraving
 62
   7
 39
0.400
  6
CONTINUOUS
 10
6.94000
 20
112.76200
 30
 0
 40
0.87000
 50
-0.19757
 51
79.40058
  0
ARC
  8
Engraving
 62
   7
 39
0.400
  6
CONTINUOUS
 10
6.47800
 20
110.05700
 30
 0
 40
3.61400
 50
80.08937
 51
99.89501
  0
ARC
  8
Engraving
 62
   7
 39
0.400
  6
CONTINUOUS
 10
6.00800
 20
112.74400
 30
 0
 40
0.88600
 50
99.81317
 51
260.18683
  0
ARC
  8
Engraving
 62
   7
 39
0.400
  6
CONTINUOUS
 10
6.47900
 20
115.12300
 30
 0
 40
3.31100
 50
-100.82801
 51
-90.00000
  0
ARC
  8
Engraving
 62
   7
 39
0.400
  6
CONTINUOUS
 10
6.60200
 20
108.82900
 30
 0
 40
2.98600
 50
441.54420
 51
92.36118
  0
ARC
  8
Engraving
 62
   7
 39
0.400
  6
CONTINUOUS
 10
6.92600
 20
111.13100
 30
 0
 40
0.66100
 50
280.01802
 51
79.98198
  0
ARC
  8
Engraving
 62
   7
 39
0.400
  6
CONTINUOUS
 10
6.46400
 20
113.78600
 30
 0
 40
3.35600
 50
260.09982
 51
-80.09982
  0
ARC
  8
Engraving
 62
   7
 39
0.400
  6
CONTINUOUS
 10
6.01100
 20
111.12500
 30
 0
 40
0.65700
 50
179.47677
 51
-100.88223
  0
LINE
  8
Engraving
 62
   7
 39
0.400
  6
CONTINUOUS
 10
5.35400
 20
111.13100
 30
 0
 11
4.99900
 21
111.13100
  0
ARC
  8
Engraving
 62
   7
 39
0.400
  6
CONTINUOUS
 10
5.99900
 20
111.14000
 30
 0
 40
1.00000
 50
-179.48435
 51
-99.84862
  0
ARC
  8
Engraving
 62
   7
 39
0.400
  6
CONTINUOUS
 10
6.46400
 20
113.80000
 30
 0
 40
3.70000
 50
-99.89765
 51
-80.10235
  0
ARC
  8
Engraving
 62
   7
 39
0.400
  6
CONTINUOUS
 10
6.93100
 20
111.13200
 30
 0
 40
0.99200
 50
-80.18617
 51
80.17632
  0
ARC
  8
Engraving
 62
   7
 39
0.400
  6
CONTINUOUS
 10
6.47800
 20
108.85600
 30
 0
 40
3.31100
 50
79.17199
 51
89.98270
  0
ARC
  8
Engraving
 62
   7
 39
0.400
  6
CONTINUOUS
 10
6.51000
 20
115.16500
 30
 0
 40
2.99800
 50
258.59263
 51
-90.59243
  0
ARC
  8
Engraving
 62
   7
 39
0.400
  6
CONTINUOUS
 10
6.00200
 20
112.74400
 30
 0
 40
0.52500
 50
99.31877
 51
-99.31877
  0
ARC
  8
Engraving
 62
   7
 39
0.400
  6
CONTINUOUS
 10
6.46500
 20
110.12500
 30
 0
 40
3.18500
 50
440.10876
 51
99.90897
  0
ARC
  8
Engraving
 62
   7
 39
0.400
  6
CONTINUOUS
 10
6.93100
 20
112.74400
 30
 0
 40
0.52400
 50
361.63970
 51
81.11259
  0
LINE
  8
Engraving
 62
   7
 39
0.400
  6
CONTINUOUS
 10
7.45500
 20
112.75900
 30
 0
 11
7.81000
 21
112.75900
  0
LINE
  8
Engraving
 62
   7
 39
0.400
  6
CONTINUOUS
 10
11.00600
 20
111.48600
 30
 0
 11
10.20700
 21
110.53900
  0
ARC
  8
Engraving
 62
   7
 39
0.400
  6
CONTINUOUS
 10
9.52200
 20
111.34400
 30
 0
 40
1.05700
 50
279.91690
 51
-49.60449
  0
ARC
  8
Engraving
 62
   7
 39
0.400
  6
CONTINUOUS
 10
9.62100
 20
111.03900
 30
 0
 40
0.74100
 50
130.24090
 51
-83.56584
  0
LINE
  8
Engraving
 62
   7
 39
0.400
  6
CONTINUOUS
 10
9.14200
 20
111.60500
 30
 0
 11
10.03000
 21
112.46300
  0
ARC
  8
Engraving
 62
   7
 39
0.400
  6
CONTINUOUS
 10
9.62500
 20
112.90600
 30
 0
 40
0.60000
 50
-47.56578
 51
99.39953
  0
ARC
  8
Engraving
 62
   7
 39
0.400
  6
CONTINUOUS
 10
9.65700
 20
112.90100
 30
 0
 40
0.61100
 50
102.28469
 51
225.79572
  0
LINE
  8
Engraving
 62
   7
 39
0.400
  6
CONTINUOUS
 10
9.23100
 20
112.46300
 30
 0
 11
11.06600
 21
110.27300
  0
LINE
  8
Engraving
 62
   7
 39
0.400
  6
CONTINUOUS
 10
11.06600
 20
110.27300
 30
 0
 11
11.06600
 21
110.21400
  0
LINE
  8
Engraving
 62
   7
 39
0.400
  6
CONTINUOUS
 10
11.06600
 20
110.21400
 30
 0
 11
9.20100
 21
112.40400
  0
ARC
  8
Engraving
 62
   7
 39
0.400
  6
CONTINUOUS
 10
9.64700
 20
112.89500
 30
 0
 40
0.66300
 50
90.17284
 51
-132.25045
  0
ARC
  8
Engraving
 62
   7
 39
0.400
  6
CONTINUOUS
 10
9.62100
 20
112.89800
 30
 0
 40
0.66000
 50
315.18423
 51
87.91743
  0
LINE
  8
Engraving
 62
   7
 39
0.400
  6
CONTINUOUS
 10
10.08900
 20
112.43300
 30
 0
 11
9.23100
 21
111.60500
  0
ARC
  8
Engraving
 62
   7
 39
0.400
  6
CONTINUOUS
 10
9.61300
 20
111.03900
 30
 0
 40
0.68300
 50
124.01587
 51
277.65561
  0
ARC
  8
Engraving
 62
   7
 39
0.400
  6
CONTINUOUS
 10
9.47800
 20
111.42400
 30
 0
 40
1.08600
 50
-77.98633
 51
-38.64333
  0
LINE
  8
Engraving
 62
   7
 39
0.400
  6
CONTINUOUS
 10
10.32600
 20
110.74600
 30
 0
 11
10.97700
 21
111.54500
  0
LINE
  8
Engraving
 62
   7
 39
0.400
  6
CONTINUOUS
 10
10.97700
 20
111.54500
 30
 0
 11
11.06600
 21
111.45700
  0
LINE
  8
Engraving
 62
   7
 39
0.400
  6
CONTINUOUS
 10
11.06600
 20
111.45700
 30
 0
 11
10.23700
 21
110.48000
  0
ARC
  8
Engraving
 62
   7
 39
0.400
  6
CONTINUOUS
 10
9.65800
 20
111.10900
 30
 0
 40
0.85500
 50
190.44268
 51
-47.37016
  0
ARC
  8
Engraving
 62
   7
 39
0.400
  6
CONTINUOUS
 10
9.82500
 20
110.95500
 30
 0
 40
1.00800
 50
130.37320
 51
-179.94316
  0
ARC
  8
Engraving
 62
   7
 39
0.400
  6
CONTINUOUS
 10
-2.63600
 20
124.79100
 30
 0
 40
17.61300
 50
-47.89962
 51
-44.29149
  0
ARC
  8
Engraving
 62
   7
 39
0.400
  6
CONTINUOUS
 10
9.61900
 20
112.92400
 30
 0
 40
0.55700
 50
-50.82634
 51
78.08485
  0
ARC
  8
Engraving
 62
   7
 39
0.400
  6
CONTINUOUS
 10
9.66800
 20
112.90800
 30
 0
 40
0.56500
 50
83.29016
 51
231.97379
  0
LINE
  8
Engraving
 62
   7
 39
0.400
  6
CONTINUOUS
 10
9.32000
 20
112.46300
 30
 0
 11
9.55600
 21
112.13700
  0
LINE
  8
Engraving
 62
   7
 39
0.400
  6
CONTINUOUS
 10
9.55600
 20
112.13700
 30
 0
 11
11.15400
 21
110.21400
  0
LINE
  8
Engraving
 62
   7
 39
0.400
  6
CONTINUOUS
 10
11.15400
 20
110.21400
 30
 0
 11
11.06600
 21
110.21400
  0
LINE
  8
Engraving
 62
   7
 39
0.400
  6
CONTINUOUS
 10
11.06600
 20
110.21400
 30
 0
 11
11.03600
 21
110.15500
  0
LINE
  8
Engraving
 62
   7
 39
0.400
  6
CONTINUOUS
 10
11.03600
 20
110.15500
 30
 0
 11
9.14200
 21
112.37400
  0
ARC
  8
Engraving
 62
   7
 39
0.400
  6
CONTINUOUS
 10
9.66600
 20
112.88500
 30
 0
 40
0.73200
 50
91.64328
 51
-135.71962
  0
ARC
  8
Engraving
 62
   7
 39
0.400
  6
CONTINUOUS
 10
9.61600
 20
112.90700
 30
 0
 40
0.71100
 50
315.00000
 51
87.66105
  0
LINE
  8
Engraving
 62
   7
 39
0.400
  6
CONTINUOUS
 10
10.11900
 20
112.40400
 30
 0
 11
9.26000
 21
111.54500
  0
ARC
  8
Engraving
 62
   7
 39
0.400
  6
CONTINUOUS
 10
9.61100
 20
111.03400
 30
 0
 40
0.62000
 50
124.48472
 51
278.62672
  0
ARC
  8
Engraving
 62
   7
 39
0.400
  6
CONTINUOUS
 10
9.48900
 20
111.38600
 30
 0
 40
0.98900
 50
-77.43976
 51
-38.09864
  0
LINE
  8
Engraving
 62
   7
 39
0.400
  6
CONTINUOUS
 10
10.26700
 20
110.77600
 30
 0
 11
10.97700
 21
111.63400
  0
LINE
  8
Engraving
 62
   7
 39
0.400
  6
CONTINUOUS
 10
10.97700
 20
111.63400
 30
 0
 11
11.12500
 21
111.48600
  0
LINE
  8
Engraving
 62
   7
 39
0.400
  6
CONTINUOUS
 10
11.12500
 20
111.48600
 30
 0
 11
10.26700
 21
110.45100
  0
ARC
  8
Engraving
 62
   7
 39
0.400
  6
CONTINUOUS
 10
9.64300
 20
111.09500
 30
 0
 40
0.89700
 50
189.04235
 51
-45.90364
  0
ARC
  8
Engraving
 62
   7
 39
0.400
  6
CONTINUOUS
 10
9.81100
 20
110.93800
 30
 0
 40
1.05400
 50
489.38117
 51
179.13030
  0
ARC
  8
Engraving
 62
   7
 39
0.400
  6
CONTINUOUS
 10
33.96100
 20
86.76500
 30
 0
 40
35.21900
 50
493.00144
 51
134.80559
  0
ARC
  8
Engraving
 62
   7
 39
0.400
  6
CONTINUOUS
 10
9.59600
 20
112.92200
 30
 0
 40
0.52800
 50
-49.22223
 51
78.20074
  0
ARC
  8
Engraving
 62
   7
 39
0.400
  6
CONTINUOUS
 10
9.70900
 20
112.89700
 30
 0
 40
0.54200
 50
90.52854
 51
228.36646
  0
LINE
  8
Engraving
 62
   7
 39
0.400
  6
CONTINUOUS
 10
9.34900
 20
112.49200
 30
 0
 11
9.61600
 21
112.16700
  0
LINE
  8
Engraving
 62
   7
 39
0.400
  6
CONTINUOUS
 10
9.61600
 20
112.16700
 30
 0
 11
11.24300
 21
110.15500
  0
LINE
  8
Engraving
 62
   7
 39
0.400
  6
CONTINUOUS
 10
11.24300
 20
110.15500
 30
 0
 11
11.03600
 21
110.15500
  0
LINE
  8
Engraving
 62
   7
 39
0.400
  6
CONTINUOUS
 10
11.03600
 20
110.15500
 30
 0
 11
10.97700
 21
110.12500
  0
LINE
  8
Engraving
 62
   7
 39
0.400
  6
CONTINUOUS
 10
10.97700
 20
110.12500
 30
 0
 11
9.11300
 21
112.34400
  0
ARC
  8
Engraving
 62
   7
 39
0.400
  6
CONTINUOUS
 10
9.67100
 20
112.89300
 30
 0
 40
0.78300
 50
91.90184
 51
-135.46581
  0
ARC
  8
Engraving
 62
   7
 39
0.400
  6
CONTINUOUS
 10
9.61100
 20
112.91500
 30
 0
 40
0.76200
 50
314.78740
 51
87.44184
  0
LINE
  8
Engraving
 62
   7
 39
0.400
  6
CONTINUOUS
 10
10.14800
 20
112.37400
 30
 0
 11
9.29000
 21
111.48600
  0
ARC
  8
Engraving
 62
   7
 39
0.400
  6
CONTINUOUS
 10
9.61200
 20
111.03000
 30
 0
 40
0.55800
 50
125.22746
 51
279.49611
  0
ARC
  8
Engraving
 62
   7
 39
0.400
  6
CONTINUOUS
 10
9.49900
 20
111.34700
 30
 0
 40
0.89100
 50
-76.69688
 51
-37.38432
  0
LINE
  8
Engraving
 62
   7
 39
0.400
  6
CONTINUOUS
 10
10.20700
 20
110.80600
 30
 0
 11
10.97700
 21
111.72300
  0
LINE
  8
Engraving
 62
   7
 39
0.400
  6
CONTINUOUS
 10
10.97700
 20
111.72300
 30
 0
 11
11.18400
 21
111.48600
  0
LINE
  8
Engraving
 62
   7
 39
0.400
  6
CONTINUOUS
 10
11.18400
 20
111.48600
 30
 0
 11
10.29600
 21
110.42100
  0
ARC
  8
Engraving
 62
   7
 39
0.400
  6
CONTINUOUS
 10
9.62500
 20
111.07000
 30
 0
 40
0.93400
 50
187.13262
 51
-44.04516
  0
ARC
  8
Engraving
 62
   7
 39
0.400
  6
CONTINUOUS
 10
9.79800
 20
110.92000
 30
 0
 40
1.10100
 50
488.47289
 51
178.22960
  0
ARC
  8
Engraving
 62
   7
 39
0.400
  6
CONTINUOUS
 10
33.94900
 20
86.81100
 30
 0
 40
35.21900
 50
493.03942
 51
134.84470
  0
ARC
  8
Engraving
 62
   7
 39
0.400
  6
CONTINUOUS
 10
9.56900
 20
112.91100
 30
 0
 40
0.49700
 50
-46.30566
 51
70.61750
  0
ARC
  8
Engraving
 62
   7
 39
0.400
  6
CONTINUOUS
 10
9.72800
 20
112.88000
 30
 0
 40
0.50000
 50
89.31248
 51
225.72933
  0
LINE
  8
Engraving
 62
   7
 39
0.400
  6
CONTINUOUS
 10
9.37900
 20
112.52200
 30
 0
 11
9.67500
 21
112.19600
  0
LINE
  8
Engraving
 62
   7
 39
0.400
  6
CONTINUOUS
 10
9.67500
 20
112.19600
 30
 0
 11
11.33200
 21
110.12500
  0
LINE
  8
Engraving
 62
   7
 39
0.400
  6
CONTINUOUS
 10
11.33200
 20
110.12500
 30
 0
 11
10.97700
 21
110.12500
  0
LINE
  8
Engraving
 62
   7
 39
0.400
  6
CONTINUOUS
 10
12.33800
 20
113.49800
 30
 0
 11
12.33800
 21
110.30300
  0
LINE
  8
Engraving
 62
   7
 39
0.400
  6
CONTINUOUS
 10
12.33800
 20
110.30300
 30
 0
 11
12.33800
 21
112.01900
  0
LINE
  8
Engraving
 62
   7
 39
0.400
  6
CONTINUOUS
 10
12.33800
 20
112.01900
 30
 0
 11
14.82400
 21
112.01900
  0
LINE
  8
Engraving
 62
   7
 39
0.400
  6
CONTINUOUS
 10
14.82400
 20
112.01900
 30
 0
 11
14.82400
 21
110.30300
  0
LINE
  8
Engraving
 62
   7
 39
0.400
  6
CONTINUOUS
 10
14.82400
 20
110.30300
 30
 0
 11
14.82400
 21
113.49800
  0
LINE
  8
Engraving
 62
   7
 39
0.400
  6
CONTINUOUS
 10
14.82400
 20
113.49800
 30
 0
 11
14.76500
 21
113.55800
  0
LINE
  8
Engraving
 62
   7
 39
0.400
  6
CONTINUOUS
 10
14.76500
 20
113.55800
 30
 0
 11
14.76500
 21
112.07800
  0
LINE
  8
Engraving
 62
   7
 39
0.400
  6
CONTINUOUS
 10
14.76500
 20
112.07800
 30
 0
 11
12.39700
 21
112.07800
  0
LINE
  8
Engraving
 62
   7
 39
0.400
  6
CONTINUOUS
 10
12.39700
 20
112.07800
 30
 0
 11
12.39700
 21
113.55800
  0
LINE
  8
Engraving
 62
   7
 39
0.400
  6
CONTINUOUS
 10
12.39700
 20
113.55800
 30
 0
 11
12.27900
 21
113.55800
  0
LINE
  8
Engraving
 62
   7
 39
0.400
  6
CONTINUOUS
 10
12.27900
 20
113.55800
 30
 0
 11
12.27900
 21
110.24300
  0
LINE
  8
Engraving
 62
   7
 39
0.400
  6
CONTINUOUS
 10
12.27900
 20
110.24300
 30
 0
 11
12.39700
 21
110.24300
  0
LINE
  8
Engraving
 62
   7
 39
0.400
  6
CONTINUOUS
 10
12.39700
 20
110.24300
 30
 0
 11
12.39700
 21
111.96000
  0
LINE
  8
Engraving
 62
   7
 39
0.400
  6
CONTINUOUS
 10
12.39700
 20
111.96000
 30
 0
 11
14.76500
 21
111.96000
  0
LINE
  8
Engraving
 62
   7
 39
0.400
  6
CONTINUOUS
 10
14.76500
 20
111.96000
 30
 0
 11
14.76500
 21
110.24300
  0
LINE
  8
Engraving
 62
   7
 39
0.400
  6
CONTINUOUS
 10
14.76500
 20
110.24300
 30
 0
 11
14.88300
 21
110.24300
  0
LINE
  8
Engraving
 62
   7
 39
0.400
  6
CONTINUOUS
 10
14.88300
 20
110.24300
 30
 0
 11
14.88300
 21
113.55800
  0
LINE
  8
Engraving
 62
   7
 39
0.400
  6
CONTINUOUS
 10
14.88300
 20
113.55800
 30
 0
 11
14.76500
 21
113.55800
  0
LINE
  8
Engraving
 62
   7
 39
0.400
  6
CONTINUOUS
 10
14.76500
 20
113.55800
 30
 0
 11
14.70500
 21
113.61700
  0
LINE
  8
Engraving
 62
   7
 39
0.400
  6
CONTINUOUS
 10
14.70500
 20
113.61700
 30
 0
 11
14.70500
 21
112.13700
  0
LINE
  8
Engraving
 62
   7
 39
0.400
  6
CONTINUOUS
 10
14.70500
 20
112.13700
 30
 0
 11
12.45600
 21
112.13700
  0
LINE
  8
Engraving
 62
   7
 39
0.400
  6
CONTINUOUS
 10
12.45600
 20
112.13700
 30
 0
 11
12.45600
 21
113.61700
  0
LINE
  8
Engraving
 62
   7
 39
0.400
  6
CONTINUOUS
 10
12.45600
 20
113.61700
 30
 0
 11
12.22000
 21
113.61700
  0
LINE
  8
Engraving
 62
   7
 39
0.400
  6
CONTINUOUS
 10
12.22000
 20
113.61700
 30
 0
 11
12.22000
 21
110.18400
  0
LINE
  8
Engraving
 62
   7
 39
0.400
  6
CONTINUOUS
 10
12.22000
 20
110.18400
 30
 0
 11
12.45600
 21
110.18400
  0
LINE
  8
Engraving
 62
   7
 39
0.400
  6
CONTINUOUS
 10
12.45600
 20
110.18400
 30
 0
 11
12.45600
 21
111.90000
  0
LINE
  8
Engraving
 62
   7
 39
0.400
  6
CONTINUOUS
 10
12.45600
 20
111.90000
 30
 0
 11
14.70500
 21
111.90000
  0
LINE
  8
Engraving
 62
   7
 39
0.400
  6
CONTINUOUS
 10
14.70500
 20
111.90000
 30
 0
 11
14.70500
 21
110.18400
  0
LINE
  8
Engraving
 62
   7
 39
0.400
  6
CONTINUOUS
 10
14.70500
 20
110.18400
 30
 0
 11
14.94200
 21
110.18400
  0
LINE
  8
Engraving
 62
   7
 39
0.400
  6
CONTINUOUS
 10
14.94200
 20
110.18400
 30
 0
 11
14.94200
 21
113.61700
  0
LINE
  8
Engraving
 62
   7
 39
0.400
  6
CONTINUOUS
 10
14.94200
 20
113.61700
 30
 0
 11
14.70500
 21
113.61700
  0
LINE
  8
Engraving
 62
   7
 39
0.400
  6
CONTINUOUS
 10
14.70500
 20
113.61700
 30
 0
 11
14.64600
 21
113.67600
  0
LINE
  8
Engraving
 62
   7
 39
0.400
  6
CONTINUOUS
 10
14.64600
 20
113.67600
 30
 0
 11
14.64600
 21
112.19600
  0
LINE
  8
Engraving
 62
   7
 39
0.400
  6
CONTINUOUS
 10
14.64600
 20
112.19600
 30
 0
 11
12.51600
 21
112.19600
  0
LINE
  8
Engraving
 62
   7
 39
0.400
  6
CONTINUOUS
 10
12.51600
 20
112.19600
 30
 0
 11
12.51600
 21
113.67600
  0
LINE
  8
Engraving
 62
   7
 39
0.400
  6
CONTINUOUS
 10
12.51600
 20
113.67600
 30
 0
 11
12.16000
 21
113.67600
  0
LINE
  8
Engraving
 62
   7
 39
0.400
  6
CONTINUOUS
 10
12.16000
 20
113.67600
 30
 0
 11
12.16000
 21
110.12500
  0
LINE
  8
Engraving
 62
   7
 39
0.400
  6
CONTINUOUS
 10
12.16000
 20
110.12500
 30
 0
 11
12.51600
 21
110.12500
  0
LINE
  8
Engraving
 62
   7
 39
0.400
  6
CONTINUOUS
 10
12.51600
 20
110.12500
 30
 0
 11
12.51600
 21
111.84100
  0
LINE
  8
Engraving
 62
   7
 39
0.400
  6
CONTINUOUS
 10
12.51600
 20
111.84100
 30
 0
 11
14.64600
 21
111.84100
  0
LINE
  8
Engraving
 62
   7
 39
0.400
  6
CONTINUOUS
 10
14.64600
 20
111.84100
 30
 0
 11
14.64600
 21
110.12500
  0
LINE
  8
Engraving
 62
   7
 39
0.400
  6
CONTINUOUS
 10
14.64600
 20
110.12500
 30
 0
 11
15.00100
 21
110.12500
  0
LINE
  8
Engraving
 62
   7
 39
0.400
  6
CONTINUOUS
 10
15.00100
 20
110.12500
 30
 0
 11
15.00100
 21
113.67600
  0
LINE
  8
Engraving
 62
   7
 39
0.400
  6
CONTINUOUS
 10
15.00100
 20
113.67600
 30
 0
 11
14.64600
 21
113.67600
  0
LINE
  8
Engraving
 62
   7
 39
0.400
  6
CONTINUOUS
 10
16.21800
 20
77.84100
 30
 0
 11
16.21800
 21
79.83500
  0
LINE
  8
Engraving
 62
   7
 39
0.400
  6
CONTINUOUS
 10
16.21800
 20
79.83500
 30
 0
 11
16.21800
 21
78.83800
  0
LINE
  8
Engraving
 62
   7
 39
0.400
  6
CONTINUOUS
 10
16.21800
 20
78.83800
 30
 0
 11
18.78100
 21
78.83800
  0
LINE
  8
Engraving
 62
   7
 39
0.400
  6
CONTINUOUS
 10
18.78100
 20
80.68900
 30
 0
 11
16.21800
 21
80.68900
  0
LINE
  8
Engraving
 62
   7
 39
0.400
  6
CONTINUOUS
 10
16.21800
 20
80.68900
 30
 0
 11
16.21800
 21
81.91300
  0
ARC
  8
Engraving
 62
   7
 39
0.400
  6
CONTINUOUS
 10
16.87300
 20
81.91300
 30
 0
 40
0.65500
 50
360.00000
 51
180.00000
  0
LINE
  8
Engraving
 62
   7
 39
0.400
  6
CONTINUOUS
 10
17.52800
 20
81.91300
 30
 0
 11
17.52800
 21
80.68900
  0
LINE
  8
Engraving
 62
   7
 39
0.400
  6
CONTINUOUS
 10
17.52800
 20
80.68900
 30
 0
 11
17.52800
 21
81.82800
  0
LINE
  8
Engraving
 62
   7
 39
0.400
  6
CONTINUOUS
 10
17.52800
 20
81.82800
 30
 0
 11
18.78100
 21
82.39800
  0
LINE
  8
Engraving
 62
   7
 39
0.400
  6
CONTINUOUS
 10
16.21800
 20
83.42300
 30
 0
 11
18.78100
 21
83.42300
  0
ARC
  8
Engraving
 62
   7
 39
0.400
  6
CONTINUOUS
 10
17.53000
 20
84.73400
 30
 0
 40
1.55800
 50
120.86282
 51
129.89506
  0
ARC
  8
Engraving
 62
   7
 39
0.400
  6
CONTINUOUS
 10
17.05500
 20
85.27400
 30
 0
 40
0.83900
 50
128.65981
 51
231.34019
  0
ARC
  8
Engraving
 62
   7
 39
0.400
  6
CONTINUOUS
 10
17.51300
 20
85.83100
 30
 0
 40
1.56000
 50
-129.01546
 51
-50.95601
  0
ARC
  8
Engraving
 62
   7
 39
0.400
  6
CONTINUOUS
 10
17.97300
 20
85.27100
 30
 0
 40
0.83600
 50
-51.26525
 51
0.20561
  0
ARC
  8
Engraving
 62
   7
 39
0.400
  6
CONTINUOUS
 10
17.93700
 20
85.27200
 30
 0
 40
0.87200
 50
0.13141
 51
71.68970
  0
LINE
  8
Engraving
 62
   7
 39
0.400
  6
CONTINUOUS
 10
18.21100
 20
86.10000
 30
 0
 11
17.55600
 21
86.10000
  0
LINE
  8
Engraving
 62
   7
 39
0.400
  6
CONTINUOUS
 10
17.55600
 20
86.10000
 30
 0
 11
17.55600
 21
85.44500
  0
LINE
  8
Engraving
 62
   7
 39
0.400
  6
CONTINUOUS
 10
16.21800
 20
43.21900
 30
 0
 11
18.78100
 21
43.21900
  0
LINE
  8
Engraving
 62
   7
 39
0.400
  6
CONTINUOUS
 10
18.78100
 20
44.07400
 30
 0
 11
16.21800
 21
44.07400
  0
LINE
  8
Engraving
 62
   7
 39
0.400
  6
CONTINUOUS
 10
16.21800
 20
44.07400
 30
 0
 11
16.21800
 21
44.21600
  0
LINE
  8
Engraving
 62
   7
 39
0.400
  6
CONTINUOUS
 10
16.21800
 20
44.21600
 30
 0
 11
18.78100
 21
45.64000
  0
LINE
  8
Engraving
 62
   7
 39
0.400
  6
CONTINUOUS
 10
18.78100
 20
45.64000
 30
 0
 11
18.78100
 21
45.78200
  0
LINE
  8
Engraving
 62
   7
 39
0.400
  6
CONTINUOUS
 10
18.78100
 20
45.78200
 30
 0
 11
16.21800
 21
45.78200
  0
ARC
  8
Engraving
 62
   7
 39
0.400
  6
CONTINUOUS
 10
17.51300
 20
29.01600
 30
 0
 40
1.56000
 50
-129.01546
 51
-50.95601
  0
ARC
  8
Engraving
 62
   7
 39
0.400
  6
CONTINUOUS
 10
17.97200
 20
28.45900
 30
 0
 40
0.83900
 50
-51.34019
 51
51.34019
  0
ARC
  8
Engraving
 62
   7
 39
0.400
  6
CONTINUOUS
 10
17.51300
 20
27.90200
 30
 0
 40
1.56100
 50
50.95601
 51
129.01546
  0
ARC
  8
Engraving
 62
   7
 39
0.400
  6
CONTINUOUS
 10
17.05500
 20
28.45900
 30
 0
 40
0.83900
 50
128.65981
 51
231.34019
  0
LINE
  8
Engraving
 62
   7
 39
0.400
  6
CONTINUOUS
 10
16.21800
 20
30.31000
 30
 0
 11
17.92700
 21
30.31000
  0
ARC
  8
Engraving
 62
   7
 39
0.400
  6
CONTINUOUS
 10
17.92700
 20
31.16400
 30
 0
 40
0.85400
 50
-90.00000
 51
90.00000
  0
LINE
  8
Engraving
 62
   7
 39
0.400
  6
CONTINUOUS
 10
17.92700
 20
32.01900
 30
 0
 11
16.21800
 21
32.01900
  0
LINE
  8
Engraving
 62
   7
 39
0.400
  6
CONTINUOUS
 10
16.21800
 20
32.87300
 30
 0
 11
16.21800
 21
34.86600
  0
LINE
  8
Engraving
 62
   7
 39
0.400
  6
CONTINUOUS
 10
16.21800
 20
34.86600
 30
 0
 11
16.21800
 21
33.87000
  0
LINE
  8
Engraving
 62
   7
 39
0.400
  6
CONTINUOUS
 10
16.21800
 20
33.87000
 30
 0
 11
18.78100
 21
33.87000
  0
CIRCLE
  8
Contour
 62
   7
 39
0.100
  6
CONTINUOUS
 10
7.50000
 20
125.50000
 30
 0
 40
1.50000
  0
CIRCLE
  8
Contour
 62
   7
 39
0.100
  6
CONTINUOUS
 10
7.50000
 20
3.00000
 30
 0
 40
1.50000
  0
CIRCLE
  8
Contour
 62
   7
 39
0.100
  6
CONTINUOUS
 10
10.00000
 20
81.97000
 30
 0
 40
3.00000
  0
CIRCLE
  8
Contour
 62
   7
 39
0.100
  6
CONTINUOUS
 10
10.00000
 20
44.50000
 30
 0
 40
3.00000
  0
CIRCLE
  8
Contour
 62
   7
 39
0.100
  6
CONTINUOUS
 10
10.00000
 20
31.16000
 30
 0
 40
3.00000
  0
ENDSEC
  0
EOF
