%
M48
M72
T01C0.0240
T02C0.0320
T03C0.0400
T04C0.0591
T05C0.0984
%
T01
X6760Y3790
X2980Y6400
X2620Y8110
X1270Y8650
X5860Y9640
T02
X2100Y6100
X4100Y6100
T03
X4850Y9600
X4850Y8600
X4850Y7600
T04
X4754Y2600
X9754Y2600
X9754Y7350
T05
X3100Y4529
X1446Y2600
X3100Y1301
X6446Y2600
X8100Y1301
X8100Y4529
X8100Y6051
X6446Y7350
X8100Y9279
M30
