G75*
%MOIN*%
%OFA0B0*%
%FSLAX25Y25*%
%IPPOS*%
%LPD*%
%AMOC8*
5,1,8,0,0,1.08239X$1,22.5*
%
%ADD10C,0.00000*%
%ADD11C,0.00400*%
%ADD12C,0.01200*%
%ADD13C,0.00600*%
%ADD14C,0.00800*%
D10*
X0003500Y0001000D02*
X0003500Y0104711D01*
X0107201Y0104711D01*
X0107201Y0001000D01*
X0003500Y0001000D01*
D11*
X0010181Y0050944D02*
X0010181Y0053302D01*
X0009395Y0053302D02*
X0010967Y0053302D01*
X0011933Y0053302D02*
X0013112Y0053302D01*
X0013505Y0052909D01*
X0013505Y0052123D01*
X0013112Y0051730D01*
X0011933Y0051730D01*
X0011933Y0050944D02*
X0011933Y0053302D01*
X0012719Y0051730D02*
X0013505Y0050944D01*
X0014471Y0050944D02*
X0015257Y0050944D01*
X0014864Y0050944D02*
X0014864Y0053302D01*
X0014471Y0053302D02*
X0015257Y0053302D01*
X0016162Y0052909D02*
X0016162Y0051337D01*
X0016555Y0050944D01*
X0017341Y0050944D01*
X0017734Y0051337D01*
X0017734Y0052123D01*
X0016948Y0052123D01*
X0016162Y0052909D02*
X0016555Y0053302D01*
X0017341Y0053302D01*
X0017734Y0052909D01*
X0039877Y0071087D02*
X0039877Y0072659D01*
X0039484Y0073625D02*
X0038698Y0074411D01*
X0041056Y0074411D01*
X0041056Y0073625D02*
X0041056Y0075197D01*
X0041056Y0076162D02*
X0039484Y0077734D01*
X0039091Y0077734D01*
X0038698Y0077341D01*
X0038698Y0076555D01*
X0039091Y0076162D01*
X0041056Y0076162D02*
X0041056Y0077734D01*
X0026863Y0086869D02*
X0026863Y0088048D01*
X0026470Y0088441D01*
X0024898Y0088441D01*
X0024505Y0088048D01*
X0024505Y0086869D01*
X0026863Y0086869D01*
X0026863Y0089407D02*
X0026863Y0090979D01*
X0026863Y0090193D02*
X0024505Y0090193D01*
X0025291Y0089407D01*
X0038698Y0095661D02*
X0041056Y0095661D01*
X0041056Y0094875D02*
X0041056Y0096447D01*
X0041056Y0097412D02*
X0039484Y0098984D01*
X0039091Y0098984D01*
X0038698Y0098591D01*
X0038698Y0097805D01*
X0039091Y0097412D01*
X0038698Y0095661D02*
X0039484Y0094875D01*
X0039877Y0093909D02*
X0039877Y0092337D01*
X0039091Y0093123D02*
X0040663Y0093123D01*
X0041056Y0097412D02*
X0041056Y0098984D01*
X0041593Y0054808D02*
X0041200Y0054415D01*
X0041200Y0052843D01*
X0041593Y0052450D01*
X0042379Y0052450D01*
X0042772Y0052843D01*
X0043738Y0052843D02*
X0044131Y0052450D01*
X0044917Y0052450D01*
X0045310Y0052843D01*
X0045310Y0053629D01*
X0044917Y0054022D01*
X0044524Y0054022D01*
X0043738Y0053629D01*
X0043738Y0054808D01*
X0045310Y0054808D01*
X0042772Y0054415D02*
X0042379Y0054808D01*
X0041593Y0054808D01*
X0096200Y0053165D02*
X0096200Y0051593D01*
X0096593Y0051200D01*
X0097379Y0051200D01*
X0097772Y0051593D01*
X0097772Y0053165D01*
X0097379Y0053558D01*
X0096593Y0053558D01*
X0096200Y0053165D01*
X0098738Y0053558D02*
X0098738Y0051593D01*
X0099131Y0051200D01*
X0099917Y0051200D01*
X0100310Y0051593D01*
X0100310Y0053558D01*
X0101275Y0053558D02*
X0102847Y0053558D01*
X0102061Y0053558D02*
X0102061Y0051200D01*
X0099464Y0098700D02*
X0099464Y0101058D01*
X0097892Y0101058D02*
X0099464Y0098700D01*
X0097892Y0098700D02*
X0097892Y0101058D01*
X0096986Y0101058D02*
X0096200Y0101058D01*
X0096593Y0101058D02*
X0096593Y0098700D01*
X0096200Y0098700D02*
X0096986Y0098700D01*
D12*
X0032200Y0063500D02*
X0032200Y0061000D01*
X0032200Y0058500D01*
X0029700Y0058500D02*
X0029700Y0061000D01*
X0029700Y0063500D01*
D13*
X0029700Y0061000D02*
X0025000Y0061000D01*
X0032200Y0061000D02*
X0037000Y0061000D01*
X0044500Y0056000D02*
X0044560Y0056002D01*
X0044621Y0056007D01*
X0044680Y0056016D01*
X0044739Y0056029D01*
X0044798Y0056045D01*
X0044855Y0056065D01*
X0044910Y0056088D01*
X0044965Y0056115D01*
X0045017Y0056144D01*
X0045068Y0056177D01*
X0045117Y0056213D01*
X0045163Y0056251D01*
X0045207Y0056293D01*
X0045249Y0056337D01*
X0045287Y0056383D01*
X0045323Y0056432D01*
X0045356Y0056483D01*
X0045385Y0056535D01*
X0045412Y0056590D01*
X0045435Y0056645D01*
X0045455Y0056702D01*
X0045471Y0056761D01*
X0045484Y0056820D01*
X0045493Y0056879D01*
X0045498Y0056940D01*
X0045500Y0057000D01*
X0045500Y0065000D01*
X0045498Y0065060D01*
X0045493Y0065121D01*
X0045484Y0065180D01*
X0045471Y0065239D01*
X0045455Y0065298D01*
X0045435Y0065355D01*
X0045412Y0065410D01*
X0045385Y0065465D01*
X0045356Y0065517D01*
X0045323Y0065568D01*
X0045287Y0065617D01*
X0045249Y0065663D01*
X0045207Y0065707D01*
X0045163Y0065749D01*
X0045117Y0065787D01*
X0045068Y0065823D01*
X0045017Y0065856D01*
X0044965Y0065885D01*
X0044910Y0065912D01*
X0044855Y0065935D01*
X0044798Y0065955D01*
X0044739Y0065971D01*
X0044680Y0065984D01*
X0044621Y0065993D01*
X0044560Y0065998D01*
X0044500Y0066000D01*
X0017500Y0066000D01*
X0017440Y0065998D01*
X0017379Y0065993D01*
X0017320Y0065984D01*
X0017261Y0065971D01*
X0017202Y0065955D01*
X0017145Y0065935D01*
X0017090Y0065912D01*
X0017035Y0065885D01*
X0016983Y0065856D01*
X0016932Y0065823D01*
X0016883Y0065787D01*
X0016837Y0065749D01*
X0016793Y0065707D01*
X0016751Y0065663D01*
X0016713Y0065617D01*
X0016677Y0065568D01*
X0016644Y0065517D01*
X0016615Y0065465D01*
X0016588Y0065410D01*
X0016565Y0065355D01*
X0016545Y0065298D01*
X0016529Y0065239D01*
X0016516Y0065180D01*
X0016507Y0065121D01*
X0016502Y0065060D01*
X0016500Y0065000D01*
X0016500Y0057000D01*
X0016502Y0056940D01*
X0016507Y0056879D01*
X0016516Y0056820D01*
X0016529Y0056761D01*
X0016545Y0056702D01*
X0016565Y0056645D01*
X0016588Y0056590D01*
X0016615Y0056535D01*
X0016644Y0056483D01*
X0016677Y0056432D01*
X0016713Y0056383D01*
X0016751Y0056337D01*
X0016793Y0056293D01*
X0016837Y0056251D01*
X0016883Y0056213D01*
X0016932Y0056177D01*
X0016983Y0056144D01*
X0017035Y0056115D01*
X0017090Y0056088D01*
X0017145Y0056065D01*
X0017202Y0056045D01*
X0017261Y0056029D01*
X0017320Y0056016D01*
X0017379Y0056007D01*
X0017440Y0056002D01*
X0017500Y0056000D01*
X0044500Y0056000D01*
X0046000Y0071000D02*
X0043500Y0073500D01*
X0043500Y0078500D01*
X0046000Y0081000D01*
X0043500Y0083500D01*
X0043500Y0088500D01*
X0046000Y0091000D01*
X0043500Y0093500D01*
X0043500Y0098500D01*
X0046000Y0101000D01*
X0051000Y0101000D01*
X0053500Y0098500D01*
X0053500Y0093500D01*
X0051000Y0091000D01*
X0053500Y0088500D01*
X0053500Y0083500D01*
X0051000Y0081000D01*
X0053500Y0078500D01*
X0053500Y0073500D01*
X0051000Y0071000D01*
X0046000Y0071000D01*
X0046000Y0081000D02*
X0051000Y0081000D01*
X0051000Y0091000D02*
X0046000Y0091000D01*
X0021325Y0085144D02*
X0019750Y0082781D01*
X0018175Y0085144D01*
X0021325Y0085144D01*
D14*
X0023000Y0049500D02*
X0012000Y0049500D01*
X0012000Y0034500D01*
X0011315Y0018126D02*
X0011315Y0006315D01*
X0023126Y0006315D01*
X0037500Y0006000D02*
X0050500Y0006000D01*
X0050500Y0019000D01*
X0061315Y0018126D02*
X0061315Y0006315D01*
X0073126Y0006315D01*
X0087500Y0006000D02*
X0100500Y0006000D01*
X0100500Y0019000D01*
X0100500Y0032500D02*
X0100500Y0049500D01*
X0090500Y0049500D01*
X0087500Y0053500D02*
X0100500Y0053500D01*
X0100500Y0066500D01*
X0100500Y0080000D02*
X0100500Y0097000D01*
X0090500Y0097000D01*
X0073000Y0097000D02*
X0062000Y0097000D01*
X0062000Y0082000D01*
X0061315Y0065626D02*
X0061315Y0053815D01*
X0073126Y0053815D01*
X0073000Y0049500D02*
X0062000Y0049500D01*
X0062000Y0034500D01*
X0050500Y0032500D02*
X0050500Y0049500D01*
X0040500Y0049500D01*
M02*
