G75*
%MOIN*%
%OFA0B0*%
%FSLAX25Y25*%
%IPPOS*%
%LPD*%
%AMOC8*
5,1,8,0,0,1.08239X$1,22.5*
%
%ADD10C,0.00000*%
%ADD11R,0.06706X0.05918*%
%ADD12R,0.05918X0.06706*%
%ADD13OC8,0.06000*%
%ADD14R,0.05524X0.06706*%
%ADD15R,0.03162X0.09461*%
%ADD16C,0.06800*%
%ADD17C,0.14643*%
%ADD18C,0.09658*%
%ADD19C,0.04800*%
D10*
X0003500Y0001000D02*
X0003500Y0104711D01*
X0107201Y0104711D01*
X0107201Y0001000D01*
X0003500Y0001000D01*
D11*
X0034750Y0081010D03*
X0034750Y0088490D03*
X0068500Y0089760D03*
X0068500Y0097240D03*
D12*
X0077260Y0076000D03*
X0084740Y0076000D03*
X0054740Y0038500D03*
X0047260Y0038500D03*
X0034740Y0028500D03*
X0027260Y0028500D03*
X0018490Y0039750D03*
X0011010Y0039750D03*
X0077260Y0028500D03*
X0084740Y0028500D03*
D13*
X0041000Y0061000D03*
X0021000Y0061000D03*
D14*
X0012250Y0061709D03*
X0012250Y0050291D03*
X0054750Y0049041D03*
X0054750Y0060459D03*
D15*
X0026000Y0073264D03*
X0021000Y0073264D03*
X0016000Y0073264D03*
X0011000Y0073264D03*
X0011000Y0093736D03*
X0016000Y0093736D03*
X0021000Y0093736D03*
X0026000Y0093736D03*
D16*
X0045500Y0096000D02*
X0051500Y0096000D01*
X0051500Y0086000D02*
X0045500Y0086000D01*
X0045500Y0076000D02*
X0051500Y0076000D01*
D17*
X0064465Y0073500D03*
X0081000Y0060508D03*
X0081000Y0045291D03*
X0064465Y0026000D03*
X0081000Y0013008D03*
X0031000Y0013008D03*
X0014465Y0026000D03*
X0031000Y0045291D03*
X0081000Y0092791D03*
D18*
X0097535Y0073500D03*
X0097535Y0026000D03*
X0047535Y0026000D03*
D19*
X0067600Y0037900D03*
X0029800Y0064000D03*
X0026200Y0081100D03*
X0012700Y0086500D03*
X0058600Y0096400D03*
M02*
