G75*
%MOIN*%
%OFA0B0*%
%FSLAX25Y25*%
%IPPOS*%
%LPD*%
%AMOC8*
5,1,8,0,0,1.08239X$1,22.5*
%
%ADD10C,0.00000*%
%ADD11OC8,0.05200*%
%ADD12R,0.04724X0.05906*%
%ADD13C,0.06000*%
%ADD14C,0.13843*%
%ADD15C,0.08858*%
%ADD16C,0.01000*%
%ADD17C,0.04000*%
D10*
X0003500Y0001000D02*
X0003500Y0104711D01*
X0107201Y0104711D01*
X0107201Y0001000D01*
X0003500Y0001000D01*
D11*
X0021000Y0061000D03*
X0041000Y0061000D03*
D12*
X0019750Y0079041D03*
X0019750Y0090459D03*
D13*
X0045500Y0086000D02*
X0051500Y0086000D01*
X0051500Y0096000D02*
X0045500Y0096000D01*
X0045500Y0076000D02*
X0051500Y0076000D01*
D14*
X0064465Y0073500D03*
X0081000Y0060508D03*
X0081000Y0045291D03*
X0064465Y0026000D03*
X0081000Y0013008D03*
X0031000Y0013008D03*
X0014465Y0026000D03*
X0031000Y0045291D03*
X0081000Y0092791D03*
D15*
X0097535Y0073500D03*
X0097535Y0026000D03*
X0047535Y0026000D03*
D16*
X0046900Y0025300D01*
X0043300Y0025300D01*
X0031600Y0013600D01*
X0031000Y0013008D01*
X0030700Y0013600D01*
X0019000Y0025300D01*
X0014500Y0025300D01*
X0014465Y0026000D01*
X0038800Y0056800D02*
X0042400Y0056800D01*
X0055900Y0070300D01*
X0055900Y0076600D01*
X0071200Y0091900D01*
X0080200Y0091900D01*
X0081000Y0092791D01*
X0097535Y0073500D02*
X0097300Y0073000D01*
X0092800Y0073000D01*
X0081100Y0061300D01*
X0081000Y0060508D01*
X0067600Y0037900D02*
X0050500Y0037900D01*
X0012700Y0075700D01*
X0012700Y0086500D01*
X0019750Y0090459D02*
X0019900Y0091000D01*
X0033400Y0091000D01*
X0037900Y0095500D01*
X0047800Y0095500D01*
X0048500Y0096000D01*
X0053200Y0091000D02*
X0036100Y0091000D01*
X0026200Y0081100D01*
X0024400Y0079300D01*
X0019900Y0079300D01*
X0019750Y0079041D01*
X0029800Y0064000D02*
X0031600Y0064000D01*
X0038800Y0056800D01*
X0041000Y0061000D02*
X0040600Y0061300D01*
X0040600Y0078400D01*
X0047800Y0085600D01*
X0048500Y0086000D01*
X0053200Y0091000D02*
X0058600Y0096400D01*
X0064000Y0026200D02*
X0047800Y0026200D01*
X0047535Y0026000D01*
X0064000Y0026200D02*
X0064465Y0026000D01*
X0064900Y0025300D01*
X0076600Y0013600D01*
X0080200Y0013600D01*
X0081000Y0013008D01*
X0081100Y0013600D01*
X0092800Y0025300D01*
X0097300Y0025300D01*
X0097535Y0026000D01*
D17*
X0067600Y0037900D03*
X0029800Y0064000D03*
X0026200Y0081100D03*
X0012700Y0086500D03*
X0058600Y0096400D03*
M02*
