  0
SECTION
  2
HEADER
  9
$MEASUREMENT
  70
  1
  9
$INSUNITS
  70
  4
  0
ENDSEC
  0
SECTION
  2
TABLES
  0
TABLE
  2
LTYPE
 70
     1
  0
LTYPE
  2
CONTINUOUS
 70
    64
  3
Ausgezogene Linie
 72
    65
 73
     0
 40
0.0
  0
ENDTAB
  0
TABLE
  2
LAYER
 70
     3
  0
LAYER
  2
Contour
 70
    64
 62
     7
  6
CONTINUOUS
  0
LAYER
  2
Engraving
 70
    64
 62
     7
  6
CONTINUOUS
  0
LAYER
  2
Reference_points
 70
    64
 62
     1
  6
CONTINUOUS
  0
ENDTAB
  0
TABLE
  2
STYLE
 70
     1
  0
STYLE
  2
TXT
 70
    64
 40
0.0
 41
1.0
 50
0.0
 71
     0
 42
3.500000
  3
TXT
  0
ENDTAB
  0
ENDSEC
  0
SECTION
  2
BLOCKS
  0
ENDSEC
  0
SECTION
  2
ENTITIES
  0
LINE
  8
Contour
 62
   7
 39
0.100
  6
CONTINUOUS
 10
19.98000
 20
128.40000
 30
 0
 11
0.00000
 21
128.40000
  0
LINE
  8
Contour
 62
   7
 39
0.100
  6
CONTINUOUS
 10
0.00000
 20
128.40000
 30
 0
 11
0.00000
 21
128.40000
  0
LINE
  8
Contour
 62
   7
 39
0.100
  6
CONTINUOUS
 10
0.00000
 20
128.40000
 30
 0
 11
0.00000
 21
0.00000
  0
LINE
  8
Contour
 62
   7
 39
0.100
  6
CONTINUOUS
 10
0.00000
 20
0.00000
 30
 0
 11
0.00000
 21
0.00000
  0
LINE
  8
Contour
 62
   7
 39
0.100
  6
CONTINUOUS
 10
0.00000
 20
0.00000
 30
 0
 11
19.98000
 21
0.00000
  0
LINE
  8
Contour
 62
   7
 39
0.100
  6
CONTINUOUS
 10
19.98000
 20
0.00000
 30
 0
 11
19.98000
 21
0.00000
  0
LINE
  8
Contour
 62
   7
 39
0.100
  6
CONTINUOUS
 10
19.98000
 20
0.00000
 30
 0
 11
19.98000
 21
128.40000
  0
LINE
  8
Contour
 62
   7
 39
0.100
  6
CONTINUOUS
 10
19.98000
 20
128.40000
 30
 0
 11
19.98000
 21
128.40000
  0
LINE
  8
Engraving
 62
   7
 39
0.400
  6
CONTINUOUS
 10
2.49900
 20
32.24100
 30
 0
 11
2.49900
 21
33.56600
  0
LINE
  8
Engraving
 62
   7
 39
0.400
  6
CONTINUOUS
 10
0.97100
 20
34.24600
 30
 0
 11
0.97100
 21
32.20800
  0
LINE
  8
Engraving
 62
   7
 39
0.400
  6
CONTINUOUS
 10
0.97100
 20
32.20800
 30
 0
 11
4.02800
 21
32.20800
  0
LINE
  8
Engraving
 62
   7
 39
0.400
  6
CONTINUOUS
 10
0.93700
 20
35.26500
 30
 0
 11
1.20900
 21
35.26500
  0
LINE
  8
Engraving
 62
   7
 39
0.400
  6
CONTINUOUS
 10
1.88800
 20
35.26500
 30
 0
 11
4.02800
 21
35.26500
  0
LINE
  8
Engraving
 62
   7
 39
0.400
  6
CONTINUOUS
 10
0.97100
 20
36.28400
 30
 0
 11
4.02800
 21
36.28400
  0
LINE
  8
Engraving
 62
   7
 39
0.400
  6
CONTINUOUS
 10
1.92200
 20
37.26900
 30
 0
 11
1.92200
 21
38.11800
  0
LINE
  8
Engraving
 62
   7
 39
0.400
  6
CONTINUOUS
 10
0.97100
 20
37.67600
 30
 0
 11
4.02800
 21
37.67600
  0
LINE
  8
Engraving
 62
   7
 39
0.400
  6
CONTINUOUS
 10
2.87300
 20
39.13700
 30
 0
 11
2.87300
 21
40.76700
  0
ARC
  8
Engraving
 62
   7
 39
0.400
  6
CONTINUOUS
 10
2.83700
 20
39.76000
 30
 0
 40
1.00800
 50
87.95256
 51
120.20324
  0
ARC
  8
Engraving
 62
   7
 39
0.400
  6
CONTINUOUS
 10
2.70200
 20
39.98400
 30
 0
 40
0.74600
 50
119.89724
 51
179.84639
  0
ARC
  8
Engraving
 62
   7
 39
0.400
  6
CONTINUOUS
 10
2.75500
 20
39.98800
 30
 0
 40
0.79900
 50
-179.85658
 51
-116.53299
  0
ARC
  8
Engraving
 62
   7
 39
0.400
  6
CONTINUOUS
 10
3.00900
 20
40.49500
 30
 0
 40
1.36600
 50
-116.56505
 51
-63.43495
  0
ARC
  8
Engraving
 62
   7
 39
0.400
  6
CONTINUOUS
 10
3.26300
 20
39.98800
 30
 0
 40
0.79900
 50
-63.46701
 51
-0.14342
  0
ARC
  8
Engraving
 62
   7
 39
0.400
  6
CONTINUOUS
 10
3.18800
 20
39.98200
 30
 0
 40
0.87400
 50
0.26222
 51
55.11001
  0
LINE
  8
Engraving
 62
   7
 39
0.400
  6
CONTINUOUS
 10
1.88800
 20
41.78600
 30
 0
 11
4.02800
 21
41.78600
  0
LINE
  8
Engraving
 62
   7
 39
0.400
  6
CONTINUOUS
 10
4.02800
 20
41.78600
 30
 0
 11
2.63500
 21
41.78600
  0
ARC
  8
Engraving
 62
   7
 39
0.400
  6
CONTINUOUS
 10
2.77700
 20
42.66400
 30
 0
 40
0.88900
 50
179.67775
 51
-99.18697
  0
LINE
  8
Engraving
 62
   7
 39
0.400
  6
CONTINUOUS
 10
2.66900
 20
43.82400
 30
 0
 11
2.66900
 21
43.65400
  0
LINE
  8
Engraving
 62
   7
 39
0.400
  6
CONTINUOUS
 10
2.66900
 20
43.65400
 30
 0
 11
2.49900
 21
43.65400
  0
LINE
  8
Engraving
 62
   7
 39
0.400
  6
CONTINUOUS
 10
2.49900
 20
43.65400
 30
 0
 11
2.49900
 21
43.82400
  0
LINE
  8
Engraving
 62
   7
 39
0.400
  6
CONTINUOUS
 10
2.49900
 20
43.82400
 30
 0
 11
2.66900
 21
43.82400
  0
LINE
  8
Engraving
 62
   7
 39
0.400
  6
CONTINUOUS
 10
4.02800
 20
43.82400
 30
 0
 11
4.02800
 21
43.65400
  0
LINE
  8
Engraving
 62
   7
 39
0.400
  6
CONTINUOUS
 10
4.02800
 20
43.65400
 30
 0
 11
3.85800
 21
43.65400
  0
LINE
  8
Engraving
 62
   7
 39
0.400
  6
CONTINUOUS
 10
3.85800
 20
43.65400
 30
 0
 11
3.85800
 21
43.82400
  0
LINE
  8
Engraving
 62
   7
 39
0.400
  6
CONTINUOUS
 10
3.85800
 20
43.82400
 30
 0
 11
4.02800
 21
43.82400
  0
LINE
  8
Engraving
 62
   7
 39
0.400
  6
CONTINUOUS
 10
2.66900
 20
44.97900
 30
 0
 11
2.66900
 21
44.80900
  0
LINE
  8
Engraving
 62
   7
 39
0.400
  6
CONTINUOUS
 10
2.66900
 20
44.80900
 30
 0
 11
2.49900
 21
44.80900
  0
LINE
  8
Engraving
 62
   7
 39
0.400
  6
CONTINUOUS
 10
2.49900
 20
44.80900
 30
 0
 11
2.49900
 21
44.97900
  0
LINE
  8
Engraving
 62
   7
 39
0.400
  6
CONTINUOUS
 10
2.49900
 20
44.97900
 30
 0
 11
2.66900
 21
44.97900
  0
LINE
  8
Engraving
 62
   7
 39
0.400
  6
CONTINUOUS
 10
4.02800
 20
44.97900
 30
 0
 11
4.02800
 21
44.80900
  0
LINE
  8
Engraving
 62
   7
 39
0.400
  6
CONTINUOUS
 10
4.02800
 20
44.80900
 30
 0
 11
3.85800
 21
44.80900
  0
LINE
  8
Engraving
 62
   7
 39
0.400
  6
CONTINUOUS
 10
3.85800
 20
44.80900
 30
 0
 11
3.85800
 21
44.97900
  0
LINE
  8
Engraving
 62
   7
 39
0.400
  6
CONTINUOUS
 10
3.85800
 20
44.97900
 30
 0
 11
4.02800
 21
44.97900
  0
LINE
  8
Engraving
 62
   7
 39
0.400
  6
CONTINUOUS
 10
4.02800
 20
45.99800
 30
 0
 11
0.97100
 21
45.99800
  0
LINE
  8
Engraving
 62
   7
 39
0.400
  6
CONTINUOUS
 10
0.97100
 20
45.99800
 30
 0
 11
0.97100
 21
47.45900
  0
ARC
  8
Engraving
 62
   7
 39
0.400
  6
CONTINUOUS
 10
1.75200
 20
47.45900
 30
 0
 40
0.78100
 50
360.00000
 51
180.00000
  0
LINE
  8
Engraving
 62
   7
 39
0.400
  6
CONTINUOUS
 10
2.53300
 20
47.45900
 30
 0
 11
2.53300
 21
45.99800
  0
LINE
  8
Engraving
 62
   7
 39
0.400
  6
CONTINUOUS
 10
2.53300
 20
45.99800
 30
 0
 11
2.53300
 21
47.35700
  0
LINE
  8
Engraving
 62
   7
 39
0.400
  6
CONTINUOUS
 10
2.53300
 20
47.35700
 30
 0
 11
4.02800
 21
48.03600
  0
LINE
  8
Engraving
 62
   7
 39
0.400
  6
CONTINUOUS
 10
2.87300
 20
49.25900
 30
 0
 11
2.87300
 21
50.88900
  0
ARC
  8
Engraving
 62
   7
 39
0.400
  6
CONTINUOUS
 10
2.83700
 20
49.88200
 30
 0
 40
1.00800
 50
87.95256
 51
120.20324
  0
ARC
  8
Engraving
 62
   7
 39
0.400
  6
CONTINUOUS
 10
2.70200
 20
50.10600
 30
 0
 40
0.74600
 50
119.89724
 51
179.84639
  0
ARC
  8
Engraving
 62
   7
 39
0.400
  6
CONTINUOUS
 10
2.75500
 20
50.11000
 30
 0
 40
0.79900
 50
-179.85658
 51
-116.53299
  0
ARC
  8
Engraving
 62
   7
 39
0.400
  6
CONTINUOUS
 10
3.00900
 20
50.61700
 30
 0
 40
1.36600
 50
-116.56505
 51
-63.43495
  0
ARC
  8
Engraving
 62
   7
 39
0.400
  6
CONTINUOUS
 10
3.26300
 20
50.11000
 30
 0
 40
0.79900
 50
-63.46701
 51
-0.14342
  0
ARC
  8
Engraving
 62
   7
 39
0.400
  6
CONTINUOUS
 10
3.18800
 20
50.10400
 30
 0
 40
0.87400
 50
0.26222
 51
55.11001
  0
ARC
  8
Engraving
 62
   7
 39
0.400
  6
CONTINUOUS
 10
3.52900
 20
52.30500
 30
 0
 40
0.45700
 50
-60.23958
 51
-29.76042
  0
ARC
  8
Engraving
 62
   7
 39
0.400
  6
CONTINUOUS
 10
3.16000
 20
52.52000
 30
 0
 40
0.88400
 50
-29.98596
 51
29.92981
  0
ARC
  8
Engraving
 62
   7
 39
0.400
  6
CONTINUOUS
 10
3.52400
 20
52.72300
 30
 0
 40
0.46700
 50
30.62722
 51
163.07759
  0
LINE
  8
Engraving
 62
   7
 39
0.400
  6
CONTINUOUS
 10
3.07700
 20
52.85900
 30
 0
 11
2.87300
 21
52.18000
  0
ARC
  8
Engraving
 62
   7
 39
0.400
  6
CONTINUOUS
 10
2.45900
 20
52.31000
 30
 0
 40
0.43400
 50
212.29913
 51
-17.43279
  0
ARC
  8
Engraving
 62
   7
 39
0.400
  6
CONTINUOUS
 10
2.79100
 20
52.52300
 30
 0
 40
0.82900
 50
132.79928
 51
-147.51820
  0
ARC
  8
Engraving
 62
   7
 39
0.400
  6
CONTINUOUS
 10
3.00900
 20
55.57600
 30
 0
 40
1.36600
 50
-116.56505
 51
-63.43495
  0
ARC
  8
Engraving
 62
   7
 39
0.400
  6
CONTINUOUS
 10
3.26800
 20
55.06700
 30
 0
 40
0.79500
 50
-63.72497
 51
63.72497
  0
ARC
  8
Engraving
 62
   7
 39
0.400
  6
CONTINUOUS
 10
3.00900
 20
54.55800
 30
 0
 40
1.36600
 50
63.43495
 51
116.56505
  0
ARC
  8
Engraving
 62
   7
 39
0.400
  6
CONTINUOUS
 10
2.75000
 20
55.06700
 30
 0
 40
0.79500
 50
116.27503
 51
243.72497
  0
LINE
  8
Engraving
 62
   7
 39
0.400
  6
CONTINUOUS
 10
4.02800
 20
56.90100
 30
 0
 11
1.88800
 21
56.90100
  0
LINE
  8
Engraving
 62
   7
 39
0.400
  6
CONTINUOUS
 10
1.88800
 20
56.90100
 30
 0
 11
2.43200
 21
56.90100
  0
ARC
  8
Engraving
 62
   7
 39
0.400
  6
CONTINUOUS
 10
2.87600
 20
57.78400
 30
 0
 40
0.98800
 50
180.00000
 51
-116.69468
  0
ARC
  8
Engraving
 62
   7
 39
0.400
  6
CONTINUOUS
 10
2.46200
 20
57.78800
 30
 0
 40
0.57400
 50
89.60073
 51
-179.60073
  0
LINE
  8
Engraving
 62
   7
 39
0.400
  6
CONTINUOUS
 10
2.46600
 20
58.36200
 30
 0
 11
4.02800
 21
58.36200
  0
LINE
  8
Engraving
 62
   7
 39
0.400
  6
CONTINUOUS
 10
1.92200
 20
60.94300
 30
 0
 11
4.02800
 21
60.94300
  0
LINE
  8
Engraving
 62
   7
 39
0.400
  6
CONTINUOUS
 10
4.02800
 20
60.94300
 30
 0
 11
3.68800
 21
60.94300
  0
ARC
  8
Engraving
 62
   7
 39
0.400
  6
CONTINUOUS
 10
3.18800
 20
60.22600
 30
 0
 40
0.87400
 50
360.26222
 51
55.11001
  0
ARC
  8
Engraving
 62
   7
 39
0.400
  6
CONTINUOUS
 10
3.26300
 20
60.23200
 30
 0
 40
0.79900
 50
296.53299
 51
-0.14342
  0
ARC
  8
Engraving
 62
   7
 39
0.400
  6
CONTINUOUS
 10
3.00900
 20
60.73900
 30
 0
 40
1.36600
 50
243.43495
 51
-63.43495
  0
ARC
  8
Engraving
 62
   7
 39
0.400
  6
CONTINUOUS
 10
2.75500
 20
60.23200
 30
 0
 40
0.79900
 50
180.14342
 51
-116.53299
  0
ARC
  8
Engraving
 62
   7
 39
0.400
  6
CONTINUOUS
 10
2.83000
 20
60.22600
 30
 0
 40
0.87400
 50
484.88999
 51
179.73778
  0
LINE
  8
Engraving
 62
   7
 39
0.400
  6
CONTINUOUS
 10
4.02800
 20
61.92800
 30
 0
 11
1.88800
 21
61.92800
  0
LINE
  8
Engraving
 62
   7
 39
0.400
  6
CONTINUOUS
 10
1.88800
 20
61.92800
 30
 0
 11
2.43200
 21
61.92800
  0
ARC
  8
Engraving
 62
   7
 39
0.400
  6
CONTINUOUS
 10
2.87600
 20
62.81100
 30
 0
 40
0.98800
 50
180.00000
 51
-116.69468
  0
ARC
  8
Engraving
 62
   7
 39
0.400
  6
CONTINUOUS
 10
2.46200
 20
62.81500
 30
 0
 40
0.57400
 50
89.60073
 51
-179.60073
  0
LINE
  8
Engraving
 62
   7
 39
0.400
  6
CONTINUOUS
 10
2.46600
 20
63.38900
 30
 0
 11
4.02800
 21
63.38900
  0
LINE
  8
Engraving
 62
   7
 39
0.400
  6
CONTINUOUS
 10
1.92200
 20
64.37400
 30
 0
 11
1.92200
 21
65.22300
  0
LINE
  8
Engraving
 62
   7
 39
0.400
  6
CONTINUOUS
 10
0.97100
 20
64.78200
 30
 0
 11
4.02800
 21
64.78200
  0
LINE
  8
Engraving
 62
   7
 39
0.400
  6
CONTINUOUS
 10
2.43200
 20
69.60500
 30
 0
 11
2.43200
 21
70.82800
  0
ARC
  8
Engraving
 62
   7
 39
0.400
  6
CONTINUOUS
 10
1.70200
 20
70.82800
 30
 0
 40
0.73000
 50
0.00000
 51
180.00000
  0
LINE
  8
Engraving
 62
   7
 39
0.400
  6
CONTINUOUS
 10
0.97100
 20
70.82800
 30
 0
 11
0.97100
 21
69.60500
  0
LINE
  8
Engraving
 62
   7
 39
0.400
  6
CONTINUOUS
 10
0.97100
 20
69.60500
 30
 0
 11
4.02800
 21
69.60500
  0
LINE
  8
Engraving
 62
   7
 39
0.400
  6
CONTINUOUS
 10
4.02800
 20
69.60500
 30
 0
 11
4.02800
 21
70.86200
  0
ARC
  8
Engraving
 62
   7
 39
0.400
  6
CONTINUOUS
 10
3.23000
 20
70.86200
 30
 0
 40
0.79800
 50
0.00000
 51
180.00000
  0
LINE
  8
Engraving
 62
   7
 39
0.400
  6
CONTINUOUS
 10
1.92200
 20
74.25800
 30
 0
 11
4.02800
 21
74.25800
  0
LINE
  8
Engraving
 62
   7
 39
0.400
  6
CONTINUOUS
 10
4.02800
 20
74.25800
 30
 0
 11
3.68800
 21
74.25800
  0
ARC
  8
Engraving
 62
   7
 39
0.400
  6
CONTINUOUS
 10
3.18800
 20
73.54100
 30
 0
 40
0.87400
 50
360.26222
 51
55.11001
  0
ARC
  8
Engraving
 62
   7
 39
0.400
  6
CONTINUOUS
 10
3.26300
 20
73.54700
 30
 0
 40
0.79900
 50
296.53299
 51
-0.14342
  0
ARC
  8
Engraving
 62
   7
 39
0.400
  6
CONTINUOUS
 10
3.00900
 20
74.05400
 30
 0
 40
1.36600
 50
243.43495
 51
-63.43495
  0
ARC
  8
Engraving
 62
   7
 39
0.400
  6
CONTINUOUS
 10
2.75500
 20
73.54700
 30
 0
 40
0.79900
 50
180.14342
 51
-116.53299
  0
ARC
  8
Engraving
 62
   7
 39
0.400
  6
CONTINUOUS
 10
2.83000
 20
73.54100
 30
 0
 40
0.87400
 50
484.88999
 51
179.73778
  0
LINE
  8
Engraving
 62
   7
 39
0.400
  6
CONTINUOUS
 10
4.02800
 20
75.24300
 30
 0
 11
1.88800
 21
75.24300
  0
LINE
  8
Engraving
 62
   7
 39
0.400
  6
CONTINUOUS
 10
1.88800
 20
75.24300
 30
 0
 11
2.43200
 21
75.24300
  0
ARC
  8
Engraving
 62
   7
 39
0.400
  6
CONTINUOUS
 10
2.87600
 20
76.12600
 30
 0
 40
0.98800
 50
180.00000
 51
-116.69468
  0
ARC
  8
Engraving
 62
   7
 39
0.400
  6
CONTINUOUS
 10
2.46200
 20
76.13000
 30
 0
 40
0.57400
 50
89.60073
 51
-179.60073
  0
LINE
  8
Engraving
 62
   7
 39
0.400
  6
CONTINUOUS
 10
2.46600
 20
76.70400
 30
 0
 11
4.02800
 21
76.70400
  0
LINE
  8
Engraving
 62
   7
 39
0.400
  6
CONTINUOUS
 10
0.97100
 20
79.28500
 30
 0
 11
4.02800
 21
79.28500
  0
LINE
  8
Engraving
 62
   7
 39
0.400
  6
CONTINUOUS
 10
4.02800
 20
79.28500
 30
 0
 11
3.68800
 21
79.28500
  0
ARC
  8
Engraving
 62
   7
 39
0.400
  6
CONTINUOUS
 10
3.18800
 20
78.56800
 30
 0
 40
0.87400
 50
360.26222
 51
55.11001
  0
ARC
  8
Engraving
 62
   7
 39
0.400
  6
CONTINUOUS
 10
3.26300
 20
78.57400
 30
 0
 40
0.79900
 50
296.53299
 51
-0.14342
  0
ARC
  8
Engraving
 62
   7
 39
0.400
  6
CONTINUOUS
 10
3.00900
 20
79.08100
 30
 0
 40
1.36600
 50
243.43495
 51
-63.43495
  0
ARC
  8
Engraving
 62
   7
 39
0.400
  6
CONTINUOUS
 10
2.75500
 20
78.57400
 30
 0
 40
0.79900
 50
180.14342
 51
-116.53299
  0
ARC
  8
Engraving
 62
   7
 39
0.400
  6
CONTINUOUS
 10
2.83000
 20
78.56800
 30
 0
 40
0.87400
 50
484.88999
 51
179.73778
  0
LINE
  8
Engraving
 62
   7
 39
0.400
  6
CONTINUOUS
 10
3.07700
 20
80.30400
 30
 0
 11
3.07700
 21
82.13900
  0
LINE
  8
Engraving
 62
   7
 39
0.400
  6
CONTINUOUS
 10
2.53300
 20
83.15800
 30
 0
 11
2.53300
 21
84.61800
  0
ARC
  8
Engraving
 62
   7
 39
0.400
  6
CONTINUOUS
 10
1.75200
 20
84.61800
 30
 0
 40
0.78100
 50
0.00000
 51
180.00000
  0
LINE
  8
Engraving
 62
   7
 39
0.400
  6
CONTINUOUS
 10
0.97100
 20
84.61800
 30
 0
 11
0.97100
 21
83.15800
  0
LINE
  8
Engraving
 62
   7
 39
0.400
  6
CONTINUOUS
 10
0.97100
 20
83.15800
 30
 0
 11
4.02800
 21
83.15800
  0
LINE
  8
Engraving
 62
   7
 39
0.400
  6
CONTINUOUS
 10
1.92200
 20
87.98100
 30
 0
 11
4.02800
 21
87.98100
  0
LINE
  8
Engraving
 62
   7
 39
0.400
  6
CONTINUOUS
 10
4.02800
 20
87.98100
 30
 0
 11
3.68800
 21
87.98100
  0
ARC
  8
Engraving
 62
   7
 39
0.400
  6
CONTINUOUS
 10
3.18800
 20
87.26400
 30
 0
 40
0.87400
 50
360.19667
 51
55.11001
  0
ARC
  8
Engraving
 62
   7
 39
0.400
  6
CONTINUOUS
 10
3.26300
 20
87.26900
 30
 0
 40
0.79900
 50
296.53299
 51
-0.14342
  0
ARC
  8
Engraving
 62
   7
 39
0.400
  6
CONTINUOUS
 10
3.00900
 20
87.77600
 30
 0
 40
1.36600
 50
243.43495
 51
-63.43495
  0
ARC
  8
Engraving
 62
   7
 39
0.400
  6
CONTINUOUS
 10
2.75500
 20
87.26900
 30
 0
 40
0.79900
 50
180.14342
 51
-116.53299
  0
ARC
  8
Engraving
 62
   7
 39
0.400
  6
CONTINUOUS
 10
2.83000
 20
87.26400
 30
 0
 40
0.87400
 50
484.88999
 51
179.80333
  0
ARC
  8
Engraving
 62
   7
 39
0.400
  6
CONTINUOUS
 10
3.52900
 20
89.39700
 30
 0
 40
0.45700
 50
-60.23958
 51
-29.76042
  0
ARC
  8
Engraving
 62
   7
 39
0.400
  6
CONTINUOUS
 10
3.16000
 20
89.61200
 30
 0
 40
0.88400
 50
-29.98596
 51
29.92981
  0
ARC
  8
Engraving
 62
   7
 39
0.400
  6
CONTINUOUS
 10
3.52400
 20
89.81500
 30
 0
 40
0.46700
 50
30.62722
 51
163.07759
  0
LINE
  8
Engraving
 62
   7
 39
0.400
  6
CONTINUOUS
 10
3.07700
 20
89.95100
 30
 0
 11
2.87300
 21
89.27200
  0
ARC
  8
Engraving
 62
   7
 39
0.400
  6
CONTINUOUS
 10
2.45900
 20
89.40200
 30
 0
 40
0.43400
 50
212.29913
 51
-17.43279
  0
ARC
  8
Engraving
 62
   7
 39
0.400
  6
CONTINUOUS
 10
2.79100
 20
89.61500
 30
 0
 40
0.82900
 50
132.79928
 51
-147.51820
  0
ARC
  8
Engraving
 62
   7
 39
0.400
  6
CONTINUOUS
 10
3.53000
 20
91.70700
 30
 0
 40
0.45700
 50
-60.34846
 51
-29.93151
  0
ARC
  8
Engraving
 62
   7
 39
0.400
  6
CONTINUOUS
 10
3.16000
 20
91.92100
 30
 0
 40
0.88400
 50
-29.98596
 51
29.92981
  0
ARC
  8
Engraving
 62
   7
 39
0.400
  6
CONTINUOUS
 10
3.52400
 20
92.12500
 30
 0
 40
0.46700
 50
30.52157
 51
163.07759
  0
LINE
  8
Engraving
 62
   7
 39
0.400
  6
CONTINUOUS
 10
3.07700
 20
92.26100
 30
 0
 11
2.87300
 21
91.58100
  0
ARC
  8
Engraving
 62
   7
 39
0.400
  6
CONTINUOUS
 10
2.45900
 20
91.71100
 30
 0
 40
0.43400
 50
212.29913
 51
-17.43279
  0
ARC
  8
Engraving
 62
   7
 39
0.400
  6
CONTINUOUS
 10
2.79100
 20
91.92400
 30
 0
 40
0.82900
 50
132.79928
 51
-147.51820
  0
ARC
  8
Engraving
 62
   7
 39
0.400
  6
CONTINUOUS
 10
17.51600
 20
90.56700
 30
 0
 40
0.95600
 50
120.74801
 51
129.78256
  0
ARC
  8
Engraving
 62
   7
 39
0.400
  6
CONTINUOUS
 10
17.22700
 20
90.90000
 30
 0
 40
0.51600
 50
128.78127
 51
231.28821
  0
ARC
  8
Engraving
 62
   7
 39
0.400
  6
CONTINUOUS
 10
17.50800
 20
91.24200
 30
 0
 40
0.95900
 50
-129.03300
 51
-50.96700
  0
ARC
  8
Engraving
 62
   7
 39
0.400
  6
CONTINUOUS
 10
17.78900
 20
90.90000
 30
 0
 40
0.51600
 50
-51.28821
 51
51.21873
  0
ARC
  8
Engraving
 62
   7
 39
0.400
  6
CONTINUOUS
 10
17.55000
 20
90.56400
 30
 0
 40
0.92800
 50
52.71009
 51
65.34134
  0
LINE
  8
Engraving
 62
   7
 39
0.400
  6
CONTINUOUS
 10
16.71200
 20
91.93200
 30
 0
 11
17.76200
 21
91.93200
  0
ARC
  8
Engraving
 62
   7
 39
0.400
  6
CONTINUOUS
 10
17.76200
 20
92.45700
 30
 0
 40
0.52500
 50
-90.00000
 51
90.00000
  0
LINE
  8
Engraving
 62
   7
 39
0.400
  6
CONTINUOUS
 10
17.76200
 20
92.98200
 30
 0
 11
16.71200
 21
92.98200
  0
LINE
  8
Engraving
 62
   7
 39
0.400
  6
CONTINUOUS
 10
16.71200
 20
93.50700
 30
 0
 11
16.71200
 21
94.73200
  0
LINE
  8
Engraving
 62
   7
 39
0.400
  6
CONTINUOUS
 10
16.71200
 20
94.73200
 30
 0
 11
16.71200
 21
94.11900
  0
LINE
  8
Engraving
 62
   7
 39
0.400
  6
CONTINUOUS
 10
16.71200
 20
94.11900
 30
 0
 11
18.28700
 21
94.11900
  0
LINE
  8
Engraving
 62
   7
 39
0.400
  6
CONTINUOUS
 10
16.71200
 20
95.25700
 30
 0
 11
18.28700
 21
95.25700
  0
ARC
  8
Engraving
 62
   7
 39
0.400
  6
CONTINUOUS
 10
17.51600
 20
74.80200
 30
 0
 40
0.95600
 50
120.74801
 51
129.78256
  0
ARC
  8
Engraving
 62
   7
 39
0.400
  6
CONTINUOUS
 10
17.22700
 20
75.13500
 30
 0
 40
0.51600
 50
128.78127
 51
231.28821
  0
ARC
  8
Engraving
 62
   7
 39
0.400
  6
CONTINUOUS
 10
17.50800
 20
75.47700
 30
 0
 40
0.95900
 50
-129.03300
 51
-50.96700
  0
ARC
  8
Engraving
 62
   7
 39
0.400
  6
CONTINUOUS
 10
17.78900
 20
75.13500
 30
 0
 40
0.51600
 50
-51.28821
 51
51.21873
  0
ARC
  8
Engraving
 62
   7
 39
0.400
  6
CONTINUOUS
 10
17.55000
 20
74.79900
 30
 0
 40
0.92800
 50
52.71009
 51
65.34134
  0
LINE
  8
Engraving
 62
   7
 39
0.400
  6
CONTINUOUS
 10
16.71200
 20
76.16700
 30
 0
 11
17.76200
 21
76.16700
  0
ARC
  8
Engraving
 62
   7
 39
0.400
  6
CONTINUOUS
 10
17.76200
 20
76.69200
 30
 0
 40
0.52500
 50
-90.00000
 51
90.00000
  0
LINE
  8
Engraving
 62
   7
 39
0.400
  6
CONTINUOUS
 10
17.76200
 20
77.21700
 30
 0
 11
16.71200
 21
77.21700
  0
LINE
  8
Engraving
 62
   7
 39
0.400
  6
CONTINUOUS
 10
16.71200
 20
77.74200
 30
 0
 11
16.71200
 21
78.96700
  0
LINE
  8
Engraving
 62
   7
 39
0.400
  6
CONTINUOUS
 10
16.71200
 20
78.96700
 30
 0
 11
16.71200
 21
78.35400
  0
LINE
  8
Engraving
 62
   7
 39
0.400
  6
CONTINUOUS
 10
16.71200
 20
78.35400
 30
 0
 11
18.28700
 21
78.35400
  0
ARC
  8
Engraving
 62
   7
 39
0.400
  6
CONTINUOUS
 10
17.11300
 20
79.93100
 30
 0
 40
0.37500
 50
208.13534
 51
-100.59153
  0
ARC
  8
Engraving
 62
   7
 39
0.400
  6
CONTINUOUS
 10
17.33500
 20
80.05200
 30
 0
 40
0.62800
 50
151.76107
 51
-151.68071
  0
ARC
  8
Engraving
 62
   7
 39
0.400
  6
CONTINUOUS
 10
17.11400
 20
80.15500
 30
 0
 40
0.38500
 50
390.22433
 51
149.70066
  0
LINE
  8
Engraving
 62
   7
 39
0.400
  6
CONTINUOUS
 10
17.44700
 20
80.34900
 30
 0
 11
17.81400
 21
79.75400
  0
ARC
  8
Engraving
 62
   7
 39
0.400
  6
CONTINUOUS
 10
18.28500
 20
80.04700
 30
 0
 40
0.55500
 50
-148.11505
 51
-89.79353
  0
LINE
  8
Engraving
 62
   7
 39
0.400
  6
CONTINUOUS
 10
18.28700
 20
79.49200
 30
 0
 11
18.28700
 21
80.54200
  0
LINE
  8
Engraving
 62
   7
 39
0.400
  6
CONTINUOUS
 10
18.28700
 20
60.16500
 30
 0
 11
16.71200
 21
60.16500
  0
LINE
  8
Engraving
 62
   7
 39
0.400
  6
CONTINUOUS
 10
16.71200
 20
60.16500
 30
 0
 11
16.71200
 21
60.91700
  0
ARC
  8
Engraving
 62
   7
 39
0.400
  6
CONTINUOUS
 10
17.11400
 20
60.89700
 30
 0
 40
0.40200
 50
362.84113
 51
177.15181
  0
LINE
  8
Engraving
 62
   7
 39
0.400
  6
CONTINUOUS
 10
17.51700
 20
60.91700
 30
 0
 11
17.51700
 21
60.16500
  0
LINE
  8
Engraving
 62
   7
 39
0.400
  6
CONTINUOUS
 10
17.51700
 20
60.16500
 30
 0
 11
17.51700
 21
60.86500
  0
LINE
  8
Engraving
 62
   7
 39
0.400
  6
CONTINUOUS
 10
17.51700
 20
60.86500
 30
 0
 11
18.28700
 21
61.21500
  0
LINE
  8
Engraving
 62
   7
 39
0.400
  6
CONTINUOUS
 10
17.44700
 20
61.86200
 30
 0
 11
17.44700
 21
62.54500
  0
LINE
  8
Engraving
 62
   7
 39
0.400
  6
CONTINUOUS
 10
16.71200
 20
62.89500
 30
 0
 11
16.71200
 21
61.84500
  0
LINE
  8
Engraving
 62
   7
 39
0.400
  6
CONTINUOUS
 10
16.71200
 20
61.84500
 30
 0
 11
18.28700
 21
61.84500
  0
LINE
  8
Engraving
 62
   7
 39
0.400
  6
CONTINUOUS
 10
18.28700
 20
61.84500
 30
 0
 11
18.28700
 21
62.89500
  0
ARC
  8
Engraving
 62
   7
 39
0.400
  6
CONTINUOUS
 10
17.90400
 20
63.75500
 30
 0
 40
0.35400
 50
-64.01441
 51
-33.46538
  0
ARC
  8
Engraving
 62
   7
 39
0.400
  6
CONTINUOUS
 10
17.60700
 20
63.90100
 30
 0
 40
0.68300
 50
-29.94252
 51
29.94252
  0
ARC
  8
Engraving
 62
   7
 39
0.400
  6
CONTINUOUS
 10
17.89900
 20
64.06900
 30
 0
 40
0.34600
 50
29.97062
 51
162.66575
  0
LINE
  8
Engraving
 62
   7
 39
0.400
  6
CONTINUOUS
 10
17.56900
 20
64.17200
 30
 0
 11
17.39400
 21
63.64700
  0
ARC
  8
Engraving
 62
   7
 39
0.400
  6
CONTINUOUS
 10
17.08500
 20
63.73800
 30
 0
 40
0.32200
 50
213.59128
 51
-16.40962
  0
ARC
  8
Engraving
 62
   7
 39
0.400
  6
CONTINUOUS
 10
17.35200
 20
63.90000
 30
 0
 40
0.63400
 50
132.76052
 51
-147.56347
  0
LINE
  8
Engraving
 62
   7
 39
0.400
  6
CONTINUOUS
 10
16.71200
 20
42.45300
 30
 0
 11
18.28700
 21
42.45300
  0
LINE
  8
Engraving
 62
   7
 39
0.400
  6
CONTINUOUS
 10
18.28700
 20
42.97800
 30
 0
 11
16.71200
 21
42.97800
  0
LINE
  8
Engraving
 62
   7
 39
0.400
  6
CONTINUOUS
 10
16.71200
 20
42.97800
 30
 0
 11
16.71200
 21
43.06500
  0
LINE
  8
Engraving
 62
   7
 39
0.400
  6
CONTINUOUS
 10
16.71200
 20
43.06500
 30
 0
 11
18.28700
 21
43.94000
  0
LINE
  8
Engraving
 62
   7
 39
0.400
  6
CONTINUOUS
 10
18.28700
 20
43.94000
 30
 0
 11
18.28700
 21
44.02800
  0
LINE
  8
Engraving
 62
   7
 39
0.400
  6
CONTINUOUS
 10
18.28700
 20
44.02800
 30
 0
 11
16.71200
 21
44.02800
  0
ARC
  8
Engraving
 62
   7
 39
0.400
  6
CONTINUOUS
 10
17.50800
 20
27.95200
 30
 0
 40
0.95900
 50
-129.03300
 51
-50.96700
  0
ARC
  8
Engraving
 62
   7
 39
0.400
  6
CONTINUOUS
 10
17.78900
 20
27.61000
 30
 0
 40
0.51600
 50
-51.28821
 51
51.21873
  0
ARC
  8
Engraving
 62
   7
 39
0.400
  6
CONTINUOUS
 10
17.50800
 20
27.26700
 30
 0
 40
0.95900
 50
50.96700
 51
129.03300
  0
ARC
  8
Engraving
 62
   7
 39
0.400
  6
CONTINUOUS
 10
17.22700
 20
27.61000
 30
 0
 40
0.51600
 50
128.78127
 51
231.28821
  0
LINE
  8
Engraving
 62
   7
 39
0.400
  6
CONTINUOUS
 10
16.71200
 20
28.74700
 30
 0
 11
17.76200
 21
28.74700
  0
ARC
  8
Engraving
 62
   7
 39
0.400
  6
CONTINUOUS
 10
17.76200
 20
29.27200
 30
 0
 40
0.52500
 50
-90.00000
 51
90.00000
  0
LINE
  8
Engraving
 62
   7
 39
0.400
  6
CONTINUOUS
 10
17.76200
 20
29.79700
 30
 0
 11
16.71200
 21
29.79700
  0
LINE
  8
Engraving
 62
   7
 39
0.400
  6
CONTINUOUS
 10
16.71200
 20
30.32200
 30
 0
 11
16.71200
 21
31.54700
  0
LINE
  8
Engraving
 62
   7
 39
0.400
  6
CONTINUOUS
 10
16.71200
 20
31.54700
 30
 0
 11
16.71200
 21
30.93400
  0
LINE
  8
Engraving
 62
   7
 39
0.400
  6
CONTINUOUS
 10
16.71200
 20
30.93400
 30
 0
 11
18.28700
 21
30.93400
  0
CIRCLE
  8
Contour
 62
   7
 39
0.100
  6
CONTINUOUS
 10
7.50000
 20
125.50000
 30
 0
 40
1.50000
  0
CIRCLE
  8
Contour
 62
   7
 39
0.100
  6
CONTINUOUS
 10
7.50000
 20
3.00000
 30
 0
 40
1.50000
  0
CIRCLE
  8
Contour
 62
   7
 39
0.100
  6
CONTINUOUS
 10
10.15500
 20
92.77000
 30
 0
 40
3.75000
  0
CIRCLE
  8
Contour
 62
   7
 39
0.100
  6
CONTINUOUS
 10
10.15500
 20
77.53000
 30
 0
 40
3.75000
  0
CIRCLE
  8
Contour
 62
   7
 39
0.100
  6
CONTINUOUS
 10
10.15500
 20
62.29000
 30
 0
 40
3.75000
  0
CIRCLE
  8
Contour
 62
   7
 39
0.100
  6
CONTINUOUS
 10
10.15500
 20
43.24000
 30
 0
 40
3.00000
  0
CIRCLE
  8
Contour
 62
   7
 39
0.100
  6
CONTINUOUS
 10
10.15500
 20
29.27000
 30
 0
 40
3.00000
  0
ENDSEC
  0
EOF
