G75*
%MOIN*%
%OFA0B0*%
%FSLAX25Y25*%
%IPPOS*%
%LPD*%
%AMOC8*
5,1,8,0,0,1.08239X$1,22.5*
%
%ADD10C,0.00000*%
%ADD11C,0.00400*%
%ADD12C,0.00600*%
%ADD13C,0.00500*%
D10*
X0001000Y0005500D02*
X0001000Y0075461D01*
X0387201Y0075461D01*
X0387201Y0005500D01*
X0001000Y0005500D01*
D11*
X0081250Y0037882D02*
X0084002Y0037882D01*
X0084002Y0039258D01*
X0083543Y0039717D01*
X0082626Y0039717D01*
X0082167Y0039258D01*
X0082167Y0037882D01*
X0082167Y0038799D02*
X0081250Y0039717D01*
X0081708Y0040782D02*
X0081250Y0041241D01*
X0081250Y0042158D01*
X0081708Y0042617D01*
X0083543Y0042617D01*
X0084002Y0042158D01*
X0084002Y0041241D01*
X0083543Y0040782D01*
X0083084Y0040782D01*
X0082626Y0041241D01*
X0082626Y0042617D01*
X0095884Y0042619D02*
X0095884Y0040784D01*
X0095884Y0041702D02*
X0098636Y0041702D01*
X0097719Y0040784D01*
X0098178Y0039719D02*
X0097260Y0039719D01*
X0096802Y0039260D01*
X0096802Y0037884D01*
X0096802Y0038801D02*
X0095884Y0039719D01*
X0098178Y0039719D02*
X0098636Y0039260D01*
X0098636Y0037884D01*
X0095884Y0037884D01*
X0097260Y0043684D02*
X0097260Y0045519D01*
X0095884Y0045060D02*
X0098636Y0045060D01*
X0097260Y0043684D01*
X0064699Y0050355D02*
X0064699Y0053107D01*
X0063323Y0053107D01*
X0062864Y0052648D01*
X0062864Y0051731D01*
X0063323Y0051272D01*
X0064699Y0051272D01*
X0063782Y0051272D02*
X0062864Y0050355D01*
X0061799Y0050355D02*
X0059964Y0050355D01*
X0060882Y0050355D02*
X0060882Y0053107D01*
X0061799Y0052190D01*
X0058899Y0052648D02*
X0058440Y0053107D01*
X0057523Y0053107D01*
X0057064Y0052648D01*
X0058899Y0050814D01*
X0058440Y0050355D01*
X0057523Y0050355D01*
X0057064Y0050814D01*
X0057064Y0052648D01*
X0058899Y0052648D02*
X0058899Y0050814D01*
X0035802Y0064900D02*
X0035802Y0066734D01*
X0035802Y0065817D02*
X0033050Y0065817D01*
X0034426Y0067800D02*
X0034426Y0069635D01*
X0033050Y0069176D02*
X0035802Y0069176D01*
X0034426Y0067800D01*
X0141065Y0072076D02*
X0142900Y0072076D01*
X0141524Y0073452D01*
X0141524Y0070700D01*
X0143965Y0070700D02*
X0144883Y0071617D01*
X0144424Y0071617D02*
X0145800Y0071617D01*
X0145800Y0070700D02*
X0145800Y0073452D01*
X0144424Y0073452D01*
X0143965Y0072993D01*
X0143965Y0072076D01*
X0144424Y0071617D01*
X0160665Y0071159D02*
X0161124Y0070700D01*
X0162041Y0070700D01*
X0162500Y0071159D01*
X0162500Y0072076D02*
X0161582Y0072535D01*
X0161124Y0072535D01*
X0160665Y0072076D01*
X0160665Y0071159D01*
X0162500Y0072076D02*
X0162500Y0073452D01*
X0160665Y0073452D01*
X0164483Y0073452D02*
X0165400Y0072535D01*
X0166465Y0072993D02*
X0166465Y0072076D01*
X0166924Y0071617D01*
X0168300Y0071617D01*
X0168300Y0070700D02*
X0168300Y0073452D01*
X0166924Y0073452D01*
X0166465Y0072993D01*
X0164483Y0073452D02*
X0164483Y0070700D01*
X0165400Y0070700D02*
X0163565Y0070700D01*
X0166465Y0070700D02*
X0167383Y0071617D01*
X0186065Y0071617D02*
X0186065Y0071159D01*
X0186524Y0070700D01*
X0187441Y0070700D01*
X0187900Y0071159D01*
X0188965Y0071159D02*
X0189424Y0070700D01*
X0190341Y0070700D01*
X0190800Y0071159D01*
X0190800Y0072993D01*
X0190341Y0073452D01*
X0189424Y0073452D01*
X0188965Y0072993D01*
X0187900Y0072993D02*
X0187441Y0073452D01*
X0186524Y0073452D01*
X0186065Y0072993D01*
X0186065Y0072535D01*
X0186524Y0072076D01*
X0186065Y0071617D01*
X0186524Y0072076D02*
X0186983Y0072076D01*
X0231065Y0071617D02*
X0231065Y0071159D01*
X0231524Y0070700D01*
X0232441Y0070700D01*
X0232900Y0071159D01*
X0232900Y0071617D01*
X0232441Y0072076D01*
X0231524Y0072076D01*
X0231065Y0071617D01*
X0231524Y0072076D02*
X0231065Y0072535D01*
X0231065Y0072993D01*
X0231524Y0073452D01*
X0232441Y0073452D01*
X0232900Y0072993D01*
X0232900Y0072535D01*
X0232441Y0072076D01*
X0233965Y0072076D02*
X0234424Y0071617D01*
X0235800Y0071617D01*
X0235800Y0070700D02*
X0235800Y0073452D01*
X0234424Y0073452D01*
X0233965Y0072993D01*
X0233965Y0072076D01*
X0234883Y0071617D02*
X0233965Y0070700D01*
X0283050Y0070300D02*
X0283050Y0072135D01*
X0283050Y0071217D02*
X0285802Y0071217D01*
X0284885Y0070300D01*
X0285802Y0069234D02*
X0285802Y0067400D01*
X0285802Y0068317D02*
X0283050Y0068317D01*
X0346380Y0071119D02*
X0346839Y0070660D01*
X0347756Y0070660D01*
X0348215Y0071119D01*
X0348215Y0072036D02*
X0347298Y0072495D01*
X0346839Y0072495D01*
X0346380Y0072036D01*
X0346380Y0071119D01*
X0348215Y0072036D02*
X0348215Y0073412D01*
X0346380Y0073412D01*
X0349281Y0072954D02*
X0349739Y0073412D01*
X0350657Y0073412D01*
X0351115Y0072954D01*
X0351115Y0071119D01*
X0350657Y0070660D01*
X0349739Y0070660D01*
X0349281Y0071119D01*
X0391200Y0066665D02*
X0391200Y0063596D01*
X0394269Y0066665D01*
X0395037Y0066665D01*
X0395804Y0065898D01*
X0395804Y0064363D01*
X0395037Y0063596D01*
X0391200Y0062061D02*
X0391200Y0058992D01*
X0394269Y0058992D02*
X0395804Y0060527D01*
X0391200Y0060527D01*
X0393502Y0057457D02*
X0393502Y0054388D01*
X0335389Y0045187D02*
X0332637Y0045187D01*
X0332637Y0046104D02*
X0332637Y0044269D01*
X0333096Y0043204D02*
X0334930Y0043204D01*
X0335389Y0042745D01*
X0335389Y0041369D01*
X0332637Y0041369D01*
X0332637Y0042745D01*
X0333096Y0043204D01*
X0334472Y0044269D02*
X0335389Y0045187D01*
X0257512Y0039820D02*
X0257512Y0038903D01*
X0257053Y0038444D01*
X0257512Y0037378D02*
X0257512Y0035544D01*
X0257512Y0036461D02*
X0254760Y0036461D01*
X0255219Y0038444D02*
X0254760Y0038903D01*
X0254760Y0039820D01*
X0255219Y0040279D01*
X0255677Y0040279D01*
X0256136Y0039820D01*
X0256136Y0039361D01*
X0256136Y0039820D02*
X0256595Y0040279D01*
X0257053Y0040279D01*
X0257512Y0039820D01*
X0250754Y0023562D02*
X0249378Y0023562D01*
X0248919Y0023103D01*
X0248919Y0022186D01*
X0249378Y0021727D01*
X0250754Y0021727D01*
X0250754Y0020810D02*
X0250754Y0023562D01*
X0247854Y0023562D02*
X0246019Y0023562D01*
X0246019Y0023103D01*
X0247854Y0021269D01*
X0247854Y0020810D01*
X0248919Y0020810D02*
X0249836Y0021727D01*
X0233952Y0021959D02*
X0233493Y0021500D01*
X0233952Y0021959D02*
X0233952Y0022876D01*
X0233493Y0023335D01*
X0233035Y0023335D01*
X0232576Y0022876D01*
X0232117Y0023335D01*
X0231659Y0023335D01*
X0231200Y0022876D01*
X0231200Y0021959D01*
X0231659Y0021500D01*
X0231200Y0020435D02*
X0231200Y0018600D01*
X0231200Y0017535D02*
X0232117Y0016617D01*
X0232117Y0017076D02*
X0232117Y0015700D01*
X0231200Y0015700D02*
X0233952Y0015700D01*
X0233952Y0017076D01*
X0233493Y0017535D01*
X0232576Y0017535D01*
X0232117Y0017076D01*
X0233035Y0018600D02*
X0233952Y0019517D01*
X0231200Y0019517D01*
X0232576Y0022418D02*
X0232576Y0022876D01*
X0196514Y0011219D02*
X0195138Y0011219D01*
X0194679Y0010760D01*
X0194679Y0009843D01*
X0195138Y0009384D01*
X0196514Y0009384D01*
X0196514Y0008467D02*
X0196514Y0011219D01*
X0193614Y0010302D02*
X0192696Y0011219D01*
X0192696Y0008467D01*
X0191779Y0008467D02*
X0193614Y0008467D01*
X0194679Y0008467D02*
X0195596Y0009384D01*
X0190713Y0008467D02*
X0188879Y0008467D01*
X0189796Y0008467D02*
X0189796Y0011219D01*
X0190713Y0010302D01*
X0291301Y0018547D02*
X0294053Y0018547D01*
X0294053Y0019923D01*
X0293595Y0020381D01*
X0292677Y0020381D01*
X0292219Y0019923D01*
X0292219Y0018547D01*
X0292219Y0019464D02*
X0291301Y0020381D01*
X0291760Y0021447D02*
X0291301Y0021905D01*
X0291301Y0022823D01*
X0291760Y0023281D01*
X0292219Y0023281D01*
X0292677Y0022823D01*
X0292677Y0021447D01*
X0291760Y0021447D01*
X0292677Y0021447D02*
X0293595Y0022364D01*
X0294053Y0023281D01*
X0346865Y0023926D02*
X0348700Y0023926D01*
X0347324Y0025302D01*
X0347324Y0022550D01*
X0349766Y0023009D02*
X0350224Y0022550D01*
X0351142Y0022550D01*
X0351600Y0023009D01*
X0351600Y0024844D01*
X0351142Y0025302D01*
X0350224Y0025302D01*
X0349766Y0024844D01*
X0349338Y0010123D02*
X0350255Y0010123D01*
X0350714Y0009665D01*
X0350714Y0007830D01*
X0350255Y0007371D01*
X0349338Y0007371D01*
X0348879Y0007830D01*
X0347814Y0007371D02*
X0345979Y0007371D01*
X0346897Y0007371D02*
X0346897Y0010123D01*
X0347814Y0009206D01*
X0348879Y0009665D02*
X0349338Y0010123D01*
X0162800Y0039200D02*
X0161883Y0039200D01*
X0162341Y0039200D02*
X0162341Y0041952D01*
X0161883Y0041952D02*
X0162800Y0041952D01*
X0160867Y0041493D02*
X0160867Y0039659D01*
X0160408Y0039200D01*
X0159491Y0039200D01*
X0159032Y0039659D01*
X0157966Y0039200D02*
X0156132Y0041035D01*
X0156132Y0041493D01*
X0156591Y0041952D01*
X0157508Y0041952D01*
X0157966Y0041493D01*
X0159032Y0041493D02*
X0159491Y0041952D01*
X0160408Y0041952D01*
X0160867Y0041493D01*
X0157966Y0039200D02*
X0156132Y0039200D01*
D12*
X0150000Y0032800D02*
X0149924Y0032802D01*
X0149848Y0032808D01*
X0149773Y0032817D01*
X0149698Y0032831D01*
X0149624Y0032848D01*
X0149551Y0032869D01*
X0149479Y0032893D01*
X0149408Y0032922D01*
X0149339Y0032953D01*
X0149272Y0032988D01*
X0149207Y0033027D01*
X0149143Y0033069D01*
X0149082Y0033114D01*
X0149023Y0033162D01*
X0148967Y0033213D01*
X0148913Y0033267D01*
X0148862Y0033323D01*
X0148814Y0033382D01*
X0148769Y0033443D01*
X0148727Y0033507D01*
X0148688Y0033572D01*
X0148653Y0033639D01*
X0148622Y0033708D01*
X0148593Y0033779D01*
X0148569Y0033851D01*
X0148548Y0033924D01*
X0148531Y0033998D01*
X0148517Y0034073D01*
X0148508Y0034148D01*
X0148502Y0034224D01*
X0148500Y0034300D01*
X0148500Y0046700D01*
X0148502Y0046776D01*
X0148508Y0046852D01*
X0148517Y0046927D01*
X0148531Y0047002D01*
X0148548Y0047076D01*
X0148569Y0047149D01*
X0148593Y0047221D01*
X0148622Y0047292D01*
X0148653Y0047361D01*
X0148688Y0047428D01*
X0148727Y0047493D01*
X0148769Y0047557D01*
X0148814Y0047618D01*
X0148862Y0047677D01*
X0148913Y0047733D01*
X0148967Y0047787D01*
X0149023Y0047838D01*
X0149082Y0047886D01*
X0149143Y0047931D01*
X0149207Y0047973D01*
X0149272Y0048012D01*
X0149339Y0048047D01*
X0149408Y0048078D01*
X0149479Y0048107D01*
X0149551Y0048131D01*
X0149624Y0048152D01*
X0149698Y0048169D01*
X0149773Y0048183D01*
X0149848Y0048192D01*
X0149924Y0048198D01*
X0150000Y0048200D01*
X0182000Y0048200D01*
X0182076Y0048198D01*
X0182152Y0048192D01*
X0182227Y0048183D01*
X0182302Y0048169D01*
X0182376Y0048152D01*
X0182449Y0048131D01*
X0182521Y0048107D01*
X0182592Y0048078D01*
X0182661Y0048047D01*
X0182728Y0048012D01*
X0182793Y0047973D01*
X0182857Y0047931D01*
X0182918Y0047886D01*
X0182977Y0047838D01*
X0183033Y0047787D01*
X0183087Y0047733D01*
X0183138Y0047677D01*
X0183186Y0047618D01*
X0183231Y0047557D01*
X0183273Y0047493D01*
X0183312Y0047428D01*
X0183347Y0047361D01*
X0183378Y0047292D01*
X0183407Y0047221D01*
X0183431Y0047149D01*
X0183452Y0047076D01*
X0183469Y0047002D01*
X0183483Y0046927D01*
X0183492Y0046852D01*
X0183498Y0046776D01*
X0183500Y0046700D01*
X0183500Y0042500D01*
X0183500Y0038500D01*
X0183500Y0034300D01*
X0183500Y0034200D02*
X0148500Y0034200D01*
X0150000Y0032800D02*
X0182000Y0032800D01*
X0182076Y0032802D01*
X0182152Y0032808D01*
X0182227Y0032817D01*
X0182302Y0032831D01*
X0182376Y0032848D01*
X0182449Y0032869D01*
X0182521Y0032893D01*
X0182592Y0032922D01*
X0182661Y0032953D01*
X0182728Y0032988D01*
X0182793Y0033027D01*
X0182857Y0033069D01*
X0182918Y0033114D01*
X0182977Y0033162D01*
X0183033Y0033213D01*
X0183087Y0033267D01*
X0183138Y0033323D01*
X0183186Y0033382D01*
X0183231Y0033443D01*
X0183273Y0033507D01*
X0183312Y0033572D01*
X0183347Y0033639D01*
X0183378Y0033708D01*
X0183407Y0033779D01*
X0183431Y0033851D01*
X0183452Y0033924D01*
X0183469Y0033998D01*
X0183483Y0034073D01*
X0183492Y0034148D01*
X0183498Y0034224D01*
X0183500Y0034300D01*
X0183500Y0038500D02*
X0183412Y0038502D01*
X0183323Y0038508D01*
X0183235Y0038518D01*
X0183148Y0038531D01*
X0183061Y0038549D01*
X0182975Y0038570D01*
X0182890Y0038595D01*
X0182807Y0038624D01*
X0182724Y0038657D01*
X0182644Y0038693D01*
X0182565Y0038732D01*
X0182487Y0038775D01*
X0182412Y0038822D01*
X0182339Y0038872D01*
X0182268Y0038925D01*
X0182199Y0038981D01*
X0182133Y0039040D01*
X0182070Y0039102D01*
X0182010Y0039166D01*
X0181952Y0039233D01*
X0181898Y0039303D01*
X0181846Y0039375D01*
X0181798Y0039449D01*
X0181753Y0039526D01*
X0181712Y0039604D01*
X0181674Y0039684D01*
X0181640Y0039765D01*
X0181609Y0039848D01*
X0181582Y0039933D01*
X0181559Y0040018D01*
X0181540Y0040104D01*
X0181524Y0040192D01*
X0181512Y0040279D01*
X0181504Y0040367D01*
X0181500Y0040456D01*
X0181500Y0040544D01*
X0181504Y0040633D01*
X0181512Y0040721D01*
X0181524Y0040808D01*
X0181540Y0040896D01*
X0181559Y0040982D01*
X0181582Y0041067D01*
X0181609Y0041152D01*
X0181640Y0041235D01*
X0181674Y0041316D01*
X0181712Y0041396D01*
X0181753Y0041474D01*
X0181798Y0041551D01*
X0181846Y0041625D01*
X0181898Y0041697D01*
X0181952Y0041767D01*
X0182010Y0041834D01*
X0182070Y0041898D01*
X0182133Y0041960D01*
X0182199Y0042019D01*
X0182268Y0042075D01*
X0182339Y0042128D01*
X0182412Y0042178D01*
X0182487Y0042225D01*
X0182565Y0042268D01*
X0182644Y0042307D01*
X0182724Y0042343D01*
X0182807Y0042376D01*
X0182890Y0042405D01*
X0182975Y0042430D01*
X0183061Y0042451D01*
X0183148Y0042469D01*
X0183235Y0042482D01*
X0183323Y0042492D01*
X0183412Y0042498D01*
X0183500Y0042500D01*
X0326925Y0045894D02*
X0328500Y0043531D01*
X0330075Y0045894D01*
X0326925Y0045894D01*
X0363500Y0048000D02*
X0366000Y0045500D01*
X0381000Y0045500D01*
X0383500Y0043000D01*
X0383500Y0038000D01*
X0381000Y0035500D01*
X0366000Y0035500D01*
X0363500Y0033000D01*
X0363500Y0028000D01*
X0366000Y0025500D01*
X0381000Y0025500D01*
X0383500Y0023000D01*
X0383500Y0018000D01*
X0381000Y0015500D01*
X0366000Y0015500D01*
X0363500Y0018000D01*
X0363500Y0023000D01*
X0366000Y0025500D01*
X0381000Y0025500D02*
X0383500Y0028000D01*
X0383500Y0033000D01*
X0381000Y0035500D01*
X0366000Y0035500D02*
X0363500Y0038000D01*
X0363500Y0043000D01*
X0366000Y0045500D01*
X0363500Y0048000D02*
X0363500Y0053000D01*
X0366000Y0055500D01*
X0381000Y0055500D01*
X0383500Y0053000D01*
X0383500Y0048000D01*
X0381000Y0045500D01*
X0381000Y0055500D02*
X0383500Y0058000D01*
X0383500Y0060500D01*
X0383500Y0063000D01*
X0381000Y0065500D01*
X0366000Y0065500D01*
X0363500Y0063000D01*
X0363500Y0058000D01*
X0366000Y0055500D01*
D13*
X0383500Y0060500D02*
X0388500Y0055500D01*
X0383500Y0060500D02*
X0388500Y0065500D01*
M02*
