%
M48
M72
T01C0.0240
T02C0.0320
T03C0.0400
T04C0.0433
T05C0.0827
%
T01
X4975Y1800
X3225Y2800
X6975Y4300
X9600Y5675
X5350Y5925
X13350Y6675
X15350Y6300
X14475Y5300
X14225Y4550
X18475Y4675
X19725Y5300
X24850Y6675
X28100Y6550
X28475Y4800
X27100Y3300
X31225Y2300
X20475Y1550
X18100Y2050
X16600Y1925
X19975Y2175
T02
X34350Y5050
X35350Y5050
X34850Y4300
T03
X36850Y6050
X37850Y6050
X37850Y5050
X36850Y5050
X36850Y4050
X37850Y4050
X37850Y3050
X36850Y3050
X36850Y2050
X37850Y2050
T04
X2110Y1643
X2110Y2824
X4844Y3316
X4844Y4300
X4844Y5284
X2110Y6170
X12606Y6170
X21114Y6170
X23844Y5284
X23844Y4300
X23844Y3316
X21114Y2824
X21114Y1643
X12606Y1643
X12606Y2824
X31602Y2824
X31602Y1643
X31602Y6170
T05
X7600Y6072
X7600Y2528
X26600Y2528
X26600Y6072
M30
