G75*
%MOIN*%
%OFA0B0*%
%FSLAX25Y25*%
%IPPOS*%
%LPD*%
%AMOC8*
5,1,8,0,0,1.08239X$1,22.5*
%
%ADD10C,0.00000*%
%ADD11R,0.05118X0.05906*%
%ADD12OC8,0.05200*%
%ADD13OC8,0.07400*%
%ADD14R,0.06496X0.06496*%
%ADD15OC8,0.06496*%
%ADD16C,0.12268*%
%ADD17R,0.04724X0.04724*%
%ADD18R,0.05512X0.03937*%
%ADD19C,0.06496*%
%ADD20R,0.05906X0.05118*%
%ADD21C,0.01000*%
%ADD22C,0.04000*%
D10*
X0001000Y0005500D02*
X0001000Y0075461D01*
X0387201Y0075461D01*
X0387201Y0005500D01*
X0001000Y0005500D01*
D11*
X0159760Y0013000D03*
X0167240Y0013000D03*
X0167240Y0025500D03*
X0159760Y0025500D03*
X0159760Y0040500D03*
X0167240Y0040500D03*
X0167240Y0053000D03*
X0159760Y0053000D03*
X0097240Y0068000D03*
X0089760Y0068000D03*
X0234760Y0068000D03*
X0242240Y0068000D03*
X0342260Y0065500D03*
X0349740Y0065500D03*
D12*
X0353500Y0050500D03*
X0343500Y0050500D03*
X0348500Y0043000D03*
D13*
X0368500Y0040500D03*
X0378500Y0040500D03*
X0378500Y0050500D03*
X0368500Y0050500D03*
X0368500Y0060500D03*
X0378500Y0060500D03*
X0378500Y0030500D03*
X0368500Y0030500D03*
X0368500Y0020500D03*
X0378500Y0020500D03*
D14*
X0238441Y0052843D03*
X0048441Y0052843D03*
D15*
X0048441Y0043000D03*
X0048441Y0033157D03*
X0238441Y0033157D03*
X0238441Y0043000D03*
D16*
X0266000Y0060717D03*
X0266000Y0025283D03*
X0076000Y0025283D03*
X0076000Y0060717D03*
D17*
X0040134Y0015500D03*
X0031866Y0015500D03*
X0134366Y0015500D03*
X0142634Y0015500D03*
X0221866Y0015500D03*
X0230134Y0015500D03*
X0326866Y0015500D03*
X0335134Y0015500D03*
D18*
X0052831Y0065500D03*
X0044169Y0061760D03*
X0044169Y0069240D03*
D19*
X0021098Y0061701D03*
X0126059Y0061701D03*
X0211138Y0061701D03*
X0316020Y0061701D03*
X0316020Y0028236D03*
X0316020Y0016425D03*
X0211138Y0016425D03*
X0211138Y0028236D03*
X0126059Y0028236D03*
X0126059Y0016425D03*
X0021098Y0016425D03*
X0021098Y0028236D03*
D20*
X0348500Y0029240D03*
X0348500Y0021760D03*
D21*
X0348500Y0023000D01*
X0347250Y0024250D01*
X0346000Y0024250D01*
X0343500Y0026750D01*
X0343500Y0050500D01*
X0349750Y0050500D02*
X0353500Y0050500D01*
X0349750Y0050500D02*
X0349750Y0065500D01*
X0349740Y0065500D01*
X0348500Y0065500D01*
X0348500Y0070500D01*
X0332250Y0070500D01*
X0316000Y0054250D01*
X0271000Y0054250D01*
X0269750Y0053000D01*
X0247250Y0053000D01*
X0242250Y0058000D01*
X0214750Y0058000D01*
X0213500Y0056750D01*
X0184750Y0056750D01*
X0184750Y0046750D01*
X0178500Y0048000D02*
X0197250Y0029250D01*
X0211000Y0029250D01*
X0211138Y0028236D01*
X0226000Y0033000D02*
X0237250Y0033000D01*
X0238441Y0033157D01*
X0248500Y0033000D02*
X0271000Y0033000D01*
X0248500Y0033000D02*
X0231000Y0015500D01*
X0230134Y0015500D01*
X0221866Y0015500D02*
X0221000Y0015500D01*
X0214750Y0021750D01*
X0199750Y0021750D01*
X0186000Y0015500D02*
X0181000Y0020500D01*
X0172250Y0020500D02*
X0172250Y0043000D01*
X0169750Y0045500D01*
X0164750Y0045500D01*
X0161000Y0041750D01*
X0159760Y0040500D01*
X0159750Y0040500D01*
X0161000Y0041750D01*
X0143500Y0059250D01*
X0128500Y0059250D01*
X0127250Y0060500D01*
X0126059Y0061701D01*
X0132250Y0063000D02*
X0127250Y0068000D01*
X0097240Y0068000D01*
X0089760Y0068000D02*
X0089750Y0068000D01*
X0089750Y0063000D01*
X0069750Y0043000D01*
X0048500Y0043000D02*
X0048441Y0043000D01*
X0048500Y0043000D02*
X0048500Y0051750D01*
X0048441Y0052843D01*
X0047250Y0059250D02*
X0053500Y0059250D01*
X0047250Y0059250D02*
X0044750Y0061750D01*
X0044169Y0061760D01*
X0039750Y0065500D02*
X0052831Y0065500D01*
X0044169Y0069240D02*
X0043500Y0068000D01*
X0038500Y0068000D01*
X0036000Y0065500D01*
X0036000Y0011750D01*
X0158500Y0011750D01*
X0159750Y0013000D01*
X0159760Y0013000D01*
X0167240Y0013000D02*
X0167250Y0013000D01*
X0167250Y0015500D01*
X0172250Y0020500D01*
X0166000Y0020500D02*
X0166000Y0019250D01*
X0166000Y0020500D02*
X0157250Y0020500D01*
X0146000Y0031750D01*
X0146000Y0049250D01*
X0142250Y0049250D01*
X0137250Y0054250D01*
X0098500Y0054250D01*
X0078500Y0034250D01*
X0048500Y0034250D01*
X0048441Y0033157D01*
X0039750Y0034250D02*
X0039750Y0065500D01*
X0096000Y0056750D02*
X0141000Y0056750D01*
X0144750Y0053000D01*
X0159760Y0053000D02*
X0161000Y0053000D01*
X0161000Y0048000D01*
X0178500Y0048000D01*
X0167240Y0053000D02*
X0166000Y0053000D01*
X0166000Y0056750D01*
X0184750Y0056750D01*
X0197250Y0053000D02*
X0198500Y0054250D01*
X0228500Y0054250D01*
X0234750Y0048000D01*
X0284750Y0048000D01*
X0257250Y0070500D02*
X0247250Y0060500D01*
X0234750Y0060500D01*
X0228500Y0066750D01*
X0133500Y0066750D01*
X0132250Y0063000D02*
X0153500Y0063000D01*
X0166000Y0063000D01*
X0166000Y0056750D01*
X0142250Y0045500D02*
X0142250Y0015500D01*
X0142634Y0015500D01*
X0134366Y0015500D02*
X0133500Y0015500D01*
X0127250Y0021750D01*
X0083500Y0021750D01*
X0078500Y0016750D01*
X0057250Y0016750D01*
X0039750Y0034250D01*
X0032250Y0028000D02*
X0032250Y0015500D01*
X0031866Y0015500D01*
X0021098Y0016425D02*
X0021000Y0016750D01*
X0021000Y0028000D01*
X0021098Y0028236D01*
X0041000Y0015500D02*
X0043500Y0018000D01*
X0049750Y0018000D01*
X0041000Y0015500D02*
X0040134Y0015500D01*
X0159760Y0025500D02*
X0161000Y0025500D01*
X0161000Y0035500D01*
X0162250Y0035500D01*
X0167250Y0040500D01*
X0167240Y0040500D01*
X0226000Y0033000D02*
X0226000Y0013000D01*
X0224750Y0011750D01*
X0208500Y0011750D01*
X0204750Y0015500D01*
X0186000Y0015500D01*
X0166000Y0020500D02*
X0166000Y0025500D01*
X0167240Y0025500D01*
X0312250Y0023000D02*
X0318500Y0023000D01*
X0326000Y0015500D01*
X0326866Y0015500D01*
X0335134Y0015500D02*
X0336000Y0015500D01*
X0336000Y0065500D01*
X0342260Y0065500D01*
X0316020Y0061701D02*
X0316000Y0061750D01*
X0307250Y0070500D01*
X0281000Y0070500D01*
X0281000Y0065500D01*
X0281000Y0070500D02*
X0257250Y0070500D01*
X0244750Y0070500D01*
X0242250Y0068000D01*
X0242240Y0068000D01*
X0239750Y0063000D02*
X0234750Y0068000D01*
X0234760Y0068000D01*
X0244750Y0063000D02*
X0248500Y0066750D01*
X0244750Y0063000D02*
X0239750Y0063000D01*
X0368500Y0050500D02*
X0368500Y0040500D01*
X0378500Y0040500D01*
X0368500Y0040500D02*
X0368500Y0030500D01*
X0378500Y0030500D01*
X0368500Y0020500D02*
X0362250Y0026750D01*
X0349750Y0026750D01*
X0348500Y0028000D01*
X0348500Y0029240D01*
X0368500Y0020500D02*
X0378500Y0020500D01*
X0378500Y0050500D02*
X0368500Y0050500D01*
D22*
X0284750Y0048000D03*
X0271000Y0033000D03*
X0312250Y0023000D03*
X0204750Y0015500D03*
X0181000Y0020500D03*
X0166000Y0019250D03*
X0199750Y0021750D03*
X0142250Y0045500D03*
X0144750Y0053000D03*
X0184750Y0046750D03*
X0197250Y0053000D03*
X0153500Y0063000D03*
X0133500Y0066750D03*
X0096000Y0056750D03*
X0053500Y0059250D03*
X0069750Y0043000D03*
X0032250Y0028000D03*
X0049750Y0018000D03*
X0281000Y0065500D03*
X0248500Y0066750D03*
M02*
