  0
SECTION
  2
HEADER
  9
$MEASUREMENT
  70
  1
  9
$INSUNITS
  70
  4
  0
ENDSEC
  0
SECTION
  2
TABLES
  0
TABLE
  2
LTYPE
 70
     1
  0
LTYPE
  2
CONTINUOUS
 70
    64
  3
Ausgezogene Linie
 72
    65
 73
     0
 40
0.0
  0
ENDTAB
  0
TABLE
  2
LAYER
 70
     3
  0
LAYER
  2
Contour
 70
    64
 62
     7
  6
CONTINUOUS
  0
LAYER
  2
Engraving
 70
    64
 62
     7
  6
CONTINUOUS
  0
LAYER
  2
Reference_points
 70
    64
 62
     1
  6
CONTINUOUS
  0
ENDTAB
  0
TABLE
  2
STYLE
 70
     1
  0
STYLE
  2
TXT
 70
    64
 40
0.0
 41
1.0
 50
0.0
 71
     0
 42
3.500000
  3
TXT
  0
ENDTAB
  0
ENDSEC
  0
SECTION
  2
BLOCKS
  0
ENDSEC
  0
SECTION
  2
ENTITIES
  0
LINE
  8
Contour
 62
   7
 39
0.100
  6
CONTINUOUS
 10
19.98000
 20
128.40000
 30
 0
 11
0.00000
 21
128.40000
  0
LINE
  8
Contour
 62
   7
 39
0.100
  6
CONTINUOUS
 10
0.00000
 20
128.40000
 30
 0
 11
0.00000
 21
128.40000
  0
LINE
  8
Contour
 62
   7
 39
0.100
  6
CONTINUOUS
 10
0.00000
 20
128.40000
 30
 0
 11
0.00000
 21
0.00000
  0
LINE
  8
Contour
 62
   7
 39
0.100
  6
CONTINUOUS
 10
0.00000
 20
0.00000
 30
 0
 11
0.00000
 21
0.00000
  0
LINE
  8
Contour
 62
   7
 39
0.100
  6
CONTINUOUS
 10
0.00000
 20
0.00000
 30
 0
 11
19.98000
 21
0.00000
  0
LINE
  8
Contour
 62
   7
 39
0.100
  6
CONTINUOUS
 10
19.98000
 20
0.00000
 30
 0
 11
19.98000
 21
0.00000
  0
LINE
  8
Contour
 62
   7
 39
0.100
  6
CONTINUOUS
 10
19.98000
 20
0.00000
 30
 0
 11
19.98000
 21
128.40000
  0
LINE
  8
Contour
 62
   7
 39
0.100
  6
CONTINUOUS
 10
19.98000
 20
128.40000
 30
 0
 11
19.98000
 21
128.40000
  0
LINE
  8
Engraving
 62
   7
 39
0.400
  6
CONTINUOUS
 10
2.28300
 20
110.61900
 30
 0
 11
2.28300
 21
113.18200
  0
LINE
  8
Engraving
 62
   7
 39
0.400
  6
CONTINUOUS
 10
2.28300
 20
113.18200
 30
 0
 11
3.22300
 21
113.18200
  0
ARC
  8
Engraving
 62
   7
 39
0.400
  6
CONTINUOUS
 10
3.19800
 20
112.54200
 30
 0
 40
0.64000
 50
272.23349
 51
87.76302
  0
LINE
  8
Engraving
 62
   7
 39
0.400
  6
CONTINUOUS
 10
3.22300
 20
111.90100
 30
 0
 11
2.28300
 21
111.90100
  0
LINE
  8
Engraving
 62
   7
 39
0.400
  6
CONTINUOUS
 10
2.28300
 20
111.90100
 30
 0
 11
3.27900
 21
111.90100
  0
LINE
  8
Engraving
 62
   7
 39
0.400
  6
CONTINUOUS
 10
3.27900
 20
111.90100
 30
 0
 11
3.84900
 21
110.61900
  0
LINE
  8
Engraving
 62
   7
 39
0.400
  6
CONTINUOUS
 10
4.53200
 20
112.92600
 30
 0
 11
4.70300
 21
113.06800
  0
ARC
  8
Engraving
 62
   7
 39
0.400
  6
CONTINUOUS
 10
5.16400
 20
112.53200
 30
 0
 40
0.70700
 50
319.30201
 51
130.69799
  0
LINE
  8
Engraving
 62
   7
 39
0.400
  6
CONTINUOUS
 10
5.70000
 20
112.07100
 30
 0
 11
4.50400
 21
110.61900
  0
LINE
  8
Engraving
 62
   7
 39
0.400
  6
CONTINUOUS
 10
4.50400
 20
110.61900
 30
 0
 11
5.92800
 21
110.61900
  0
LINE
  8
Engraving
 62
   7
 39
0.400
  6
CONTINUOUS
 10
6.61100
 20
110.61900
 30
 0
 11
6.61100
 21
113.18200
  0
LINE
  8
Engraving
 62
   7
 39
0.400
  6
CONTINUOUS
 10
6.61100
 20
113.18200
 30
 0
 11
7.55100
 21
113.18200
  0
ARC
  8
Engraving
 62
   7
 39
0.400
  6
CONTINUOUS
 10
7.52600
 20
112.54200
 30
 0
 40
0.64000
 50
272.23349
 51
87.76302
  0
LINE
  8
Engraving
 62
   7
 39
0.400
  6
CONTINUOUS
 10
7.55100
 20
111.90100
 30
 0
 11
6.61100
 21
111.90100
  0
LINE
  8
Engraving
 62
   7
 39
0.400
  6
CONTINUOUS
 10
6.61100
 20
111.90100
 30
 0
 11
7.60800
 21
111.90100
  0
LINE
  8
Engraving
 62
   7
 39
0.400
  6
CONTINUOUS
 10
7.60800
 20
111.90100
 30
 0
 11
8.17800
 21
110.61900
  0
LINE
  8
Engraving
 62
   7
 39
0.400
  6
CONTINUOUS
 10
8.83300
 20
111.90100
 30
 0
 11
10.31300
 21
111.90100
  0
LINE
  8
Engraving
 62
   7
 39
0.400
  6
CONTINUOUS
 10
10.99700
 20
113.18200
 30
 0
 11
11.88000
 21
113.18200
  0
ARC
  8
Engraving
 62
   7
 39
0.400
  6
CONTINUOUS
 10
11.84700
 20
112.32400
 30
 0
 40
0.85900
 50
360.26680
 51
87.79740
  0
LINE
  8
Engraving
 62
   7
 39
0.400
  6
CONTINUOUS
 10
12.70600
 20
112.32800
 30
 0
 11
12.70600
 21
111.47300
  0
ARC
  8
Engraving
 62
   7
 39
0.400
  6
CONTINUOUS
 10
11.88200
 20
111.44400
 30
 0
 40
0.82500
 50
269.86110
 51
2.01565
  0
LINE
  8
Engraving
 62
   7
 39
0.400
  6
CONTINUOUS
 10
11.88000
 20
110.61900
 30
 0
 11
10.99700
 21
110.61900
  0
LINE
  8
Engraving
 62
   7
 39
0.400
  6
CONTINUOUS
 10
10.99700
 20
110.61900
 30
 0
 11
10.99700
 21
113.18200
  0
LINE
  8
Engraving
 62
   7
 39
0.400
  6
CONTINUOUS
 10
13.67400
 20
111.33100
 30
 0
 11
15.09800
 21
111.33100
  0
LINE
  8
Engraving
 62
   7
 39
0.400
  6
CONTINUOUS
 10
13.38900
 20
110.61900
 30
 0
 11
14.38600
 21
113.18200
  0
LINE
  8
Engraving
 62
   7
 39
0.400
  6
CONTINUOUS
 10
14.38600
 20
113.18200
 30
 0
 11
15.38300
 21
110.61900
  0
ARC
  8
Engraving
 62
   7
 39
0.400
  6
CONTINUOUS
 10
16.90100
 20
112.40900
 30
 0
 40
0.83500
 50
28.86793
 51
181.64637
  0
LINE
  8
Engraving
 62
   7
 39
0.400
  6
CONTINUOUS
 10
16.06600
 20
112.38500
 30
 0
 11
16.06600
 21
111.41600
  0
ARC
  8
Engraving
 62
   7
 39
0.400
  6
CONTINUOUS
 10
16.92200
 20
111.41800
 30
 0
 40
0.85600
 50
-179.86613
 51
-21.59012
  0
LINE
  8
Engraving
 62
   7
 39
0.400
  6
CONTINUOUS
 10
17.64200
 20
91.56200
 30
 0
 11
16.78800
 21
89.42600
  0
LINE
  8
Engraving
 62
   7
 39
0.400
  6
CONTINUOUS
 10
16.78800
 20
89.42600
 30
 0
 11
18.21200
 21
89.42600
  0
LINE
  8
Engraving
 62
   7
 39
0.400
  6
CONTINUOUS
 10
18.21200
 20
89.42600
 30
 0
 11
17.92700
 21
89.42600
  0
LINE
  8
Engraving
 62
   7
 39
0.400
  6
CONTINUOUS
 10
17.92700
 20
89.42600
 30
 0
 11
17.92700
 21
89.85300
  0
LINE
  8
Engraving
 62
   7
 39
0.400
  6
CONTINUOUS
 10
17.92700
 20
89.85300
 30
 0
 11
17.92700
 21
88.99900
  0
ARC
  8
Engraving
 62
   7
 39
0.400
  6
CONTINUOUS
 10
17.51300
 20
78.17100
 30
 0
 40
0.74800
 50
450.45958
 51
157.03264
  0
ARC
  8
Engraving
 62
   7
 39
0.400
  6
CONTINUOUS
 10
17.50700
 20
78.25000
 30
 0
 40
0.66900
 50
270.00000
 51
90.00000
  0
ARC
  8
Engraving
 62
   7
 39
0.400
  6
CONTINUOUS
 10
17.50700
 20
76.91200
 30
 0
 40
0.66900
 50
270.00000
 51
90.00000
  0
ARC
  8
Engraving
 62
   7
 39
0.400
  6
CONTINUOUS
 10
17.51200
 20
77.03400
 30
 0
 40
0.79200
 50
209.73591
 51
-90.36171
  0
LINE
  8
Engraving
 62
   7
 39
0.400
  6
CONTINUOUS
 10
16.81600
 20
65.90600
 30
 0
 11
16.98700
 21
66.04800
  0
ARC
  8
Engraving
 62
   7
 39
0.400
  6
CONTINUOUS
 10
17.44800
 20
65.51200
 30
 0
 40
0.70700
 50
319.30201
 51
130.69799
  0
LINE
  8
Engraving
 62
   7
 39
0.400
  6
CONTINUOUS
 10
17.98400
 20
65.05100
 30
 0
 11
16.78800
 21
63.59900
  0
LINE
  8
Engraving
 62
   7
 39
0.400
  6
CONTINUOUS
 10
16.78800
 20
63.59900
 30
 0
 11
18.21200
 21
63.59900
  0
LINE
  8
Engraving
 62
   7
 39
0.400
  6
CONTINUOUS
 10
17.21600
 20
52.89200
 30
 0
 11
17.78500
 21
53.46200
  0
LINE
  8
Engraving
 62
   7
 39
0.400
  6
CONTINUOUS
 10
17.78500
 20
53.46200
 30
 0
 11
17.78500
 21
50.89900
  0
ARC
  8
Engraving
 62
   7
 39
0.400
  6
CONTINUOUS
 10
7.60800
 20
21.38300
 30
 0
 40
0.91100
 50
180.00000
 51
360.00000
  0
LINE
  8
Engraving
 62
   7
 39
0.400
  6
CONTINUOUS
 10
8.51900
 20
21.38300
 30
 0
 11
8.51900
 21
22.23800
  0
ARC
  8
Engraving
 62
   7
 39
0.400
  6
CONTINUOUS
 10
7.60800
 20
22.23800
 30
 0
 40
0.91100
 50
0.00000
 51
180.00000
  0
LINE
  8
Engraving
 62
   7
 39
0.400
  6
CONTINUOUS
 10
6.69700
 20
22.23800
 30
 0
 11
6.69700
 21
21.38300
  0
LINE
  8
Engraving
 62
   7
 39
0.400
  6
CONTINUOUS
 10
9.20300
 20
23.09200
 30
 0
 11
9.20300
 21
21.32600
  0
ARC
  8
Engraving
 62
   7
 39
0.400
  6
CONTINUOUS
 10
10.05700
 20
21.32600
 30
 0
 40
0.85400
 50
180.00000
 51
360.00000
  0
LINE
  8
Engraving
 62
   7
 39
0.400
  6
CONTINUOUS
 10
10.91100
 20
21.32600
 30
 0
 11
10.91100
 21
23.09200
  0
LINE
  8
Engraving
 62
   7
 39
0.400
  6
CONTINUOUS
 10
11.59500
 20
23.09200
 30
 0
 11
13.30400
 21
23.09200
  0
LINE
  8
Engraving
 62
   7
 39
0.400
  6
CONTINUOUS
 10
13.30400
 20
23.09200
 30
 0
 11
12.44900
 21
23.09200
  0
LINE
  8
Engraving
 62
   7
 39
0.400
  6
CONTINUOUS
 10
12.44900
 20
23.09200
 30
 0
 11
12.44900
 21
20.52900
  0
CIRCLE
  8
Contour
 62
   7
 39
0.100
  6
CONTINUOUS
 10
7.50000
 20
125.50000
 30
 0
 40
1.50000
  0
CIRCLE
  8
Contour
 62
   7
 39
0.100
  6
CONTINUOUS
 10
7.50000
 20
3.00000
 30
 0
 40
1.50000
  0
CIRCLE
  8
Contour
 62
   7
 39
0.100
  6
CONTINUOUS
 10
10.00000
 20
90.28000
 30
 0
 40
3.00000
  0
CIRCLE
  8
Contour
 62
   7
 39
0.100
  6
CONTINUOUS
 10
10.00000
 20
77.58000
 30
 0
 40
3.00000
  0
CIRCLE
  8
Contour
 62
   7
 39
0.100
  6
CONTINUOUS
 10
10.00000
 20
64.88000
 30
 0
 40
3.00000
  0
CIRCLE
  8
Contour
 62
   7
 39
0.100
  6
CONTINUOUS
 10
10.00000
 20
52.18000
 30
 0
 40
3.00000
  0
CIRCLE
  8
Contour
 62
   7
 39
0.100
  6
CONTINUOUS
 10
10.00000
 20
29.32000
 30
 0
 40
3.00000
  0
ENDSEC
  0
EOF
