  0
SECTION
  2
HEADER
  9
$MEASUREMENT
  70
  1
  9
$INSUNITS
  70
  4
  0
ENDSEC
  0
SECTION
  2
TABLES
  0
TABLE
  2
LTYPE
 70
     1
  0
LTYPE
  2
CONTINUOUS
 70
    64
  3
Ausgezogene Linie
 72
    65
 73
     0
 40
0.0
  0
ENDTAB
  0
TABLE
  2
LAYER
 70
     3
  0
LAYER
  2
Contour
 70
    64
 62
     7
  6
CONTINUOUS
  0
LAYER
  2
Engraving
 70
    64
 62
     7
  6
CONTINUOUS
  0
LAYER
  2
Reference_points
 70
    64
 62
     1
  6
CONTINUOUS
  0
ENDTAB
  0
TABLE
  2
STYLE
 70
     1
  0
STYLE
  2
TXT
 70
    64
 40
0.0
 41
1.0
 50
0.0
 71
     0
 42
3.500000
  3
TXT
  0
ENDTAB
  0
ENDSEC
  0
SECTION
  2
BLOCKS
  0
ENDSEC
  0
SECTION
  2
ENTITIES
  0
LINE
  8
Contour
 62
   7
 39
0.100
  6
CONTINUOUS
 10
40.30000
 20
128.40000
 30
 0
 11
0.00000
 21
128.40000
  0
LINE
  8
Contour
 62
   7
 39
0.100
  6
CONTINUOUS
 10
0.00000
 20
128.40000
 30
 0
 11
0.00000
 21
128.40000
  0
LINE
  8
Contour
 62
   7
 39
0.100
  6
CONTINUOUS
 10
0.00000
 20
128.40000
 30
 0
 11
0.00000
 21
0.00000
  0
LINE
  8
Contour
 62
   7
 39
0.100
  6
CONTINUOUS
 10
0.00000
 20
0.00000
 30
 0
 11
0.00000
 21
0.00000
  0
LINE
  8
Contour
 62
   7
 39
0.100
  6
CONTINUOUS
 10
0.00000
 20
0.00000
 30
 0
 11
40.30000
 21
0.00000
  0
LINE
  8
Contour
 62
   7
 39
0.100
  6
CONTINUOUS
 10
40.30000
 20
0.00000
 30
 0
 11
40.30000
 21
0.00000
  0
LINE
  8
Contour
 62
   7
 39
0.100
  6
CONTINUOUS
 10
40.30000
 20
0.00000
 30
 0
 11
40.30000
 21
128.40000
  0
LINE
  8
Contour
 62
   7
 39
0.100
  6
CONTINUOUS
 10
40.30000
 20
128.40000
 30
 0
 11
40.30000
 21
128.40000
  0
LINE
  8
Engraving
 62
   7
 39
0.400
  6
CONTINUOUS
 10
3.71800
 20
82.27700
 30
 0
 11
6.28100
 21
82.27700
  0
LINE
  8
Engraving
 62
   7
 39
0.400
  6
CONTINUOUS
 10
6.28100
 20
82.78200
 30
 0
 11
3.71800
 21
82.78200
  0
LINE
  8
Engraving
 62
   7
 39
0.400
  6
CONTINUOUS
 10
3.71800
 20
82.78200
 30
 0
 11
3.71800
 21
82.96400
  0
LINE
  8
Engraving
 62
   7
 39
0.400
  6
CONTINUOUS
 10
3.71800
 20
82.96400
 30
 0
 11
6.28100
 21
84.17400
  0
LINE
  8
Engraving
 62
   7
 39
0.400
  6
CONTINUOUS
 10
6.28100
 20
84.17400
 30
 0
 11
3.71800
 21
84.17400
  0
LINE
  8
Engraving
 62
   7
 39
0.400
  6
CONTINUOUS
 10
4.22300
 20
84.69900
 30
 0
 11
4.04100
 21
84.96100
  0
LINE
  8
Engraving
 62
   7
 39
0.400
  6
CONTINUOUS
 10
4.04100
 20
84.96100
 30
 0
 11
3.71800
 21
85.22400
  0
LINE
  8
Engraving
 62
   7
 39
0.400
  6
CONTINUOUS
 10
3.71800
 20
85.22400
 30
 0
 11
6.28100
 21
85.22400
  0
LINE
  8
Engraving
 62
   7
 39
0.400
  6
CONTINUOUS
 10
3.71800
 20
66.71400
 30
 0
 11
6.28100
 21
66.71400
  0
LINE
  8
Engraving
 62
   7
 39
0.400
  6
CONTINUOUS
 10
6.28100
 20
67.21900
 30
 0
 11
3.71800
 21
67.21900
  0
LINE
  8
Engraving
 62
   7
 39
0.400
  6
CONTINUOUS
 10
3.71800
 20
67.21900
 30
 0
 11
3.71800
 21
67.40100
  0
LINE
  8
Engraving
 62
   7
 39
0.400
  6
CONTINUOUS
 10
3.71800
 20
67.40100
 30
 0
 11
6.28100
 21
68.61100
  0
LINE
  8
Engraving
 62
   7
 39
0.400
  6
CONTINUOUS
 10
6.28100
 20
68.61100
 30
 0
 11
3.71800
 21
68.61100
  0
ARC
  8
Engraving
 62
   7
 39
0.400
  6
CONTINUOUS
 10
4.27000
 20
69.71900
 30
 0
 40
0.59000
 50
193.65853
 51
-72.73294
  0
ARC
  8
Engraving
 62
   7
 39
0.400
  6
CONTINUOUS
 10
4.22800
 20
69.73700
 30
 0
 40
0.55300
 50
96.85512
 51
-163.49932
  0
ARC
  8
Engraving
 62
   7
 39
0.400
  6
CONTINUOUS
 10
4.34400
 20
69.06400
 30
 0
 40
1.23500
 50
417.39013
 51
98.47114
  0
ARC
  8
Engraving
 62
   7
 39
0.400
  6
CONTINUOUS
 10
3.48900
 20
67.57700
 30
 0
 40
2.95000
 50
402.76098
 51
58.96630
  0
LINE
  8
Engraving
 62
   7
 39
0.400
  6
CONTINUOUS
 10
5.65500
 20
69.58000
 30
 0
 11
6.14000
 21
69.11600
  0
LINE
  8
Engraving
 62
   7
 39
0.400
  6
CONTINUOUS
 10
6.14000
 20
69.11600
 30
 0
 11
6.28100
 21
69.11600
  0
LINE
  8
Engraving
 62
   7
 39
0.400
  6
CONTINUOUS
 10
6.28100
 20
69.11600
 30
 0
 11
6.28100
 21
70.30700
  0
LINE
  8
Engraving
 62
   7
 39
0.400
  6
CONTINUOUS
 10
6.28100
 20
70.30700
 30
 0
 11
6.28100
 21
69.11600
  0
LINE
  8
Engraving
 62
   7
 39
0.400
  6
CONTINUOUS
 10
3.71800
 20
51.49400
 30
 0
 11
6.28100
 21
51.49400
  0
LINE
  8
Engraving
 62
   7
 39
0.400
  6
CONTINUOUS
 10
6.28100
 20
51.99900
 30
 0
 11
3.71800
 21
51.99900
  0
LINE
  8
Engraving
 62
   7
 39
0.400
  6
CONTINUOUS
 10
3.71800
 20
51.99900
 30
 0
 11
3.71800
 21
52.18100
  0
LINE
  8
Engraving
 62
   7
 39
0.400
  6
CONTINUOUS
 10
3.71800
 20
52.18100
 30
 0
 11
6.28100
 21
53.39100
  0
LINE
  8
Engraving
 62
   7
 39
0.400
  6
CONTINUOUS
 10
6.28100
 20
53.39100
 30
 0
 11
3.71800
 21
53.39100
  0
LINE
  8
Engraving
 62
   7
 39
0.400
  6
CONTINUOUS
 10
5.53400
 20
53.89600
 30
 0
 11
5.77600
 21
53.89600
  0
LINE
  8
Engraving
 62
   7
 39
0.400
  6
CONTINUOUS
 10
5.77600
 20
53.89600
 30
 0
 11
5.97800
 21
53.93600
  0
LINE
  8
Engraving
 62
   7
 39
0.400
  6
CONTINUOUS
 10
5.97800
 20
53.93600
 30
 0
 11
6.12000
 21
54.03700
  0
LINE
  8
Engraving
 62
   7
 39
0.400
  6
CONTINUOUS
 10
6.12000
 20
54.03700
 30
 0
 11
6.22000
 21
54.15800
  0
LINE
  8
Engraving
 62
   7
 39
0.400
  6
CONTINUOUS
 10
6.22000
 20
54.15800
 30
 0
 11
6.28100
 21
54.36000
  0
LINE
  8
Engraving
 62
   7
 39
0.400
  6
CONTINUOUS
 10
6.28100
 20
54.36000
 30
 0
 11
6.30100
 21
54.46100
  0
LINE
  8
Engraving
 62
   7
 39
0.400
  6
CONTINUOUS
 10
6.30100
 20
54.46100
 30
 0
 11
6.28100
 21
54.64300
  0
LINE
  8
Engraving
 62
   7
 39
0.400
  6
CONTINUOUS
 10
6.28100
 20
54.64300
 30
 0
 11
6.22000
 21
54.78400
  0
LINE
  8
Engraving
 62
   7
 39
0.400
  6
CONTINUOUS
 10
6.22000
 20
54.78400
 30
 0
 11
6.12000
 21
54.90500
  0
LINE
  8
Engraving
 62
   7
 39
0.400
  6
CONTINUOUS
 10
6.12000
 20
54.90500
 30
 0
 11
5.97800
 21
55.00600
  0
LINE
  8
Engraving
 62
   7
 39
0.400
  6
CONTINUOUS
 10
5.97800
 20
55.00600
 30
 0
 11
5.77600
 21
55.04600
  0
LINE
  8
Engraving
 62
   7
 39
0.400
  6
CONTINUOUS
 10
5.77600
 20
55.04600
 30
 0
 11
5.31200
 21
55.04600
  0
LINE
  8
Engraving
 62
   7
 39
0.400
  6
CONTINUOUS
 10
5.31200
 20
55.04600
 30
 0
 11
5.13100
 21
55.00600
  0
LINE
  8
Engraving
 62
   7
 39
0.400
  6
CONTINUOUS
 10
5.13100
 20
55.00600
 30
 0
 11
4.98900
 21
54.90500
  0
LINE
  8
Engraving
 62
   7
 39
0.400
  6
CONTINUOUS
 10
4.98900
 20
54.90500
 30
 0
 11
4.90900
 21
54.72300
  0
LINE
  8
Engraving
 62
   7
 39
0.400
  6
CONTINUOUS
 10
4.90900
 20
54.72300
 30
 0
 11
4.90900
 21
54.23900
  0
LINE
  8
Engraving
 62
   7
 39
0.400
  6
CONTINUOUS
 10
4.90900
 20
54.23900
 30
 0
 11
4.90900
 21
54.72300
  0
LINE
  8
Engraving
 62
   7
 39
0.400
  6
CONTINUOUS
 10
4.90900
 20
54.72300
 30
 0
 11
4.78800
 21
54.88500
  0
LINE
  8
Engraving
 62
   7
 39
0.400
  6
CONTINUOUS
 10
4.78800
 20
54.88500
 30
 0
 11
4.68700
 21
54.98600
  0
LINE
  8
Engraving
 62
   7
 39
0.400
  6
CONTINUOUS
 10
4.68700
 20
54.98600
 30
 0
 11
4.54500
 21
55.00600
  0
LINE
  8
Engraving
 62
   7
 39
0.400
  6
CONTINUOUS
 10
4.54500
 20
55.00600
 30
 0
 11
4.16200
 21
55.00600
  0
LINE
  8
Engraving
 62
   7
 39
0.400
  6
CONTINUOUS
 10
4.16200
 20
55.00600
 30
 0
 11
4.00100
 21
54.98600
  0
LINE
  8
Engraving
 62
   7
 39
0.400
  6
CONTINUOUS
 10
4.00100
 20
54.98600
 30
 0
 11
3.85900
 21
54.90500
  0
LINE
  8
Engraving
 62
   7
 39
0.400
  6
CONTINUOUS
 10
3.85900
 20
54.90500
 30
 0
 11
3.73800
 21
54.78400
  0
LINE
  8
Engraving
 62
   7
 39
0.400
  6
CONTINUOUS
 10
3.73800
 20
54.78400
 30
 0
 11
3.69800
 21
54.64300
  0
LINE
  8
Engraving
 62
   7
 39
0.400
  6
CONTINUOUS
 10
3.69800
 20
54.64300
 30
 0
 11
3.67800
 21
54.52200
  0
LINE
  8
Engraving
 62
   7
 39
0.400
  6
CONTINUOUS
 10
3.67800
 20
54.52200
 30
 0
 11
3.67800
 21
54.42100
  0
LINE
  8
Engraving
 62
   7
 39
0.400
  6
CONTINUOUS
 10
3.67800
 20
54.42100
 30
 0
 11
3.69800
 21
54.25900
  0
LINE
  8
Engraving
 62
   7
 39
0.400
  6
CONTINUOUS
 10
3.69800
 20
54.25900
 30
 0
 11
3.77900
 21
54.11800
  0
LINE
  8
Engraving
 62
   7
 39
0.400
  6
CONTINUOUS
 10
3.77900
 20
54.11800
 30
 0
 11
3.87900
 21
54.01700
  0
LINE
  8
Engraving
 62
   7
 39
0.400
  6
CONTINUOUS
 10
3.87900
 20
54.01700
 30
 0
 11
4.02100
 21
53.95600
  0
LINE
  8
Engraving
 62
   7
 39
0.400
  6
CONTINUOUS
 10
4.02100
 20
53.95600
 30
 0
 11
4.16200
 21
53.91600
  0
LINE
  8
Engraving
 62
   7
 39
0.400
  6
CONTINUOUS
 10
4.16200
 20
53.91600
 30
 0
 11
4.40400
 21
53.91600
  0
ARC
  8
Engraving
 62
   7
 39
0.400
  6
CONTINUOUS
 10
17.78800
 20
26.57300
 30
 0
 40
0.91100
 50
180.00000
 51
360.00000
  0
LINE
  8
Engraving
 62
   7
 39
0.400
  6
CONTINUOUS
 10
18.69900
 20
26.57300
 30
 0
 11
18.69900
 21
27.42800
  0
ARC
  8
Engraving
 62
   7
 39
0.400
  6
CONTINUOUS
 10
17.78800
 20
27.42800
 30
 0
 40
0.91100
 50
0.00000
 51
180.00000
  0
LINE
  8
Engraving
 62
   7
 39
0.400
  6
CONTINUOUS
 10
16.87700
 20
27.42800
 30
 0
 11
16.87700
 21
26.57300
  0
LINE
  8
Engraving
 62
   7
 39
0.400
  6
CONTINUOUS
 10
19.38300
 20
28.28200
 30
 0
 11
19.38300
 21
26.51600
  0
ARC
  8
Engraving
 62
   7
 39
0.400
  6
CONTINUOUS
 10
20.23700
 20
26.51600
 30
 0
 40
0.85400
 50
180.00000
 51
360.00000
  0
LINE
  8
Engraving
 62
   7
 39
0.400
  6
CONTINUOUS
 10
21.09100
 20
26.51600
 30
 0
 11
21.09100
 21
28.28200
  0
LINE
  8
Engraving
 62
   7
 39
0.400
  6
CONTINUOUS
 10
21.77500
 20
28.28200
 30
 0
 11
23.48400
 21
28.28200
  0
LINE
  8
Engraving
 62
   7
 39
0.400
  6
CONTINUOUS
 10
23.48400
 20
28.28200
 30
 0
 11
22.62900
 21
28.28200
  0
LINE
  8
Engraving
 62
   7
 39
0.400
  6
CONTINUOUS
 10
22.62900
 20
28.28200
 30
 0
 11
22.62900
 21
25.71900
  0
LINE
  8
Engraving
 62
   7
 39
0.400
  6
CONTINUOUS
 10
33.71800
 20
80.96500
 30
 0
 11
36.28100
 21
80.96500
  0
LINE
  8
Engraving
 62
   7
 39
0.400
  6
CONTINUOUS
 10
36.28100
 20
80.96500
 30
 0
 11
36.28100
 21
81.97400
  0
LINE
  8
Engraving
 62
   7
 39
0.400
  6
CONTINUOUS
 10
33.71800
 20
82.49900
 30
 0
 11
36.28100
 21
83.22600
  0
LINE
  8
Engraving
 62
   7
 39
0.400
  6
CONTINUOUS
 10
36.28100
 20
83.22600
 30
 0
 11
33.71800
 21
83.95200
  0
LINE
  8
Engraving
 62
   7
 39
0.400
  6
CONTINUOUS
 10
33.71800
 20
84.47700
 30
 0
 11
36.28100
 21
84.47700
  0
LINE
  8
Engraving
 62
   7
 39
0.400
  6
CONTINUOUS
 10
36.28100
 20
84.47700
 30
 0
 11
36.28100
 21
85.48600
  0
LINE
  8
Engraving
 62
   7
 39
0.400
  6
CONTINUOUS
 10
34.22300
 20
86.01100
 30
 0
 11
34.04100
 21
86.27300
  0
LINE
  8
Engraving
 62
   7
 39
0.400
  6
CONTINUOUS
 10
34.04100
 20
86.27300
 30
 0
 11
33.71800
 21
86.53500
  0
LINE
  8
Engraving
 62
   7
 39
0.400
  6
CONTINUOUS
 10
33.71800
 20
86.53500
 30
 0
 11
36.28100
 21
86.53500
  0
LINE
  8
Engraving
 62
   7
 39
0.400
  6
CONTINUOUS
 10
33.71800
 20
65.40200
 30
 0
 11
36.28100
 21
65.40200
  0
LINE
  8
Engraving
 62
   7
 39
0.400
  6
CONTINUOUS
 10
36.28100
 20
65.40200
 30
 0
 11
36.28100
 21
66.41100
  0
LINE
  8
Engraving
 62
   7
 39
0.400
  6
CONTINUOUS
 10
33.71800
 20
66.93600
 30
 0
 11
36.28100
 21
67.66300
  0
LINE
  8
Engraving
 62
   7
 39
0.400
  6
CONTINUOUS
 10
36.28100
 20
67.66300
 30
 0
 11
33.71800
 21
68.38900
  0
LINE
  8
Engraving
 62
   7
 39
0.400
  6
CONTINUOUS
 10
33.71800
 20
68.91400
 30
 0
 11
36.28100
 21
68.91400
  0
LINE
  8
Engraving
 62
   7
 39
0.400
  6
CONTINUOUS
 10
36.28100
 20
68.91400
 30
 0
 11
36.28100
 21
69.92300
  0
ARC
  8
Engraving
 62
   7
 39
0.400
  6
CONTINUOUS
 10
34.27000
 20
71.03100
 30
 0
 40
0.59000
 50
193.65853
 51
-72.73294
  0
ARC
  8
Engraving
 62
   7
 39
0.400
  6
CONTINUOUS
 10
34.22800
 20
71.04900
 30
 0
 40
0.55300
 50
96.85512
 51
-163.49932
  0
ARC
  8
Engraving
 62
   7
 39
0.400
  6
CONTINUOUS
 10
34.34300
 20
70.37500
 30
 0
 40
1.23600
 50
417.35109
 51
98.41848
  0
ARC
  8
Engraving
 62
   7
 39
0.400
  6
CONTINUOUS
 10
33.49100
 20
68.88700
 30
 0
 40
2.95000
 50
402.81588
 51
59.00960
  0
LINE
  8
Engraving
 62
   7
 39
0.400
  6
CONTINUOUS
 10
35.65500
 20
70.89200
 30
 0
 11
36.14000
 21
70.42700
  0
LINE
  8
Engraving
 62
   7
 39
0.400
  6
CONTINUOUS
 10
36.14000
 20
70.42700
 30
 0
 11
36.28100
 21
70.42700
  0
LINE
  8
Engraving
 62
   7
 39
0.400
  6
CONTINUOUS
 10
36.28100
 20
70.42700
 30
 0
 11
36.28100
 21
71.61800
  0
LINE
  8
Engraving
 62
   7
 39
0.400
  6
CONTINUOUS
 10
36.28100
 20
71.61800
 30
 0
 11
36.28100
 21
70.42700
  0
LINE
  8
Engraving
 62
   7
 39
0.400
  6
CONTINUOUS
 10
33.71800
 20
50.18200
 30
 0
 11
36.28100
 21
50.18200
  0
LINE
  8
Engraving
 62
   7
 39
0.400
  6
CONTINUOUS
 10
36.28100
 20
50.18200
 30
 0
 11
36.28100
 21
51.19100
  0
LINE
  8
Engraving
 62
   7
 39
0.400
  6
CONTINUOUS
 10
33.71800
 20
51.71600
 30
 0
 11
36.28100
 21
52.44300
  0
LINE
  8
Engraving
 62
   7
 39
0.400
  6
CONTINUOUS
 10
36.28100
 20
52.44300
 30
 0
 11
33.71800
 21
53.16900
  0
LINE
  8
Engraving
 62
   7
 39
0.400
  6
CONTINUOUS
 10
33.71800
 20
53.69400
 30
 0
 11
36.28100
 21
53.69400
  0
LINE
  8
Engraving
 62
   7
 39
0.400
  6
CONTINUOUS
 10
36.28100
 20
53.69400
 30
 0
 11
36.28100
 21
54.70300
  0
LINE
  8
Engraving
 62
   7
 39
0.400
  6
CONTINUOUS
 10
35.53400
 20
55.20700
 30
 0
 11
35.77600
 21
55.20700
  0
LINE
  8
Engraving
 62
   7
 39
0.400
  6
CONTINUOUS
 10
35.77600
 20
55.20700
 30
 0
 11
35.97800
 21
55.24800
  0
LINE
  8
Engraving
 62
   7
 39
0.400
  6
CONTINUOUS
 10
35.97800
 20
55.24800
 30
 0
 11
36.12000
 21
55.34900
  0
LINE
  8
Engraving
 62
   7
 39
0.400
  6
CONTINUOUS
 10
36.12000
 20
55.34900
 30
 0
 11
36.22000
 21
55.47000
  0
LINE
  8
Engraving
 62
   7
 39
0.400
  6
CONTINUOUS
 10
36.22000
 20
55.47000
 30
 0
 11
36.28100
 21
55.67200
  0
LINE
  8
Engraving
 62
   7
 39
0.400
  6
CONTINUOUS
 10
36.28100
 20
55.67200
 30
 0
 11
36.30100
 21
55.77300
  0
LINE
  8
Engraving
 62
   7
 39
0.400
  6
CONTINUOUS
 10
36.30100
 20
55.77300
 30
 0
 11
36.28100
 21
55.95400
  0
LINE
  8
Engraving
 62
   7
 39
0.400
  6
CONTINUOUS
 10
36.28100
 20
55.95400
 30
 0
 11
36.22000
 21
56.09500
  0
LINE
  8
Engraving
 62
   7
 39
0.400
  6
CONTINUOUS
 10
36.22000
 20
56.09500
 30
 0
 11
36.12000
 21
56.21700
  0
LINE
  8
Engraving
 62
   7
 39
0.400
  6
CONTINUOUS
 10
36.12000
 20
56.21700
 30
 0
 11
35.97800
 21
56.31700
  0
LINE
  8
Engraving
 62
   7
 39
0.400
  6
CONTINUOUS
 10
35.97800
 20
56.31700
 30
 0
 11
35.77600
 21
56.35800
  0
LINE
  8
Engraving
 62
   7
 39
0.400
  6
CONTINUOUS
 10
35.77600
 20
56.35800
 30
 0
 11
35.31200
 21
56.35800
  0
LINE
  8
Engraving
 62
   7
 39
0.400
  6
CONTINUOUS
 10
35.31200
 20
56.35800
 30
 0
 11
35.13100
 21
56.31700
  0
LINE
  8
Engraving
 62
   7
 39
0.400
  6
CONTINUOUS
 10
35.13100
 20
56.31700
 30
 0
 11
34.98900
 21
56.21700
  0
LINE
  8
Engraving
 62
   7
 39
0.400
  6
CONTINUOUS
 10
34.98900
 20
56.21700
 30
 0
 11
34.90900
 21
56.03500
  0
LINE
  8
Engraving
 62
   7
 39
0.400
  6
CONTINUOUS
 10
34.90900
 20
56.03500
 30
 0
 11
34.90900
 21
55.55100
  0
LINE
  8
Engraving
 62
   7
 39
0.400
  6
CONTINUOUS
 10
34.90900
 20
55.55100
 30
 0
 11
34.90900
 21
56.03500
  0
LINE
  8
Engraving
 62
   7
 39
0.400
  6
CONTINUOUS
 10
34.90900
 20
56.03500
 30
 0
 11
34.78800
 21
56.19600
  0
LINE
  8
Engraving
 62
   7
 39
0.400
  6
CONTINUOUS
 10
34.78800
 20
56.19600
 30
 0
 11
34.68700
 21
56.29700
  0
LINE
  8
Engraving
 62
   7
 39
0.400
  6
CONTINUOUS
 10
34.68700
 20
56.29700
 30
 0
 11
34.54500
 21
56.31700
  0
LINE
  8
Engraving
 62
   7
 39
0.400
  6
CONTINUOUS
 10
34.54500
 20
56.31700
 30
 0
 11
34.16200
 21
56.31700
  0
LINE
  8
Engraving
 62
   7
 39
0.400
  6
CONTINUOUS
 10
34.16200
 20
56.31700
 30
 0
 11
34.00100
 21
56.29700
  0
LINE
  8
Engraving
 62
   7
 39
0.400
  6
CONTINUOUS
 10
34.00100
 20
56.29700
 30
 0
 11
33.85900
 21
56.21700
  0
LINE
  8
Engraving
 62
   7
 39
0.400
  6
CONTINUOUS
 10
33.85900
 20
56.21700
 30
 0
 11
33.73800
 21
56.09500
  0
LINE
  8
Engraving
 62
   7
 39
0.400
  6
CONTINUOUS
 10
33.73800
 20
56.09500
 30
 0
 11
33.69800
 21
55.95400
  0
LINE
  8
Engraving
 62
   7
 39
0.400
  6
CONTINUOUS
 10
33.69800
 20
55.95400
 30
 0
 11
33.67800
 21
55.83300
  0
LINE
  8
Engraving
 62
   7
 39
0.400
  6
CONTINUOUS
 10
33.67800
 20
55.83300
 30
 0
 11
33.67800
 21
55.73200
  0
LINE
  8
Engraving
 62
   7
 39
0.400
  6
CONTINUOUS
 10
33.67800
 20
55.73200
 30
 0
 11
33.69800
 21
55.57100
  0
LINE
  8
Engraving
 62
   7
 39
0.400
  6
CONTINUOUS
 10
33.69800
 20
55.57100
 30
 0
 11
33.77900
 21
55.42900
  0
LINE
  8
Engraving
 62
   7
 39
0.400
  6
CONTINUOUS
 10
33.77900
 20
55.42900
 30
 0
 11
33.87900
 21
55.32900
  0
LINE
  8
Engraving
 62
   7
 39
0.400
  6
CONTINUOUS
 10
33.87900
 20
55.32900
 30
 0
 11
34.02100
 21
55.26800
  0
LINE
  8
Engraving
 62
   7
 39
0.400
  6
CONTINUOUS
 10
34.02100
 20
55.26800
 30
 0
 11
34.16200
 21
55.22800
  0
LINE
  8
Engraving
 62
   7
 39
0.400
  6
CONTINUOUS
 10
34.16200
 20
55.22800
 30
 0
 11
34.40400
 21
55.22800
  0
LINE
  8
Engraving
 62
   7
 39
0.600
  6
CONTINUOUS
 10
12.16100
 20
109.97800
 30
 0
 11
12.16100
 21
113.82300
  0
LINE
  8
Engraving
 62
   7
 39
0.600
  6
CONTINUOUS
 10
12.16100
 20
113.82300
 30
 0
 11
13.65600
 21
111.04600
  0
LINE
  8
Engraving
 62
   7
 39
0.600
  6
CONTINUOUS
 10
13.65600
 20
111.04600
 30
 0
 11
15.15100
 21
113.82300
  0
LINE
  8
Engraving
 62
   7
 39
0.600
  6
CONTINUOUS
 10
15.15100
 20
113.82300
 30
 0
 11
15.15100
 21
109.97800
  0
LINE
  8
Engraving
 62
   7
 39
0.600
  6
CONTINUOUS
 10
16.17700
 20
113.82300
 30
 0
 11
16.17700
 21
113.60900
  0
LINE
  8
Engraving
 62
   7
 39
0.600
  6
CONTINUOUS
 10
16.17700
 20
112.54100
 30
 0
 11
16.17700
 21
109.97800
  0
LINE
  8
Engraving
 62
   7
 39
0.600
  6
CONTINUOUS
 10
17.20200
 20
112.54100
 30
 0
 11
19.33800
 21
109.97800
  0
LINE
  8
Engraving
 62
   7
 39
0.600
  6
CONTINUOUS
 10
17.20200
 20
109.97800
 30
 0
 11
19.33800
 21
112.54100
  0
LINE
  8
Engraving
 62
   7
 39
0.600
  6
CONTINUOUS
 10
20.36300
 20
113.82300
 30
 0
 11
20.36300
 21
113.60900
  0
LINE
  8
Engraving
 62
   7
 39
0.600
  6
CONTINUOUS
 10
20.36300
 20
112.54100
 30
 0
 11
20.36300
 21
109.97800
  0
LINE
  8
Engraving
 62
   7
 39
0.600
  6
CONTINUOUS
 10
21.38900
 20
108.69600
 30
 0
 11
21.38900
 21
111.47300
  0
ARC
  8
Engraving
 62
   7
 39
0.600
  6
CONTINUOUS
 10
22.45700
 20
111.47300
 30
 0
 40
1.06800
 50
360.00000
 51
180.00000
  0
LINE
  8
Engraving
 62
   7
 39
0.600
  6
CONTINUOUS
 10
23.52500
 20
111.47300
 30
 0
 11
23.52500
 21
111.04600
  0
ARC
  8
Engraving
 62
   7
 39
0.600
  6
CONTINUOUS
 10
22.45700
 20
111.04600
 30
 0
 40
1.06800
 50
180.00000
 51
0.00000
  0
LINE
  8
Engraving
 62
   7
 39
0.600
  6
CONTINUOUS
 10
21.38900
 20
111.04600
 30
 0
 11
21.38900
 21
112.54100
  0
LINE
  8
Engraving
 62
   7
 39
0.600
  6
CONTINUOUS
 10
24.55000
 20
113.82300
 30
 0
 11
24.55000
 21
110.49100
  0
ARC
  8
Engraving
 62
   7
 39
0.600
  6
CONTINUOUS
 10
25.07100
 20
110.49000
 30
 0
 40
0.52100
 50
179.89003
 51
259.59671
  0
LINE
  8
Engraving
 62
   7
 39
0.600
  6
CONTINUOUS
 10
26.00300
 20
111.26000
 30
 0
 11
28.13900
 21
111.26000
  0
LINE
  8
Engraving
 62
   7
 39
0.600
  6
CONTINUOUS
 10
28.13900
 20
111.26000
 30
 0
 11
28.13900
 21
111.47300
  0
ARC
  8
Engraving
 62
   7
 39
0.600
  6
CONTINUOUS
 10
27.07100
 20
111.47300
 30
 0
 40
1.06800
 50
0.00000
 51
180.00000
  0
LINE
  8
Engraving
 62
   7
 39
0.600
  6
CONTINUOUS
 10
26.00300
 20
111.47300
 30
 0
 11
26.00300
 21
111.04600
  0
ARC
  8
Engraving
 62
   7
 39
0.600
  6
CONTINUOUS
 10
27.12300
 20
111.04500
 30
 0
 40
1.12000
 50
179.94884
 51
322.43453
  0
CIRCLE
  8
Contour
 62
   7
 39
0.100
  6
CONTINUOUS
 10
7.50000
 20
125.50000
 30
 0
 40
1.50000
  0
CIRCLE
  8
Contour
 62
   7
 39
0.100
  6
CONTINUOUS
 10
7.50000
 20
3.00000
 30
 0
 40
1.50000
  0
CIRCLE
  8
Contour
 62
   7
 39
0.100
  6
CONTINUOUS
 10
13.18500
 20
83.75000
 30
 0
 40
3.00000
  0
CIRCLE
  8
Contour
 62
   7
 39
0.100
  6
CONTINUOUS
 10
13.18500
 20
53.27000
 30
 0
 40
3.00000
  0
CIRCLE
  8
Contour
 62
   7
 39
0.100
  6
CONTINUOUS
 10
13.18500
 20
68.51000
 30
 0
 40
3.00000
  0
CIRCLE
  8
Contour
 62
   7
 39
0.100
  6
CONTINUOUS
 10
8.10500
 20
35.49000
 30
 0
 40
3.00000
  0
CIRCLE
  8
Contour
 62
   7
 39
0.100
  6
CONTINUOUS
 10
20.17500
 20
35.49000
 30
 0
 40
3.00000
  0
CIRCLE
  8
Contour
 62
   7
 39
0.100
  6
CONTINUOUS
 10
32.24500
 20
35.49000
 30
 0
 40
3.00000
  0
CIRCLE
  8
Contour
 62
   7
 39
0.100
  6
CONTINUOUS
 10
27.15500
 20
83.75000
 30
 0
 40
3.75000
  0
CIRCLE
  8
Contour
 62
   7
 39
0.100
  6
CONTINUOUS
 10
27.15500
 20
53.27000
 30
 0
 40
3.75000
  0
CIRCLE
  8
Contour
 62
   7
 39
0.100
  6
CONTINUOUS
 10
27.15500
 20
68.51000
 30
 0
 40
3.75000
  0
ENDSEC
  0
EOF
