G75*
%MOIN*%
%OFA0B0*%
%FSLAX25Y25*%
%IPPOS*%
%LPD*%
%AMOC8*
5,1,8,0,0,1.08239X$1,22.5*
%
%ADD10C,0.00000*%
%ADD11R,0.05118X0.05906*%
%ADD12R,0.05906X0.05118*%
%ADD13R,0.02600X0.08000*%
D10*
X0001000Y0001000D02*
X0001000Y0325961D01*
X0227201Y0325961D01*
X0227201Y0001000D01*
X0001000Y0001000D01*
D11*
X0119760Y0231000D03*
X0127240Y0231000D03*
X0137260Y0231000D03*
X0144740Y0231000D03*
X0192260Y0248500D03*
X0199740Y0248500D03*
X0199740Y0191000D03*
X0192260Y0191000D03*
X0194740Y0161000D03*
X0187260Y0161000D03*
X0192260Y0086000D03*
X0199740Y0086000D03*
X0077240Y0288500D03*
X0069760Y0288500D03*
D12*
X0053500Y0247240D03*
X0053500Y0239760D03*
X0053500Y0189740D03*
X0053500Y0182260D03*
X0053500Y0137240D03*
X0053500Y0129760D03*
X0053500Y0082240D03*
X0053500Y0074760D03*
X0128500Y0109760D03*
X0128500Y0117240D03*
X0141000Y0117240D03*
X0141000Y0109760D03*
X0206000Y0297260D03*
X0206000Y0304740D03*
D13*
X0196000Y0313100D03*
X0191000Y0313100D03*
X0186000Y0313100D03*
X0181000Y0313100D03*
X0176000Y0313100D03*
X0171000Y0313100D03*
X0166000Y0313100D03*
X0166000Y0288900D03*
X0171000Y0288900D03*
X0176000Y0288900D03*
X0181000Y0288900D03*
X0186000Y0288900D03*
X0191000Y0288900D03*
X0196000Y0288900D03*
M02*
