%
M48
M72
T01C0.0240
T02C0.0276
T03C0.0320
T04C0.0400
T05C0.0433
T06C0.0591
T07C0.0827
T08C0.0984
%
T01
X10630Y5410
X19270Y10450
X14050Y25660
X16570Y28180
X17830Y27460
X19090Y29620
X18460Y30520
X19990Y30340
X20350Y31330
T02
X11600Y26600
X11600Y25600
X11600Y20850
X11600Y19850
X11600Y15100
X11600Y14100
X11600Y8850
X11600Y7850
X16600Y7350
X16600Y9350
X16600Y13600
X16600Y15600
X16600Y19350
X16600Y21350
X16600Y25100
X16600Y27100
T03
X6600Y30850
X7350Y30350
X7350Y31350
X9100Y31850
X10350Y31850
X11600Y31850
X12850Y31850
X12850Y29850
X11600Y29850
X10350Y29850
X9100Y29850
X16850Y4600
X16850Y2600
T04
X1350Y30350
X1350Y31350
X2350Y31350
X2350Y30350
X3350Y30350
X3350Y31350
X4350Y31350
X4350Y30350
X5350Y30350
X5350Y31350
T05
X7116Y23344
X8100Y23344
X9084Y23344
X9084Y17594
X8100Y17594
X7116Y17594
X7116Y12094
X8100Y12094
X9084Y12094
X9084Y6594
X8100Y6594
X7116Y6594
X7116Y844
X8100Y844
X9084Y844
X12616Y844
X13600Y844
X14584Y844
X18866Y6594
X19850Y6594
X20834Y6594
X20834Y12094
X19850Y12094
X18866Y12094
X18866Y17594
X19850Y17594
X20834Y17594
X20834Y23344
X19850Y23344
X18866Y23344
T06
X946Y26100
X946Y20350
X946Y14850
X946Y9350
X18196Y3850
T07
X6328Y3600
X9872Y3600
X11828Y3600
X15372Y3600
X18078Y9350
X21622Y9350
X21622Y14850
X18078Y14850
X18078Y20350
X21622Y20350
X21622Y26100
X18078Y26100
X9872Y26100
X6328Y26100
X6328Y20350
X9872Y20350
X9872Y14850
X6328Y14850
X6328Y9350
X9872Y9350
T08
X2600Y7421
X4254Y9350
X2600Y10649
X2600Y12921
X4254Y14850
X2600Y16149
X2600Y18421
X4254Y20350
X2600Y21649
X2600Y24171
X4254Y26100
X2600Y27399
X19850Y5149
X21504Y3850
X19850Y1921
M30
