G75*
%MOIN*%
%OFA0B0*%
%FSLAX25Y25*%
%IPPOS*%
%LPD*%
%AMOC8*
5,1,8,0,0,1.08239X$1,22.5*
%
%ADD10C,0.00000*%
%ADD11C,0.00200*%
%ADD12C,0.00300*%
%ADD13C,0.00600*%
%ADD14C,0.00400*%
D10*
X0001000Y0001000D02*
X0001000Y0325961D01*
X0227201Y0325961D01*
X0227201Y0001000D01*
X0001000Y0001000D01*
D11*
X0050535Y0067570D02*
X0050168Y0067937D01*
X0050168Y0069405D01*
X0051635Y0067937D01*
X0051269Y0067570D01*
X0050535Y0067570D01*
X0051635Y0067937D02*
X0051635Y0069405D01*
X0051269Y0069772D01*
X0050535Y0069772D01*
X0050168Y0069405D01*
X0052377Y0067570D02*
X0053845Y0067570D01*
X0053111Y0067570D02*
X0053111Y0069772D01*
X0053845Y0069038D01*
X0054587Y0069405D02*
X0054587Y0068671D01*
X0054954Y0068304D01*
X0056055Y0068304D01*
X0055321Y0068304D02*
X0054587Y0067570D01*
X0056055Y0067570D02*
X0056055Y0069772D01*
X0054954Y0069772D01*
X0054587Y0069405D01*
X0054104Y0122219D02*
X0054838Y0122952D01*
X0054471Y0122952D02*
X0055572Y0122952D01*
X0055572Y0122219D02*
X0055572Y0124420D01*
X0054471Y0124420D01*
X0054104Y0124053D01*
X0054104Y0123319D01*
X0054471Y0122952D01*
X0053362Y0122586D02*
X0053362Y0122219D01*
X0053362Y0122586D02*
X0051894Y0124053D01*
X0051894Y0124420D01*
X0053362Y0124420D01*
X0048277Y0183764D02*
X0046075Y0183764D01*
X0046809Y0183764D02*
X0046809Y0184865D01*
X0047176Y0185232D01*
X0047910Y0185232D01*
X0048277Y0184865D01*
X0048277Y0183764D01*
X0046809Y0184498D02*
X0046075Y0185232D01*
X0047176Y0185974D02*
X0047176Y0187442D01*
X0046075Y0187075D02*
X0048277Y0187075D01*
X0047176Y0185974D01*
X0046992Y0241436D02*
X0046992Y0242537D01*
X0047359Y0242904D01*
X0048093Y0242904D01*
X0048460Y0242537D01*
X0048460Y0241436D01*
X0046258Y0241436D01*
X0046992Y0242170D02*
X0046258Y0242904D01*
X0046258Y0243646D02*
X0047726Y0245114D01*
X0048093Y0245114D01*
X0048460Y0244747D01*
X0048460Y0244013D01*
X0048093Y0243646D01*
X0046258Y0243646D02*
X0046258Y0245114D01*
X0082678Y0286493D02*
X0082311Y0286860D01*
X0082311Y0287594D01*
X0082678Y0287961D01*
X0082678Y0288703D02*
X0082311Y0289070D01*
X0082311Y0289804D01*
X0082678Y0290171D01*
X0083045Y0290171D01*
X0083412Y0289804D01*
X0083412Y0288703D01*
X0082678Y0288703D01*
X0083412Y0288703D02*
X0084146Y0289437D01*
X0084513Y0290171D01*
X0084146Y0287961D02*
X0084513Y0287594D01*
X0084513Y0286860D01*
X0084146Y0286493D01*
X0082678Y0286493D01*
X0121683Y0239365D02*
X0121316Y0238998D01*
X0121316Y0238631D01*
X0121683Y0238264D01*
X0122417Y0238264D01*
X0122784Y0238631D01*
X0122784Y0238998D01*
X0122417Y0239365D01*
X0121683Y0239365D01*
X0121683Y0238264D02*
X0121316Y0237897D01*
X0121316Y0237530D01*
X0121683Y0237163D01*
X0122417Y0237163D01*
X0122784Y0237530D01*
X0122784Y0237897D01*
X0122417Y0238264D01*
X0123526Y0237163D02*
X0124994Y0237163D01*
X0124260Y0237163D02*
X0124260Y0239365D01*
X0124994Y0238631D01*
X0125735Y0238264D02*
X0126102Y0237897D01*
X0127203Y0237897D01*
X0126469Y0237897D02*
X0125735Y0237163D01*
X0125735Y0238264D02*
X0125735Y0238998D01*
X0126102Y0239365D01*
X0127203Y0239365D01*
X0127203Y0237163D01*
X0138788Y0237558D02*
X0140256Y0236090D01*
X0140256Y0235723D01*
X0140998Y0235723D02*
X0142466Y0235723D01*
X0141732Y0235723D02*
X0141732Y0237925D01*
X0142466Y0237191D01*
X0143208Y0237558D02*
X0143208Y0236824D01*
X0143575Y0236457D01*
X0144676Y0236457D01*
X0143942Y0236457D02*
X0143208Y0235723D01*
X0144676Y0235723D02*
X0144676Y0237925D01*
X0143575Y0237925D01*
X0143208Y0237558D01*
X0140256Y0237925D02*
X0138788Y0237925D01*
X0138788Y0237558D01*
X0184822Y0244528D02*
X0187024Y0244528D01*
X0187024Y0245629D01*
X0186657Y0245996D01*
X0185923Y0245996D01*
X0185556Y0245629D01*
X0185556Y0244528D01*
X0185556Y0245262D02*
X0184822Y0245996D01*
X0184822Y0246738D02*
X0184822Y0248206D01*
X0184822Y0247472D02*
X0187024Y0247472D01*
X0186290Y0246738D01*
X0185923Y0248948D02*
X0185923Y0250416D01*
X0184822Y0250049D02*
X0187024Y0250049D01*
X0185923Y0248948D01*
X0204746Y0193196D02*
X0204379Y0192829D01*
X0204379Y0192095D01*
X0204746Y0191728D01*
X0204379Y0190986D02*
X0204379Y0189519D01*
X0204379Y0190252D02*
X0206580Y0190252D01*
X0205847Y0189519D01*
X0206214Y0188777D02*
X0205480Y0188777D01*
X0205113Y0188410D01*
X0205113Y0187309D01*
X0205113Y0188043D02*
X0204379Y0188777D01*
X0204379Y0187309D02*
X0206580Y0187309D01*
X0206580Y0188410D01*
X0206214Y0188777D01*
X0206214Y0191728D02*
X0206580Y0192095D01*
X0206580Y0192829D01*
X0206214Y0193196D01*
X0205847Y0193196D01*
X0205480Y0192829D01*
X0205113Y0193196D01*
X0204746Y0193196D01*
X0205480Y0192829D02*
X0205480Y0192462D01*
X0193367Y0168865D02*
X0192266Y0168865D01*
X0191899Y0168498D01*
X0191899Y0167764D01*
X0192266Y0167397D01*
X0193367Y0167397D01*
X0193367Y0166663D02*
X0193367Y0168865D01*
X0192633Y0167397D02*
X0191899Y0166663D01*
X0191157Y0166663D02*
X0189689Y0166663D01*
X0190423Y0166663D02*
X0190423Y0168865D01*
X0191157Y0168131D01*
X0188947Y0167764D02*
X0188947Y0168865D01*
X0187479Y0168865D01*
X0187846Y0168131D02*
X0187479Y0167764D01*
X0187479Y0167030D01*
X0187846Y0166663D01*
X0188580Y0166663D01*
X0188947Y0167030D01*
X0188947Y0167764D02*
X0188213Y0168131D01*
X0187846Y0168131D01*
X0147544Y0117476D02*
X0146077Y0116008D01*
X0145710Y0116375D01*
X0145710Y0117109D01*
X0146077Y0117476D01*
X0147544Y0117476D01*
X0147911Y0117109D01*
X0147911Y0116375D01*
X0147544Y0116008D01*
X0146077Y0116008D01*
X0145710Y0115266D02*
X0145710Y0113798D01*
X0147177Y0115266D01*
X0147544Y0115266D01*
X0147911Y0114899D01*
X0147911Y0114165D01*
X0147544Y0113798D01*
X0147544Y0113057D02*
X0146810Y0113057D01*
X0146444Y0112690D01*
X0146444Y0111589D01*
X0146444Y0112323D02*
X0145710Y0113057D01*
X0145710Y0111589D02*
X0147911Y0111589D01*
X0147911Y0112690D01*
X0147544Y0113057D01*
X0132028Y0122951D02*
X0132028Y0125153D01*
X0130927Y0125153D01*
X0130560Y0124786D01*
X0130560Y0124052D01*
X0130927Y0123685D01*
X0132028Y0123685D01*
X0131294Y0123685D02*
X0130560Y0122951D01*
X0129818Y0122951D02*
X0128350Y0122951D01*
X0129084Y0122951D02*
X0129084Y0125153D01*
X0129818Y0124419D01*
X0127608Y0124419D02*
X0127241Y0124052D01*
X0126140Y0124052D01*
X0126140Y0123318D02*
X0126140Y0124786D01*
X0126507Y0125153D01*
X0127241Y0125153D01*
X0127608Y0124786D01*
X0127608Y0124419D01*
X0127608Y0123318D02*
X0127241Y0122951D01*
X0126507Y0122951D01*
X0126140Y0123318D01*
X0192427Y0094217D02*
X0193161Y0093850D01*
X0193895Y0093116D01*
X0192794Y0093116D01*
X0192427Y0092749D01*
X0192427Y0092382D01*
X0192794Y0092015D01*
X0193528Y0092015D01*
X0193895Y0092382D01*
X0193895Y0093116D01*
X0194637Y0092015D02*
X0196105Y0092015D01*
X0195371Y0092015D02*
X0195371Y0094217D01*
X0196105Y0093483D01*
X0196847Y0093116D02*
X0197214Y0092749D01*
X0198315Y0092749D01*
X0198315Y0092015D02*
X0198315Y0094217D01*
X0197214Y0094217D01*
X0196847Y0093850D01*
X0196847Y0093116D01*
X0197581Y0092749D02*
X0196847Y0092015D01*
D12*
X0204700Y0310790D02*
X0204094Y0311397D01*
X0204094Y0313823D01*
X0204700Y0314430D01*
X0205914Y0314430D01*
X0206520Y0313823D01*
X0206520Y0313217D01*
X0205914Y0312610D01*
X0204094Y0312610D01*
X0204700Y0310790D02*
X0205914Y0310790D01*
X0206520Y0311397D01*
X0207719Y0311397D02*
X0208325Y0310790D01*
X0209539Y0310790D01*
X0210145Y0311397D01*
X0210145Y0313823D01*
X0209539Y0314430D01*
X0208325Y0314430D01*
X0207719Y0313823D01*
D13*
X0198500Y0307300D02*
X0163500Y0307300D01*
X0163500Y0307200D02*
X0163500Y0303000D01*
X0163500Y0299000D01*
X0163500Y0294800D01*
X0163502Y0294724D01*
X0163508Y0294648D01*
X0163517Y0294573D01*
X0163531Y0294498D01*
X0163548Y0294424D01*
X0163569Y0294351D01*
X0163593Y0294279D01*
X0163622Y0294208D01*
X0163653Y0294139D01*
X0163688Y0294072D01*
X0163727Y0294007D01*
X0163769Y0293943D01*
X0163814Y0293882D01*
X0163862Y0293823D01*
X0163913Y0293767D01*
X0163967Y0293713D01*
X0164023Y0293662D01*
X0164082Y0293614D01*
X0164143Y0293569D01*
X0164207Y0293527D01*
X0164272Y0293488D01*
X0164339Y0293453D01*
X0164408Y0293422D01*
X0164479Y0293393D01*
X0164551Y0293369D01*
X0164624Y0293348D01*
X0164698Y0293331D01*
X0164773Y0293317D01*
X0164848Y0293308D01*
X0164924Y0293302D01*
X0165000Y0293300D01*
X0197000Y0293300D01*
X0197076Y0293302D01*
X0197152Y0293308D01*
X0197227Y0293317D01*
X0197302Y0293331D01*
X0197376Y0293348D01*
X0197449Y0293369D01*
X0197521Y0293393D01*
X0197592Y0293422D01*
X0197661Y0293453D01*
X0197728Y0293488D01*
X0197793Y0293527D01*
X0197857Y0293569D01*
X0197918Y0293614D01*
X0197977Y0293662D01*
X0198033Y0293713D01*
X0198087Y0293767D01*
X0198138Y0293823D01*
X0198186Y0293882D01*
X0198231Y0293943D01*
X0198273Y0294007D01*
X0198312Y0294072D01*
X0198347Y0294139D01*
X0198378Y0294208D01*
X0198407Y0294279D01*
X0198431Y0294351D01*
X0198452Y0294424D01*
X0198469Y0294498D01*
X0198483Y0294573D01*
X0198492Y0294648D01*
X0198498Y0294724D01*
X0198500Y0294800D01*
X0198500Y0307200D01*
X0198498Y0307276D01*
X0198492Y0307352D01*
X0198483Y0307427D01*
X0198469Y0307502D01*
X0198452Y0307576D01*
X0198431Y0307649D01*
X0198407Y0307721D01*
X0198378Y0307792D01*
X0198347Y0307861D01*
X0198312Y0307928D01*
X0198273Y0307993D01*
X0198231Y0308057D01*
X0198186Y0308118D01*
X0198138Y0308177D01*
X0198087Y0308233D01*
X0198033Y0308287D01*
X0197977Y0308338D01*
X0197918Y0308386D01*
X0197857Y0308431D01*
X0197793Y0308473D01*
X0197728Y0308512D01*
X0197661Y0308547D01*
X0197592Y0308578D01*
X0197521Y0308607D01*
X0197449Y0308631D01*
X0197376Y0308652D01*
X0197302Y0308669D01*
X0197227Y0308683D01*
X0197152Y0308692D01*
X0197076Y0308698D01*
X0197000Y0308700D01*
X0165000Y0308700D01*
X0164924Y0308698D01*
X0164848Y0308692D01*
X0164773Y0308683D01*
X0164698Y0308669D01*
X0164624Y0308652D01*
X0164551Y0308631D01*
X0164479Y0308607D01*
X0164408Y0308578D01*
X0164339Y0308547D01*
X0164272Y0308512D01*
X0164207Y0308473D01*
X0164143Y0308431D01*
X0164082Y0308386D01*
X0164023Y0308338D01*
X0163967Y0308287D01*
X0163913Y0308233D01*
X0163862Y0308177D01*
X0163814Y0308118D01*
X0163769Y0308057D01*
X0163727Y0307993D01*
X0163688Y0307928D01*
X0163653Y0307861D01*
X0163622Y0307792D01*
X0163593Y0307721D01*
X0163569Y0307649D01*
X0163548Y0307576D01*
X0163531Y0307502D01*
X0163517Y0307427D01*
X0163508Y0307352D01*
X0163502Y0307276D01*
X0163500Y0307200D01*
X0163500Y0303000D02*
X0163588Y0302998D01*
X0163677Y0302992D01*
X0163765Y0302982D01*
X0163852Y0302969D01*
X0163939Y0302951D01*
X0164025Y0302930D01*
X0164110Y0302905D01*
X0164193Y0302876D01*
X0164276Y0302843D01*
X0164356Y0302807D01*
X0164435Y0302768D01*
X0164513Y0302725D01*
X0164588Y0302678D01*
X0164661Y0302628D01*
X0164732Y0302575D01*
X0164801Y0302519D01*
X0164867Y0302460D01*
X0164930Y0302398D01*
X0164990Y0302334D01*
X0165048Y0302267D01*
X0165102Y0302197D01*
X0165154Y0302125D01*
X0165202Y0302051D01*
X0165247Y0301974D01*
X0165288Y0301896D01*
X0165326Y0301816D01*
X0165360Y0301735D01*
X0165391Y0301652D01*
X0165418Y0301567D01*
X0165441Y0301482D01*
X0165460Y0301396D01*
X0165476Y0301308D01*
X0165488Y0301221D01*
X0165496Y0301133D01*
X0165500Y0301044D01*
X0165500Y0300956D01*
X0165496Y0300867D01*
X0165488Y0300779D01*
X0165476Y0300692D01*
X0165460Y0300604D01*
X0165441Y0300518D01*
X0165418Y0300433D01*
X0165391Y0300348D01*
X0165360Y0300265D01*
X0165326Y0300184D01*
X0165288Y0300104D01*
X0165247Y0300026D01*
X0165202Y0299949D01*
X0165154Y0299875D01*
X0165102Y0299803D01*
X0165048Y0299733D01*
X0164990Y0299666D01*
X0164930Y0299602D01*
X0164867Y0299540D01*
X0164801Y0299481D01*
X0164732Y0299425D01*
X0164661Y0299372D01*
X0164588Y0299322D01*
X0164513Y0299275D01*
X0164435Y0299232D01*
X0164356Y0299193D01*
X0164276Y0299157D01*
X0164193Y0299124D01*
X0164110Y0299095D01*
X0164025Y0299070D01*
X0163939Y0299049D01*
X0163852Y0299031D01*
X0163765Y0299018D01*
X0163677Y0299008D01*
X0163588Y0299002D01*
X0163500Y0299000D01*
D14*
X0162303Y0299123D02*
X0158763Y0299123D01*
X0158763Y0298533D02*
X0158763Y0299713D01*
X0159353Y0300950D02*
X0158763Y0301540D01*
X0158763Y0302720D01*
X0159353Y0303310D01*
X0158763Y0304575D02*
X0158763Y0306935D01*
X0158763Y0305755D02*
X0162303Y0305755D01*
X0161123Y0304575D01*
X0161713Y0303310D02*
X0162303Y0302720D01*
X0162303Y0301540D01*
X0161713Y0300950D01*
X0159353Y0300950D01*
X0162303Y0299713D02*
X0162303Y0298533D01*
M02*
