  0
SECTION
  2
HEADER
  9
$MEASUREMENT
  70
  1
  9
$INSUNITS
  70
  4
  0
ENDSEC
  0
SECTION
  2
TABLES
  0
TABLE
  2
LTYPE
 70
     1
  0
LTYPE
  2
CONTINUOUS
 70
    64
  3
Ausgezogene Linie
 72
    65
 73
     0
 40
0.0
  0
ENDTAB
  0
TABLE
  2
LAYER
 70
     3
  0
LAYER
  2
Contour
 70
    64
 62
     7
  6
CONTINUOUS
  0
LAYER
  2
Engraving
 70
    64
 62
     7
  6
CONTINUOUS
  0
LAYER
  2
Reference_points
 70
    64
 62
     1
  6
CONTINUOUS
  0
ENDTAB
  0
TABLE
  2
STYLE
 70
     1
  0
STYLE
  2
TXT
 70
    64
 40
0.0
 41
1.0
 50
0.0
 71
     0
 42
3.500000
  3
TXT
  0
ENDTAB
  0
ENDSEC
  0
SECTION
  2
BLOCKS
  0
ENDSEC
  0
SECTION
  2
ENTITIES
  0
LINE
  8
Contour
 62
   7
 39
0.100
  6
CONTINUOUS
 10
19.98000
 20
128.40000
 30
 0
 11
0.00000
 21
128.40000
  0
LINE
  8
Contour
 62
   7
 39
0.100
  6
CONTINUOUS
 10
0.00000
 20
128.40000
 30
 0
 11
0.00000
 21
128.40000
  0
LINE
  8
Contour
 62
   7
 39
0.100
  6
CONTINUOUS
 10
0.00000
 20
128.40000
 30
 0
 11
0.00000
 21
0.00000
  0
LINE
  8
Contour
 62
   7
 39
0.100
  6
CONTINUOUS
 10
0.00000
 20
0.00000
 30
 0
 11
0.00000
 21
0.00000
  0
LINE
  8
Contour
 62
   7
 39
0.100
  6
CONTINUOUS
 10
0.00000
 20
0.00000
 30
 0
 11
19.98000
 21
0.00000
  0
LINE
  8
Contour
 62
   7
 39
0.100
  6
CONTINUOUS
 10
19.98000
 20
0.00000
 30
 0
 11
19.98000
 21
0.00000
  0
LINE
  8
Contour
 62
   7
 39
0.100
  6
CONTINUOUS
 10
19.98000
 20
0.00000
 30
 0
 11
19.98000
 21
128.40000
  0
LINE
  8
Contour
 62
   7
 39
0.100
  6
CONTINUOUS
 10
19.98000
 20
128.40000
 30
 0
 11
19.98000
 21
128.40000
  0
LINE
  8
Engraving
 62
   7
 39
0.400
  6
CONTINUOUS
 10
16.71200
 20
76.58300
 30
 0
 11
18.28700
 21
76.58300
  0
LINE
  8
Engraving
 62
   7
 39
0.400
  6
CONTINUOUS
 10
18.28700
 20
77.10800
 30
 0
 11
16.71200
 21
77.10800
  0
LINE
  8
Engraving
 62
   7
 39
0.400
  6
CONTINUOUS
 10
16.71200
 20
77.10800
 30
 0
 11
16.71200
 21
77.19500
  0
LINE
  8
Engraving
 62
   7
 39
0.400
  6
CONTINUOUS
 10
16.71200
 20
77.19500
 30
 0
 11
18.28700
 21
78.07000
  0
LINE
  8
Engraving
 62
   7
 39
0.400
  6
CONTINUOUS
 10
18.28700
 20
78.07000
 30
 0
 11
18.28700
 21
78.15800
  0
LINE
  8
Engraving
 62
   7
 39
0.400
  6
CONTINUOUS
 10
18.28700
 20
78.15800
 30
 0
 11
16.71200
 21
78.15800
  0
ARC
  8
Engraving
 62
   7
 39
0.400
  6
CONTINUOUS
 10
17.51600
 20
59.92700
 30
 0
 40
0.95600
 50
120.74801
 51
129.78256
  0
ARC
  8
Engraving
 62
   7
 39
0.400
  6
CONTINUOUS
 10
17.22700
 20
60.26000
 30
 0
 40
0.51600
 50
128.78127
 51
231.28821
  0
ARC
  8
Engraving
 62
   7
 39
0.400
  6
CONTINUOUS
 10
17.50800
 20
60.60200
 30
 0
 40
0.95900
 50
-129.03300
 51
-50.96700
  0
ARC
  8
Engraving
 62
   7
 39
0.400
  6
CONTINUOUS
 10
17.78900
 20
60.26000
 30
 0
 40
0.51600
 50
-51.28821
 51
51.21873
  0
ARC
  8
Engraving
 62
   7
 39
0.400
  6
CONTINUOUS
 10
17.55000
 20
59.92400
 30
 0
 40
0.92800
 50
52.71009
 51
65.34134
  0
LINE
  8
Engraving
 62
   7
 39
0.400
  6
CONTINUOUS
 10
16.71200
 20
61.29200
 30
 0
 11
17.76200
 21
61.29200
  0
ARC
  8
Engraving
 62
   7
 39
0.400
  6
CONTINUOUS
 10
17.76200
 20
61.81700
 30
 0
 40
0.52500
 50
-90.00000
 51
90.00000
  0
LINE
  8
Engraving
 62
   7
 39
0.400
  6
CONTINUOUS
 10
17.76200
 20
62.34200
 30
 0
 11
16.71200
 21
62.34200
  0
LINE
  8
Engraving
 62
   7
 39
0.400
  6
CONTINUOUS
 10
16.71200
 20
62.86700
 30
 0
 11
16.71200
 21
64.09200
  0
LINE
  8
Engraving
 62
   7
 39
0.400
  6
CONTINUOUS
 10
16.71200
 20
64.09200
 30
 0
 11
16.71200
 21
63.47900
  0
LINE
  8
Engraving
 62
   7
 39
0.400
  6
CONTINUOUS
 10
16.71200
 20
63.47900
 30
 0
 11
18.28700
 21
63.47900
  0
LINE
  8
Engraving
 62
   7
 39
0.400
  6
CONTINUOUS
 10
16.71200
 20
64.61700
 30
 0
 11
18.28700
 21
64.61700
  0
ARC
  8
Engraving
 62
   7
 39
0.400
  6
CONTINUOUS
 10
17.51600
 20
42.89200
 30
 0
 40
0.95600
 50
120.74801
 51
129.78256
  0
ARC
  8
Engraving
 62
   7
 39
0.400
  6
CONTINUOUS
 10
17.22700
 20
43.22500
 30
 0
 40
0.51600
 50
128.78127
 51
231.28821
  0
ARC
  8
Engraving
 62
   7
 39
0.400
  6
CONTINUOUS
 10
17.50800
 20
43.56700
 30
 0
 40
0.95900
 50
-129.03300
 51
-50.96700
  0
ARC
  8
Engraving
 62
   7
 39
0.400
  6
CONTINUOUS
 10
17.78900
 20
43.22500
 30
 0
 40
0.51600
 50
-51.28821
 51
51.21873
  0
ARC
  8
Engraving
 62
   7
 39
0.400
  6
CONTINUOUS
 10
17.55000
 20
42.88900
 30
 0
 40
0.92800
 50
52.71009
 51
65.34134
  0
LINE
  8
Engraving
 62
   7
 39
0.400
  6
CONTINUOUS
 10
16.71200
 20
44.25700
 30
 0
 11
17.76200
 21
44.25700
  0
ARC
  8
Engraving
 62
   7
 39
0.400
  6
CONTINUOUS
 10
17.76200
 20
44.78200
 30
 0
 40
0.52500
 50
-90.00000
 51
90.00000
  0
LINE
  8
Engraving
 62
   7
 39
0.400
  6
CONTINUOUS
 10
17.76200
 20
45.30700
 30
 0
 11
16.71200
 21
45.30700
  0
LINE
  8
Engraving
 62
   7
 39
0.400
  6
CONTINUOUS
 10
16.71200
 20
45.83200
 30
 0
 11
16.71200
 21
47.05700
  0
LINE
  8
Engraving
 62
   7
 39
0.400
  6
CONTINUOUS
 10
16.71200
 20
47.05700
 30
 0
 11
16.71200
 21
46.44400
  0
LINE
  8
Engraving
 62
   7
 39
0.400
  6
CONTINUOUS
 10
16.71200
 20
46.44400
 30
 0
 11
18.28700
 21
46.44400
  0
ARC
  8
Engraving
 62
   7
 39
0.400
  6
CONTINUOUS
 10
17.11300
 20
48.02100
 30
 0
 40
0.37500
 50
208.13534
 51
-100.59153
  0
ARC
  8
Engraving
 62
   7
 39
0.400
  6
CONTINUOUS
 10
17.33500
 20
48.14200
 30
 0
 40
0.62800
 50
151.76107
 51
-151.68071
  0
ARC
  8
Engraving
 62
   7
 39
0.400
  6
CONTINUOUS
 10
17.11400
 20
48.24500
 30
 0
 40
0.38500
 50
390.22433
 51
149.70066
  0
LINE
  8
Engraving
 62
   7
 39
0.400
  6
CONTINUOUS
 10
17.44700
 20
48.43900
 30
 0
 11
17.81400
 21
47.84400
  0
ARC
  8
Engraving
 62
   7
 39
0.400
  6
CONTINUOUS
 10
18.28500
 20
48.13700
 30
 0
 40
0.55500
 50
-148.11505
 51
-89.79353
  0
LINE
  8
Engraving
 62
   7
 39
0.400
  6
CONTINUOUS
 10
18.28700
 20
47.58200
 30
 0
 11
18.28700
 21
48.63200
  0
ARC
  8
Engraving
 62
   7
 39
0.400
  6
CONTINUOUS
 10
17.50800
 20
26.52200
 30
 0
 40
0.95900
 50
-129.03300
 51
-50.96700
  0
ARC
  8
Engraving
 62
   7
 39
0.400
  6
CONTINUOUS
 10
17.78900
 20
26.18000
 30
 0
 40
0.51600
 50
-51.28821
 51
51.21873
  0
ARC
  8
Engraving
 62
   7
 39
0.400
  6
CONTINUOUS
 10
17.50800
 20
25.83700
 30
 0
 40
0.95900
 50
50.96700
 51
129.03300
  0
ARC
  8
Engraving
 62
   7
 39
0.400
  6
CONTINUOUS
 10
17.22700
 20
26.18000
 30
 0
 40
0.51600
 50
128.78127
 51
231.28821
  0
LINE
  8
Engraving
 62
   7
 39
0.400
  6
CONTINUOUS
 10
16.71200
 20
27.31700
 30
 0
 11
17.76200
 21
27.31700
  0
ARC
  8
Engraving
 62
   7
 39
0.400
  6
CONTINUOUS
 10
17.76200
 20
27.84200
 30
 0
 40
0.52500
 50
-90.00000
 51
90.00000
  0
LINE
  8
Engraving
 62
   7
 39
0.400
  6
CONTINUOUS
 10
17.76200
 20
28.36700
 30
 0
 11
16.71200
 21
28.36700
  0
LINE
  8
Engraving
 62
   7
 39
0.400
  6
CONTINUOUS
 10
16.71200
 20
28.89200
 30
 0
 11
16.71200
 21
30.11700
  0
LINE
  8
Engraving
 62
   7
 39
0.400
  6
CONTINUOUS
 10
16.71200
 20
30.11700
 30
 0
 11
16.71200
 21
29.50400
  0
LINE
  8
Engraving
 62
   7
 39
0.400
  6
CONTINUOUS
 10
16.71200
 20
29.50400
 30
 0
 11
18.28700
 21
29.50400
  0
LINE
  8
Engraving
 62
   7
 39
0.400
  6
CONTINUOUS
 10
2.49900
 20
29.87800
 30
 0
 11
2.49900
 21
31.41700
  0
LINE
  8
Engraving
 62
   7
 39
0.400
  6
CONTINUOUS
 10
0.72400
 20
32.20600
 30
 0
 11
0.72400
 21
29.83900
  0
LINE
  8
Engraving
 62
   7
 39
0.400
  6
CONTINUOUS
 10
0.72400
 20
29.83900
 30
 0
 11
4.27500
 21
29.83900
  0
LINE
  8
Engraving
 62
   7
 39
0.400
  6
CONTINUOUS
 10
0.68500
 20
33.39000
 30
 0
 11
1.00000
 21
33.39000
  0
LINE
  8
Engraving
 62
   7
 39
0.400
  6
CONTINUOUS
 10
1.78900
 20
33.39000
 30
 0
 11
4.27500
 21
33.39000
  0
LINE
  8
Engraving
 62
   7
 39
0.400
  6
CONTINUOUS
 10
0.72400
 20
34.57300
 30
 0
 11
4.27500
 21
34.57300
  0
LINE
  8
Engraving
 62
   7
 39
0.400
  6
CONTINUOUS
 10
1.82900
 20
35.71800
 30
 0
 11
1.82900
 21
36.70400
  0
LINE
  8
Engraving
 62
   7
 39
0.400
  6
CONTINUOUS
 10
0.72400
 20
36.19100
 30
 0
 11
4.27500
 21
36.19100
  0
LINE
  8
Engraving
 62
   7
 39
0.400
  6
CONTINUOUS
 10
2.93400
 20
37.88800
 30
 0
 11
2.93400
 21
39.78200
  0
ARC
  8
Engraving
 62
   7
 39
0.400
  6
CONTINUOUS
 10
2.89100
 20
38.61200
 30
 0
 40
1.17100
 50
87.89520
 51
120.20008
  0
ARC
  8
Engraving
 62
   7
 39
0.400
  6
CONTINUOUS
 10
2.73500
 20
38.87300
 30
 0
 40
0.86700
 50
119.96623
 51
179.93391
  0
ARC
  8
Engraving
 62
   7
 39
0.400
  6
CONTINUOUS
 10
2.79600
 20
38.87600
 30
 0
 40
0.92800
 50
-179.87652
 51
-116.56505
  0
ARC
  8
Engraving
 62
   7
 39
0.400
  6
CONTINUOUS
 10
3.09100
 20
39.46500
 30
 0
 40
1.58700
 50
-116.58120
 51
-63.38652
  0
ARC
  8
Engraving
 62
   7
 39
0.400
  6
CONTINUOUS
 10
3.38600
 20
38.87600
 30
 0
 40
0.92800
 50
-63.37975
 51
-0.12348
  0
ARC
  8
Engraving
 62
   7
 39
0.400
  6
CONTINUOUS
 10
3.29900
 20
38.87100
 30
 0
 40
1.01500
 50
0.16935
 51
55.07274
  0
LINE
  8
Engraving
 62
   7
 39
0.400
  6
CONTINUOUS
 10
1.78900
 20
40.96500
 30
 0
 11
4.27500
 21
40.96500
  0
LINE
  8
Engraving
 62
   7
 39
0.400
  6
CONTINUOUS
 10
4.27500
 20
40.96500
 30
 0
 11
2.65700
 21
40.96500
  0
ARC
  8
Engraving
 62
   7
 39
0.400
  6
CONTINUOUS
 10
2.82100
 20
41.98400
 30
 0
 40
1.03200
 50
179.61137
 51
-99.14290
  0
LINE
  8
Engraving
 62
   7
 39
0.400
  6
CONTINUOUS
 10
2.69700
 20
43.33300
 30
 0
 11
2.69700
 21
43.13500
  0
LINE
  8
Engraving
 62
   7
 39
0.400
  6
CONTINUOUS
 10
2.69700
 20
43.13500
 30
 0
 11
2.49900
 21
43.13500
  0
LINE
  8
Engraving
 62
   7
 39
0.400
  6
CONTINUOUS
 10
2.49900
 20
43.13500
 30
 0
 11
2.49900
 21
43.33300
  0
LINE
  8
Engraving
 62
   7
 39
0.400
  6
CONTINUOUS
 10
2.49900
 20
43.33300
 30
 0
 11
2.69700
 21
43.33300
  0
LINE
  8
Engraving
 62
   7
 39
0.400
  6
CONTINUOUS
 10
4.27500
 20
43.33300
 30
 0
 11
4.27500
 21
43.13500
  0
LINE
  8
Engraving
 62
   7
 39
0.400
  6
CONTINUOUS
 10
4.27500
 20
43.13500
 30
 0
 11
4.07800
 21
43.13500
  0
LINE
  8
Engraving
 62
   7
 39
0.400
  6
CONTINUOUS
 10
4.07800
 20
43.13500
 30
 0
 11
4.07800
 21
43.33300
  0
LINE
  8
Engraving
 62
   7
 39
0.400
  6
CONTINUOUS
 10
4.07800
 20
43.33300
 30
 0
 11
4.27500
 21
43.33300
  0
LINE
  8
Engraving
 62
   7
 39
0.400
  6
CONTINUOUS
 10
2.69700
 20
44.67400
 30
 0
 11
2.69700
 21
44.47700
  0
LINE
  8
Engraving
 62
   7
 39
0.400
  6
CONTINUOUS
 10
2.69700
 20
44.47700
 30
 0
 11
2.49900
 21
44.47700
  0
LINE
  8
Engraving
 62
   7
 39
0.400
  6
CONTINUOUS
 10
2.49900
 20
44.47700
 30
 0
 11
2.49900
 21
44.67400
  0
LINE
  8
Engraving
 62
   7
 39
0.400
  6
CONTINUOUS
 10
2.49900
 20
44.67400
 30
 0
 11
2.69700
 21
44.67400
  0
LINE
  8
Engraving
 62
   7
 39
0.400
  6
CONTINUOUS
 10
4.27500
 20
44.67400
 30
 0
 11
4.27500
 21
44.47700
  0
LINE
  8
Engraving
 62
   7
 39
0.400
  6
CONTINUOUS
 10
4.27500
 20
44.47700
 30
 0
 11
4.07800
 21
44.47700
  0
LINE
  8
Engraving
 62
   7
 39
0.400
  6
CONTINUOUS
 10
4.07800
 20
44.47700
 30
 0
 11
4.07800
 21
44.67400
  0
LINE
  8
Engraving
 62
   7
 39
0.400
  6
CONTINUOUS
 10
4.07800
 20
44.67400
 30
 0
 11
4.27500
 21
44.67400
  0
LINE
  8
Engraving
 62
   7
 39
0.400
  6
CONTINUOUS
 10
4.27500
 20
45.85800
 30
 0
 11
0.72400
 21
45.85800
  0
LINE
  8
Engraving
 62
   7
 39
0.400
  6
CONTINUOUS
 10
0.72400
 20
45.85800
 30
 0
 11
0.72400
 21
47.55400
  0
ARC
  8
Engraving
 62
   7
 39
0.400
  6
CONTINUOUS
 10
1.63100
 20
47.55400
 30
 0
 40
0.90700
 50
360.00000
 51
180.00000
  0
LINE
  8
Engraving
 62
   7
 39
0.400
  6
CONTINUOUS
 10
2.53900
 20
47.55400
 30
 0
 11
2.53900
 21
45.85800
  0
LINE
  8
Engraving
 62
   7
 39
0.400
  6
CONTINUOUS
 10
2.53900
 20
45.85800
 30
 0
 11
2.53900
 21
47.43600
  0
LINE
  8
Engraving
 62
   7
 39
0.400
  6
CONTINUOUS
 10
2.53900
 20
47.43600
 30
 0
 11
4.27500
 21
48.22500
  0
LINE
  8
Engraving
 62
   7
 39
0.400
  6
CONTINUOUS
 10
2.93400
 20
49.64600
 30
 0
 11
2.93400
 21
51.53900
  0
ARC
  8
Engraving
 62
   7
 39
0.400
  6
CONTINUOUS
 10
2.88900
 20
50.36900
 30
 0
 40
1.17100
 50
87.79740
 51
120.09087
  0
ARC
  8
Engraving
 62
   7
 39
0.400
  6
CONTINUOUS
 10
2.73500
 20
50.63100
 30
 0
 40
0.86700
 50
119.96623
 51
179.93391
  0
ARC
  8
Engraving
 62
   7
 39
0.400
  6
CONTINUOUS
 10
2.79600
 20
50.63300
 30
 0
 40
0.92800
 50
-179.93826
 51
-116.56505
  0
ARC
  8
Engraving
 62
   7
 39
0.400
  6
CONTINUOUS
 10
3.09100
 20
51.22200
 30
 0
 40
1.58700
 50
-116.58120
 51
-63.38652
  0
ARC
  8
Engraving
 62
   7
 39
0.400
  6
CONTINUOUS
 10
3.38600
 20
50.63300
 30
 0
 40
0.92800
 50
-63.37975
 51
-0.06174
  0
ARC
  8
Engraving
 62
   7
 39
0.400
  6
CONTINUOUS
 10
3.29900
 20
50.62800
 30
 0
 40
1.01500
 50
0.22580
 51
55.07274
  0
ARC
  8
Engraving
 62
   7
 39
0.400
  6
CONTINUOUS
 10
3.69700
 20
53.18400
 30
 0
 40
0.53000
 50
-60.38914
 51
-29.85208
  0
ARC
  8
Engraving
 62
   7
 39
0.400
  6
CONTINUOUS
 10
3.26700
 20
53.43300
 30
 0
 40
1.02700
 50
-29.95934
 51
29.95934
  0
ARC
  8
Engraving
 62
   7
 39
0.400
  6
CONTINUOUS
 10
3.68900
 20
53.67200
 30
 0
 40
0.54200
 50
30.34770
 51
163.27038
  0
LINE
  8
Engraving
 62
   7
 39
0.400
  6
CONTINUOUS
 10
3.17000
 20
53.82800
 30
 0
 11
2.93400
 21
53.03900
  0
ARC
  8
Engraving
 62
   7
 39
0.400
  6
CONTINUOUS
 10
2.45200
 20
53.19100
 30
 0
 40
0.50500
 50
212.46249
 51
-17.50281
  0
ARC
  8
Engraving
 62
   7
 39
0.400
  6
CONTINUOUS
 10
2.83900
 20
53.43700
 30
 0
 40
0.96300
 50
132.85399
 51
-147.54705
  0
ARC
  8
Engraving
 62
   7
 39
0.400
  6
CONTINUOUS
 10
3.09100
 20
56.98300
 30
 0
 40
1.58700
 50
-116.58120
 51
-63.38652
  0
ARC
  8
Engraving
 62
   7
 39
0.400
  6
CONTINUOUS
 10
3.39300
 20
56.39300
 30
 0
 40
0.92400
 50
-63.73986
 51
63.71241
  0
ARC
  8
Engraving
 62
   7
 39
0.400
  6
CONTINUOUS
 10
3.09100
 20
55.80200
 30
 0
 40
1.58700
 50
63.38652
 51
116.58120
  0
ARC
  8
Engraving
 62
   7
 39
0.400
  6
CONTINUOUS
 10
2.79000
 20
56.39300
 30
 0
 40
0.92400
 50
116.28759
 51
243.73986
  0
LINE
  8
Engraving
 62
   7
 39
0.400
  6
CONTINUOUS
 10
4.27500
 20
58.52300
 30
 0
 11
1.78900
 21
58.52300
  0
LINE
  8
Engraving
 62
   7
 39
0.400
  6
CONTINUOUS
 10
1.78900
 20
58.52300
 30
 0
 11
2.42100
 21
58.52300
  0
ARC
  8
Engraving
 62
   7
 39
0.400
  6
CONTINUOUS
 10
2.93700
 20
59.54800
 30
 0
 40
1.14800
 50
179.95009
 51
-116.72135
  0
ARC
  8
Engraving
 62
   7
 39
0.400
  6
CONTINUOUS
 10
2.45600
 20
59.55300
 30
 0
 40
0.66700
 50
89.65640
 51
-179.65640
  0
LINE
  8
Engraving
 62
   7
 39
0.400
  6
CONTINUOUS
 10
2.46000
 20
60.22000
 30
 0
 11
4.27500
 21
60.22000
  0
LINE
  8
Engraving
 62
   7
 39
0.400
  6
CONTINUOUS
 10
1.82900
 20
63.21800
 30
 0
 11
4.27500
 21
63.21800
  0
LINE
  8
Engraving
 62
   7
 39
0.400
  6
CONTINUOUS
 10
4.27500
 20
63.21800
 30
 0
 11
3.88000
 21
63.21800
  0
ARC
  8
Engraving
 62
   7
 39
0.400
  6
CONTINUOUS
 10
3.29900
 20
62.38600
 30
 0
 40
1.01500
 50
360.22580
 51
55.07274
  0
ARC
  8
Engraving
 62
   7
 39
0.400
  6
CONTINUOUS
 10
3.38600
 20
62.39100
 30
 0
 40
0.92800
 50
296.62025
 51
-0.06174
  0
ARC
  8
Engraving
 62
   7
 39
0.400
  6
CONTINUOUS
 10
3.09100
 20
62.98000
 30
 0
 40
1.58700
 50
243.41880
 51
-63.38652
  0
ARC
  8
Engraving
 62
   7
 39
0.400
  6
CONTINUOUS
 10
2.79600
 20
62.39100
 30
 0
 40
0.92800
 50
180.06174
 51
-116.56505
  0
ARC
  8
Engraving
 62
   7
 39
0.400
  6
CONTINUOUS
 10
2.88300
 20
62.38600
 30
 0
 40
1.01500
 50
484.92726
 51
179.77420
  0
LINE
  8
Engraving
 62
   7
 39
0.400
  6
CONTINUOUS
 10
4.27500
 20
64.36200
 30
 0
 11
1.78900
 21
64.36200
  0
LINE
  8
Engraving
 62
   7
 39
0.400
  6
CONTINUOUS
 10
1.78900
 20
64.36200
 30
 0
 11
2.42100
 21
64.36200
  0
ARC
  8
Engraving
 62
   7
 39
0.400
  6
CONTINUOUS
 10
2.93700
 20
65.38700
 30
 0
 40
1.14800
 50
179.95009
 51
-116.72135
  0
ARC
  8
Engraving
 62
   7
 39
0.400
  6
CONTINUOUS
 10
2.45600
 20
65.39200
 30
 0
 40
0.66700
 50
89.65640
 51
-179.65640
  0
LINE
  8
Engraving
 62
   7
 39
0.400
  6
CONTINUOUS
 10
2.46000
 20
66.05900
 30
 0
 11
4.27500
 21
66.05900
  0
LINE
  8
Engraving
 62
   7
 39
0.400
  6
CONTINUOUS
 10
1.82900
 20
67.20300
 30
 0
 11
1.82900
 21
68.19000
  0
LINE
  8
Engraving
 62
   7
 39
0.400
  6
CONTINUOUS
 10
0.72400
 20
67.67700
 30
 0
 11
4.27500
 21
67.67700
  0
LINE
  8
Engraving
 62
   7
 39
0.400
  6
CONTINUOUS
 10
0.72400
 20
73.31900
 30
 0
 11
4.27500
 21
73.31900
  0
LINE
  8
Engraving
 62
   7
 39
0.400
  6
CONTINUOUS
 10
4.27500
 20
73.31900
 30
 0
 11
4.27500
 21
75.68600
  0
ARC
  8
Engraving
 62
   7
 39
0.400
  6
CONTINUOUS
 10
3.09100
 20
78.44700
 30
 0
 40
1.58700
 50
-116.58120
 51
-63.38652
  0
ARC
  8
Engraving
 62
   7
 39
0.400
  6
CONTINUOUS
 10
3.39300
 20
77.85700
 30
 0
 40
0.92400
 50
-63.73986
 51
63.71241
  0
ARC
  8
Engraving
 62
   7
 39
0.400
  6
CONTINUOUS
 10
3.09100
 20
77.26600
 30
 0
 40
1.58700
 50
63.38652
 51
116.58120
  0
ARC
  8
Engraving
 62
   7
 39
0.400
  6
CONTINUOUS
 10
2.79000
 20
77.85700
 30
 0
 40
0.92400
 50
116.28759
 51
243.73986
  0
LINE
  8
Engraving
 62
   7
 39
0.400
  6
CONTINUOUS
 10
1.78900
 20
80.02600
 30
 0
 11
4.27500
 21
80.73700
  0
LINE
  8
Engraving
 62
   7
 39
0.400
  6
CONTINUOUS
 10
4.27500
 20
80.73700
 30
 0
 11
4.27500
 21
80.85500
  0
LINE
  8
Engraving
 62
   7
 39
0.400
  6
CONTINUOUS
 10
4.27500
 20
80.85500
 30
 0
 11
1.78900
 21
81.56500
  0
LINE
  8
Engraving
 62
   7
 39
0.400
  6
CONTINUOUS
 10
1.78900
 20
81.56500
 30
 0
 11
4.27500
 21
82.27500
  0
LINE
  8
Engraving
 62
   7
 39
0.400
  6
CONTINUOUS
 10
4.27500
 20
82.27500
 30
 0
 11
4.27500
 21
82.39400
  0
LINE
  8
Engraving
 62
   7
 39
0.400
  6
CONTINUOUS
 10
4.27500
 20
82.39400
 30
 0
 11
1.78900
 21
83.10400
  0
LINE
  8
Engraving
 62
   7
 39
0.400
  6
CONTINUOUS
 10
3.17000
 20
84.28800
 30
 0
 11
3.17000
 21
86.41800
  0
LINE
  8
Engraving
 62
   7
 39
0.400
  6
CONTINUOUS
 10
2.53900
 20
87.60200
 30
 0
 11
2.53900
 21
89.29800
  0
ARC
  8
Engraving
 62
   7
 39
0.400
  6
CONTINUOUS
 10
1.63200
 20
89.29800
 30
 0
 40
0.90700
 50
0.00000
 51
180.00000
  0
LINE
  8
Engraving
 62
   7
 39
0.400
  6
CONTINUOUS
 10
0.72400
 20
89.29800
 30
 0
 11
0.72400
 21
87.60200
  0
LINE
  8
Engraving
 62
   7
 39
0.400
  6
CONTINUOUS
 10
0.72400
 20
87.60200
 30
 0
 11
4.27500
 21
87.60200
  0
LINE
  8
Engraving
 62
   7
 39
0.400
  6
CONTINUOUS
 10
1.82900
 20
93.20400
 30
 0
 11
4.27500
 21
93.20400
  0
LINE
  8
Engraving
 62
   7
 39
0.400
  6
CONTINUOUS
 10
4.27500
 20
93.20400
 30
 0
 11
3.88000
 21
93.20400
  0
ARC
  8
Engraving
 62
   7
 39
0.400
  6
CONTINUOUS
 10
3.29900
 20
92.37200
 30
 0
 40
1.01500
 50
360.22580
 51
55.07274
  0
ARC
  8
Engraving
 62
   7
 39
0.400
  6
CONTINUOUS
 10
3.38600
 20
92.37700
 30
 0
 40
0.92800
 50
296.62025
 51
-0.06174
  0
ARC
  8
Engraving
 62
   7
 39
0.400
  6
CONTINUOUS
 10
3.09100
 20
92.96600
 30
 0
 40
1.58700
 50
243.41880
 51
-63.38652
  0
ARC
  8
Engraving
 62
   7
 39
0.400
  6
CONTINUOUS
 10
2.79600
 20
92.37700
 30
 0
 40
0.92800
 50
180.06174
 51
-116.56505
  0
ARC
  8
Engraving
 62
   7
 39
0.400
  6
CONTINUOUS
 10
2.88300
 20
92.37200
 30
 0
 40
1.01500
 50
484.92726
 51
179.77420
  0
ARC
  8
Engraving
 62
   7
 39
0.400
  6
CONTINUOUS
 10
3.69700
 20
94.84900
 30
 0
 40
0.53000
 50
-60.38914
 51
-29.85208
  0
ARC
  8
Engraving
 62
   7
 39
0.400
  6
CONTINUOUS
 10
3.26700
 20
95.09800
 30
 0
 40
1.02700
 50
-29.95934
 51
29.95934
  0
ARC
  8
Engraving
 62
   7
 39
0.400
  6
CONTINUOUS
 10
3.68900
 20
95.33700
 30
 0
 40
0.54200
 50
30.34770
 51
163.27038
  0
LINE
  8
Engraving
 62
   7
 39
0.400
  6
CONTINUOUS
 10
3.17000
 20
95.49300
 30
 0
 11
2.93400
 21
94.70400
  0
ARC
  8
Engraving
 62
   7
 39
0.400
  6
CONTINUOUS
 10
2.45200
 20
94.85600
 30
 0
 40
0.50500
 50
212.46249
 51
-17.50281
  0
ARC
  8
Engraving
 62
   7
 39
0.400
  6
CONTINUOUS
 10
2.83800
 20
95.10200
 30
 0
 40
0.96300
 50
132.76992
 51
-147.51511
  0
ARC
  8
Engraving
 62
   7
 39
0.400
  6
CONTINUOUS
 10
3.69700
 20
97.53200
 30
 0
 40
0.53000
 50
-60.38914
 51
-29.85208
  0
ARC
  8
Engraving
 62
   7
 39
0.400
  6
CONTINUOUS
 10
3.26700
 20
97.78100
 30
 0
 40
1.02700
 50
-29.95934
 51
29.95934
  0
ARC
  8
Engraving
 62
   7
 39
0.400
  6
CONTINUOUS
 10
3.68900
 20
98.02000
 30
 0
 40
0.54200
 50
30.34770
 51
163.27038
  0
LINE
  8
Engraving
 62
   7
 39
0.400
  6
CONTINUOUS
 10
3.17000
 20
98.17600
 30
 0
 11
2.93400
 21
97.38700
  0
ARC
  8
Engraving
 62
   7
 39
0.400
  6
CONTINUOUS
 10
2.45200
 20
97.53900
 30
 0
 40
0.50500
 50
212.46249
 51
-17.50281
  0
ARC
  8
Engraving
 62
   7
 39
0.400
  6
CONTINUOUS
 10
2.83800
 20
97.78500
 30
 0
 40
0.96300
 50
132.76992
 51
-147.51511
  0
CIRCLE
  8
Contour
 62
   7
 39
0.100
  6
CONTINUOUS
 10
7.50000
 20
125.50000
 30
 0
 40
1.50000
  0
CIRCLE
  8
Contour
 62
   7
 39
0.100
  6
CONTINUOUS
 10
7.50000
 20
3.00000
 30
 0
 40
1.50000
  0
CIRCLE
  8
Contour
 62
   7
 39
0.100
  6
CONTINUOUS
 10
10.63000
 20
77.37000
 30
 0
 40
3.00000
  0
CIRCLE
  8
Contour
 62
   7
 39
0.100
  6
CONTINUOUS
 10
10.63000
 20
62.13000
 30
 0
 40
3.75000
  0
CIRCLE
  8
Contour
 62
   7
 39
0.100
  6
CONTINUOUS
 10
10.63000
 20
45.62000
 30
 0
 40
3.75000
  0
CIRCLE
  8
Contour
 62
   7
 39
0.100
  6
CONTINUOUS
 10
10.63000
 20
27.84000
 30
 0
 40
3.00000
  0
ENDSEC
  0
EOF
