G75*
%MOIN*%
%OFA0B0*%
%FSLAX25Y25*%
%IPPOS*%
%LPD*%
%AMOC8*
5,1,8,0,0,1.08239X$1,22.5*
%
%ADD10C,0.00000*%
%ADD11R,0.05118X0.05906*%
%ADD12R,0.08000X0.02600*%
%ADD13R,0.08661X0.02362*%
%ADD14R,0.05906X0.05118*%
D10*
X0001000Y0001000D02*
X0001000Y0325961D01*
X0102201Y0325961D01*
X0102201Y0001000D01*
X0001000Y0001000D01*
D11*
X0027260Y0106000D03*
X0034740Y0106000D03*
X0034740Y0166000D03*
X0027260Y0166000D03*
X0027260Y0226000D03*
X0034740Y0226000D03*
X0034740Y0286000D03*
X0027260Y0286000D03*
X0071880Y0239795D03*
X0072260Y0253500D03*
X0079360Y0239795D03*
X0079740Y0253500D03*
X0080120Y0188538D03*
X0072640Y0188538D03*
X0082260Y0123500D03*
X0089740Y0123500D03*
D12*
X0088100Y0146000D03*
X0088100Y0151000D03*
X0088100Y0156000D03*
X0088100Y0161000D03*
X0088100Y0166000D03*
X0088100Y0171000D03*
X0088100Y0176000D03*
X0088100Y0201000D03*
X0088100Y0206000D03*
X0088100Y0211000D03*
X0088100Y0216000D03*
X0088100Y0221000D03*
X0088100Y0226000D03*
X0088100Y0231000D03*
X0063900Y0231000D03*
X0063900Y0226000D03*
X0063900Y0221000D03*
X0063900Y0216000D03*
X0063900Y0211000D03*
X0063900Y0206000D03*
X0063900Y0201000D03*
X0063900Y0176000D03*
X0063900Y0171000D03*
X0063900Y0166000D03*
X0063900Y0161000D03*
X0063900Y0156000D03*
X0063900Y0151000D03*
X0063900Y0146000D03*
D13*
X0065764Y0263500D03*
X0065764Y0268500D03*
X0065764Y0273500D03*
X0065764Y0278500D03*
X0086236Y0278500D03*
X0086236Y0273500D03*
X0086236Y0268500D03*
X0086236Y0263500D03*
D14*
X0066000Y0129740D03*
X0066000Y0122260D03*
M02*
