G75*
%MOIN*%
%OFA0B0*%
%FSLAX25Y25*%
%IPPOS*%
%LPD*%
%AMOC8*
5,1,8,0,0,1.08239X$1,22.5*
%
%ADD10C,0.00000*%
%ADD11C,0.01600*%
%ADD12C,0.00200*%
%ADD13C,0.00600*%
%ADD14C,0.00300*%
%ADD15C,0.00500*%
%ADD16C,0.00400*%
D10*
X0001000Y0001000D02*
X0001000Y0325961D01*
X0102201Y0325961D01*
X0102201Y0001000D01*
X0001000Y0001000D01*
D11*
X0068500Y0261000D02*
X0068500Y0281000D01*
X0083500Y0281000D01*
X0083500Y0261000D01*
X0068500Y0261000D01*
D12*
X0075032Y0268577D02*
X0075032Y0269429D01*
X0075032Y0269003D02*
X0077590Y0269003D01*
X0077590Y0268577D02*
X0077590Y0269429D01*
X0077164Y0270268D02*
X0077590Y0270695D01*
X0077590Y0271547D01*
X0077164Y0271974D01*
X0077164Y0272806D02*
X0077590Y0273232D01*
X0077590Y0274085D01*
X0077164Y0274511D01*
X0076738Y0274511D01*
X0076311Y0274085D01*
X0075885Y0274511D01*
X0075459Y0274511D01*
X0075032Y0274085D01*
X0075032Y0273232D01*
X0075459Y0272806D01*
X0075459Y0271974D02*
X0075032Y0271547D01*
X0075032Y0270695D01*
X0075459Y0270268D01*
X0077164Y0270268D01*
X0076311Y0273659D02*
X0076311Y0274085D01*
X0084975Y0242387D02*
X0085401Y0242387D01*
X0085828Y0241961D01*
X0085828Y0240682D01*
X0084975Y0240682D01*
X0084549Y0241108D01*
X0084549Y0241961D01*
X0084975Y0242387D01*
X0086681Y0241535D02*
X0085828Y0240682D01*
X0086681Y0239850D02*
X0087107Y0239424D01*
X0087107Y0238571D01*
X0086681Y0238144D01*
X0084975Y0238144D01*
X0084549Y0238571D01*
X0084549Y0239424D01*
X0084975Y0239850D01*
X0086681Y0241535D02*
X0087107Y0242387D01*
X0086953Y0251100D02*
X0086953Y0252379D01*
X0087379Y0252805D01*
X0088232Y0252805D01*
X0088658Y0252379D01*
X0088658Y0251100D01*
X0086100Y0251100D01*
X0086953Y0251953D02*
X0086100Y0252805D01*
X0086526Y0253638D02*
X0086100Y0254064D01*
X0086100Y0254917D01*
X0086526Y0255343D01*
X0086953Y0255343D01*
X0087379Y0254917D01*
X0087379Y0253638D01*
X0086526Y0253638D01*
X0087379Y0253638D02*
X0088232Y0254490D01*
X0088658Y0255343D01*
X0075929Y0183440D02*
X0075076Y0183440D01*
X0074650Y0183014D01*
X0073818Y0182588D02*
X0072965Y0183440D01*
X0072965Y0180882D01*
X0072113Y0180882D02*
X0073818Y0180882D01*
X0074650Y0181308D02*
X0075076Y0180882D01*
X0075929Y0180882D01*
X0076356Y0181308D01*
X0076356Y0183014D01*
X0075929Y0183440D01*
X0060476Y0127768D02*
X0060049Y0127768D01*
X0058344Y0126062D01*
X0058344Y0127768D01*
X0058344Y0125230D02*
X0059197Y0124377D01*
X0059197Y0124804D02*
X0059197Y0123525D01*
X0058344Y0123525D02*
X0060902Y0123525D01*
X0060902Y0124804D01*
X0060476Y0125230D01*
X0059623Y0125230D01*
X0059197Y0124804D01*
X0060476Y0126062D02*
X0060902Y0126489D01*
X0060902Y0127341D01*
X0060476Y0127768D01*
X0083954Y0117985D02*
X0083954Y0116280D01*
X0084381Y0115854D01*
X0085233Y0115854D01*
X0085660Y0116280D01*
X0086492Y0116280D02*
X0086918Y0115854D01*
X0087771Y0115854D01*
X0088197Y0116280D01*
X0088197Y0117985D01*
X0087771Y0118412D01*
X0086918Y0118412D01*
X0086492Y0117985D01*
X0085660Y0117985D02*
X0085660Y0117559D01*
X0085233Y0117133D01*
X0083954Y0117133D01*
X0083954Y0117985D02*
X0084381Y0118412D01*
X0085233Y0118412D01*
X0085660Y0117985D01*
X0033475Y0100902D02*
X0032196Y0100902D01*
X0031770Y0100476D01*
X0031770Y0099623D01*
X0032196Y0099197D01*
X0033475Y0099197D01*
X0032623Y0099197D02*
X0031770Y0098344D01*
X0030938Y0098770D02*
X0030511Y0098344D01*
X0029659Y0098344D01*
X0029232Y0098770D01*
X0029232Y0099623D01*
X0029659Y0100049D01*
X0030085Y0100049D01*
X0030938Y0099623D01*
X0030938Y0100902D01*
X0029232Y0100902D01*
X0033475Y0100902D02*
X0033475Y0098344D01*
X0033400Y0171100D02*
X0033400Y0173658D01*
X0032121Y0173658D01*
X0031695Y0173232D01*
X0031695Y0172379D01*
X0032121Y0171953D01*
X0033400Y0171953D01*
X0032547Y0171953D02*
X0031695Y0171100D01*
X0030862Y0171100D02*
X0029157Y0171100D01*
X0030010Y0171100D02*
X0030010Y0173658D01*
X0030862Y0172805D01*
X0031770Y0218344D02*
X0032623Y0219197D01*
X0032196Y0219197D02*
X0033475Y0219197D01*
X0033475Y0218344D02*
X0033475Y0220902D01*
X0032196Y0220902D01*
X0031770Y0220476D01*
X0031770Y0219623D01*
X0032196Y0219197D01*
X0030938Y0219623D02*
X0029232Y0219623D01*
X0029659Y0218344D02*
X0029659Y0220902D01*
X0030938Y0219623D01*
X0030511Y0278344D02*
X0029659Y0278344D01*
X0029232Y0278770D01*
X0029232Y0279197D01*
X0029659Y0279623D01*
X0030085Y0279623D01*
X0029659Y0279623D02*
X0029232Y0280049D01*
X0029232Y0280476D01*
X0029659Y0280902D01*
X0030511Y0280902D01*
X0030938Y0280476D01*
X0031770Y0280476D02*
X0031770Y0279623D01*
X0032196Y0279197D01*
X0033475Y0279197D01*
X0032623Y0279197D02*
X0031770Y0278344D01*
X0030938Y0278770D02*
X0030511Y0278344D01*
X0031770Y0280476D02*
X0032196Y0280902D01*
X0033475Y0280902D01*
X0033475Y0278344D01*
D13*
X0032248Y0301038D02*
X0027248Y0301038D01*
X0024748Y0303538D01*
X0024748Y0318538D01*
X0027248Y0321038D01*
X0029748Y0321038D01*
X0032248Y0321038D01*
X0034748Y0318538D01*
X0034748Y0303538D01*
X0037248Y0301038D01*
X0042248Y0301038D01*
X0044748Y0303538D01*
X0044748Y0318538D01*
X0047248Y0321038D01*
X0052248Y0321038D01*
X0054748Y0318538D01*
X0054748Y0303538D01*
X0057248Y0301038D01*
X0062248Y0301038D01*
X0064748Y0303538D01*
X0064748Y0318538D01*
X0067248Y0321038D01*
X0072248Y0321038D01*
X0074748Y0318538D01*
X0074748Y0303538D01*
X0072248Y0301038D01*
X0067248Y0301038D01*
X0064748Y0303538D01*
X0064748Y0318538D02*
X0062248Y0321038D01*
X0057248Y0321038D01*
X0054748Y0318538D01*
X0054748Y0303538D02*
X0052248Y0301038D01*
X0047248Y0301038D01*
X0044748Y0303538D01*
X0044748Y0318538D02*
X0042248Y0321038D01*
X0037248Y0321038D01*
X0034748Y0318538D01*
X0034748Y0303538D02*
X0032248Y0301038D01*
X0068300Y0232000D02*
X0068300Y0200000D01*
X0068302Y0199924D01*
X0068308Y0199848D01*
X0068317Y0199773D01*
X0068331Y0199698D01*
X0068348Y0199624D01*
X0068369Y0199551D01*
X0068393Y0199479D01*
X0068422Y0199408D01*
X0068453Y0199339D01*
X0068488Y0199272D01*
X0068527Y0199207D01*
X0068569Y0199143D01*
X0068614Y0199082D01*
X0068662Y0199023D01*
X0068713Y0198967D01*
X0068767Y0198913D01*
X0068823Y0198862D01*
X0068882Y0198814D01*
X0068943Y0198769D01*
X0069007Y0198727D01*
X0069072Y0198688D01*
X0069139Y0198653D01*
X0069208Y0198622D01*
X0069279Y0198593D01*
X0069351Y0198569D01*
X0069424Y0198548D01*
X0069498Y0198531D01*
X0069573Y0198517D01*
X0069648Y0198508D01*
X0069724Y0198502D01*
X0069800Y0198500D01*
X0082200Y0198500D01*
X0082300Y0198500D02*
X0082300Y0233500D01*
X0082200Y0233500D02*
X0078000Y0233500D01*
X0074000Y0233500D01*
X0069800Y0233500D01*
X0069724Y0233498D01*
X0069648Y0233492D01*
X0069573Y0233483D01*
X0069498Y0233469D01*
X0069424Y0233452D01*
X0069351Y0233431D01*
X0069279Y0233407D01*
X0069208Y0233378D01*
X0069139Y0233347D01*
X0069072Y0233312D01*
X0069007Y0233273D01*
X0068943Y0233231D01*
X0068882Y0233186D01*
X0068823Y0233138D01*
X0068767Y0233087D01*
X0068713Y0233033D01*
X0068662Y0232977D01*
X0068614Y0232918D01*
X0068569Y0232857D01*
X0068527Y0232793D01*
X0068488Y0232728D01*
X0068453Y0232661D01*
X0068422Y0232592D01*
X0068393Y0232521D01*
X0068369Y0232449D01*
X0068348Y0232376D01*
X0068331Y0232302D01*
X0068317Y0232227D01*
X0068308Y0232152D01*
X0068302Y0232076D01*
X0068300Y0232000D01*
X0074000Y0233500D02*
X0074002Y0233412D01*
X0074008Y0233323D01*
X0074018Y0233235D01*
X0074031Y0233148D01*
X0074049Y0233061D01*
X0074070Y0232975D01*
X0074095Y0232890D01*
X0074124Y0232807D01*
X0074157Y0232724D01*
X0074193Y0232644D01*
X0074232Y0232565D01*
X0074275Y0232487D01*
X0074322Y0232412D01*
X0074372Y0232339D01*
X0074425Y0232268D01*
X0074481Y0232199D01*
X0074540Y0232133D01*
X0074602Y0232070D01*
X0074666Y0232010D01*
X0074733Y0231952D01*
X0074803Y0231898D01*
X0074875Y0231846D01*
X0074949Y0231798D01*
X0075026Y0231753D01*
X0075104Y0231712D01*
X0075184Y0231674D01*
X0075265Y0231640D01*
X0075348Y0231609D01*
X0075433Y0231582D01*
X0075518Y0231559D01*
X0075604Y0231540D01*
X0075692Y0231524D01*
X0075779Y0231512D01*
X0075867Y0231504D01*
X0075956Y0231500D01*
X0076044Y0231500D01*
X0076133Y0231504D01*
X0076221Y0231512D01*
X0076308Y0231524D01*
X0076396Y0231540D01*
X0076482Y0231559D01*
X0076567Y0231582D01*
X0076652Y0231609D01*
X0076735Y0231640D01*
X0076816Y0231674D01*
X0076896Y0231712D01*
X0076974Y0231753D01*
X0077051Y0231798D01*
X0077125Y0231846D01*
X0077197Y0231898D01*
X0077267Y0231952D01*
X0077334Y0232010D01*
X0077398Y0232070D01*
X0077460Y0232133D01*
X0077519Y0232199D01*
X0077575Y0232268D01*
X0077628Y0232339D01*
X0077678Y0232412D01*
X0077725Y0232487D01*
X0077768Y0232565D01*
X0077807Y0232644D01*
X0077843Y0232724D01*
X0077876Y0232807D01*
X0077905Y0232890D01*
X0077930Y0232975D01*
X0077951Y0233061D01*
X0077969Y0233148D01*
X0077982Y0233235D01*
X0077992Y0233323D01*
X0077998Y0233412D01*
X0078000Y0233500D01*
X0082200Y0233500D02*
X0082276Y0233498D01*
X0082352Y0233492D01*
X0082427Y0233483D01*
X0082502Y0233469D01*
X0082576Y0233452D01*
X0082649Y0233431D01*
X0082721Y0233407D01*
X0082792Y0233378D01*
X0082861Y0233347D01*
X0082928Y0233312D01*
X0082993Y0233273D01*
X0083057Y0233231D01*
X0083118Y0233186D01*
X0083177Y0233138D01*
X0083233Y0233087D01*
X0083287Y0233033D01*
X0083338Y0232977D01*
X0083386Y0232918D01*
X0083431Y0232857D01*
X0083473Y0232793D01*
X0083512Y0232728D01*
X0083547Y0232661D01*
X0083578Y0232592D01*
X0083607Y0232521D01*
X0083631Y0232449D01*
X0083652Y0232376D01*
X0083669Y0232302D01*
X0083683Y0232227D01*
X0083692Y0232152D01*
X0083698Y0232076D01*
X0083700Y0232000D01*
X0083700Y0200000D01*
X0083698Y0199924D01*
X0083692Y0199848D01*
X0083683Y0199773D01*
X0083669Y0199698D01*
X0083652Y0199624D01*
X0083631Y0199551D01*
X0083607Y0199479D01*
X0083578Y0199408D01*
X0083547Y0199339D01*
X0083512Y0199272D01*
X0083473Y0199207D01*
X0083431Y0199143D01*
X0083386Y0199082D01*
X0083338Y0199023D01*
X0083287Y0198967D01*
X0083233Y0198913D01*
X0083177Y0198862D01*
X0083118Y0198814D01*
X0083057Y0198769D01*
X0082993Y0198727D01*
X0082928Y0198688D01*
X0082861Y0198653D01*
X0082792Y0198622D01*
X0082721Y0198593D01*
X0082649Y0198569D01*
X0082576Y0198548D01*
X0082502Y0198531D01*
X0082427Y0198517D01*
X0082352Y0198508D01*
X0082276Y0198502D01*
X0082200Y0198500D01*
X0082200Y0178500D02*
X0078000Y0178500D01*
X0074000Y0178500D01*
X0069800Y0178500D01*
X0069724Y0178498D01*
X0069648Y0178492D01*
X0069573Y0178483D01*
X0069498Y0178469D01*
X0069424Y0178452D01*
X0069351Y0178431D01*
X0069279Y0178407D01*
X0069208Y0178378D01*
X0069139Y0178347D01*
X0069072Y0178312D01*
X0069007Y0178273D01*
X0068943Y0178231D01*
X0068882Y0178186D01*
X0068823Y0178138D01*
X0068767Y0178087D01*
X0068713Y0178033D01*
X0068662Y0177977D01*
X0068614Y0177918D01*
X0068569Y0177857D01*
X0068527Y0177793D01*
X0068488Y0177728D01*
X0068453Y0177661D01*
X0068422Y0177592D01*
X0068393Y0177521D01*
X0068369Y0177449D01*
X0068348Y0177376D01*
X0068331Y0177302D01*
X0068317Y0177227D01*
X0068308Y0177152D01*
X0068302Y0177076D01*
X0068300Y0177000D01*
X0068300Y0145000D01*
X0068302Y0144924D01*
X0068308Y0144848D01*
X0068317Y0144773D01*
X0068331Y0144698D01*
X0068348Y0144624D01*
X0068369Y0144551D01*
X0068393Y0144479D01*
X0068422Y0144408D01*
X0068453Y0144339D01*
X0068488Y0144272D01*
X0068527Y0144207D01*
X0068569Y0144143D01*
X0068614Y0144082D01*
X0068662Y0144023D01*
X0068713Y0143967D01*
X0068767Y0143913D01*
X0068823Y0143862D01*
X0068882Y0143814D01*
X0068943Y0143769D01*
X0069007Y0143727D01*
X0069072Y0143688D01*
X0069139Y0143653D01*
X0069208Y0143622D01*
X0069279Y0143593D01*
X0069351Y0143569D01*
X0069424Y0143548D01*
X0069498Y0143531D01*
X0069573Y0143517D01*
X0069648Y0143508D01*
X0069724Y0143502D01*
X0069800Y0143500D01*
X0082200Y0143500D01*
X0082300Y0143500D02*
X0082300Y0178500D01*
X0082200Y0178500D02*
X0082276Y0178498D01*
X0082352Y0178492D01*
X0082427Y0178483D01*
X0082502Y0178469D01*
X0082576Y0178452D01*
X0082649Y0178431D01*
X0082721Y0178407D01*
X0082792Y0178378D01*
X0082861Y0178347D01*
X0082928Y0178312D01*
X0082993Y0178273D01*
X0083057Y0178231D01*
X0083118Y0178186D01*
X0083177Y0178138D01*
X0083233Y0178087D01*
X0083287Y0178033D01*
X0083338Y0177977D01*
X0083386Y0177918D01*
X0083431Y0177857D01*
X0083473Y0177793D01*
X0083512Y0177728D01*
X0083547Y0177661D01*
X0083578Y0177592D01*
X0083607Y0177521D01*
X0083631Y0177449D01*
X0083652Y0177376D01*
X0083669Y0177302D01*
X0083683Y0177227D01*
X0083692Y0177152D01*
X0083698Y0177076D01*
X0083700Y0177000D01*
X0083700Y0145000D01*
X0083698Y0144924D01*
X0083692Y0144848D01*
X0083683Y0144773D01*
X0083669Y0144698D01*
X0083652Y0144624D01*
X0083631Y0144551D01*
X0083607Y0144479D01*
X0083578Y0144408D01*
X0083547Y0144339D01*
X0083512Y0144272D01*
X0083473Y0144207D01*
X0083431Y0144143D01*
X0083386Y0144082D01*
X0083338Y0144023D01*
X0083287Y0143967D01*
X0083233Y0143913D01*
X0083177Y0143862D01*
X0083118Y0143814D01*
X0083057Y0143769D01*
X0082993Y0143727D01*
X0082928Y0143688D01*
X0082861Y0143653D01*
X0082792Y0143622D01*
X0082721Y0143593D01*
X0082649Y0143569D01*
X0082576Y0143548D01*
X0082502Y0143531D01*
X0082427Y0143517D01*
X0082352Y0143508D01*
X0082276Y0143502D01*
X0082200Y0143500D01*
X0078000Y0178500D02*
X0077998Y0178412D01*
X0077992Y0178323D01*
X0077982Y0178235D01*
X0077969Y0178148D01*
X0077951Y0178061D01*
X0077930Y0177975D01*
X0077905Y0177890D01*
X0077876Y0177807D01*
X0077843Y0177724D01*
X0077807Y0177644D01*
X0077768Y0177565D01*
X0077725Y0177487D01*
X0077678Y0177412D01*
X0077628Y0177339D01*
X0077575Y0177268D01*
X0077519Y0177199D01*
X0077460Y0177133D01*
X0077398Y0177070D01*
X0077334Y0177010D01*
X0077267Y0176952D01*
X0077197Y0176898D01*
X0077125Y0176846D01*
X0077051Y0176798D01*
X0076974Y0176753D01*
X0076896Y0176712D01*
X0076816Y0176674D01*
X0076735Y0176640D01*
X0076652Y0176609D01*
X0076567Y0176582D01*
X0076482Y0176559D01*
X0076396Y0176540D01*
X0076308Y0176524D01*
X0076221Y0176512D01*
X0076133Y0176504D01*
X0076044Y0176500D01*
X0075956Y0176500D01*
X0075867Y0176504D01*
X0075779Y0176512D01*
X0075692Y0176524D01*
X0075604Y0176540D01*
X0075518Y0176559D01*
X0075433Y0176582D01*
X0075348Y0176609D01*
X0075265Y0176640D01*
X0075184Y0176674D01*
X0075104Y0176712D01*
X0075026Y0176753D01*
X0074949Y0176798D01*
X0074875Y0176846D01*
X0074803Y0176898D01*
X0074733Y0176952D01*
X0074666Y0177010D01*
X0074602Y0177070D01*
X0074540Y0177133D01*
X0074481Y0177199D01*
X0074425Y0177268D01*
X0074372Y0177339D01*
X0074322Y0177412D01*
X0074275Y0177487D01*
X0074232Y0177565D01*
X0074193Y0177644D01*
X0074157Y0177724D01*
X0074124Y0177807D01*
X0074095Y0177890D01*
X0074070Y0177975D01*
X0074049Y0178061D01*
X0074031Y0178148D01*
X0074018Y0178235D01*
X0074008Y0178323D01*
X0074002Y0178412D01*
X0074000Y0178500D01*
D14*
X0074929Y0152108D02*
X0075749Y0152108D01*
X0076158Y0151698D01*
X0076158Y0150060D01*
X0075749Y0149650D01*
X0074929Y0149650D01*
X0074520Y0150060D01*
X0073621Y0149650D02*
X0071982Y0149650D01*
X0072801Y0149650D02*
X0072801Y0152108D01*
X0073621Y0151289D01*
X0074520Y0151698D02*
X0074929Y0152108D01*
X0077031Y0152108D02*
X0077850Y0152108D01*
X0077440Y0152108D02*
X0077440Y0149650D01*
X0077031Y0149650D02*
X0077850Y0149650D01*
X0077912Y0227955D02*
X0078732Y0227955D01*
X0078322Y0227955D02*
X0078322Y0230413D01*
X0078732Y0230413D02*
X0077912Y0230413D01*
X0077040Y0230003D02*
X0077040Y0228365D01*
X0076630Y0227955D01*
X0075811Y0227955D01*
X0075401Y0228365D01*
X0074502Y0227955D02*
X0072864Y0229594D01*
X0072864Y0230003D01*
X0073273Y0230413D01*
X0074093Y0230413D01*
X0074502Y0230003D01*
X0075401Y0230003D02*
X0075811Y0230413D01*
X0076630Y0230413D01*
X0077040Y0230003D01*
X0074502Y0227955D02*
X0072864Y0227955D01*
D15*
X0029748Y0321038D02*
X0034748Y0326038D01*
X0029748Y0321038D02*
X0024748Y0326038D01*
D16*
X0023583Y0328738D02*
X0026652Y0328738D01*
X0023583Y0331807D01*
X0023583Y0332575D01*
X0024350Y0333342D01*
X0025885Y0333342D01*
X0026652Y0332575D01*
X0028187Y0328738D02*
X0031256Y0328738D01*
X0032791Y0331040D02*
X0035860Y0331040D01*
X0031256Y0331807D02*
X0029721Y0333342D01*
X0029721Y0328738D01*
M02*
