G75*
%MOIN*%
%OFA0B0*%
%FSLAX25Y25*%
%IPPOS*%
%LPD*%
%AMOC8*
5,1,8,0,0,1.08239X$1,22.5*
%
%ADD10C,0.00000*%
%ADD11R,0.05906X0.05118*%
%ADD12R,0.02362X0.08661*%
%ADD13C,0.13843*%
%ADD14C,0.08858*%
%ADD15R,0.04724X0.04724*%
%ADD16R,0.05118X0.05906*%
%ADD17R,0.06496X0.06496*%
%ADD18OC8,0.06496*%
%ADD19C,0.12268*%
%ADD20OC8,0.07400*%
%ADD21C,0.01000*%
%ADD22C,0.04000*%
D10*
X0001000Y0001000D02*
X0001000Y0325961D01*
X0102201Y0325961D01*
X0102201Y0001000D01*
X0001000Y0001000D01*
D11*
X0058629Y0115140D03*
X0058629Y0122620D03*
X0094538Y0121860D03*
X0094538Y0114380D03*
X0093500Y0307260D03*
X0093500Y0314740D03*
X0083500Y0314740D03*
X0083500Y0307260D03*
X0018500Y0307260D03*
X0018500Y0314740D03*
X0008500Y0314740D03*
X0008500Y0307260D03*
D12*
X0068500Y0131236D03*
X0073500Y0131236D03*
X0078500Y0131236D03*
X0083500Y0131236D03*
X0083500Y0110764D03*
X0078500Y0110764D03*
X0073500Y0110764D03*
X0068500Y0110764D03*
D13*
X0076000Y0045291D03*
X0076000Y0013008D03*
X0059465Y0026000D03*
X0031000Y0013008D03*
X0031000Y0045291D03*
X0014465Y0026000D03*
D14*
X0047535Y0026000D03*
X0092535Y0026000D03*
D15*
X0080134Y0068500D03*
X0071866Y0068500D03*
D16*
X0072240Y0093500D03*
X0064760Y0093500D03*
X0084760Y0093500D03*
X0092240Y0093500D03*
D17*
X0021157Y0123441D03*
X0021157Y0183441D03*
X0021157Y0243441D03*
X0021157Y0063441D03*
D18*
X0031000Y0063441D03*
X0040843Y0063441D03*
X0040843Y0123441D03*
X0031000Y0123441D03*
X0031000Y0183441D03*
X0040843Y0183441D03*
X0040843Y0243441D03*
X0031000Y0243441D03*
D19*
X0013283Y0271000D03*
X0013283Y0211000D03*
X0013283Y0151000D03*
X0013283Y0091000D03*
X0048717Y0091000D03*
X0048717Y0151000D03*
X0048717Y0211000D03*
X0048717Y0271000D03*
D20*
X0049748Y0306038D03*
X0049748Y0316038D03*
X0059748Y0316038D03*
X0059748Y0306038D03*
X0069748Y0306038D03*
X0069748Y0316038D03*
X0039748Y0316038D03*
X0039748Y0306038D03*
X0029748Y0306038D03*
X0029748Y0316038D03*
D21*
X0028900Y0316000D01*
X0028000Y0315100D01*
X0019000Y0315100D01*
X0018500Y0314740D01*
X0017200Y0321400D02*
X0035200Y0321400D01*
X0039700Y0316900D01*
X0039748Y0316038D01*
X0040600Y0316000D01*
X0049600Y0316000D01*
X0049748Y0316038D01*
X0050500Y0316000D01*
X0059500Y0316000D01*
X0059748Y0316038D01*
X0060400Y0316000D01*
X0060400Y0306100D01*
X0059748Y0306038D01*
X0059500Y0306100D01*
X0050500Y0306100D01*
X0049748Y0306038D01*
X0049600Y0306100D01*
X0040600Y0306100D01*
X0039748Y0306038D01*
X0034300Y0300700D02*
X0029800Y0305200D01*
X0029748Y0306038D01*
X0034300Y0300700D02*
X0084700Y0300700D01*
X0085600Y0301600D01*
X0085600Y0257500D01*
X0088300Y0248500D02*
X0088300Y0193600D01*
X0088300Y0183700D01*
X0087400Y0183700D01*
X0088300Y0183700D02*
X0088300Y0136000D01*
X0089200Y0135100D01*
X0093700Y0130600D01*
X0093700Y0122500D01*
X0094538Y0121860D01*
X0094538Y0114380D02*
X0093700Y0114400D01*
X0087400Y0114400D01*
X0078400Y0123400D01*
X0073900Y0123400D01*
X0068500Y0128800D01*
X0068500Y0131236D01*
X0068500Y0179200D01*
X0067600Y0180100D01*
X0067600Y0217900D01*
X0078400Y0228700D01*
X0080200Y0220600D02*
X0080200Y0215200D01*
X0071200Y0206200D01*
X0071200Y0204400D01*
X0079300Y0196300D01*
X0079300Y0145900D01*
X0073900Y0140500D01*
X0073900Y0131500D01*
X0073500Y0131236D01*
X0073900Y0130600D01*
X0073900Y0127900D01*
X0076600Y0125200D01*
X0085600Y0125200D01*
X0086500Y0126100D01*
X0086500Y0127000D01*
X0089200Y0129700D01*
X0083500Y0131236D02*
X0082900Y0131500D01*
X0079300Y0131500D01*
X0078500Y0131236D01*
X0078400Y0131500D01*
X0077500Y0132400D01*
X0077500Y0138700D01*
X0060400Y0131500D02*
X0072100Y0119800D01*
X0073500Y0110764D02*
X0073900Y0110800D01*
X0078400Y0110800D01*
X0078500Y0110764D01*
X0079300Y0109900D01*
X0079300Y0107200D01*
X0084700Y0101800D01*
X0084700Y0093700D01*
X0084760Y0093500D01*
X0091900Y0092800D02*
X0080200Y0081100D01*
X0080200Y0068500D01*
X0080134Y0068500D01*
X0075700Y0072100D02*
X0075700Y0046000D01*
X0076000Y0045291D01*
X0080200Y0037000D02*
X0051400Y0037000D01*
X0029800Y0058600D01*
X0028900Y0058600D01*
X0026200Y0061300D01*
X0026200Y0082000D01*
X0058600Y0114400D01*
X0058629Y0115140D01*
X0059500Y0115300D01*
X0063100Y0118900D01*
X0063100Y0126100D01*
X0056800Y0132400D01*
X0056800Y0166600D01*
X0051400Y0172000D01*
X0046000Y0177400D01*
X0046000Y0202600D01*
X0040600Y0208000D01*
X0040600Y0243100D01*
X0040843Y0243441D01*
X0040600Y0244000D01*
X0031600Y0244000D01*
X0031000Y0243441D01*
X0030700Y0244000D01*
X0030700Y0264700D01*
X0009100Y0286300D01*
X0009100Y0307000D01*
X0008500Y0307260D01*
X0015400Y0307900D02*
X0009100Y0314200D01*
X0008500Y0314740D01*
X0009100Y0315100D01*
X0010900Y0315100D01*
X0017200Y0321400D01*
X0018100Y0307900D02*
X0015400Y0307900D01*
X0018100Y0307900D02*
X0018500Y0307260D01*
X0019000Y0307000D01*
X0021700Y0307000D01*
X0049600Y0279100D01*
X0057700Y0279100D01*
X0088300Y0248500D01*
X0085600Y0245800D02*
X0072100Y0259300D01*
X0064900Y0247600D02*
X0083800Y0228700D01*
X0083800Y0213400D01*
X0081100Y0210700D01*
X0082900Y0207100D02*
X0085600Y0209800D01*
X0085600Y0245800D01*
X0082900Y0207100D02*
X0082900Y0180100D01*
X0075700Y0186400D02*
X0071200Y0181900D01*
X0075700Y0186400D02*
X0075700Y0194500D01*
X0064000Y0196300D02*
X0064000Y0136000D01*
X0060400Y0131500D02*
X0060400Y0244000D01*
X0058600Y0247600D02*
X0064900Y0247600D01*
X0058600Y0247600D02*
X0056800Y0245800D01*
X0056800Y0172000D01*
X0040843Y0183441D02*
X0040600Y0183700D01*
X0031600Y0183700D01*
X0031000Y0183441D01*
X0030700Y0182800D01*
X0030700Y0124300D01*
X0031000Y0123441D01*
X0027100Y0118000D02*
X0027100Y0085600D01*
X0014500Y0073000D01*
X0014500Y0056800D01*
X0024400Y0056800D01*
X0031000Y0063441D02*
X0031600Y0064000D01*
X0040600Y0064000D01*
X0040843Y0063441D01*
X0041500Y0064000D01*
X0046000Y0068500D01*
X0071866Y0068500D01*
X0075700Y0072100D02*
X0064900Y0082900D01*
X0064900Y0092800D01*
X0064760Y0093500D01*
X0064900Y0093700D01*
X0064900Y0106300D01*
X0068500Y0109900D01*
X0068500Y0110764D01*
X0073000Y0103600D02*
X0073000Y0093700D01*
X0072240Y0093500D01*
X0083800Y0109900D02*
X0083500Y0110764D01*
X0083800Y0109900D02*
X0096400Y0097300D01*
X0096400Y0053200D01*
X0080200Y0037000D01*
X0088300Y0025300D02*
X0076600Y0013600D01*
X0076000Y0013008D01*
X0075700Y0013600D01*
X0071200Y0013600D01*
X0059500Y0025300D01*
X0059465Y0026000D01*
X0058600Y0026200D01*
X0047800Y0026200D01*
X0047535Y0026000D01*
X0046900Y0025300D01*
X0035200Y0013600D01*
X0031600Y0013600D01*
X0031000Y0013008D01*
X0030700Y0013600D01*
X0026200Y0013600D01*
X0014500Y0025300D01*
X0014465Y0026000D01*
X0014500Y0026200D01*
X0014500Y0056800D01*
X0027100Y0118000D02*
X0021700Y0123400D01*
X0021157Y0123441D01*
X0027100Y0118000D02*
X0042400Y0118000D01*
X0046900Y0122500D01*
X0058600Y0122500D01*
X0058629Y0122620D01*
X0088300Y0025300D02*
X0091900Y0025300D01*
X0092535Y0026000D01*
X0091900Y0092800D02*
X0092240Y0093500D01*
X0085600Y0301600D02*
X0091000Y0307000D01*
X0092800Y0307000D01*
X0093500Y0307260D01*
X0093500Y0314740D02*
X0092800Y0315100D01*
X0083800Y0315100D01*
X0083500Y0314740D01*
X0082900Y0315100D01*
X0078400Y0315100D01*
X0072100Y0321400D01*
X0064900Y0321400D01*
X0060400Y0316900D01*
X0059748Y0316038D01*
X0069748Y0316038D02*
X0070300Y0316000D01*
X0070300Y0306100D01*
X0069748Y0306038D01*
X0070300Y0306100D02*
X0071200Y0307000D01*
X0082900Y0307000D01*
X0083500Y0307260D01*
D22*
X0072100Y0259300D03*
X0078400Y0228700D03*
X0080200Y0220600D03*
X0081100Y0210700D03*
X0075700Y0194500D03*
X0071200Y0206200D03*
X0064000Y0196300D03*
X0071200Y0181900D03*
X0082900Y0180100D03*
X0087400Y0183700D03*
X0088300Y0193600D03*
X0077500Y0138700D03*
X0072100Y0119800D03*
X0073000Y0103600D03*
X0064000Y0136000D03*
X0056800Y0172000D03*
X0051400Y0172000D03*
X0060400Y0244000D03*
X0085600Y0257500D03*
X0089200Y0135100D03*
X0089200Y0129700D03*
X0024400Y0056800D03*
M02*
