G75*
%MOIN*%
%OFA0B0*%
%FSLAX25Y25*%
%IPPOS*%
%LPD*%
%AMOC8*
5,1,8,0,0,1.08239X$1,22.5*
%
%ADD10C,0.00000*%
%ADD11R,0.05118X0.05906*%
%ADD12R,0.08000X0.02600*%
%ADD13R,0.08661X0.02362*%
%ADD14C,0.13843*%
%ADD15C,0.08858*%
%ADD16R,0.05906X0.05118*%
%ADD17R,0.06496X0.06496*%
%ADD18OC8,0.06496*%
%ADD19C,0.12268*%
%ADD20OC8,0.07400*%
%ADD21C,0.01000*%
%ADD22C,0.04000*%
D10*
X0001000Y0001000D02*
X0001000Y0325961D01*
X0102201Y0325961D01*
X0102201Y0001000D01*
X0001000Y0001000D01*
D11*
X0027260Y0106000D03*
X0034740Y0106000D03*
X0034740Y0166000D03*
X0027260Y0166000D03*
X0027260Y0226000D03*
X0034740Y0226000D03*
X0034740Y0286000D03*
X0027260Y0286000D03*
X0071880Y0239795D03*
X0072260Y0253500D03*
X0079360Y0239795D03*
X0079740Y0253500D03*
X0080120Y0188538D03*
X0072640Y0188538D03*
X0082260Y0123500D03*
X0089740Y0123500D03*
D12*
X0088100Y0146000D03*
X0088100Y0151000D03*
X0088100Y0156000D03*
X0088100Y0161000D03*
X0088100Y0166000D03*
X0088100Y0171000D03*
X0088100Y0176000D03*
X0088100Y0201000D03*
X0088100Y0206000D03*
X0088100Y0211000D03*
X0088100Y0216000D03*
X0088100Y0221000D03*
X0088100Y0226000D03*
X0088100Y0231000D03*
X0063900Y0231000D03*
X0063900Y0226000D03*
X0063900Y0221000D03*
X0063900Y0216000D03*
X0063900Y0211000D03*
X0063900Y0206000D03*
X0063900Y0201000D03*
X0063900Y0176000D03*
X0063900Y0171000D03*
X0063900Y0166000D03*
X0063900Y0161000D03*
X0063900Y0156000D03*
X0063900Y0151000D03*
X0063900Y0146000D03*
D13*
X0065764Y0263500D03*
X0065764Y0268500D03*
X0065764Y0273500D03*
X0065764Y0278500D03*
X0086236Y0278500D03*
X0086236Y0273500D03*
X0086236Y0268500D03*
X0086236Y0263500D03*
D14*
X0076000Y0045291D03*
X0076000Y0013008D03*
X0059465Y0026000D03*
X0031000Y0013008D03*
X0031000Y0045291D03*
X0014465Y0026000D03*
D15*
X0047535Y0026000D03*
X0092535Y0026000D03*
D16*
X0066000Y0122260D03*
X0066000Y0129740D03*
D17*
X0021157Y0123441D03*
X0021157Y0183441D03*
X0021157Y0243441D03*
X0021157Y0063441D03*
D18*
X0031000Y0063441D03*
X0040843Y0063441D03*
X0040843Y0123441D03*
X0031000Y0123441D03*
X0031000Y0183441D03*
X0040843Y0183441D03*
X0040843Y0243441D03*
X0031000Y0243441D03*
D19*
X0013283Y0271000D03*
X0013283Y0211000D03*
X0013283Y0151000D03*
X0013283Y0091000D03*
X0048717Y0091000D03*
X0048717Y0151000D03*
X0048717Y0211000D03*
X0048717Y0271000D03*
D20*
X0049748Y0306038D03*
X0049748Y0316038D03*
X0059748Y0316038D03*
X0059748Y0306038D03*
X0069748Y0306038D03*
X0069748Y0316038D03*
X0039748Y0316038D03*
X0039748Y0306038D03*
X0029748Y0306038D03*
X0029748Y0316038D03*
D21*
X0029800Y0316000D01*
X0029800Y0306100D01*
X0029748Y0306038D01*
X0024400Y0304300D02*
X0034300Y0294400D01*
X0034300Y0286300D01*
X0034740Y0286000D01*
X0027260Y0286000D02*
X0027100Y0285400D01*
X0027100Y0249400D01*
X0021700Y0244000D01*
X0021157Y0243441D01*
X0024400Y0230500D02*
X0020800Y0226900D01*
X0020800Y0191800D01*
X0016300Y0187300D01*
X0016300Y0177400D01*
X0027100Y0166600D01*
X0027260Y0166000D01*
X0028000Y0165700D01*
X0028000Y0136900D01*
X0040600Y0124300D01*
X0040843Y0123441D01*
X0046000Y0123400D02*
X0046000Y0121600D01*
X0035200Y0110800D01*
X0024400Y0110800D01*
X0020800Y0107200D01*
X0020800Y0072100D01*
X0016300Y0067600D01*
X0016300Y0047800D01*
X0027100Y0037000D01*
X0035200Y0037000D01*
X0093700Y0095500D01*
X0093700Y0148600D01*
X0091000Y0151300D01*
X0088100Y0151000D01*
X0088300Y0151300D01*
X0091000Y0151300D01*
X0097300Y0157600D01*
X0097300Y0204400D01*
X0091000Y0210700D01*
X0088300Y0210700D01*
X0088100Y0211000D01*
X0087400Y0206200D02*
X0088100Y0206000D01*
X0088300Y0205300D01*
X0091000Y0205300D01*
X0095500Y0200800D01*
X0095500Y0161200D01*
X0091000Y0156700D01*
X0088300Y0156700D01*
X0088100Y0156000D01*
X0087400Y0156700D01*
X0084700Y0156700D01*
X0082000Y0159400D01*
X0082000Y0162100D01*
X0085600Y0165700D01*
X0087400Y0165700D01*
X0088100Y0166000D01*
X0087400Y0170200D02*
X0088100Y0171000D01*
X0088300Y0171100D01*
X0088300Y0175600D01*
X0088100Y0176000D01*
X0087400Y0170200D02*
X0084700Y0170200D01*
X0080200Y0165700D01*
X0080200Y0146800D01*
X0066700Y0133300D01*
X0066700Y0130600D01*
X0066000Y0129740D01*
X0064000Y0135100D02*
X0064000Y0136000D01*
X0064000Y0135100D02*
X0035200Y0106300D01*
X0034740Y0106000D01*
X0027260Y0106000D02*
X0027100Y0105400D01*
X0027100Y0069400D01*
X0021700Y0064000D01*
X0021157Y0063441D01*
X0024400Y0056800D02*
X0030700Y0063100D01*
X0031000Y0063441D01*
X0036100Y0065800D02*
X0036100Y0050500D01*
X0031600Y0046000D01*
X0031000Y0045291D01*
X0036100Y0065800D02*
X0065800Y0095500D01*
X0065800Y0121600D01*
X0066000Y0122260D01*
X0064900Y0139600D02*
X0062200Y0139600D01*
X0046000Y0123400D01*
X0060400Y0146800D02*
X0056800Y0150400D01*
X0056800Y0172000D01*
X0055000Y0175600D02*
X0063100Y0175600D01*
X0063900Y0176000D01*
X0064000Y0176500D01*
X0069400Y0181900D01*
X0071200Y0181900D01*
X0073000Y0188200D02*
X0072640Y0188538D01*
X0072100Y0189100D01*
X0072100Y0201700D01*
X0074800Y0204400D01*
X0074800Y0208000D01*
X0072100Y0210700D01*
X0064000Y0210700D01*
X0063900Y0211000D01*
X0064000Y0211600D01*
X0064000Y0215200D01*
X0063900Y0216000D01*
X0064000Y0216100D01*
X0064000Y0220600D01*
X0063900Y0221000D01*
X0063900Y0226000D02*
X0066700Y0226000D01*
X0077500Y0215200D01*
X0077500Y0199000D01*
X0093700Y0182800D01*
X0093700Y0163900D01*
X0091000Y0161200D01*
X0088300Y0161200D01*
X0088100Y0161000D01*
X0088100Y0146000D02*
X0087400Y0145900D01*
X0082900Y0141400D01*
X0082900Y0135100D01*
X0089200Y0135100D01*
X0089200Y0129700D02*
X0089200Y0124300D01*
X0089740Y0123500D01*
X0082900Y0124300D02*
X0082260Y0123500D01*
X0082000Y0123400D01*
X0082000Y0107200D01*
X0041500Y0066700D01*
X0041500Y0064000D01*
X0040843Y0063441D01*
X0064900Y0139600D02*
X0069400Y0144100D01*
X0069400Y0153100D01*
X0067600Y0154900D01*
X0067600Y0156700D01*
X0063900Y0156000D01*
X0064000Y0156700D01*
X0067600Y0156700D01*
X0069400Y0158500D01*
X0069400Y0163000D01*
X0066700Y0165700D01*
X0064000Y0165700D01*
X0063900Y0166000D01*
X0063900Y0171000D02*
X0064000Y0171100D01*
X0073900Y0171100D01*
X0082900Y0180100D01*
X0080120Y0188538D02*
X0079300Y0189100D01*
X0079300Y0190900D01*
X0075700Y0194500D01*
X0073000Y0188200D02*
X0077500Y0183700D01*
X0087400Y0183700D01*
X0088300Y0193600D02*
X0088300Y0200800D01*
X0088100Y0201000D01*
X0087400Y0206200D02*
X0085600Y0206200D01*
X0081100Y0210700D01*
X0079300Y0216100D02*
X0087400Y0216100D01*
X0088100Y0216000D01*
X0087400Y0220600D02*
X0088100Y0221000D01*
X0088300Y0221500D01*
X0088300Y0226000D01*
X0088100Y0226000D01*
X0088100Y0231000D02*
X0088300Y0231400D01*
X0093700Y0236800D01*
X0093700Y0299800D01*
X0072100Y0321400D01*
X0028000Y0321400D01*
X0024400Y0317800D01*
X0024400Y0304300D01*
X0062200Y0272800D02*
X0036100Y0246700D01*
X0036100Y0241300D01*
X0025300Y0230500D01*
X0024400Y0230500D01*
X0027100Y0226000D02*
X0027260Y0226000D01*
X0027100Y0226000D02*
X0027100Y0189100D01*
X0021700Y0183700D01*
X0021157Y0183441D01*
X0035200Y0166600D02*
X0034740Y0166000D01*
X0035200Y0166600D02*
X0046000Y0166600D01*
X0051400Y0172000D01*
X0055000Y0175600D01*
X0069400Y0181900D02*
X0058600Y0192700D01*
X0058600Y0228700D01*
X0060400Y0230500D01*
X0063100Y0230500D01*
X0063900Y0231000D01*
X0059500Y0234100D02*
X0068500Y0234100D01*
X0074800Y0227800D01*
X0074800Y0220600D01*
X0079300Y0216100D01*
X0080200Y0220600D02*
X0087400Y0220600D01*
X0078400Y0228700D02*
X0085600Y0235900D01*
X0085600Y0257500D01*
X0085600Y0262900D02*
X0086236Y0263500D01*
X0086500Y0263800D01*
X0089200Y0263800D01*
X0091900Y0266500D01*
X0091900Y0280900D01*
X0070300Y0302500D01*
X0070300Y0305200D01*
X0069748Y0306038D01*
X0064900Y0300700D02*
X0060400Y0305200D01*
X0059748Y0306038D01*
X0064900Y0300700D02*
X0064900Y0279100D01*
X0065764Y0278500D01*
X0065800Y0278200D01*
X0068500Y0278200D01*
X0072100Y0274600D01*
X0072100Y0267400D01*
X0068500Y0263800D01*
X0065800Y0263800D01*
X0065764Y0263500D01*
X0065800Y0262900D01*
X0065800Y0252100D01*
X0069400Y0248500D01*
X0071200Y0248500D01*
X0079300Y0240400D01*
X0079360Y0239795D01*
X0082000Y0235000D02*
X0076600Y0235000D01*
X0072100Y0239500D01*
X0071880Y0239795D01*
X0071200Y0240400D01*
X0044200Y0240400D01*
X0041500Y0243100D01*
X0040843Y0243441D01*
X0034740Y0226000D02*
X0051400Y0226000D01*
X0059500Y0234100D01*
X0060400Y0244000D02*
X0059500Y0244900D01*
X0059500Y0264700D01*
X0063100Y0268300D01*
X0064900Y0268300D01*
X0065764Y0268500D01*
X0064900Y0272800D02*
X0065764Y0273500D01*
X0064900Y0272800D02*
X0062200Y0272800D01*
X0072100Y0259300D02*
X0073000Y0258400D01*
X0082900Y0268300D01*
X0085600Y0268300D01*
X0086236Y0268500D01*
X0085600Y0262900D02*
X0080200Y0257500D01*
X0080200Y0253900D01*
X0079740Y0253500D01*
X0080200Y0253000D01*
X0080200Y0246700D01*
X0083800Y0243100D01*
X0083800Y0236800D01*
X0082000Y0235000D01*
X0072260Y0253500D02*
X0073000Y0253900D01*
X0073000Y0258400D01*
X0071200Y0206200D02*
X0064000Y0206200D01*
X0063900Y0206000D01*
X0063900Y0201000D02*
X0064000Y0200800D01*
X0064000Y0196300D01*
X0063900Y0161000D02*
X0063100Y0160300D01*
X0060400Y0160300D01*
X0058600Y0158500D01*
X0058600Y0154000D01*
X0061300Y0151300D01*
X0063100Y0151300D01*
X0063900Y0151000D01*
X0063100Y0146800D02*
X0063900Y0146000D01*
X0063100Y0146800D02*
X0060400Y0146800D01*
X0073000Y0134200D02*
X0073000Y0119800D01*
X0072100Y0119800D01*
X0073000Y0119800D02*
X0073000Y0103600D01*
X0073000Y0134200D02*
X0077500Y0138700D01*
X0082900Y0135100D02*
X0082900Y0124300D01*
D22*
X0089200Y0129700D03*
X0089200Y0135100D03*
X0077500Y0138700D03*
X0072100Y0119800D03*
X0073000Y0103600D03*
X0064000Y0136000D03*
X0056800Y0172000D03*
X0051400Y0172000D03*
X0064000Y0196300D03*
X0071200Y0206200D03*
X0075700Y0194500D03*
X0071200Y0181900D03*
X0081100Y0210700D03*
X0080200Y0220600D03*
X0078400Y0228700D03*
X0085600Y0257500D03*
X0072100Y0259300D03*
X0060400Y0244000D03*
X0082900Y0180100D03*
X0087400Y0183700D03*
X0088300Y0193600D03*
X0024400Y0056800D03*
M02*
