G75*
%MOIN*%
%OFA0B0*%
%FSLAX25Y25*%
%IPPOS*%
%LPD*%
%AMOC8*
5,1,8,0,0,1.08239X$1,22.5*
%
%ADD10C,0.00000*%
%ADD11R,0.05918X0.06706*%
%ADD12R,0.08800X0.03400*%
%ADD13R,0.09461X0.03162*%
%ADD14C,0.14643*%
%ADD15C,0.09658*%
%ADD16R,0.06706X0.05918*%
%ADD17R,0.07296X0.07296*%
%ADD18OC8,0.07296*%
%ADD19C,0.13068*%
%ADD20OC8,0.08200*%
%ADD21C,0.04800*%
D10*
X0001000Y0001000D02*
X0001000Y0325961D01*
X0102201Y0325961D01*
X0102201Y0001000D01*
X0001000Y0001000D01*
D11*
X0027260Y0106000D03*
X0034740Y0106000D03*
X0034740Y0166000D03*
X0027260Y0166000D03*
X0027260Y0226000D03*
X0034740Y0226000D03*
X0034740Y0286000D03*
X0027260Y0286000D03*
X0071880Y0239795D03*
X0072260Y0253500D03*
X0079360Y0239795D03*
X0079740Y0253500D03*
X0080120Y0188538D03*
X0072640Y0188538D03*
X0082260Y0123500D03*
X0089740Y0123500D03*
D12*
X0088100Y0146000D03*
X0088100Y0151000D03*
X0088100Y0156000D03*
X0088100Y0161000D03*
X0088100Y0166000D03*
X0088100Y0171000D03*
X0088100Y0176000D03*
X0088100Y0201000D03*
X0088100Y0206000D03*
X0088100Y0211000D03*
X0088100Y0216000D03*
X0088100Y0221000D03*
X0088100Y0226000D03*
X0088100Y0231000D03*
X0063900Y0231000D03*
X0063900Y0226000D03*
X0063900Y0221000D03*
X0063900Y0216000D03*
X0063900Y0211000D03*
X0063900Y0206000D03*
X0063900Y0201000D03*
X0063900Y0176000D03*
X0063900Y0171000D03*
X0063900Y0166000D03*
X0063900Y0161000D03*
X0063900Y0156000D03*
X0063900Y0151000D03*
X0063900Y0146000D03*
D13*
X0065764Y0263500D03*
X0065764Y0268500D03*
X0065764Y0273500D03*
X0065764Y0278500D03*
X0086236Y0278500D03*
X0086236Y0273500D03*
X0086236Y0268500D03*
X0086236Y0263500D03*
D14*
X0076000Y0045291D03*
X0076000Y0013008D03*
X0059465Y0026000D03*
X0031000Y0013008D03*
X0031000Y0045291D03*
X0014465Y0026000D03*
D15*
X0047535Y0026000D03*
X0092535Y0026000D03*
D16*
X0066000Y0122260D03*
X0066000Y0129740D03*
D17*
X0021157Y0123441D03*
X0021157Y0183441D03*
X0021157Y0243441D03*
X0021157Y0063441D03*
D18*
X0031000Y0063441D03*
X0040843Y0063441D03*
X0040843Y0123441D03*
X0031000Y0123441D03*
X0031000Y0183441D03*
X0040843Y0183441D03*
X0040843Y0243441D03*
X0031000Y0243441D03*
D19*
X0013283Y0271000D03*
X0013283Y0211000D03*
X0013283Y0151000D03*
X0013283Y0091000D03*
X0048717Y0091000D03*
X0048717Y0151000D03*
X0048717Y0211000D03*
X0048717Y0271000D03*
D20*
X0049748Y0306038D03*
X0049748Y0316038D03*
X0059748Y0316038D03*
X0059748Y0306038D03*
X0069748Y0306038D03*
X0069748Y0316038D03*
X0039748Y0316038D03*
X0039748Y0306038D03*
X0029748Y0306038D03*
X0029748Y0316038D03*
D21*
X0060400Y0244000D03*
X0072100Y0259300D03*
X0078400Y0228700D03*
X0080200Y0220600D03*
X0081100Y0210700D03*
X0075700Y0194500D03*
X0071200Y0206200D03*
X0064000Y0196300D03*
X0071200Y0181900D03*
X0082900Y0180100D03*
X0087400Y0183700D03*
X0088300Y0193600D03*
X0077500Y0138700D03*
X0072100Y0119800D03*
X0073000Y0103600D03*
X0064000Y0136000D03*
X0056800Y0172000D03*
X0051400Y0172000D03*
X0085600Y0257500D03*
X0089200Y0135100D03*
X0089200Y0129700D03*
X0024400Y0056800D03*
M02*
