%
M48
M72
T01C0.0240
T02C0.0400
T03C0.0433
T04C0.0591
T05C0.0827
T06C0.0984
%
T01
X2440Y5680
X5140Y17200
X5680Y17200
X6400Y19630
X7120Y20620
X7570Y19450
X7120Y18190
X8110Y21070
X8020Y22060
X7840Y22870
X8560Y25750
X7210Y25930
X6040Y24400
X8290Y18010
X8740Y18370
X8830Y19360
X7750Y13870
X7210Y11980
X7300Y10360
X6400Y13600
X8920Y13510
X8920Y12970
T02
X2975Y30604
X2975Y31604
X3975Y31604
X3975Y30604
X4975Y30604
X4975Y31604
X5975Y31604
X5975Y30604
X6975Y30604
X6975Y31604
T03
X2116Y24344
X3100Y24344
X4084Y24344
X4084Y18344
X3100Y18344
X2116Y18344
X2116Y12344
X3100Y12344
X4084Y12344
X4084Y6344
X3100Y6344
X2116Y6344
T04
X4754Y2600
X9254Y2600
T05
X1328Y9100
X1328Y15100
X1328Y21100
X1328Y27100
X4872Y27100
X4872Y21100
X4872Y15100
X4872Y9100
T06
X1446Y2600
X3100Y1301
X3100Y4529
X5946Y2600
X7600Y1301
X7600Y4529
M30
