  0
SECTION
  2
HEADER
  9
$MEASUREMENT
  70
  1
  9
$INSUNITS
  70
  4
  0
ENDSEC
  0
SECTION
  2
TABLES
  0
TABLE
  2
LTYPE
 70
     1
  0
LTYPE
  2
CONTINUOUS
 70
    64
  3
Ausgezogene Linie
 72
    65
 73
     0
 40
0.0
  0
ENDTAB
  0
TABLE
  2
LAYER
 70
     3
  0
LAYER
  2
Contour
 70
    64
 62
     7
  6
CONTINUOUS
  0
LAYER
  2
Engraving
 70
    64
 62
     7
  6
CONTINUOUS
  0
LAYER
  2
Reference_points
 70
    64
 62
     1
  6
CONTINUOUS
  0
ENDTAB
  0
TABLE
  2
STYLE
 70
     1
  0
STYLE
  2
TXT
 70
    64
 40
0.0
 41
1.0
 50
0.0
 71
     0
 42
3.500000
  3
TXT
  0
ENDTAB
  0
ENDSEC
  0
SECTION
  2
BLOCKS
  0
ENDSEC
  0
SECTION
  2
ENTITIES
  0
LINE
  8
Contour
 62
   7
 39
0.100
  6
CONTINUOUS
 10
19.98000
 20
128.40000
 30
 0
 11
0.00000
 21
128.40000
  0
LINE
  8
Contour
 62
   7
 39
0.100
  6
CONTINUOUS
 10
0.00000
 20
128.40000
 30
 0
 11
0.00000
 21
128.40000
  0
LINE
  8
Contour
 62
   7
 39
0.100
  6
CONTINUOUS
 10
0.00000
 20
128.40000
 30
 0
 11
0.00000
 21
0.00000
  0
LINE
  8
Contour
 62
   7
 39
0.100
  6
CONTINUOUS
 10
0.00000
 20
0.00000
 30
 0
 11
0.00000
 21
0.00000
  0
LINE
  8
Contour
 62
   7
 39
0.100
  6
CONTINUOUS
 10
0.00000
 20
0.00000
 30
 0
 11
19.98000
 21
0.00000
  0
LINE
  8
Contour
 62
   7
 39
0.100
  6
CONTINUOUS
 10
19.98000
 20
0.00000
 30
 0
 11
19.98000
 21
0.00000
  0
LINE
  8
Contour
 62
   7
 39
0.100
  6
CONTINUOUS
 10
19.98000
 20
0.00000
 30
 0
 11
19.98000
 21
128.40000
  0
LINE
  8
Contour
 62
   7
 39
0.100
  6
CONTINUOUS
 10
19.98000
 20
128.40000
 30
 0
 11
19.98000
 21
128.40000
  0
LINE
  8
Engraving
 62
   7
 39
0.400
  6
CONTINUOUS
 10
18.78100
 20
81.80300
 30
 0
 11
16.21800
 21
82.53000
  0
LINE
  8
Engraving
 62
   7
 39
0.400
  6
CONTINUOUS
 10
16.21800
 20
82.53000
 30
 0
 11
16.21800
 21
82.61100
  0
LINE
  8
Engraving
 62
   7
 39
0.400
  6
CONTINUOUS
 10
16.21800
 20
82.61100
 30
 0
 11
18.78100
 21
83.33700
  0
LINE
  8
Engraving
 62
   7
 39
0.400
  6
CONTINUOUS
 10
17.99400
 20
82.02500
 30
 0
 11
17.99400
 21
83.11500
  0
LINE
  8
Engraving
 62
   7
 39
0.400
  6
CONTINUOUS
 10
17.46900
 20
67.45100
 30
 0
 11
17.46900
 21
67.63300
  0
LINE
  8
Engraving
 62
   7
 39
0.400
  6
CONTINUOUS
 10
17.46900
 20
67.63300
 30
 0
 11
17.57000
 21
67.79400
  0
LINE
  8
Engraving
 62
   7
 39
0.400
  6
CONTINUOUS
 10
17.57000
 20
67.79400
 30
 0
 11
17.71100
 21
67.89500
  0
LINE
  8
Engraving
 62
   7
 39
0.400
  6
CONTINUOUS
 10
17.71100
 20
67.89500
 30
 0
 11
17.85300
 21
67.91500
  0
LINE
  8
Engraving
 62
   7
 39
0.400
  6
CONTINUOUS
 10
17.85300
 20
67.91500
 30
 0
 11
18.47800
 21
67.91500
  0
LINE
  8
Engraving
 62
   7
 39
0.400
  6
CONTINUOUS
 10
18.47800
 20
67.91500
 30
 0
 11
18.62000
 21
67.93500
  0
LINE
  8
Engraving
 62
   7
 39
0.400
  6
CONTINUOUS
 10
18.62000
 20
67.93500
 30
 0
 11
18.78100
 21
67.95600
  0
LINE
  8
Engraving
 62
   7
 39
0.400
  6
CONTINUOUS
 10
18.78100
 20
66.70400
 30
 0
 11
16.21800
 21
66.70400
  0
LINE
  8
Engraving
 62
   7
 39
0.400
  6
CONTINUOUS
 10
16.21800
 20
66.70400
 30
 0
 11
16.21800
 21
67.43100
  0
LINE
  8
Engraving
 62
   7
 39
0.400
  6
CONTINUOUS
 10
16.21800
 20
67.43100
 30
 0
 11
16.27900
 21
67.65300
  0
LINE
  8
Engraving
 62
   7
 39
0.400
  6
CONTINUOUS
 10
16.27900
 20
67.65300
 30
 0
 11
16.37900
 21
67.79400
  0
LINE
  8
Engraving
 62
   7
 39
0.400
  6
CONTINUOUS
 10
16.37900
 20
67.79400
 30
 0
 11
16.52100
 21
67.89500
  0
LINE
  8
Engraving
 62
   7
 39
0.400
  6
CONTINUOUS
 10
16.52100
 20
67.89500
 30
 0
 11
16.70200
 21
67.91500
  0
LINE
  8
Engraving
 62
   7
 39
0.400
  6
CONTINUOUS
 10
16.70200
 20
67.91500
 30
 0
 11
16.98500
 21
67.91500
  0
LINE
  8
Engraving
 62
   7
 39
0.400
  6
CONTINUOUS
 10
16.98500
 20
67.91500
 30
 0
 11
17.14600
 21
67.89500
  0
LINE
  8
Engraving
 62
   7
 39
0.400
  6
CONTINUOUS
 10
17.14600
 20
67.89500
 30
 0
 11
17.30800
 21
67.79400
  0
LINE
  8
Engraving
 62
   7
 39
0.400
  6
CONTINUOUS
 10
17.30800
 20
67.79400
 30
 0
 11
17.40900
 21
67.67300
  0
LINE
  8
Engraving
 62
   7
 39
0.400
  6
CONTINUOUS
 10
17.40900
 20
67.67300
 30
 0
 11
17.46900
 21
67.45100
  0
LINE
  8
Engraving
 62
   7
 39
0.400
  6
CONTINUOUS
 10
17.46900
 20
67.45100
 30
 0
 11
17.46900
 21
66.70400
  0
LINE
  8
Engraving
 62
   7
 39
0.400
  6
CONTINUOUS
 10
16.90400
 20
50.49600
 30
 0
 11
16.66200
 21
50.49600
  0
LINE
  8
Engraving
 62
   7
 39
0.400
  6
CONTINUOUS
 10
16.66200
 20
50.49600
 30
 0
 11
16.48000
 21
50.47600
  0
LINE
  8
Engraving
 62
   7
 39
0.400
  6
CONTINUOUS
 10
16.48000
 20
50.47600
 30
 0
 11
16.35900
 21
50.39500
  0
LINE
  8
Engraving
 62
   7
 39
0.400
  6
CONTINUOUS
 10
16.35900
 20
50.39500
 30
 0
 11
16.25800
 21
50.27400
  0
LINE
  8
Engraving
 62
   7
 39
0.400
  6
CONTINUOUS
 10
16.25800
 20
50.27400
 30
 0
 11
16.19800
 21
50.15300
  0
LINE
  8
Engraving
 62
   7
 39
0.400
  6
CONTINUOUS
 10
16.19800
 20
50.15300
 30
 0
 11
16.19800
 21
50.03200
  0
LINE
  8
Engraving
 62
   7
 39
0.400
  6
CONTINUOUS
 10
16.19800
 20
50.03200
 30
 0
 11
16.19800
 21
49.68900
  0
LINE
  8
Engraving
 62
   7
 39
0.400
  6
CONTINUOUS
 10
16.19800
 20
49.68900
 30
 0
 11
16.21800
 21
49.52700
  0
LINE
  8
Engraving
 62
   7
 39
0.400
  6
CONTINUOUS
 10
16.21800
 20
49.52700
 30
 0
 11
16.29900
 21
49.38600
  0
LINE
  8
Engraving
 62
   7
 39
0.400
  6
CONTINUOUS
 10
16.29900
 20
49.38600
 30
 0
 11
16.37900
 21
49.30500
  0
LINE
  8
Engraving
 62
   7
 39
0.400
  6
CONTINUOUS
 10
16.37900
 20
49.30500
 30
 0
 11
16.50100
 21
49.24500
  0
LINE
  8
Engraving
 62
   7
 39
0.400
  6
CONTINUOUS
 10
16.50100
 20
49.24500
 30
 0
 11
16.66200
 21
49.22400
  0
LINE
  8
Engraving
 62
   7
 39
0.400
  6
CONTINUOUS
 10
16.66200
 20
49.22400
 30
 0
 11
18.31700
 21
49.22400
  0
LINE
  8
Engraving
 62
   7
 39
0.400
  6
CONTINUOUS
 10
18.31700
 20
49.22400
 30
 0
 11
18.49800
 21
49.24500
  0
LINE
  8
Engraving
 62
   7
 39
0.400
  6
CONTINUOUS
 10
18.49800
 20
49.24500
 30
 0
 11
18.66000
 21
49.34500
  0
LINE
  8
Engraving
 62
   7
 39
0.400
  6
CONTINUOUS
 10
18.66000
 20
49.34500
 30
 0
 11
18.76100
 21
49.48700
  0
LINE
  8
Engraving
 62
   7
 39
0.400
  6
CONTINUOUS
 10
18.76100
 20
49.48700
 30
 0
 11
18.80100
 21
49.66800
  0
LINE
  8
Engraving
 62
   7
 39
0.400
  6
CONTINUOUS
 10
18.80100
 20
49.66800
 30
 0
 11
18.80100
 21
49.85000
  0
LINE
  8
Engraving
 62
   7
 39
0.400
  6
CONTINUOUS
 10
18.80100
 20
49.85000
 30
 0
 11
18.80100
 21
50.07200
  0
LINE
  8
Engraving
 62
   7
 39
0.400
  6
CONTINUOUS
 10
18.80100
 20
50.07200
 30
 0
 11
18.78100
 21
50.29400
  0
LINE
  8
Engraving
 62
   7
 39
0.400
  6
CONTINUOUS
 10
18.78100
 20
50.29400
 30
 0
 11
18.70000
 21
50.51600
  0
LINE
  8
Engraving
 62
   7
 39
0.400
  6
CONTINUOUS
 10
18.70000
 20
50.51600
 30
 0
 11
17.51000
 21
50.51600
  0
LINE
  8
Engraving
 62
   7
 39
0.400
  6
CONTINUOUS
 10
17.51000
 20
50.51600
 30
 0
 11
17.51000
 21
49.85000
  0
LINE
  8
Engraving
 62
   7
 39
0.400
  6
CONTINUOUS
 10
17.59000
 20
51.06100
 30
 0
 11
17.36800
 21
51.06100
  0
LINE
  8
Engraving
 62
   7
 39
0.400
  6
CONTINUOUS
 10
17.36800
 20
51.06100
 30
 0
 11
17.20700
 21
51.10100
  0
LINE
  8
Engraving
 62
   7
 39
0.400
  6
CONTINUOUS
 10
17.20700
 20
51.10100
 30
 0
 11
17.08600
 21
51.18200
  0
LINE
  8
Engraving
 62
   7
 39
0.400
  6
CONTINUOUS
 10
17.08600
 20
51.18200
 30
 0
 11
17.00500
 21
51.30300
  0
LINE
  8
Engraving
 62
   7
 39
0.400
  6
CONTINUOUS
 10
17.00500
 20
51.30300
 30
 0
 11
16.96500
 21
51.48500
  0
LINE
  8
Engraving
 62
   7
 39
0.400
  6
CONTINUOUS
 10
16.96500
 20
51.48500
 30
 0
 11
16.96500
 21
51.64600
  0
LINE
  8
Engraving
 62
   7
 39
0.400
  6
CONTINUOUS
 10
16.96500
 20
51.64600
 30
 0
 11
17.00500
 21
51.82800
  0
LINE
  8
Engraving
 62
   7
 39
0.400
  6
CONTINUOUS
 10
17.00500
 20
51.82800
 30
 0
 11
17.08600
 21
51.92900
  0
LINE
  8
Engraving
 62
   7
 39
0.400
  6
CONTINUOUS
 10
17.08600
 20
51.92900
 30
 0
 11
17.18700
 21
52.00900
  0
LINE
  8
Engraving
 62
   7
 39
0.400
  6
CONTINUOUS
 10
17.18700
 20
52.00900
 30
 0
 11
17.36800
 21
52.05000
  0
LINE
  8
Engraving
 62
   7
 39
0.400
  6
CONTINUOUS
 10
17.36800
 20
52.05000
 30
 0
 11
18.78100
 21
52.05000
  0
LINE
  8
Engraving
 62
   7
 39
0.400
  6
CONTINUOUS
 10
18.78100
 20
52.05000
 30
 0
 11
18.68000
 21
52.05000
  0
LINE
  8
Engraving
 62
   7
 39
0.400
  6
CONTINUOUS
 10
18.68000
 20
52.05000
 30
 0
 11
18.72000
 21
51.92900
  0
LINE
  8
Engraving
 62
   7
 39
0.400
  6
CONTINUOUS
 10
18.72000
 20
51.92900
 30
 0
 11
18.78100
 21
51.74700
  0
LINE
  8
Engraving
 62
   7
 39
0.400
  6
CONTINUOUS
 10
18.78100
 20
51.74700
 30
 0
 11
18.80100
 21
51.58600
  0
LINE
  8
Engraving
 62
   7
 39
0.400
  6
CONTINUOUS
 10
18.80100
 20
51.58600
 30
 0
 11
18.80100
 21
51.44400
  0
LINE
  8
Engraving
 62
   7
 39
0.400
  6
CONTINUOUS
 10
18.80100
 20
51.44400
 30
 0
 11
18.78100
 21
51.32300
  0
LINE
  8
Engraving
 62
   7
 39
0.400
  6
CONTINUOUS
 10
18.78100
 20
51.32300
 30
 0
 11
18.72000
 21
51.20200
  0
LINE
  8
Engraving
 62
   7
 39
0.400
  6
CONTINUOUS
 10
18.72000
 20
51.20200
 30
 0
 11
18.57900
 21
51.08100
  0
LINE
  8
Engraving
 62
   7
 39
0.400
  6
CONTINUOUS
 10
18.57900
 20
51.08100
 30
 0
 11
18.39800
 21
51.04100
  0
LINE
  8
Engraving
 62
   7
 39
0.400
  6
CONTINUOUS
 10
18.39800
 20
51.04100
 30
 0
 11
18.19600
 21
51.04100
  0
LINE
  8
Engraving
 62
   7
 39
0.400
  6
CONTINUOUS
 10
18.19600
 20
51.04100
 30
 0
 11
17.99400
 21
51.08100
  0
LINE
  8
Engraving
 62
   7
 39
0.400
  6
CONTINUOUS
 10
17.99400
 20
51.08100
 30
 0
 11
17.87300
 21
51.16200
  0
LINE
  8
Engraving
 62
   7
 39
0.400
  6
CONTINUOUS
 10
17.87300
 20
51.16200
 30
 0
 11
17.79200
 21
51.28300
  0
LINE
  8
Engraving
 62
   7
 39
0.400
  6
CONTINUOUS
 10
17.79200
 20
51.28300
 30
 0
 11
17.75200
 21
51.44400
  0
LINE
  8
Engraving
 62
   7
 39
0.400
  6
CONTINUOUS
 10
17.75200
 20
51.44400
 30
 0
 11
17.75200
 21
52.05000
  0
LINE
  8
Engraving
 62
   7
 39
0.400
  6
CONTINUOUS
 10
16.68200
 20
52.97800
 30
 0
 11
18.51900
 21
52.97800
  0
LINE
  8
Engraving
 62
   7
 39
0.400
  6
CONTINUOUS
 10
18.51900
 20
52.97800
 30
 0
 11
18.64000
 21
52.99800
  0
LINE
  8
Engraving
 62
   7
 39
0.400
  6
CONTINUOUS
 10
18.64000
 20
52.99800
 30
 0
 11
18.74100
 21
53.03900
  0
LINE
  8
Engraving
 62
   7
 39
0.400
  6
CONTINUOUS
 10
18.74100
 20
53.03900
 30
 0
 11
18.78100
 21
53.11900
  0
LINE
  8
Engraving
 62
   7
 39
0.400
  6
CONTINUOUS
 10
18.78100
 20
53.11900
 30
 0
 11
18.76100
 21
53.38200
  0
LINE
  8
Engraving
 62
   7
 39
0.400
  6
CONTINUOUS
 10
16.96500
 20
52.57400
 30
 0
 11
16.96500
 21
53.36100
  0
LINE
  8
Engraving
 62
   7
 39
0.400
  6
CONTINUOUS
 10
18.17600
 20
54.95600
 30
 0
 11
18.33700
 21
54.95600
  0
LINE
  8
Engraving
 62
   7
 39
0.400
  6
CONTINUOUS
 10
18.33700
 20
54.95600
 30
 0
 11
18.49800
 21
54.93600
  0
LINE
  8
Engraving
 62
   7
 39
0.400
  6
CONTINUOUS
 10
18.49800
 20
54.93600
 30
 0
 11
18.66000
 21
54.83500
  0
LINE
  8
Engraving
 62
   7
 39
0.400
  6
CONTINUOUS
 10
18.66000
 20
54.83500
 30
 0
 11
18.74100
 21
54.73400
  0
LINE
  8
Engraving
 62
   7
 39
0.400
  6
CONTINUOUS
 10
18.74100
 20
54.73400
 30
 0
 11
18.80100
 21
54.53200
  0
LINE
  8
Engraving
 62
   7
 39
0.400
  6
CONTINUOUS
 10
18.80100
 20
54.53200
 30
 0
 11
18.80100
 21
54.35000
  0
LINE
  8
Engraving
 62
   7
 39
0.400
  6
CONTINUOUS
 10
18.80100
 20
54.35000
 30
 0
 11
18.76100
 21
54.16900
  0
LINE
  8
Engraving
 62
   7
 39
0.400
  6
CONTINUOUS
 10
18.76100
 20
54.16900
 30
 0
 11
18.68000
 21
54.04800
  0
LINE
  8
Engraving
 62
   7
 39
0.400
  6
CONTINUOUS
 10
18.68000
 20
54.04800
 30
 0
 11
18.53900
 21
53.92700
  0
LINE
  8
Engraving
 62
   7
 39
0.400
  6
CONTINUOUS
 10
18.53900
 20
53.92700
 30
 0
 11
18.33700
 21
53.88600
  0
LINE
  8
Engraving
 62
   7
 39
0.400
  6
CONTINUOUS
 10
18.33700
 20
53.88600
 30
 0
 11
17.42900
 21
53.88600
  0
LINE
  8
Engraving
 62
   7
 39
0.400
  6
CONTINUOUS
 10
17.42900
 20
53.88600
 30
 0
 11
17.22700
 21
53.92700
  0
LINE
  8
Engraving
 62
   7
 39
0.400
  6
CONTINUOUS
 10
17.22700
 20
53.92700
 30
 0
 11
17.08600
 21
54.02700
  0
LINE
  8
Engraving
 62
   7
 39
0.400
  6
CONTINUOUS
 10
17.08600
 20
54.02700
 30
 0
 11
17.00500
 21
54.12800
  0
LINE
  8
Engraving
 62
   7
 39
0.400
  6
CONTINUOUS
 10
17.00500
 20
54.12800
 30
 0
 11
16.96500
 21
54.35000
  0
LINE
  8
Engraving
 62
   7
 39
0.400
  6
CONTINUOUS
 10
16.96500
 20
54.35000
 30
 0
 11
16.96500
 21
54.47100
  0
LINE
  8
Engraving
 62
   7
 39
0.400
  6
CONTINUOUS
 10
16.96500
 20
54.47100
 30
 0
 11
16.98500
 21
54.63300
  0
LINE
  8
Engraving
 62
   7
 39
0.400
  6
CONTINUOUS
 10
16.98500
 20
54.63300
 30
 0
 11
17.06600
 21
54.77400
  0
LINE
  8
Engraving
 62
   7
 39
0.400
  6
CONTINUOUS
 10
17.06600
 20
54.77400
 30
 0
 11
17.22700
 21
54.89500
  0
LINE
  8
Engraving
 62
   7
 39
0.400
  6
CONTINUOUS
 10
17.22700
 20
54.89500
 30
 0
 11
17.44900
 21
54.93600
  0
LINE
  8
Engraving
 62
   7
 39
0.400
  6
CONTINUOUS
 10
17.44900
 20
54.93600
 30
 0
 11
17.95400
 21
54.93600
  0
LINE
  8
Engraving
 62
   7
 39
0.400
  6
CONTINUOUS
 10
17.95400
 20
54.93600
 30
 0
 11
17.95400
 21
53.88600
  0
LINE
  8
Engraving
 62
   7
 39
0.400
  6
CONTINUOUS
 10
17.48900
 20
35.60800
 30
 0
 11
18.31700
 21
35.60800
  0
LINE
  8
Engraving
 62
   7
 39
0.400
  6
CONTINUOUS
 10
18.31700
 20
35.60800
 30
 0
 11
18.51900
 21
35.64900
  0
LINE
  8
Engraving
 62
   7
 39
0.400
  6
CONTINUOUS
 10
18.51900
 20
35.64900
 30
 0
 11
18.64000
 21
35.72900
  0
LINE
  8
Engraving
 62
   7
 39
0.400
  6
CONTINUOUS
 10
18.64000
 20
35.72900
 30
 0
 11
18.72000
 21
35.83000
  0
LINE
  8
Engraving
 62
   7
 39
0.400
  6
CONTINUOUS
 10
18.72000
 20
35.83000
 30
 0
 11
18.80100
 21
35.97100
  0
LINE
  8
Engraving
 62
   7
 39
0.400
  6
CONTINUOUS
 10
18.80100
 20
35.97100
 30
 0
 11
18.80100
 21
36.09300
  0
LINE
  8
Engraving
 62
   7
 39
0.400
  6
CONTINUOUS
 10
18.80100
 20
36.09300
 30
 0
 11
18.80100
 21
36.41500
  0
LINE
  8
Engraving
 62
   7
 39
0.400
  6
CONTINUOUS
 10
18.80100
 20
36.41500
 30
 0
 11
18.78100
 21
36.59700
  0
LINE
  8
Engraving
 62
   7
 39
0.400
  6
CONTINUOUS
 10
18.78100
 20
36.59700
 30
 0
 11
18.70000
 21
36.73800
  0
LINE
  8
Engraving
 62
   7
 39
0.400
  6
CONTINUOUS
 10
18.70000
 20
36.73800
 30
 0
 11
18.53900
 21
36.85900
  0
LINE
  8
Engraving
 62
   7
 39
0.400
  6
CONTINUOUS
 10
18.53900
 20
36.85900
 30
 0
 11
18.31700
 21
36.92000
  0
LINE
  8
Engraving
 62
   7
 39
0.400
  6
CONTINUOUS
 10
18.31700
 20
36.92000
 30
 0
 11
16.68200
 21
36.92000
  0
LINE
  8
Engraving
 62
   7
 39
0.400
  6
CONTINUOUS
 10
16.68200
 20
36.92000
 30
 0
 11
16.52100
 21
36.88000
  0
LINE
  8
Engraving
 62
   7
 39
0.400
  6
CONTINUOUS
 10
16.52100
 20
36.88000
 30
 0
 11
16.35900
 21
36.79900
  0
LINE
  8
Engraving
 62
   7
 39
0.400
  6
CONTINUOUS
 10
16.35900
 20
36.79900
 30
 0
 11
16.27900
 21
36.69800
  0
LINE
  8
Engraving
 62
   7
 39
0.400
  6
CONTINUOUS
 10
16.27900
 20
36.69800
 30
 0
 11
16.21800
 21
36.59700
  0
LINE
  8
Engraving
 62
   7
 39
0.400
  6
CONTINUOUS
 10
16.21800
 20
36.59700
 30
 0
 11
16.19800
 21
36.41500
  0
LINE
  8
Engraving
 62
   7
 39
0.400
  6
CONTINUOUS
 10
16.19800
 20
36.41500
 30
 0
 11
16.19800
 21
36.09300
  0
LINE
  8
Engraving
 62
   7
 39
0.400
  6
CONTINUOUS
 10
16.19800
 20
36.09300
 30
 0
 11
16.21800
 21
35.93100
  0
LINE
  8
Engraving
 62
   7
 39
0.400
  6
CONTINUOUS
 10
16.21800
 20
35.93100
 30
 0
 11
16.29900
 21
35.79000
  0
LINE
  8
Engraving
 62
   7
 39
0.400
  6
CONTINUOUS
 10
16.29900
 20
35.79000
 30
 0
 11
16.40000
 21
35.68900
  0
LINE
  8
Engraving
 62
   7
 39
0.400
  6
CONTINUOUS
 10
16.40000
 20
35.68900
 30
 0
 11
16.52100
 21
35.62800
  0
LINE
  8
Engraving
 62
   7
 39
0.400
  6
CONTINUOUS
 10
16.52100
 20
35.62800
 30
 0
 11
16.68200
 21
35.60800
  0
LINE
  8
Engraving
 62
   7
 39
0.400
  6
CONTINUOUS
 10
16.68200
 20
35.60800
 30
 0
 11
17.48900
 21
35.60800
  0
LINE
  8
Engraving
 62
   7
 39
0.400
  6
CONTINUOUS
 10
16.21800
 20
37.44500
 30
 0
 11
18.29700
 21
37.44500
  0
LINE
  8
Engraving
 62
   7
 39
0.400
  6
CONTINUOUS
 10
18.29700
 20
37.44500
 30
 0
 11
18.53900
 21
37.50500
  0
LINE
  8
Engraving
 62
   7
 39
0.400
  6
CONTINUOUS
 10
18.53900
 20
37.50500
 30
 0
 11
18.66000
 21
37.58600
  0
LINE
  8
Engraving
 62
   7
 39
0.400
  6
CONTINUOUS
 10
18.66000
 20
37.58600
 30
 0
 11
18.76100
 21
37.74700
  0
LINE
  8
Engraving
 62
   7
 39
0.400
  6
CONTINUOUS
 10
18.76100
 20
37.74700
 30
 0
 11
18.80100
 21
37.94900
  0
LINE
  8
Engraving
 62
   7
 39
0.400
  6
CONTINUOUS
 10
18.80100
 20
37.94900
 30
 0
 11
18.80100
 21
38.21200
  0
LINE
  8
Engraving
 62
   7
 39
0.400
  6
CONTINUOUS
 10
18.80100
 20
38.21200
 30
 0
 11
18.78100
 21
38.37300
  0
LINE
  8
Engraving
 62
   7
 39
0.400
  6
CONTINUOUS
 10
18.78100
 20
38.37300
 30
 0
 11
18.68000
 21
38.55500
  0
LINE
  8
Engraving
 62
   7
 39
0.400
  6
CONTINUOUS
 10
18.68000
 20
38.55500
 30
 0
 11
18.49800
 21
38.69600
  0
LINE
  8
Engraving
 62
   7
 39
0.400
  6
CONTINUOUS
 10
18.49800
 20
38.69600
 30
 0
 11
18.29700
 21
38.73600
  0
LINE
  8
Engraving
 62
   7
 39
0.400
  6
CONTINUOUS
 10
18.29700
 20
38.73600
 30
 0
 11
16.21800
 21
38.73600
  0
LINE
  8
Engraving
 62
   7
 39
0.400
  6
CONTINUOUS
 10
18.78100
 20
39.92700
 30
 0
 11
16.21800
 21
39.92700
  0
LINE
  8
Engraving
 62
   7
 39
0.400
  6
CONTINUOUS
 10
16.21800
 20
39.24100
 30
 0
 11
16.21800
 21
40.63300
  0
LINE
  8
Engraving
 62
   7
 39
0.400
  6
CONTINUOUS
 10
16.21800
 20
22.21300
 30
 0
 11
18.78100
 21
22.21300
  0
LINE
  8
Engraving
 62
   7
 39
0.400
  6
CONTINUOUS
 10
18.78100
 20
22.71800
 30
 0
 11
16.21800
 21
22.71800
  0
LINE
  8
Engraving
 62
   7
 39
0.400
  6
CONTINUOUS
 10
16.21800
 20
22.71800
 30
 0
 11
16.21800
 21
22.90000
  0
LINE
  8
Engraving
 62
   7
 39
0.400
  6
CONTINUOUS
 10
16.21800
 20
22.90000
 30
 0
 11
18.78100
 21
24.11000
  0
LINE
  8
Engraving
 62
   7
 39
0.400
  6
CONTINUOUS
 10
18.78100
 20
24.11000
 30
 0
 11
16.21800
 21
24.11000
  0
LINE
  8
Engraving
 62
   7
 39
0.400
  6
CONTINUOUS
 10
16.21800
 20
24.63500
 30
 0
 11
18.78100
 21
25.36200
  0
LINE
  8
Engraving
 62
   7
 39
0.400
  6
CONTINUOUS
 10
18.78100
 20
25.36200
 30
 0
 11
16.21800
 21
26.08800
  0
LINE
  8
Engraving
 62
   7
 39
0.800
  6
CONTINUOUS
 10
4.05400
 20
112.02100
 30
 0
 11
4.05400
 21
108.84300
  0
LINE
  8
Engraving
 62
   7
 39
0.800
  6
CONTINUOUS
 10
4.05400
 20
108.84300
 30
 0
 11
6.02800
 21
108.84300
  0
LINE
  8
Engraving
 62
   7
 39
0.800
  6
CONTINUOUS
 10
6.02800
 20
108.84300
 30
 0
 11
6.41300
 21
108.93900
  0
LINE
  8
Engraving
 62
   7
 39
0.800
  6
CONTINUOUS
 10
6.41300
 20
108.93900
 30
 0
 11
6.75000
 21
109.13200
  0
LINE
  8
Engraving
 62
   7
 39
0.800
  6
CONTINUOUS
 10
6.75000
 20
109.13200
 30
 0
 11
6.99100
 21
109.42100
  0
LINE
  8
Engraving
 62
   7
 39
0.800
  6
CONTINUOUS
 10
6.99100
 20
109.42100
 30
 0
 11
7.18400
 21
109.85400
  0
LINE
  8
Engraving
 62
   7
 39
0.800
  6
CONTINUOUS
 10
7.18400
 20
109.85400
 30
 0
 11
7.18400
 21
110.14300
  0
LINE
  8
Engraving
 62
   7
 39
0.800
  6
CONTINUOUS
 10
7.18400
 20
110.14300
 30
 0
 11
7.18400
 21
113.80200
  0
LINE
  8
Engraving
 62
   7
 39
0.800
  6
CONTINUOUS
 10
7.18400
 20
113.80200
 30
 0
 11
7.13500
 21
114.09100
  0
LINE
  8
Engraving
 62
   7
 39
0.800
  6
CONTINUOUS
 10
7.13500
 20
114.09100
 30
 0
 11
6.99100
 21
114.42800
  0
LINE
  8
Engraving
 62
   7
 39
0.800
  6
CONTINUOUS
 10
6.99100
 20
114.42800
 30
 0
 11
6.75000
 21
114.66900
  0
LINE
  8
Engraving
 62
   7
 39
0.800
  6
CONTINUOUS
 10
6.75000
 20
114.66900
 30
 0
 11
6.41300
 21
114.91000
  0
LINE
  8
Engraving
 62
   7
 39
0.800
  6
CONTINUOUS
 10
6.41300
 20
114.91000
 30
 0
 11
6.02800
 21
114.95800
  0
LINE
  8
Engraving
 62
   7
 39
0.800
  6
CONTINUOUS
 10
6.02800
 20
114.95800
 30
 0
 11
4.05400
 21
114.95800
  0
LINE
  8
Engraving
 62
   7
 39
0.800
  6
CONTINUOUS
 10
4.05400
 20
114.95800
 30
 0
 11
4.05400
 21
112.02100
  0
LINE
  8
Engraving
 62
   7
 39
0.800
  6
CONTINUOUS
 10
8.43500
 20
114.95800
 30
 0
 11
10.16900
 21
108.84300
  0
LINE
  8
Engraving
 62
   7
 39
0.800
  6
CONTINUOUS
 10
10.16900
 20
108.84300
 30
 0
 11
11.90200
 21
114.95800
  0
ARC
  8
Engraving
 62
   7
 39
0.800
  6
CONTINUOUS
 10
14.54300
 20
113.64100
 30
 0
 40
1.40400
 50
103.59095
 51
-162.76526
  0
ARC
  8
Engraving
 62
   7
 39
0.800
  6
CONTINUOUS
 10
14.58900
 20
113.74200
 30
 0
 40
1.31900
 50
366.83415
 51
106.56608
  0
ARC
  8
Engraving
 62
   7
 39
0.800
  6
CONTINUOUS
 10
12.98200
 20
113.46700
 30
 0
 40
2.94900
 50
327.34999
 51
8.42412
  0
ARC
  8
Engraving
 62
   7
 39
0.800
  6
CONTINUOUS
 10
9.43200
 20
115.50200
 30
 0
 40
7.03900
 50
312.78347
 51
-31.00703
  0
LINE
  8
Engraving
 62
   7
 39
0.800
  6
CONTINUOUS
 10
14.21300
 20
110.33600
 30
 0
 11
13.10600
 21
109.18000
  0
LINE
  8
Engraving
 62
   7
 39
0.800
  6
CONTINUOUS
 10
13.10600
 20
109.18000
 30
 0
 11
13.10600
 21
108.84300
  0
LINE
  8
Engraving
 62
   7
 39
0.800
  6
CONTINUOUS
 10
13.10600
 20
108.84300
 30
 0
 11
15.94700
 21
108.84300
  0
LINE
  8
Engraving
 62
   7
 39
0.800
  6
CONTINUOUS
 10
15.94700
 20
108.84300
 30
 0
 11
13.10600
 21
108.84300
  0
CIRCLE
  8
Contour
 62
   7
 39
0.100
  6
CONTINUOUS
 10
7.50000
 20
125.50000
 30
 0
 40
1.50000
  0
CIRCLE
  8
Contour
 62
   7
 39
0.100
  6
CONTINUOUS
 10
7.50000
 20
3.00000
 30
 0
 40
1.50000
  0
CIRCLE
  8
Contour
 62
   7
 39
0.100
  6
CONTINUOUS
 10
10.00000
 20
82.57000
 30
 0
 40
3.75000
  0
CIRCLE
  8
Contour
 62
   7
 39
0.100
  6
CONTINUOUS
 10
10.00000
 20
67.33500
 30
 0
 40
3.75000
  0
CIRCLE
  8
Contour
 62
   7
 39
0.100
  6
CONTINUOUS
 10
10.00000
 20
52.09500
 30
 0
 40
3.00000
  0
CIRCLE
  8
Contour
 62
   7
 39
0.100
  6
CONTINUOUS
 10
10.00000
 20
38.12500
 30
 0
 40
3.00000
  0
CIRCLE
  8
Contour
 62
   7
 39
0.100
  6
CONTINUOUS
 10
10.00000
 20
24.15000
 30
 0
 40
3.00000
  0
ENDSEC
  0
EOF
